<svg xmlns="http://www.w3.org/2000/svg" viewBox="0 0 98.05 93.23"><defs><style>.cls-1{fill:#fff;}</style></defs><g id="レイヤー_2" data-name="レイヤー 2"><g id="レイヤー_1-2" data-name="レイヤー 1"><path class="cls-1" d="M60.45,26.23,57.73,33l2-.24A64.12,64.12,0,0,0,76,28.06a16,16,0,0,0,7.26-5.15,13.46,13.46,0,0,0,2.94-8.37,13.16,13.16,0,0,0-1.31-5.76A15.09,15.09,0,0,0,79,2.42,17.38,17.38,0,0,0,70.06,0,17.1,17.1,0,0,0,58.73,4.16a14.56,14.56,0,0,0-3.52,4.62A13.33,13.33,0,0,0,56,21.71,15.25,15.25,0,0,0,60.45,26.23ZM57.2,10a12.67,12.67,0,0,1,5-5.33,15.4,15.4,0,0,1,7.88-2.12A15,15,0,0,1,80,6.14,12,12,0,0,1,82.92,10a10.67,10.67,0,0,1,1,4.57,10.83,10.83,0,0,1-2.39,6.71,13.8,13.8,0,0,1-6.31,4.43H75.2A64.25,64.25,0,0,1,61.43,30l1.94-4.84-.95-.55a13.05,13.05,0,0,1-4.59-4.31,10.76,10.76,0,0,1-1.68-5.72A10.52,10.52,0,0,1,57.2,10Z"/><path class="cls-1" d="M63.68,16.86a1.87,1.87,0,0,0,1.76-2,1.77,1.77,0,1,0-3.51,0A1.87,1.87,0,0,0,63.68,16.86Z"/><path class="cls-1" d="M70.46,16.86a1.87,1.87,0,0,0,1.75-2,1.77,1.77,0,1,0-3.51,0A1.86,1.86,0,0,0,70.46,16.86Z"/><path class="cls-1" d="M77.22,16.86a1.87,1.87,0,0,0,1.76-2,1.77,1.77,0,1,0-3.51,0A1.86,1.86,0,0,0,77.22,16.86Z"/><path class="cls-1" d="M97.87,90.29,82.28,54.06a2.1,2.1,0,0,0-1.94-1.27H17.71a2.1,2.1,0,0,0-1.94,1.27L.17,90.29a2.11,2.11,0,0,0,1.94,2.94H31.5C34,89,38.33,85.91,44.4,84.92a14,14,0,0,0,8.88,0c6.07,1,10.4,4.07,12.9,8.31H95.94a2.11,2.11,0,0,0,1.76-1A2.08,2.08,0,0,0,97.87,90.29ZM59.74,71.52a10.9,10.9,0,1,1-21.79,0V68.43a10.9,10.9,0,0,1,21.79,0Z"/><path class="cls-1" d="M60.65,48.21a10.22,10.22,0,0,0-9-10.62,8.2,8.2,0,0,1-5.18,0,10.23,10.23,0,0,0-9,10.62H60.65Z"/><path class="cls-1" d="M49,36.13a6.37,6.37,0,0,0,6.37-6.37V28a6.37,6.37,0,1,0-12.73,0v1.8A6.37,6.37,0,0,0,49,36.13Z"/></g></g></svg>