<?xml version="1.0" encoding="utf-8"?>
<!-- Generator: Adobe Illustrator 24.1.1, SVG Export Plug-In . SVG Version: 6.00 Build 0)  -->
<svg version="1.1" id="レイヤー_1" focusable="false"
	 xmlns="http://www.w3.org/2000/svg" xmlns:xlink="http://www.w3.org/1999/xlink" x="0px" y="0px" viewBox="0 0 512 512"
	 style="enable-background:new 0 0 512 512;" xml:space="preserve">
<style type="text/css">
	.st0{fill:#FFFFFF;}
</style>
<path class="st0" d="M406,215.6c-25.2-3-43-21.2-59.1-39.6c-11.3-12.6-21.7-25.3-30.8-39.9C301.6,112.7,290,80,281.2,80
	c-23.4,0-44,8.8-44,35.2c0,35.2,26.4,53.1,26.4,70.4H40.2C21.8,185.6,5,202.1,5,220.8c0,19,16.2,35.2,35.2,35.2h156
	c-12.8,14.7-14.4,42.8,4.9,61c-11.2,19.6-1.7,45.6,12.9,53.6c-6.5,39.1,10.1,61.3,50.6,61.3H286c45.5,0,77.2-35.9,120-39.7v-0.4h102
	V215.6H406z"/>
</svg>
