<svg xmlns="http://www.w3.org/2000/svg" viewBox="0 0 94.2 88.33"><defs><style>.cls-1{fill:#fff;}</style></defs><g id="レイヤー_2" data-name="レイヤー 2"><g id="レイヤー_1-2" data-name="レイヤー 1"><path class="cls-1" d="M8.7,74.86a11,11,0,0,1-3.24-7.81V55.68H0V67.05A16.53,16.53,0,0,0,16.51,83.57H24V78.11H16.51A11,11,0,0,1,8.7,74.86Z"/><path class="cls-1" d="M15.81,40.47a7.2,7.2,0,1,0-7.2-7.2A7.2,7.2,0,0,0,15.81,40.47Z"/><path class="cls-1" d="M33,65H22.86V50a7,7,0,0,0-14.1,0V67.11a7.05,7.05,0,0,0,7.05,7l12.88,0,.68,10.43a3.87,3.87,0,1,0,7.73-.17l.42-14.81A4.56,4.56,0,0,0,33,65Z"/><path class="cls-1" d="M88.74,55.68V67.05A11.08,11.08,0,0,1,77.68,78.11H70.23v5.46h7.45A16.54,16.54,0,0,0,94.2,67.05V55.68Z"/><path class="cls-1" d="M78.39,40.47a7.2,7.2,0,1,0-7.2-7.2A7.2,7.2,0,0,0,78.39,40.47Z"/><path class="cls-1" d="M85.44,67.11V50a7,7,0,1,0-14.1,0V65H61.23a4.56,4.56,0,0,0-4.55,4.56l.41,14.81a3.87,3.87,0,0,0,7.74.17l.67-10.43,12.89,0A7.05,7.05,0,0,0,85.44,67.11Z"/><rect class="cls-1" x="28.27" y="55.75" width="39.07" height="6.65"/><rect class="cls-1" x="44.9" y="65.97" width="4.55" height="16.1"/><path class="cls-1" d="M66.16,26.4a6.45,6.45,0,0,1-1.23,3.73A9.37,9.37,0,0,1,61.53,33l-1,.54,1.35,3A54.07,54.07,0,0,1,52,33.76h0l0,0a9.58,9.58,0,0,1-5.64-4.29l-2.18,1.19a12.06,12.06,0,0,0,7,5.44h0a53.34,53.34,0,0,0,12.68,3.28l2.15.24-2.22-5a11.34,11.34,0,0,0,3.27-3,8.91,8.91,0,0,0,1.68-5.16,9.21,9.21,0,0,0-2.53-6.22,13,13,0,0,0-6.21-3.64l-.65,2.39a10.63,10.63,0,0,1,5,2.93A6.66,6.66,0,0,1,66.16,26.4Z"/><path class="cls-1" d="M29.75,25.84l-3,6.67,2.15-.24a75.31,75.31,0,0,0,18-4.64,17.67,17.67,0,0,0,8-5.06,12.52,12.52,0,0,0,3.23-8.25,12,12,0,0,0-1.44-5.67,15.59,15.59,0,0,0-6.51-6.27A20.85,20.85,0,0,0,40.32,0,20.1,20.1,0,0,0,27.86,4.1,14.59,14.59,0,0,0,24,8.65a12,12,0,0,0-1.44,5.67,12.15,12.15,0,0,0,2.3,7.06A15.83,15.83,0,0,0,29.75,25.84Zm-3.57-16a13.11,13.11,0,0,1,5.49-5.25,18.4,18.4,0,0,1,8.65-2.09A17.69,17.69,0,0,1,51.25,6a12.2,12.2,0,0,1,3.22,3.78,9.44,9.44,0,0,1,1.15,4.5A10,10,0,0,1,53,20.93a15.13,15.13,0,0,1-6.94,4.36l0,0h0a76.63,76.63,0,0,1-15.15,4.19L33,24.74l-1-.54a13.68,13.68,0,0,1-5-4.25A9.7,9.7,0,0,1,25,14.32,9.44,9.44,0,0,1,26.18,9.82Z"/></g></g></svg>