<svg xmlns="http://www.w3.org/2000/svg" viewBox="0 0 30.14 32.79"><defs><style>.cls-1{fill:#db444a;}</style></defs><g id="レイヤー_2" data-name="レイヤー 2"><g id="レイヤー_1-2" data-name="レイヤー 1"><path class="cls-1" d="M29.8,20.77l-2.93-.23-5.24-6.2A5.91,5.91,0,0,0,20.26,13a10,10,0,0,0-1.66-1c1.61-1.75,1.64-3.32-1-2.84C22.36,7.82,26.17,3.92,24.36,1S17.17,1.61,14,7.65c-.36.68-1.1,2-2.07,3.71H9.72a6.28,6.28,0,0,0-2.2.43A4.33,4.33,0,0,0,5.87,13L2.69,15.78l0,0a4.16,4.16,0,0,0-1.25,1.88,6.31,6.31,0,0,0-.29,1.51l0,.14L.3,24.89a4.18,4.18,0,0,0-.13,1,2.69,2.69,0,0,0,.69,1.88,2.46,2.46,0,0,0,.73.55,1.46,1.46,0,0,0,.44.16L0,31.93c-.18.68.54,1.36,1.27.34C1.6,31.85,2.72,30.08,4,28a3.9,3.9,0,0,0,.69-.63A3.89,3.89,0,0,0,5,27a2.68,2.68,0,0,0,1.45.52,3.14,3.14,0,0,0,.34.4,2.72,2.72,0,0,0,1.63.72,1,1,0,0,0,.17.18,3.11,3.11,0,0,0,2.29.84,6.36,6.36,0,0,0,1.47-.2,7.42,7.42,0,0,0,1.18.63,15.31,15.31,0,0,0,3.62.93h0a22.26,22.26,0,0,0,3.31.21c2,0,3.88-.17,4.18-.2l5.06.49h0a.38.38,0,0,0,.25-.09.35.35,0,0,0,.12-.25V21.1A.35.35,0,0,0,29.8,20.77ZM5,26.6H4.89a.61.61,0,0,1,.07-.1l0,0,.07.05ZM4.71,21a1.87,1.87,0,0,0,.2,2.29h0l.07.07H5L2.64,27.46a1.05,1.05,0,0,1-.26.05h0a.4.4,0,0,1-.23-.07H2.07l0,0A1.33,1.33,0,0,1,1.59,27a1.82,1.82,0,0,1-.33-1.1,3.26,3.26,0,0,1,.11-.82v0l.82-5.62h0A7.26,7.26,0,0,1,2.46,18a3.15,3.15,0,0,1,1-1.46h0l3.2-2.84,0,0A3.33,3.33,0,0,1,8,12.72a5.44,5.44,0,0,1,1.8-.34h1.6c-1.14,2-2.52,4.37-3.91,6.78L7.18,19l-.88-.39-.45-.22L5.52,19l.75.34.23.11h0a2.09,2.09,0,0,0-1.38.91Zm1.93,5.53a1.6,1.6,0,0,1-1.13-.44,1.29,1.29,0,0,1-.16-.18l1-1.51,2.12,1.53A3.58,3.58,0,0,1,6.64,26.52Zm.93.69a1.36,1.36,0,0,1-.12-.12A5.73,5.73,0,0,0,9,26.36l1.17.85a3.24,3.24,0,0,1-1.5.44A1.56,1.56,0,0,1,7.57,27.21Zm3.31,1.44a2.11,2.11,0,0,1-1.4-.42,5.17,5.17,0,0,0,1.34-.58l.17.12a8.09,8.09,0,0,0,.75.79A4.75,4.75,0,0,1,10.88,28.65Zm18.17,1.78L24.68,30h0l-.34,0c-.65.06-2.18.17-3.8.17a21,21,0,0,1-3.15-.2l-.17,0,.17,0A13.46,13.46,0,0,1,14,29.17a5.93,5.93,0,0,1-1.25-.71l-.06-.15-.1,0a6.64,6.64,0,0,1-1-1l0,0L6.71,23.82l-1-.68-.23-.23-.07-.07A1.29,1.29,0,0,1,5.13,22a1.24,1.24,0,0,1,.2-.66l.37-.58a1.38,1.38,0,0,1,.91-.6h0a1.09,1.09,0,0,1,.26,0H7l.22,0h0a1.58,1.58,0,0,1,.44.2h0l.89.44,4,2,2.07-.1,0-.68-1.87.09L9,20.24l.14-.19c1.81-.85,9.62-6.29,3.63-4.59a13.56,13.56,0,0,0,5-2.67l.13.05h0a7.94,7.94,0,0,1,1.66.93,4.78,4.78,0,0,1,1.15,1.14v0l5.56,6.58,2.74.21v8.7Z"/></g></g></svg>