<svg xmlns="http://www.w3.org/2000/svg" viewBox="0 0 103.58 57.93"><defs><style>.cls-1{fill:#fff;}</style></defs><g id="レイヤー_2" data-name="レイヤー 2"><g id="レイヤー_1-2" data-name="レイヤー 1"><path class="cls-1" d="M103.27,41.08a4.6,4.6,0,0,0-1.15-1.74,20.71,20.71,0,0,0-2.23-1.76c-1.33-.94-2.92-1.94-4.34-2.78-.71-.41-1.37-.78-2-1.08A10.91,10.91,0,0,0,92.09,33a3.83,3.83,0,0,0-1.15-.18,5,5,0,0,0-3,1.13,6.08,6.08,0,0,0-2,2.64c0,.14-.1.25-.14.34-1.24-.8-4.27-3-8.73-8.34a52.88,52.88,0,0,1-5.83-8.17c-.45-.82-.73-1.43-.91-1.85l.35-.09a6.13,6.13,0,0,0,3.16-1.69,5.26,5.26,0,0,0,1-1.44,4.11,4.11,0,0,0,.43-1.79,3.12,3.12,0,0,0,0-.52,10.08,10.08,0,0,0-.23-1A53.86,53.86,0,0,0,73.17,7C72.77,6,72.36,5.1,72,4.27a18.35,18.35,0,0,0-1.18-2.14A4.67,4.67,0,0,0,68.67.42,6,6,0,0,0,66.39,0a7.9,7.9,0,0,0-1.78.21c-.25.07-.49.14-.71.22a3.87,3.87,0,0,0-.62.29h0L63.22.63l0,.11L62.78,1a17.2,17.2,0,0,0-4.37,3.72,12.94,12.94,0,0,0-3,8.34,14.43,14.43,0,0,0,.21,2.4A46.54,46.54,0,0,0,66.2,37.79,46.56,46.56,0,0,0,86.4,52.06a13.7,13.7,0,0,0,4.55.8,13.54,13.54,0,0,0,8-2.78,17.79,17.79,0,0,0,2.25-2c.28-.29.5-.54.67-.74l.32-.38a4.44,4.44,0,0,0,.49-.73,7.35,7.35,0,0,0,.85-3.33A5.44,5.44,0,0,0,103.27,41.08Zm-44.82-28A9.61,9.61,0,0,1,59.34,9,11.64,11.64,0,0,1,62.5,5,14.58,14.58,0,0,1,64,3.89l.52-.32.34-.19a2.74,2.74,0,0,1,.54-.18,5,5,0,0,1,1-.11,3,3,0,0,1,1.1.19,1.53,1.53,0,0,1,.71.58A18.48,18.48,0,0,1,69.33,6c.65,1.36,1.35,3,1.9,4.5.27.73.51,1.41.68,2a7.4,7.4,0,0,1,.3,1.1v.08a1.07,1.07,0,0,1-.12.45,2.61,2.61,0,0,1-.78.89,3,3,0,0,1-1.2.55,5.11,5.11,0,0,0-1.43.46,3.08,3.08,0,0,0-1.33,1.23A2.41,2.41,0,0,0,67,18.33v.18l0,.26c.07.25,1.25,4.3,7.61,11.85s10.16,9.4,10.4,9.51l.26.1a2.45,2.45,0,0,0,.52.06,2.63,2.63,0,0,0,1.62-.58,4.48,4.48,0,0,0,1.34-2,2.91,2.91,0,0,1,1-1.29A1.9,1.9,0,0,1,90.94,36l.19,0,.58.25a48.44,48.44,0,0,1,4.38,2.53c.83.52,1.63,1.06,2.32,1.56A15.93,15.93,0,0,1,100,41.58a1.55,1.55,0,0,1,.37.57,2.15,2.15,0,0,1,.12.75,4,4,0,0,1-.26,1.36,3.69,3.69,0,0,1-.22.51l-.09.15v0l-.33.39a14.15,14.15,0,0,1-3,2.68A10.23,10.23,0,0,1,91,49.77a10.81,10.81,0,0,1-3.53-.63A43.48,43.48,0,0,1,68.57,35.8,43.36,43.36,0,0,1,58.62,15,10.61,10.61,0,0,1,58.45,13.07Z"/><path class="cls-1" d="M58.67,18.33A8.25,8.25,0,0,0,57,14.76a6.53,6.53,0,0,0-.56-.61,8.1,8.1,0,0,0-5.77-2.39H8.16a8.11,8.11,0,0,0-5.77,2.39,5.32,5.32,0,0,0-.55.61A8,8,0,0,0,.16,18.33,7.59,7.59,0,0,0,0,19.92V49.77A8,8,0,0,0,.68,53a7.92,7.92,0,0,0,1.71,2.52,6.89,6.89,0,0,0,.56.52,8.16,8.16,0,0,0,5.21,1.88h42.5A8.08,8.08,0,0,0,55.87,56a5.37,5.37,0,0,0,.56-.51A8.12,8.12,0,0,0,58.15,53h0a8,8,0,0,0,.67-3.23V19.92A8.32,8.32,0,0,0,58.67,18.33ZM5.34,17.1a3.94,3.94,0,0,1,2.82-1.17h42.5a3.93,3.93,0,0,1,2.82,1.17,3.62,3.62,0,0,1,.36.42L31.56,36.93a3.24,3.24,0,0,1-2.15.81,3.28,3.28,0,0,1-2.15-.81L5,17.51A2.71,2.71,0,0,1,5.34,17.1ZM4.17,49.77V21.83L20.3,35.89l-16.12,14A.91.91,0,0,1,4.17,49.77Zm46.49,4H8.16a3.94,3.94,0,0,1-2-.52l17-14.82,1.58,1.38a7.07,7.07,0,0,0,9.29,0l1.58-1.38,17,14.82A4,4,0,0,1,50.66,53.75Zm4-4a.91.91,0,0,1,0,.17l-16.11-14L54.65,21.84Z"/></g></g></svg>