<svg xmlns="http://www.w3.org/2000/svg" viewBox="0 0 98.59 85.9"><defs><style>.cls-1{fill:#fff;}</style></defs><g id="レイヤー_2" data-name="レイヤー 2"><g id="レイヤー_1-2" data-name="レイヤー 1"><path class="cls-1" d="M15.68,16.18A8.09,8.09,0,1,0,7.59,8.09,8.09,8.09,0,0,0,15.68,16.18Z"/><path class="cls-1" d="M43.17,40.84a3.91,3.91,0,0,0-.05-.48L55.2,31.59a1.7,1.7,0,0,0-2-2.76L41.09,37.62a3.44,3.44,0,0,0-1.47-.33H33l-1.6-9.09C30.56,23.61,28.72,20,24.8,20H8.18C4.26,20,0,24.28,0,28.2V55.39a3.55,3.55,0,0,0,3.55,3.55H6L7.37,82.13a3.78,3.78,0,0,0,3.78,3.77h7.56a3.77,3.77,0,0,0,3.77-3.77l1.77-45.94h.09l1,4.49a4.39,4.39,0,0,0,4.33,3.71h9.93A3.55,3.55,0,0,0,43.17,40.84Zm-30.07-5V22.87h4.64V35.8l-2.46,2.91Z"/><polygon class="cls-1" points="36.65 2.8 36.65 32.34 41.3 32.34 41.3 7.44 93.95 7.44 93.95 51.83 41.3 51.83 41.3 46.25 36.65 46.25 36.65 56.48 98.59 56.48 98.59 2.8 36.65 2.8"/><path class="cls-1" d="M60,68.48A6.55,6.55,0,1,0,53.49,75,6.55,6.55,0,0,0,60,68.48Z"/><path class="cls-1" d="M53.49,78.55A10.85,10.85,0,0,0,43.33,85.9H63.65A10.85,10.85,0,0,0,53.49,78.55Z"/><path class="cls-1" d="M88.3,68.48A6.55,6.55,0,1,0,81.75,75,6.55,6.55,0,0,0,88.3,68.48Z"/><path class="cls-1" d="M81.75,78.55A10.85,10.85,0,0,0,71.59,85.9H91.91A10.85,10.85,0,0,0,81.75,78.55Z"/></g></g></svg>