<svg xmlns="http://www.w3.org/2000/svg" viewBox="0 0 27.25 27.41"><defs><style>.cls-1{fill:#d37b7f;}.cls-2{fill:#e1b0ad;}.cls-3{fill:#d98686;}</style></defs><g id="レイヤー_2" data-name="レイヤー 2"><g id="レイヤー_1-2" data-name="レイヤー 1"><path class="cls-1" d="M7.29,19.47A8.31,8.31,0,0,1,0,11.09,8.28,8.28,0,0,1,7,2.83C2.77,8.43,2.86,14,7.29,19.47Z"/><path class="cls-1" d="M21.41,12.85A8.45,8.45,0,0,1,11.8,26.51Q22,23.45,21.41,12.85Z"/><path class="cls-2" d="M21.86,4.5C15.16,2.25,9.9,4,6.11,10A8.43,8.43,0,0,1,21.86,4.5Z"/><path class="cls-3" d="M24.85,19.14q.2-10.56-10-13.3a8.41,8.41,0,0,1,10.77,2.4C28.3,11.89,27.44,16.84,24.85,19.14Z"/><path class="cls-3" d="M16.75,21.31a7.6,7.6,0,0,1-4.16,4,8.23,8.23,0,0,1-9.3-1.65A8.27,8.27,0,0,1,.72,16.56a1.53,1.53,0,0,1,.09-.24c.41.57.78,1.13,1.19,1.65a11.86,11.86,0,0,0,8.34,4.42,11.85,11.85,0,0,0,5.82-.94c.18-.07.37-.11.56-.17Z"/><path class="cls-2" d="M21.91,4.54v0s0,0,0,0l0,0Z"/><path class="cls-3" d="M16.72,21.28l.07,0a.43.43,0,0,1,0,.07Z"/></g></g></svg>