<svg xmlns="http://www.w3.org/2000/svg" viewBox="0 0 922.43 697.24"><defs><style>.cls-1{fill:#7e6c6c;}.cls-2{fill:#fff;}.cls-3{fill:#db444a;}.cls-4{fill:#fefefe;}.cls-5{fill:#fcfcfc;}.cls-6{fill:#fdfdfd;}.cls-7{fill:#fceded;}.cls-8{fill:#e57a7e;}</style></defs><g id="レイヤー_2" data-name="レイヤー 2"><g id="レイヤー_1-2" data-name="レイヤー 1"><rect class="cls-1" x="204.35" y="596.02" width="476.97" height="101.22"/><path class="cls-2" d="M325.81,638.84a57.82,57.82,0,0,1-7,.47q-5.21,0-7.17-1a3.28,3.28,0,0,1-2-3.06q0-2.55,2.71-4.6l1.95,1.46c-1.24,1.17-1.86,2.14-1.86,2.9a1.51,1.51,0,0,0,.12.61,1.24,1.24,0,0,0,.57.54,5,5,0,0,0,1.66.45,22.86,22.86,0,0,0,3.06.18h.71a46.59,46.59,0,0,0,6.8-.52Zm-.73-12.4a8.72,8.72,0,0,0-1.41.37,12.86,12.86,0,0,0-1.28.48l-3.7,1.79-1.21-1.72,2.28-1.06q-2.91,0-8.71.24l-.08-2.42c1.85-.07,5.39-.1,10.6-.1h2.6Z"/><path class="cls-2" d="M332.21,634.14q-1.53,2.22-2.61,3.54l-1.53-2.16a51.1,51.1,0,0,0,3.74-5c.08-.17.21-.44.4-.81v-2.19H328.8v-2.22h3.41v-3.16H335v5.48c2.42-2.34,4.49-3.5,6.22-3.5a3.68,3.68,0,0,1,2.6.93,3.23,3.23,0,0,1,1,2.47c0,.58-.12,2-.36,4.33-.19,1.87-.32,3.23-.37,4.09v.2c0,.44.15.66.46.66a7.08,7.08,0,0,0,2.53-1l.64,2.26a6.44,6.44,0,0,1-3.59,1.29,2.78,2.78,0,0,1-2.12-.79,3,3,0,0,1-.75-2.16c0-.24.14-1.77.43-4.58q.24-2.42.27-4.08v-.15c0-.65-.34-1-1-1a5,5,0,0,0-2.33,1,20.65,20.65,0,0,0-3.61,3.15v8.91h-2.78Z"/><path class="cls-2" d="M355.54,624.58c0,.41,0,.9-.05,1.48h2.71a3.56,3.56,0,0,1,2.71,1.1,4,4,0,0,1,1,2.82,20.2,20.2,0,0,1-1,7,3.52,3.52,0,0,1-3.42,2.66,9,9,0,0,1-4-1.45l.9-2.36a9.64,9.64,0,0,0,1.65.71,5.29,5.29,0,0,0,1.15.31.91.91,0,0,0,.66-.29,3.61,3.61,0,0,0,.58-1.18,11.64,11.64,0,0,0,.46-2,20.42,20.42,0,0,0,.15-2.63,5.43,5.43,0,0,0-.13-1.4,1.08,1.08,0,0,0-.42-.6,1.35,1.35,0,0,0-.75-.2H355.3a20.33,20.33,0,0,1-5.16,11.44L348,638.36a20.05,20.05,0,0,0,2.52-3.85,18.93,18.93,0,0,0,1.78-6h-3.55v-2.44h3.9V622.3h2.87Zm12.2,8.14-2.82.72a29.23,29.23,0,0,0-1.37-4,20.73,20.73,0,0,0-1.39-2.51,14.56,14.56,0,0,0-1.41-1.92l2.24-1.4a20.51,20.51,0,0,1,3,4.37A17.63,17.63,0,0,1,367.74,632.72Z"/><path class="cls-2" d="M373.21,639.78l-.4-2.48a28.93,28.93,0,0,0,7.78-.79c1.78-.52,2.67-1.38,2.67-2.57a2.34,2.34,0,0,0-.95-2,4.35,4.35,0,0,0-2.61-.69,10.39,10.39,0,0,0-4.39,1,9.69,9.69,0,0,0-3.53,2.66l-2.14-1.26a23.22,23.22,0,0,0,1.66-8.28l2.89.16a21.39,21.39,0,0,1-.86,5.16,11.29,11.29,0,0,1,3-1.26,12.69,12.69,0,0,1,3.32-.5,7.86,7.86,0,0,1,4.79,1.29,4.35,4.35,0,0,1,1.73,3.73,4.51,4.51,0,0,1-1.12,3.1A7.19,7.19,0,0,1,381.6,639,39.83,39.83,0,0,1,373.21,639.78Zm11.6-15.28L383.53,627a25.86,25.86,0,0,0-5.18-1.46q-3.15-.59-5.26-.78l.76-2.34A56,56,0,0,1,384.81,624.5Z"/><path class="cls-2" d="M397.39,639.54l-.73-2.45a12.8,12.8,0,0,0,5.85-1.78,4.61,4.61,0,0,0,2-4.06,4.77,4.77,0,0,0-1.41-3.61,6.28,6.28,0,0,0-3.91-1.6,20.14,20.14,0,0,1-2,8.86c-1.23,2.26-2.78,3.4-4.65,3.4a3.42,3.42,0,0,1-2.95-1.72,7,7,0,0,1-1.12-3.92v-.24a8,8,0,0,1,2.72-6,10.31,10.31,0,0,1,6.89-2.8h.4a10.28,10.28,0,0,1,6.52,2,6.58,6.58,0,0,1,2.55,5.46,7.3,7.3,0,0,1-2.57,5.92Q402.31,639.15,397.39,639.54Zm-1-13.22a7,7,0,0,0-3.75,2.31,5.87,5.87,0,0,0-1.54,3.94,5.42,5.42,0,0,0,.38,2c.26.63.61.94,1.07.94.92,0,1.76-.89,2.51-2.67A19.83,19.83,0,0,0,396.4,626.32Z"/><path class="cls-2" d="M428,628.31l-1.43,2.23a20.67,20.67,0,0,1-4.49-2.49,22.76,22.76,0,0,1-4.11-3.61,18.91,18.91,0,0,1-4,3.59,21.89,21.89,0,0,1-4.67,2.61L408,628.56a19.6,19.6,0,0,0,4.78-2.75,14.18,14.18,0,0,0,3.73-3.76h2.51a19,19,0,0,0,3.5,3.23A23.56,23.56,0,0,0,428,628.31Zm-16.23,8.55v-7.27h2.81v7.27h2.69v-10.2h2.85v3.56h5.15v2.36h-5.15v4.28h6.83v2.4H409v-2.4Z"/><path class="cls-2" d="M436.63,636.41a22.86,22.86,0,0,1-7.65,3l-.71-2a25,25,0,0,0,6-2.17h-5.37v-1.86h7.71v-.92H430v-1.73h6.68v-.92h-7V628h3.66l-.44-1.12h-3.68V625h2.21l-1-2.26,2.34-.58L434,625h.89v-3.1h2.37V625h1.49v-3.1h2.34V625h1l1.24-2.86,2.45.58L444.59,625H447v1.88h-3.8l-.67,1.12h4v1.87h-7.23v.92H446v1.73h-6.74v.92h7.8v1.86h-5.34a26.23,26.23,0,0,0,6,2l-1,2.18a21.14,21.14,0,0,1-7.46-3.21v3.49h-2.65Zm-1.23-9.51.45,1.12h4.09l.59-1.12Z"/><path class="cls-2" d="M453.84,623.12a29.08,29.08,0,0,0-1.24,7.55,29.9,29.9,0,0,0,1.1,8.15l-2.71.62a32,32,0,0,1-1.06-8,35.67,35.67,0,0,1,1.16-8.72Zm12.66,15.6c-1.6.15-3,.22-4.11.22-2.86,0-4.82-.33-5.86-1a3.15,3.15,0,0,1-1.57-2.83,6.06,6.06,0,0,1,2-4.18l2.16,1.15a4.14,4.14,0,0,0-1.58,2.94,1.23,1.23,0,0,0,.83,1.1,9.11,9.11,0,0,0,3.41.41c.87,0,2.41-.1,4.61-.29Zm-.22-12.24h-.82c-.86,0-2.28,0-4.26,0s-3.91.13-5.77.26V624.4c4.41-.22,7.47-.32,9.17-.32q1,0,1.68.06Z"/><path class="cls-2" d="M312.34,660.16a22.28,22.28,0,0,1-.71,4,15.09,15.09,0,0,1-1.25,3.44l-2.51-.87a23.27,23.27,0,0,0,1.83-6.86ZM325,656.05a22.52,22.52,0,0,1-1.69,2.86c-.59.82-1.48,1.92-2.68,3.29a58.88,58.88,0,0,1-4.26,4.32v1.21a.57.57,0,0,0,.41.61,8.58,8.58,0,0,0,2,.14,5.09,5.09,0,0,0,1.87-.2,1.29,1.29,0,0,0,.48-.92,19.23,19.23,0,0,0,.13-2.85l2.36.3v3.63a2,2,0,0,1-.49,1.42,2.47,2.47,0,0,1-1.4.75,16.68,16.68,0,0,1-3.1.2c-.53,0-1.07,0-1.63,0s-1-.07-1.34-.1a2.3,2.3,0,0,1-.95-.33,2.76,2.76,0,0,1-.72-.68,2.4,2.4,0,0,1-.36-.92,23.76,23.76,0,0,1-3.77,2.29l-1.2-1.92a28.48,28.48,0,0,0,4.93-3.36v-8.36h2.76V663q4.67-4.86,6-8Zm-4.5.52-1.83,2a62.79,62.79,0,0,0-5.1-3.81l1.63-1.81a29,29,0,0,1,2.91,1.79A19.3,19.3,0,0,1,320.51,656.57Zm7,10.06-2.69.84a31.38,31.38,0,0,0-2.63-6.51l2.45-.9A28.31,28.31,0,0,1,327.53,666.63Z"/><path class="cls-2" d="M336.26,664.83A14.66,14.66,0,0,1,333.4,668a18.91,18.91,0,0,1-4.1,2.71L328,668.84a20.47,20.47,0,0,0,3.34-2.42,18.65,18.65,0,0,0,2.86-3Zm-.76-9.92a14.33,14.33,0,0,1-2.2,2.24,19,19,0,0,1-3.85,2.62l-1.36-1.92a16.55,16.55,0,0,0,3-2,15.14,15.14,0,0,0,2.41-2.39Zm.74,4.64a17.4,17.4,0,0,1-3.08,3.05A19.62,19.62,0,0,1,329.6,665l-1.32-2a15.55,15.55,0,0,0,3.26-2.26,28.1,28.1,0,0,0,2.73-2.68Zm4.25,9.18a10.62,10.62,0,0,1-2.79,1.51,13.12,13.12,0,0,1-2.93.87l-1-1.94a16.16,16.16,0,0,0,4.52-1.74h-1.92V656.89h3.23l.37-1.12h-4.21v-2h11.3v2h-4.36l-.51,1.12h3.93v10.54h-2.55a25.68,25.68,0,0,0,4.11,1.68l-1.22,2a12.6,12.6,0,0,1-2.67-1,10.79,10.79,0,0,1-2.29-1.4l1.13-1.28h-3.38Zm2.93-8.84v-1.22H339v1.22Zm-4.4,2.82h4.4v-1.26H339Zm4.4,1.61H339v1.31h4.4Z"/><path class="cls-2" d="M357.26,670.91l-.72-2.44a13,13,0,0,0,5.85-1.79,4.63,4.63,0,0,0,2-4,4.8,4.8,0,0,0-1.41-3.62,6.31,6.31,0,0,0-3.91-1.6,20.14,20.14,0,0,1-2,8.86q-1.86,3.4-4.65,3.4a3.39,3.39,0,0,1-2.95-1.72,7,7,0,0,1-1.13-3.92v-.24a8,8,0,0,1,2.73-6,10.28,10.28,0,0,1,6.88-2.8h.4a10.21,10.21,0,0,1,6.52,2,6.55,6.55,0,0,1,2.55,5.45,7.27,7.27,0,0,1-2.57,5.92Q362.2,670.52,357.26,670.91Zm-1-13.22a7,7,0,0,0-3.74,2.31,5.9,5.9,0,0,0-1.55,3.94,5.32,5.32,0,0,0,.39,2.06c.25.62.61.93,1.07.93.92,0,1.75-.89,2.5-2.67A19.53,19.53,0,0,0,356.27,657.69Z"/><path class="cls-2" d="M385.23,670.29H369.6v-2.61h12.54V658l-12.38,0v-2.58h15.47Z"/><path class="cls-2" d="M399.4,658.45l-1.8,2.42c-1-.62-1.82-1.14-2.57-1.56s-2.44-1.3-5.07-2.62l1.55-2.24A65.18,65.18,0,0,1,399.4,658.45Zm7.94,2.38a17.84,17.84,0,0,1-6.49,7,24.16,24.16,0,0,1-10.14,3l-.67-2.73a26.87,26.87,0,0,0,5.59-1,15.08,15.08,0,0,0,3.91-1.87,20.3,20.3,0,0,0,2.86-2.35,19,19,0,0,0,2.59-3.57Z"/><path class="cls-2" d="M423.87,656.61v0a29.44,29.44,0,0,1-.38,3,15,15,0,0,1-1.75,5,10.83,10.83,0,0,1-4.43,4.21,21.52,21.52,0,0,1-8.05,2.21l-.78-2.59a19,19,0,0,0,6.87-1.87,9,9,0,0,0,3.92-3.6,14.57,14.57,0,0,0,1.47-5.57l-12.38,0v-2.52l14.53,0A2.46,2.46,0,0,0,423.87,656.61Zm4.07-2a2,2,0,0,1-.62,1.5,2.41,2.41,0,0,1-3.16,0,2.1,2.1,0,0,1,0-3,2.41,2.41,0,0,1,3.16,0A2,2,0,0,1,427.94,654.58Zm-1.32-.88a1.18,1.18,0,0,0-.88-.36,1.24,1.24,0,1,0,0,2.48,1.18,1.18,0,0,0,.88-.36,1.21,1.21,0,0,0,.36-.88A1.19,1.19,0,0,0,426.62,653.7Z"/><path class="cls-2" d="M446.17,659.25a14.79,14.79,0,0,1-.92,5,9,9,0,0,1-2.93,3.93,11.51,11.51,0,0,1-4.6,2.14,28.16,28.16,0,0,1-5.35.66l-.58-2.53c3.65-.2,6.29-.81,7.95-1.85a7.25,7.25,0,0,0,3.19-4.84h-13v-2.56Zm-.75-2.1H430.51v-2.46h14.91Z"/><path class="cls-2" d="M460.78,671h-3v-8.86a37,37,0,0,1-8.14,2.94l-.9-2.56a30,30,0,0,0,9-3.62,18,18,0,0,0,5.79-5.5l2.85,1.08a21.19,21.19,0,0,1-2.8,3.51,22.63,22.63,0,0,1-2.78,2.28Z"/><path class="cls-2" d="M487.61,655.33a10.94,10.94,0,0,1-1,2.6,13.13,13.13,0,0,1-2.72,3.54,17.44,17.44,0,0,1-3.51,2.68l-1.52-2a12.29,12.29,0,0,0,2.81-2.24,13.14,13.14,0,0,0,2.08-2.78H469.58v-2.52h17.14ZM478.9,658v.48c0,1.33,0,2.44-.07,3.32a11.66,11.66,0,0,1-.54,2.81,8.69,8.69,0,0,1-1.48,2.78,9.46,9.46,0,0,1-2.52,2.21,13.61,13.61,0,0,1-3.52,1.48l-1.06-2.36c2.42-.75,4.07-1.81,4.93-3.19a10.66,10.66,0,0,0,1.29-5.66l0-1.87Z"/><path class="cls-2" d="M499.71,658.45l-1.8,2.42c-1-.62-1.82-1.14-2.57-1.56s-2.44-1.3-5.07-2.62l1.55-2.24A65.18,65.18,0,0,1,499.71,658.45Zm7.94,2.38a17.84,17.84,0,0,1-6.49,7,24.16,24.16,0,0,1-10.14,3l-.67-2.73a26.74,26.74,0,0,0,5.59-1,15.08,15.08,0,0,0,3.91-1.87,20.3,20.3,0,0,0,2.86-2.35,19,19,0,0,0,2.59-3.57Z"/><path class="cls-2" d="M527.91,669l-2.21,2.1A89.17,89.17,0,0,0,519,665a29.77,29.77,0,0,1-9.16,6.2l-1.43-2.3a27.37,27.37,0,0,0,7.29-4.71,20.36,20.36,0,0,0,5.24-6.84H511v-2.55h12.87l.81.77a18.41,18.41,0,0,1-1.61,4.07,23.69,23.69,0,0,1-2.26,3.29Q525.06,666.33,527.91,669Z"/><path class="cls-2" d="M545,668.31,544.9,671l-1.43,0a12.89,12.89,0,0,1-5.63-1,6.88,6.88,0,0,1-2.89-2.45,6.13,6.13,0,0,1-.87-3.25q0-3.59,3.54-6.58l-8.71.08v-2.5h17.46v2.52h-4.49a9.64,9.64,0,0,0-3.5,2.75,5.78,5.78,0,0,0-1.37,3.61c0,2.81,2.14,4.22,6.44,4.22C543.94,668.37,544.47,668.35,545,668.31Zm-.87-6.47-1.45.53q-.4-1-1.32-3l1.39-.54A30.46,30.46,0,0,1,544.16,661.84Zm2.79-.57-1.41.52c-.46-1.14-.9-2.14-1.34-3l1.34-.5C546.08,659.31,546.55,660.31,547,661.27Z"/><path class="cls-2" d="M567.49,657.7h-5.81v3.7a6.68,6.68,0,0,1,.55,3,6,6,0,0,1-2.09,4.77,9.14,9.14,0,0,1-5.59,2l-.68-2.36q4.3-.33,5.43-3.08a4.49,4.49,0,0,1-5.42-.23,3.38,3.38,0,0,1-1.16-2.64,3.92,3.92,0,0,1,1.23-3,4.34,4.34,0,0,1,3.09-1.16,5,5,0,0,1,1.75.32V657.7H549.2v-2.32h9.59v-2h2.89v2h5.81Zm-8.67,4.45v-.55a2,2,0,0,0-1.75-.67,1.62,1.62,0,0,0-1.19.55,1.73,1.73,0,0,0-.53,1.21,1.59,1.59,0,0,0,.39,1.1,1.34,1.34,0,0,0,1,.44,2,2,0,0,0,1.5-.57A2,2,0,0,0,558.82,662.15Z"/><path class="cls-2" d="M576.52,667.88a2.92,2.92,0,0,1-1,2.21,3.37,3.37,0,0,1-2.37.92,3.34,3.34,0,0,1-2.37-.92,3,3,0,0,1,0-4.42,3.33,3.33,0,0,1,2.37-.91,3.37,3.37,0,0,1,2.37.91A2.92,2.92,0,0,1,576.52,667.88Zm-1.91,0a1.43,1.43,0,0,0-2.44-1,1.42,1.42,0,0,0,0,2,1.44,1.44,0,0,0,2.44-1Z"/><path class="cls-3" d="M257,101.78c-5.52,1-10.7,3.53-16.23,4.56a1.51,1.51,0,0,0-1,1.85,1.53,1.53,0,0,0,1.84,1c5.52-1,10.7-3.54,16.23-4.57a1.5,1.5,0,1,0-.8-2.89Z"/><path class="cls-3" d="M241.89,106.92,230,96.78a68.68,68.68,0,0,1-6.6-6.83c-3.54-4-7.08-8.47-8.19-13.82a18.38,18.38,0,0,1,3.5-14.44c3.43-4.6,8.76-6.89,14.33-7.62,5.89-.77,12.82-.69,18.26,2a20.43,20.43,0,0,1,9.82,10.57c2.6,6.4,1,12.88-.93,19.24-2,6.56-4.07,13.08-2.86,20,.33,1.9,3.22,1.09,2.89-.8-1.15-6.58,1.28-13,3.13-19.28,1.77-6,3.12-12.14,1.26-18.24a23.77,23.77,0,0,0-9.3-12.62c-5.36-3.64-12.08-4.33-18.39-4.12-6.11.21-12.32,1.56-17.15,5.5a22,22,0,0,0-7.71,14.14c-.72,5.74,1.28,11.13,4.52,15.79A67.33,67.33,0,0,0,222.1,93c1.42,1.57,2.81,3.27,4.36,4.72,4.25,4,8.89,7.58,13.31,11.36,1.46,1.24,3.59-.87,2.12-2.12Z"/><path class="cls-3" d="M240.73,106.34c-2.39.44-1.69,3.09-1.65,4.78a44.76,44.76,0,0,0,.44,6c.51,3.13,1.95,6.09,5.08,7.27a12.16,12.16,0,0,0,5.26.48c1.78-.13,3.55-.25,5.31-.5a14.77,14.77,0,0,0,5.17-1.48,7.66,7.66,0,0,0,3.35-5.11c.64-2.89-.37-5.36-1.36-8a24.65,24.65,0,0,0-3.91-7.61c-1.25-1.47-3.36.66-2.12,2.12a17.33,17.33,0,0,1,2.78,5.32c.7,1.86,1.76,3.84,1.84,5.87.06,1.49-.52,3.64-1.6,4.53a8.26,8.26,0,0,1-3.64,1.27,39.33,39.33,0,0,1-4.33.51,24.44,24.44,0,0,1-4.19.15,4.75,4.75,0,0,1-4.33-3.73,19.78,19.78,0,0,1-.67-4.66c0-.94,0-1.89-.09-2.83,0-.41-.08-.82-.12-1.22,0-.19,0-.41,0-.6-.11-.47.09.26-.37.35,1.9-.35,1.09-3.24-.8-2.9Z"/><path class="cls-3" d="M257.58,107.36a42.31,42.31,0,0,1-7.72,3.2c-2.52.78-5.08,1.42-7.59,2.23-1.83.59-1,3.49.8,2.89,2.58-.83,5.22-1.49,7.81-2.29A48.05,48.05,0,0,0,259.1,110c1.7-.92.19-3.51-1.52-2.6Z"/><path class="cls-3" d="M260,112.05a58.32,58.32,0,0,1-17.7,6.12c-1.89.37-1.09,3.26.8,2.89a60.64,60.64,0,0,0,18.41-6.42,1.5,1.5,0,0,0-1.51-2.59Z"/><ellipse class="cls-2" cx="238.75" cy="75.06" rx="17.76" ry="16.12"/><path class="cls-3" d="M240.36,92.93a24.59,24.59,0,0,1-4.61-5.64,29.35,29.35,0,0,1-3.87-7.81c-.45-1.54-1-3.15-.67-4.77a5.4,5.4,0,0,1,3.52-3.94,10.54,10.54,0,0,1,4.9-.07c1.65.27,3.61.59,4.81,1.87a3.8,3.8,0,0,1,.23,4.59,4.21,4.21,0,0,1-4.29,1.64c-3.44-.64-3.49-4.39-1.61-6.67,2.16-2.63,6.07-2.66,8.91-1.17,2.57,1.37,3.78,3.69,4.31,6.45a31.19,31.19,0,0,1,.15,9,23.72,23.72,0,0,1-1.37,6.67c-.38.88.91,1.64,1.29.76a25.76,25.76,0,0,0,1.59-7.57,30.34,30.34,0,0,0-.39-10.06A9.66,9.66,0,0,0,247,69c-3.48-1.24-7.55-.49-9.75,2.64-1.85,2.64-1.77,6.55,1.4,8.11a5.68,5.68,0,0,0,8.1-3.8,5.11,5.11,0,0,0-1.47-4.72c-1.47-1.33-3.52-1.74-5.41-2-3.95-.64-8,0-9.73,4.06-.9,2.11-.4,4.17.22,6.27a26.77,26.77,0,0,0,2.3,5.5,47,47,0,0,0,3.47,5.35A19.48,19.48,0,0,0,239.3,94c.75.6,1.81-.45,1.06-1.06Z"/><polygon class="cls-3" points="216.89 53.07 201.31 49.25 205.8 41.46 216.89 53.07"/><polygon class="cls-3" points="221.78 48.37 210.65 36.78 218.61 32.61 221.78 48.37"/><polygon class="cls-3" points="227.88 47.23 225.91 31.28 234.77 32.71 227.88 47.23"/><path class="cls-3" d="M665.42,93.09c5.52,1,10.71,3.54,16.23,4.57a1.53,1.53,0,0,0,1.84-1,1.5,1.5,0,0,0-1-1.84c-5.53-1-10.71-3.54-16.23-4.57a1.54,1.54,0,0,0-1.85,1,1.51,1.51,0,0,0,1,1.84Z"/><path class="cls-3" d="M683.41,97.46l12.51-10.67a24.37,24.37,0,0,0,2.22-2.21c2-2.14,4-4.26,5.81-6.51,3.65-4.44,6.83-9.49,7.26-15.36a21.76,21.76,0,0,0-5-15.15c-3.85-4.74-9.55-7.17-15.5-8-6.34-.87-13.45-.72-19.4,1.83A23,23,0,0,0,660,52.22a22.74,22.74,0,0,0-2.39,8.72,33.26,33.26,0,0,0,1.52,11c1.93,7,5.06,14.15,3.77,21.5-.33,1.88,2.56,2.7,2.89.79,1.08-6.15-.48-11.89-2.2-17.78C662,70.74,659.72,64.71,661,58.65a20.54,20.54,0,0,1,7.83-12.33c4.91-3.62,11.09-4.28,17-4.13,5.71.14,11.77,1.29,16.15,5.23a18.94,18.94,0,0,1,6.3,13.44c.14,5.47-2.61,10.31-5.93,14.47-1.69,2.13-3.53,4.13-5.38,6.12a31.43,31.43,0,0,1-2.7,2.83l-13,11.06c-1.47,1.26.66,3.37,2.12,2.12Z"/><path class="cls-3" d="M681.65,97.66c.25,0-.52-.43-.38-.56a2.65,2.65,0,0,0,0,.57c0,.37-.1.74-.13,1.11-.07.83,0,1.66-.08,2.49a26,26,0,0,1-.46,4.4c-.47,2.18-1.43,4-3.71,4.54a13.08,13.08,0,0,1-4,.07c-1.42-.1-2.85-.19-4.26-.39a13.45,13.45,0,0,1-4.13-1.06,4.76,4.76,0,0,1-2.19-3.57c-.42-2.27.68-4.37,1.45-6.43a19.8,19.8,0,0,1,3.08-6.12c1.24-1.47-.87-3.6-2.12-2.12a21.34,21.34,0,0,0-3.55,6.63c-.88,2.36-2.07,4.74-2,7.32a9,9,0,0,0,2.56,6.07,10.2,10.2,0,0,0,4.75,2,49.84,49.84,0,0,0,5.72.67,18.65,18.65,0,0,0,5.17-.09c3.29-.68,5.24-3.32,6-6.47a31.3,31.3,0,0,0,.65-6.26c0-1.81.95-5.18-1.63-5.65-1.89-.35-2.7,2.54-.8,2.89Z"/><path class="cls-3" d="M664.08,98.38a46.5,46.5,0,0,0,8.22,3.43c2.59.81,5.22,1.46,7.81,2.3,1.84.59,2.63-2.3.79-2.89-2.5-.81-5.06-1.46-7.58-2.23a42.31,42.31,0,0,1-7.72-3.2c-1.71-.91-3.22,1.68-1.52,2.59Z"/><path class="cls-3" d="M661.7,103.07a60.81,60.81,0,0,0,18.41,6.42c1.88.37,2.69-2.52.79-2.9a58.33,58.33,0,0,1-17.69-6.11,1.5,1.5,0,0,0-1.51,2.59Z"/><ellipse class="cls-2" cx="684.43" cy="63.49" rx="17.76" ry="16.12"/><path class="cls-3" d="M683.88,82.42c2.48-2,4.39-5.08,6-7.79,1.75-2.95,3.51-6.55,3.7-10,.22-4.19-3.28-7.13-7.24-7.2-3.37-.06-8.62.7-9.77,4.48a5.48,5.48,0,0,0,5.5,6.94A5,5,0,0,0,687,62.35c-2.13-8-13.55-6.43-16.38.15-1.46,3.4-1.47,7.41-1.19,11a27.27,27.27,0,0,0,1.69,8.72c.38.89,1.67.12,1.29-.75A21.4,21.4,0,0,1,671.18,76a37.1,37.1,0,0,1-.26-8.09c.21-2.47.74-5.17,2.54-7,2.28-2.31,6.35-3.38,9.3-1.73,2.22,1.24,4.18,4.81,2.1,7a4.15,4.15,0,0,1-7-2.89c.09-3.75,5.29-4.37,8.15-4.4a5.91,5.91,0,0,1,4.48,1.55,5.67,5.67,0,0,1,1.44,5.23,28,28,0,0,1-3.77,8.93,26.54,26.54,0,0,1-5.33,6.76c-.75.61.31,1.67,1.06,1.07Z"/><polygon class="cls-3" points="706.28 41.49 721.87 37.67 717.38 29.88 706.28 41.49"/><polygon class="cls-3" points="701.4 36.8 712.53 25.21 704.57 21.04 701.4 36.8"/><polygon class="cls-3" points="695.3 35.66 697.27 19.7 688.41 21.14 695.3 35.66"/><path class="cls-3" d="M828.83,104.06c-10.23-4.82-19.83-10.79-30.26-14-29.08-8.88-56.06-3.79-80.59,14.6-10.51,7.89-16.74,18.7-22.93,29.82-3.3,5.92-6.24,12.58-13.54,15-2.44.8-5,1.3-7.87,2-.59,2.7-.57,2.61,3.72,3.66,2.66.65,5.23,1.66,6.91,2.21,0,8.5-.38,16.43.12,24.3.38,6-.09,9.18-4.3,13.79,3.33,2.12,3.33,2.12,11.46-7.25,3.41,10.65,5.56,22.19,14.94,29.23,6.33,4.75,10,11,14.08,18.08l5.67-3,10.21,9.93,2.06-3.7c8.79,6.21,5.47,15.43,4.4,23-2.76,19.3-6.92,38.41-10.82,57.54-3.7,18.2-7.7,36.34-11.72,54.48q-2.18,9.83-4.42,19.63h3.73q3.41-15.36,6.73-30.74c6.17-28.88,12.11-57.81,18.19-86.7.55-2.63,1.43-5.18,2.16-7.76l7,4.86c1.29-6.59,2.65-13.5,4-20.41l2.2,0c1.28,7.26,2.57,14.52,3.87,21.85,2.92,0,2.92,0,5.59-6.34,6.89.56,6.88.56,4.72-6.1-.3-.92-.57-1.85-1-3.3l8.78,2.83c.89-6.82,2.18-13.14,2.44-19.51.41-9.83.79-10.65,11.36-12.79,5,16.44,10.66,32.77,14.76,49.48,5,20.19,9,40.64,12.65,61.11,3.18,17.59,6.11,35.3,7.75,53.09l0,.38h3.69c-.09-1.17-.18-2.33-.29-3.5-1.06-10.38-2.64-20.73-4.36-31-3-18-5.48-36.11-9.61-53.85-5-21.29-11.42-42.24-17.16-63.35a41.92,41.92,0,0,1-.63-6.09l3,3.93a43.59,43.59,0,0,0,3.33-3.33c5-6.12,9.49-12.82,15.11-18.33,12-11.75,20.15-25.46,22.95-42,1.52-9,1.94-18.27,2.35-27.45a41.3,41.3,0,0,0-9.44-28.57,14.92,14.92,0,0,1-1.47-3.15c6.82-1,14-.21,18.59-6.36,1-1.29-.61,1.75,0,0-6.65,0-10.73-4.91-16.77-4.91m-3.23,8c4.15-8.78,10.35-.89,14.92-2.48.08.48-.08-.47,0,0ZM763.13,254.08l.49-.16,3.09,6.24,1.56-3.81,3,5.83-5.7,6.36C764.83,264,764,259.06,763.13,254.08Zm-.61-9.79,5.82.91c-.49-2.26-.94-4.34-1.45-6.67l-2.74.2c-.06-.55-.11-1.1-.17-1.65l18.9-3.74c-1,9-1.87,16.79-2.91,26.13C772.77,254.18,764.32,253.64,762.52,244.29Zm-10.61-5.49c3.12,4.29,7.07,8.5-2.85,10.33v-14c8,1.85,8,1.85,7.15,5.47Zm-5.8,25.54c1.55-5.07-1.14-12.06,7.21-13l-5.41,7.89,1.24,1,5.57-7.37c-1,5.24-1.87,9.57-2.72,13.9C750.92,263.59,749.19,262.49,746.11,264.34Zm38.93-43c7.35-7.1,9-8.61,15.92-16.09,5-5.37,8-13,16.21-14.53,2.87-.52,6.67-.93,8.67.52,1.45,1.05,1.7,5.81.58,7.89-1.59,2.95-4.78,5.16-7.58,7.31-2.14,1.66-5,2.44-7.06,4.13-9.13,7.38-17.93,15.43-29.57,18.56a82.45,82.45,0,0,1-36.78,1.3c-16.9-3.15-29.74-11.95-35.93-28.34-3.08-8.18-4.34-17.05-6.91-27.56,11.25,0,21-.18,30.8.1,3.1.09,6.12,1.78,9.24,2.12,9.81,1,19.64,1.81,30.34,2.76.85-2.58,2-6,3.08-9.44l.45.14c-.4,4.14-.8,8.27-1.17,12.13,9.2,1.19,14.56,7,20.81,11.66-4,11.88-2.62,18.4-10.91,27.16M682.68,153.65c10.78-6.4,15.3-16.66,20.74-26.28a53.59,53.59,0,0,1,6.86-10.14c18.62-20.09,41.46-29.32,69-27.28a81.48,81.48,0,0,1,44.53,17.17c2.14,1.64,5,2.34,7.53,3.47,1.64,3.62,2.72,8.42,5.55,11.74a35.33,35.33,0,0,1,8.86,25.79,247.44,247.44,0,0,1-4.63,36c-2.43,11.3-9.32,20.76-17.38,28.87-5.76,5.8-12.66,10.47-19,15.64l2.22,1.41-7.34.51c-.28-.77-.78-2.15-1.75-4.85,9.22-5.87,18.44-11.68,27.56-17.62a16.25,16.25,0,0,0,4-4c4.18-5.69,3-15.14-2.17-17.9-5.56-3-18.35,1-21.68,6.42-2.66,4.35-5.8,8.4-9,13,2.84-11.31,5.5-21.89,8.16-32.46l-2.83-.76c-1.6,5.5-3.2,11-4.86,16.73l-17.56-11.32c.66-10.73,1.31-21.13,2-31.53l-2.19-.86c-1.24,2-3.1,3.91-3.6,6.1-1.5,6.52-2.54,13.15-3.6,19.76-.55,3.46-2.19,4.76-5.72,4.29-6.84-.89-13.71-2-20.57-2.09-4.7-.09-6.38-1.83-5.55-6.09,1.36-7.09,3.06-14.12,4.49-21.2a23.46,23.46,0,0,0,0-4.67l-2.14-.26-10.36,28.17-31.9,3.06c3.11-11.8,5.91-22.39,8.7-33-1.78.24-3.19,1-3.68,2.16-1.78,4.27-3.85,8.56-4.73,13.06-1.32,6.75-2.82,13.78-2.24,20.52.78,9.19,3.48,18.21,5.22,27.33.13.69-.76,1.57-1.4,2.77-5-8.57-7-17.53-7.55-26.85-.21-3.36-.34-6.54-4.06-8.16l-1.88,14.43c-3-9.2-2.29-17.13.08-25.17C690.66,153.14,690.39,153.06,682.68,153.65Z"/><path class="cls-2" d="M830.89,393c-1.64-17.79-4.57-35.5-7.75-53.09-3.7-20.47-7.69-40.92-12.65-61.11-4.1-16.71-9.79-33-14.76-49.48-10.57,2.14-11,3-11.36,12.79-.26,6.37-1.55,12.69-2.44,19.51l-8.78-2.83c.44,1.45.71,2.38,1,3.3,2.16,6.66,2.17,6.66-4.72,6.1-2.67,6.32-2.67,6.32-5.59,6.34-1.3-7.33-2.59-14.59-3.87-21.85l-2.2,0c-1.35,6.91-2.71,13.82-4,20.41l-7-4.86c-.73,2.58-1.61,5.13-2.16,7.76-6.08,28.89-12,57.82-18.19,86.7q-3.24,15.09-6.6,30.17"/><path class="cls-2" d="M797.83,225.73c1,2.7,1.47,4.08,1.75,4.85l7.34-.51-2.22-1.41c6.39-5.17,13.29-9.84,19-15.64,8.06-8.11,15-17.57,17.38-28.87a247.44,247.44,0,0,0,4.63-36,35.33,35.33,0,0,0-8.86-25.79c-2.83-3.32-3.91-8.12-5.55-11.74-2.52-1.13-5.39-1.83-7.53-3.47A81.48,81.48,0,0,0,779.29,90c-27.55-2-50.39,7.19-69,27.28a53.59,53.59,0,0,0-6.86,10.14c-5.44,9.62-10,19.88-20.74,26.28,7.71-.59,8-.51,6.06,6-2.37,8-3.07,16-.08,25.17l1.88-14.43c3.72,1.62,3.85,4.8,4.06,8.16.59,9.32,4.79,24,9.82,32.57.63-1.21,20.48,20.29,15.39,13.14-5.39-7.55-20.87-31.06-21.06-46.27-.57-6.74.5-16.46,1.82-23.21.88-4.5,2.95-8.79,4.73-13.06.49-1.15,1.9-1.92,3.68-2.16-2.79,10.59-5.59,21.18-8.7,33C712,171.39,724.64,171,734.65,170c3.41-9.3,4.42-19.3,7.89-28.74l2.14.26a23.46,23.46,0,0,1,0,4.67c-1.43,7.08-3.13,14.11-4.49,21.2-.83,4.26.85,6,5.55,6.09,6.86.13,13.73,1.2,20.57,2.09,3.53.47,5.17-.83,5.72-4.29,1.06-6.61,3.46-10.28,5-16.8.5-2.19,1-7,2.24-9.06l2.19.86c-.64,10.4-1.29,20.8-2,31.53L797,189.16c1.66-5.73,3.26-11.23,4.86-16.73l2.83.76c-2.66,10.57-5.32,21.15-8.16,32.46,3.24-4.63,6.38-8.68,9-13,3.33-5.44,16.12-9.41,21.68-6.42,5.14,2.76,6.35,12.21,2.17,17.9a16.25,16.25,0,0,1-4,4C816.27,214.05,807.05,219.86,797.83,225.73Z"/><path class="cls-2" d="M787.44,219c7.34-7.1,6.57-6.28,13.52-13.76,5-5.37,8-13,16.21-14.53,2.87-.52,6.67-.93,8.67.52,1.45,1.05,1.7,5.81.58,7.89-1.59,2.95-4.78,5.16-7.58,7.31-2.14,1.66-5,2.44-7.06,4.13-9.13,7.38-17.93,15.43-29.57,18.56a82.45,82.45,0,0,1-36.78,1.3c-16.9-3.15-29.74-11.95-35.93-28.34-3.08-8.18-4.34-17.05-6.91-27.56,11.25,0,21-.18,30.8.1,3.1.09,6.12,1.78,9.24,2.12,9.81,1,19.64,1.81,30.34,2.76.85-2.58,2-6,3.08-9.44l.45.14c-.4,4.14-.8,8.27-1.17,12.13,9.2,1.19,14.56,7,20.81,11.66-4,11.88-2.81,18.58-11.1,27.34"/><path class="cls-2" d="M768.34,245.2l-5.82-.91c1.8,9.35,10.25,9.89,17.45,15.18,1-9.34,1.9-17.08,2.91-26.13L764,237.08l.17,1.65,2.74-.2C767.4,240.86,767.85,242.94,768.34,245.2Z"/><path class="cls-2" d="M749.06,249.13c9.92-1.83,6-6,2.85-10.33l4.3,1.76c.86-3.62.86-3.62-7.15-5.47Z"/><path class="cls-2" d="M747.91,259.18l5.41-7.89c-8.35,1-5.66,8-7.21,13,3.08-1.85,4.81-.75,5.89,2.37.85-4.33,1.7-8.66,2.72-13.9l-5.57,7.37Z"/><path class="cls-2" d="M771.31,262.18l-3-5.83-1.56,3.81-3.09-6.24-.49.16c.85,5,1.7,10,2.48,14.46Z"/><polygon class="cls-3" points="715.13 394.51 834.6 394.51 834.6 391.09 716.27 391.09 715.13 394.51"/><path class="cls-3" d="M763.82,202.19a4.5,4.5,0,1,0-4.5-4.5,4.55,4.55,0,0,0,4.5,4.5Z"/><path class="cls-3" d="M728.38,197.68a4.5,4.5,0,1,0-4.5-4.5,4.55,4.55,0,0,0,4.5,4.5Z"/><path class="cls-3" d="M744.49,219.68a9,9,0,0,1-1.65-.14c-5.14-.91-8.45-4.32-8.45-8.7a1.5,1.5,0,0,1,3,0c0,3.46,3.08,5.24,6,5.75a7.36,7.36,0,0,0,5.81-1.63,4.81,4.81,0,0,0,1.91-3.55,1.5,1.5,0,1,1,3,0,7.8,7.8,0,0,1-3,5.85A10.36,10.36,0,0,1,744.49,219.68Z"/><path class="cls-3" d="M742,197.56l-.53,2.79-.07.4a1.61,1.61,0,0,0,.15,1.16,1.52,1.52,0,0,0,.9.69,1.5,1.5,0,0,0,1.84-1l.53-2.79.08-.4a1.62,1.62,0,0,0-.16-1.16,1.5,1.5,0,0,0-2.74.36Z"/><path class="cls-3" d="M719.81,188a1.5,1.5,0,0,1-1.5-1.5c0-4.06,4.46-7.24,10.15-7.24a1.5,1.5,0,0,1,0,3c-3.88,0-7.15,1.94-7.15,4.24A1.5,1.5,0,0,1,719.81,188Z"/><path class="cls-3" d="M772.47,192.34a1.5,1.5,0,0,1-1.5-1.5c0-2.3-3.27-4.25-7.15-4.25a1.5,1.5,0,0,1,0-3c5.69,0,10.15,3.18,10.15,7.25A1.5,1.5,0,0,1,772.47,192.34Z"/><path class="cls-3" d="M581.69,186.52l14-2.47,2-.36a1.51,1.51,0,0,0,1-1.84,1.54,1.54,0,0,0-1.85-1l-14,2.47-2,.36a1.51,1.51,0,0,0-1,1.84,1.54,1.54,0,0,0,1.85,1.05Z"/><path class="cls-3" d="M111.43,231.48c-3.29,3.83-4.07,3.77-6.15-.75-1.06-2.3-1.86-4.72-3-7.62-1.72,2.84-3.13,5.21-4.59,7.54-.39.61-.15,1.88-1.39,1.64a2,2,0,0,1-1.81-2c.18-2.51-.85-4.62-1.77-7.41-3.33,3.82-7.75,4.73-11.24,6.73-1-.53-.82-.68-.6-1.07,3.63-6.31,1.82-10.7-3.32-16-9.23-9.45-16.21-20.78-22.13-32.73a72.43,72.43,0,0,1-7.69-29.69c-.5-13.64,3.76-26.24,12-37.23,5.17-7,10.78-13.6,18.23-18.33,1.88-1.19,3.86-2.59,6-3,6.81-1.29,12.73-5,19.43-6.61,14-3.33,27.85-5,42-1,8.51,2.36,17.22,3.94,24.53,9.47a96.82,96.82,0,0,1,24.79,27.3c7.27,11.91,11.15,24.65,13.28,38a50.64,50.64,0,0,1-3.2,26.18c-4.47-2.1-.84-7.54-4.3-10.13q-1.21,7.83-2.42,15.63a14.85,14.85,0,0,1-8.62-6.41c-2.38-12.59-4.92-25.14-10.41-36.86-1.81-3.87-3.75-7.67-6.16-12-4.72,6-8.57,12-13.77,16.88a81,81,0,0,1-16.89,12.24c-7.1,3.92-13.8,8.64-21.53,11.38-3.71,1.32-4.34,3.57-2.3,6.92,3.37,5.55,6.51,11.24,11.59,15.49a7.55,7.55,0,0,1,1.7,1.82c.86,1.41,2,2.94.59,4.51-1.21,1.31-2.81.74-4.16,0a63.88,63.88,0,0,0-7.15-3.5c-2.37-.86-4.54-3.47-6.9.62-1,1.76-3.28,0-4.62-1.32-4-3.81-8.55-6.87-12.82-10.31-2-1.58-4.39-3.32-6.69-1.3s-.87,4.64.15,6.93a8.47,8.47,0,0,0,3.47,4.15c8.26,4.6,13.9,12.84,22.84,16.49.28.11.39.52.5.84,0,.16.09.42,0,.47C111.92,221,113.2,226.82,111.43,231.48Z"/><path class="cls-3" d="M113.41,276.55c1.5-7.66,1.9-15.46,4-23.08,2.76-10.24,4.46-20.77,8.82-30.54-.87-2.85-2.32-3.85-4.82-1.54.24.59.86,1.46.67,1.71-4.82,6.3-5.17,14.06-7.2,21.29-4.08,14.53-5.44,29.55-8.35,44.29-2,10.21-3.43,20.54-4.92,30.85-1.19,8.22-2.3,16.47-3.09,24.74-.16,1.71-.25,3.42-.3,5.13,1.66-.39,3.32-1.25,5-1.22A643.28,643.28,0,0,1,113.41,276.55Z"/><path class="cls-3" d="M210.74,342.55c-1.25-8.48-4.12-16.7-5.33-25.08-2.34-16.23-6.12-32.12-9.86-48-3.12-13.29-5.61-26.77-10.12-39.74-.93-2.67-.92-5.39,3.48-6.51,8.22-2.1,12.07-14,6-19.79-3.88-3.67-1.1-4.77.3-7-.66-2,1-2.82,1.92-4,.45-.61,1.2-1.08.91-2l-7.64-6c-2,1.81-.89,4-.71,6.07.49,5.81-.29,6.79-5.77,8.33-5.29,1.48-10.88,3-12.51,9.23-1.05,4-3.52,5.7-7.22,6.47-11,2.3-21.85,5.26-33.25,3.61a7.54,7.54,0,0,0-5.3.83c.89,2.56.89,2.56,4.85,2.16-1.47.12-1.75.94-1.26,2.18,4.26,2.86,9,1.23,13.56,1.38a6.6,6.6,0,0,1,6,3.31,59.65,59.65,0,0,0,17.07,16.54c6.11,3.91,10.38,2.15,12.46-4.72,1.1-3.6,1.4-7.38,2.39-11,.72,6.26,3.6,11.87,4.85,17.88,4.16,20,9.42,39.84,13.41,59.92,2.76,13.9,5.32,27.83,7.59,41.8h5C211.29,346.44,211,344.49,210.74,342.55Z"/><path class="cls-3" d="M111.43,231.48c-1.52-3.06,1.94-6.49-.8-9.61-.6-.69,1.07-1.29,2-1.67,1.5-.64,3.15-1.15,3.81-2.91,2.7-1.48,5-.53,7.07,1.27,0,2.15-2.06,1.78-3.1,2.67C116.3,223.69,115.48,229,111.43,231.48Z"/><path class="cls-3" d="M120.38,221.23a3.3,3.3,0,0,1,3.09-1.88,1.22,1.22,0,0,1,1.88.21c1.86,1.82,4.56-.06,6.55,1.46-.41,1.36-2.34,0-2.59,1.47a2.85,2.85,0,0,1-3.89.07c-.74-2.51-2.56-1.26-4-1.17Z"/><path class="cls-3" d="M195.17,196.41c-.76-.15-1.86-.22-1.58-1.28a3.65,3.65,0,0,1,3.5-2.72C197.36,194.18,196.18,195.25,195.17,196.41Z"/><path class="cls-4" d="M125.35,219.56l-1.88-.21c-2.15-1.38-4.64-1.59-7.06-2.06-6.32-3.34-13-6.22-17.2-12.5a6,6,0,0,0-3.61-2.44c-4.39-1.11-6.62-4.68-7.86-8.55-.68-2.11-1.53-5.34.93-6.87a6.62,6.62,0,0,1,7.46.75c4.66,3.51,9.25,7.11,13.7,10.87,1.13,1,1.3,3.35,3.42,2.76,2.48-.69.29-3.23,1.54-4.63l17.47,8.26c-.27-6.1-5.76-7-7.95-10.76-2.58-4.41-5.53-8.63-8.18-13.05-2-3.38-.64-4.6,1.87-5.58,9.41-3.68,17.92-9.05,26.59-14.06,11.94-6.91,21-16.86,28.18-29.33a134.06,134.06,0,0,1,17.59,52.25c-.84,3,1.15,5.71.93,8.75-.3,4.11-.57,7-6.2,6.49-6-.48-11.8,5-12.79,10.93-.51,3.09-2.83,4-5,4.72-9,2.8-18.46,3.39-27.72,5C134.91,221.07,130.17,218.53,125.35,219.56Z"/><path class="cls-4" d="M101.66,348.88c.74-9.81,2-19.57,3.51-29.32,1.75-11.4,3.15-22.84,5.11-34.21,3.06-17.7,6-35.42,10.53-52.81.91-3.49,3-6.66,4.61-10l3.89-.07c5.07,2,10.35.62,15.52.76,2.17.06,3.1.39,4.29,2.36A49.89,49.89,0,0,0,168.7,244.4c4.32,2.26,5.83,1.31,7.59-3.27,2.2-5.7,2.37-11.81,3.45-18.17,2.9,2.77,2.15,6.09,3,8.88,5.95,20,10.18,40.38,14.48,60.75,3.74,17.73,8,35.39,10.71,53.28l.45,3"/><path class="cls-4" d="M184.37,220.41c-5.47,0-9.15-3.43-9.18-8.23,0-5.59,5.11-8.72,12.55-9.33,4.2-.34,6.5,3.47,6.44,9.63C194.14,218,191.05,220.44,184.37,220.41Z"/><path class="cls-4" d="M153.6,226.64c1.6-.68,2,.86,2.87,1.41,5.71,3.52,6.64,3.32,9.72-2.48.69-1.28,2.23-3.21,2.67-2.7,2,2.27,5.93,2.52,6.39,6.25.36,3-.39,5.82-1,8.67-1,4.48-3.36,5.57-6.89,2.52C162.47,236.1,157.09,232.33,153.6,226.64Z"/><path class="cls-5" d="M165.47,219.82l-3.58,7.38-8.62-5.1Z"/><path class="cls-6" d="M175.19,223.34c-.73-.44-1.13-.54-1.26-.78-.86-1.55-3.56-1.87-2.93-4.3.1-.39,1.34-.93,1.58-.75A6.37,6.37,0,0,1,175.19,223.34Z"/><path class="cls-3" d="M140,189.41c-3.3,0-6.68-3.56-6.65-7.08,0-3.07,4-6.91,7-6.84,2.58.06,6.7,4.87,6.9,8C147.45,186.4,143.78,189.36,140,189.41Z"/><path class="cls-3" d="M179.79,166.45c2.73.05,6.63,4.41,6.36,7.49-.36,4.09-3.94,4.85-6.91,5.34-3.52.57-6.06-2.59-6-6.58C173.27,169.75,176.79,166.38,179.79,166.45Z"/><path class="cls-3" d="M179.05,152.71c-.69,1.56-1.88,2.33-3.39,1.28-3-2.11-5.66-1.38-8.43.39-.64.41-1.5,1.33-2.46.11s-.22-1.74.43-2.53c3.11-3.73,10.3-3.82,13.2-.14C178.61,152.08,178.79,152.35,179.05,152.71Z"/><path class="cls-3" d="M166.52,176.71c1.93.74,4.23,1.09,3.58,4-.16.72-.77,1.5-1.73,1C166.26,180.7,165.8,179,166.52,176.71Z"/><line class="cls-3" x1="98.4" y1="348.88" x2="211.68" y2="348.88"/><rect class="cls-3" x="98.4" y="347.38" width="113.27" height="3"/><path class="cls-3" d="M165.41,202.5c-5.09,0-8.88-2.7-9.7-6.93a1.5,1.5,0,1,1,2.95-.57c.65,3.39,4,4.54,7,4.49a7.34,7.34,0,0,0,5.4-2.7,4.82,4.82,0,0,0,1.19-3.85,1.5,1.5,0,0,1,3-.57,7.82,7.82,0,0,1-1.81,6.31,10.3,10.3,0,0,1-7.68,3.81Z"/><path class="cls-3" d="M272.06,238.68a15.77,15.77,0,0,1-.75,2.25c-1.55,2.91-3.28,5.73-4.68,8.71-3.51,7.51-7.05,15-10.23,22.66-1.44,3.47-2.07,7.27-3.07,10.93a6.24,6.24,0,0,1-.63,2c-1.49,2.07-1.68,4.43-1.75,6.85-.18,6.39-.4,12.77-.52,19.16a37.71,37.71,0,0,0,.45,4.56l128.31.65c1.5-3.77,1.67-7.69,2.24-11.51a102.07,102.07,0,0,0,.29-24c-.87-10-2.05-20.07-3.28-30.09a87.6,87.6,0,0,0-2.08-9.05c-.16-.66-.31-1.33-.52-2.25.86-.18,1.59-.41,2.34-.49,2-.22,4-.39,6-.53,8.3-.59,15.51-4.2,22.56-8.22a4.59,4.59,0,0,1,3.66-.61,35,35,0,0,0,16.61-.2,17.79,17.79,0,0,0,13.33-20.35,9.33,9.33,0,0,1-.06-1.08l2-1.08a10.94,10.94,0,0,0,5.92-12c-.21-1.17-.45-2.34-.72-3.73a19.43,19.43,0,0,0,2-1.08c2.29-1.57,4.8-2.92,6.77-4.83,4.28-4.14,4.48-8.93,1.41-15.15a30,30,0,0,0-3-4.12c-.62-.86-1.22-1.73-2-2.82,1.13-.66,2-1.13,2.81-1.63,4.08-2.41,6.3-5.77,6.39-10.73.15-8.24-3.74-13.87-10.66-17.68a4.08,4.08,0,0,1-2.41-3.73,12.6,12.6,0,0,0-5.88-9.93,29.88,29.88,0,0,0-19.28-5.19c-3.08.16-3.13.22-4.32-2.4-2.1-4.64-5.89-7.76-9.62-10.91-2-1.68-4.15-3.12-6.21-4.7-4.46-3.44-9.66-4.77-15.11-5-7.57-.34-15.17-.76-22.66.93a5,5,0,0,1-4.38-1.19,29.57,29.57,0,0,0-17.66-6.54,14.41,14.41,0,0,0-7.51,1.66,3.41,3.41,0,0,1-3.87-.21c-6.41-3.86-13.56-3.19-19,2a13.25,13.25,0,0,0-4,13.66,3.58,3.58,0,0,1-.06,2.83c-2.73,5.45-.29,11.12,5.6,12.69a46.78,46.78,0,0,0,7.7.87c.85.08,1.71,0,3.08,0a25.66,25.66,0,0,1-1.69,2.59c-3.85,4.46-7.62,9-11.62,13.31-8.83,9.5-16,20.19-22.68,31.23-2.58,4.27-5,8.65-7.28,13.09a41.36,41.36,0,0,0-3.87,26.81,51.57,51.57,0,0,0,2.18,6.83c.28.81.61,1.6,1.11,2.88m155.13-12.3a21.87,21.87,0,0,0-14.23-6.9,29.68,29.68,0,0,0-11.29.81c-.74.21-1.85.58-2.26.24-1.84-1.51-4-1.08-6-1.23a22.56,22.56,0,0,1-10.22-2.76c.34-1.37.65-2.67,1-4.21l7.31.87c1.09.13,2.18.33,3.27.35a1.92,1.92,0,0,0,2.09-1.75,1.94,1.94,0,0,0-1.54-2.24,14.11,14.11,0,0,0-2.06-.38l-8-1.23c.63-2.1,1.15-3.86,1.77-5.94l7.94,1.13c.79.11,1.65.52,2.33.31a3,3,0,0,0,1.83-1.58,2.36,2.36,0,0,0-.89-2,6,6,0,0,0-2.5-.9c-2.32-.48-4.66-.87-7.25-1.34.7-2.56,1.34-4.91,2-7.43,2.86.95,5.48,1.45,7.71,3.13,1.53,1.16,2.63,1.1,3.43.13s.65-2.42-1-3.53a31.39,31.39,0,0,0-4.76-2.44c-1.42-.64-2.89-1.16-4.38-1.74.91-3.9,1.72-7.5,2.58-11.09,1.05-4.41-.05-6-4.59-6.81a41,41,0,0,1-5.83-1.31c-3.38-1.12-6.39-2.79-8-6.26a4,4,0,0,0-3.95-2.2c-2.79-.07-5.59-.19-8.36-.45a35.72,35.72,0,0,1-17-5.59c.07-.53.13-.82.16-1.11.25-2.34-.25-3-2.44-3-.6,0-1.2.09-1.79,0-7-.39-13.79-1.13-18.92-6.7a12,12,0,0,0-1.16-1,10.39,10.39,0,0,0-8-2.46,39.52,39.52,0,0,1-7.43-.42,5.12,5.12,0,0,1-3.81-2.64,3.49,3.49,0,0,1,.51-4.83c1.78-1.88,1.78-1.88.52-4.36a9.12,9.12,0,0,1,1.7-10.5c4.36-4.27,10.22-5,15.29-1.66,2.32,1.52,4.41,1.78,6.95.32A12.53,12.53,0,0,1,343,88.56a19.82,19.82,0,0,1,11.2,2.71,85.55,85.55,0,0,1,7.39,5.07c1.09.79,2,1.49,3.5.8a15.74,15.74,0,0,1,4.74-1.57,87.72,87.72,0,0,1,22.08.19,18.48,18.48,0,0,1,8.56,3.35c2.89,2.14,5.78,4.28,8.56,6.56A25.38,25.38,0,0,1,417,116.05c1.1,2.8,1.26,2.7,4.28,2.44,6.92-.62,13.55.06,19.43,4.28,2.51,1.79,4.15,4,4.2,7.2s1.8,5.28,4.6,6.77c5.67,3,8.73,7.67,8.54,14.31a8,8,0,0,1-4.18,7.11c-.69.4-1.43.71-2.13,1.1-3.59,2-4,3.93-1.65,7.25,1.17,1.62,2.59,3.07,3.65,4.75,2.52,4,3.3,9.16-1.6,12.77a42.81,42.81,0,0,1-4.83,2.89c-.87.48-1.86.73-2.75,1.18-1.7.87-1.94,1.56-1.43,3.38.45,1.63.94,3.26,1.25,4.92.53,2.78-.79,4.86-2.86,6.49S438.59,204.31,436.92,202.5ZM306,246.07l7.15-2.92c1.16,2.59,2.26,4.91,3.25,7.29s2.07,4.16,5,3.86c-4.64,2.54-12.11,4.63-14.8,4.42C306.39,254.59,306.18,250.47,306,246.07ZM320.19,250c-2-6.11-5.91-11.49-8.33-18.08,7.5,1.59,14.44,3.31,21.48,4.5s14.06,1.83,21.33,2.74C352.79,240.35,322.32,249.93,320.19,250ZM287.4,238.46l8.64-2.28c.22,2.58.52,4.95.57,7.32a2.86,2.86,0,0,1-1.2,1.8c-2.07,1.56-4.21,3-6.34,4.49a10.61,10.61,0,0,1-1.55.65C287.48,246.05,287.19,242.05,287.4,238.46Zm2.25-4.24c-.75-4.36-1.43-8.33-2.15-12.45l14.63,7.86Zm-7.69-31a35.62,35.62,0,0,1,2.91-21.38c2.72-5.66,5.84-11.16,9.09-16.54a175.63,175.63,0,0,1,22.66-30.5c4.25-4.48,8-9.45,12-14.19a7.81,7.81,0,0,1,.93-.8c.69.57,1.32,1,1.9,1.58a21,21,0,0,0,11.12,5.49c1.38.21,2.73.68,4.11.79,2.68.2,5.05.8,6.6,3.29a5.21,5.21,0,0,0,1.9,1.43c3.65,2.1,7.44,4,11.64,4.56,4.93.71,9.89,1.16,15.18,1.76a13.17,13.17,0,0,0,6.73,6.38c2.76,1.12,5.65,1.9,8.51,2.77.9.27,1.86.36,3,.57-.69,3.08-1.19,5.83-1.92,8.52-2.31,8.48-4.72,16.94-7,25.42-.84,3.08-1.63,6.18-2.27,9.32-.49,2.42.24,3.79,2.38,4.94a11.64,11.64,0,0,0,2.78,1.09c3.37.79,6.76,1.49,10.36,2.27,1.3,2.52,1.48,2.59,4.44,1.6l1.69-.59a25.32,25.32,0,0,1,13-1.13,16.92,16.92,0,0,1,10.76,6c2.41,3,3.67,6.42,2.25,10.06-2.05,5.27-5.52,9.25-11.53,10.2-1.09.17-2.16.44-3.25.55-6.1.62-12,.16-17.08-3.79a10.34,10.34,0,0,0-1.25-.82,1.84,1.84,0,0,0-2.66.41,1.82,1.82,0,0,0,.4,2.66c.82.72,1.71,1.35,3,2.37-6,3.18-11.51,6.3-17.88,7a158.07,158.07,0,0,1-15.82,1.13c-22.54.19-44.52-3.53-66.11-9.82a46.3,46.3,0,0,1-11.62-5.43C286.43,216.37,283.09,210.48,282,203.22Z"/><path class="cls-2" d="M386.38,234.47a158.07,158.07,0,0,1-15.82,1.13c-22.54.19-44.52-3.53-66.11-9.82a46.3,46.3,0,0,1-11.62-5.43c-6.4-4-9.74-9.87-10.87-17.13a35.62,35.62,0,0,1,2.91-21.38c2.72-5.66,5.84-11.16,9.09-16.54a175.63,175.63,0,0,1,22.66-30.5c4.25-4.48,8-9.45,12-14.19a7.81,7.81,0,0,1,.93-.8c.69.57,1.32,1,1.9,1.58a21,21,0,0,0,11.12,5.49c1.38.21,2.73.68,4.11.79,2.68.2,5.05.8,6.6,3.29a5.21,5.21,0,0,0,1.9,1.43c3.65,2.1,7.44,4,11.64,4.56,4.93.71,9.89,1.16,15.18,1.76a13.17,13.17,0,0,0,6.73,6.38c2.76,1.12,5.65,1.9,8.51,2.77.9.27,1.86.36,3,.57-.69,3.08-1.19,5.83-1.92,8.52-2.31,8.48-4.72,16.94-7,25.42-.84,3.08-1.63,6.18-2.27,9.32-.49,2.42.24,3.79,2.38,4.94a11.64,11.64,0,0,0,2.78,1.09c3.37.79,6.76,1.49,10.36,2.27,1.3,2.52,1.48,2.59,4.44,1.6l1.69-.59a25.32,25.32,0,0,1,13-1.13,16.92,16.92,0,0,1,10.76,6c2.41,3,3.67,6.41,2.25,10.06-2.05,5.27-5.52,9.25-11.53,10.2-1.09.17-2.16.44-3.25.55-6.1.62-12,.16-17.08-3.79a10.34,10.34,0,0,0-1.25-.82,1.84,1.84,0,0,0-2.66.41,1.82,1.82,0,0,0,.4,2.66c.82.72,1.71,1.35,3,2.37C398.24,230.66,392.75,233.78,386.38,234.47Zm-29.52-39.22a3.79,3.79,0,0,0-.61-2,2.57,2.57,0,0,0-1.92-.95c-.59.12-1.2.93-1.5,1.57-.22.47.07,1.16.11,1.75.27,4.26.72,8.52.71,12.78,0,2.24-.82,4.47-1.29,6.7-.11.49-.3,1-.43,1.43-.55,2-.23,3.12,1,3.51s2-.35,2.74-2.45a35.54,35.54,0,0,0,2.22-13.21C357.57,201.36,357.24,198.3,356.86,195.25Zm21.84-39.33c.6-.42,1.36-1,1.42-1.65a2.53,2.53,0,0,0-1.14-1.81,5.46,5.46,0,0,0-2.31-.48q-9.09-.87-18.17-1.68c-2.37-.21-3.44.31-3.55,1.69s.82,2,3.23,2.27L376.65,156l.83.08C377.74,156,378.36,156.17,378.7,155.92Zm-48.58-18c3,3.48,6,6.93,9,10.37.33.37.7.9,1.11,1a1.86,1.86,0,0,0,2.57-2.39c0-.42-.48-.85-.8-1.22-2.92-3.38-5.86-6.77-8.81-10.13a4.94,4.94,0,0,0-1.34-1.16c-1.27-.66-2.71.33-2.63,2.05A8.76,8.76,0,0,0,330.12,137.92Zm31.31,41.18a4.57,4.57,0,0,0-4.6-4.49,4.79,4.79,0,0,0-4.93,4.56c0,2.56,1.88,4.2,4.75,4.16S361.42,181.57,361.43,179.1Zm-41.92-13.51a4.48,4.48,0,0,0-4.24,4.5c0,2.21,2.77,4.25,5.62,4.16,2.31-.07,3.14-1.16,3.11-4.07A4.66,4.66,0,0,0,319.51,165.59Zm2.76,24.88a1.6,1.6,0,0,0,2.28-.77q2.29-4.17,4.46-8.42a1.9,1.9,0,0,0-3.28-1.93c-1.22,1.93-2.34,3.92-3.41,5.94-.55,1-.92,2.18-1.49,3.56A7,7,0,0,0,322.27,190.47Z"/><path class="cls-2" d="M356.08,128.2a35.72,35.72,0,0,0,17,5.59c2.77.26,5.57.38,8.36.45a4,4,0,0,1,3.95,2.2c1.63,3.47,4.64,5.14,8,6.26a41,41,0,0,0,5.83,1.31c4.54.79,5.64,2.4,4.59,6.81-.86,3.59-1.67,7.19-2.58,11.09,1.49.58,3,1.1,4.38,1.74a31.39,31.39,0,0,1,4.76,2.44c1.65,1.11,1.88,2.45,1,3.53s-1.9,1-3.43-.13c-2.23-1.68-4.85-2.18-7.71-3.13l-2,7.43c2.59.47,4.93.86,7.25,1.34a6,6,0,0,1,2.5.9,2.36,2.36,0,0,1,.89,2,3,3,0,0,1-1.83,1.58c-.68.21-1.54-.2-2.33-.31l-7.94-1.13c-.62,2.08-1.14,3.84-1.77,5.94l8,1.23a14.11,14.11,0,0,1,2.06.38,1.94,1.94,0,0,1,1.54,2.24,1.92,1.92,0,0,1-2.09,1.75c-1.09,0-2.18-.22-3.27-.35l-7.31-.87-1,4.21a22.56,22.56,0,0,0,10.22,2.76c2,.15,4.17-.28,6,1.23.41.34,1.52,0,2.26-.24a29.68,29.68,0,0,1,11.29-.81,21.87,21.87,0,0,1,14.23,6.9c1.67,1.81,2.62,1.9,4.55.39s3.39-3.71,2.86-6.49c-.31-1.66-.8-3.29-1.25-4.92-.51-1.82-.27-2.51,1.43-3.38.89-.45,1.88-.7,2.75-1.18a42.81,42.81,0,0,0,4.83-2.89c4.9-3.61,4.12-8.74,1.6-12.77-1.06-1.68-2.48-3.13-3.65-4.75-2.39-3.32-1.94-5.23,1.65-7.25.7-.39,1.44-.7,2.13-1.1a8,8,0,0,0,4.18-7.11c.19-6.64-2.87-11.29-8.54-14.31-2.8-1.49-4.54-3.47-4.6-6.77s-1.69-5.41-4.2-7.2c-5.88-4.22-12.51-4.9-19.43-4.28-3,.26-3.18.36-4.28-2.44a25.38,25.38,0,0,0-7.88-10.38c-2.78-2.28-5.67-4.42-8.56-6.56A18.37,18.37,0,0,0,392,95.76a87.26,87.26,0,0,0-22.08-.19,15.74,15.74,0,0,0-4.74,1.57c-1.49.69-2.41,0-3.5-.8a85.55,85.55,0,0,0-7.39-5.07A19.82,19.82,0,0,0,343,88.56a12.53,12.53,0,0,0-5.42,1.37c-2.54,1.46-4.63,1.2-6.95-.32-5.07-3.3-10.93-2.61-15.29,1.66a9.12,9.12,0,0,0-1.7,10.5c1.26,2.48,1.26,2.48-.52,4.36a3.49,3.49,0,0,0-.51,4.83,5.12,5.12,0,0,0,3.81,2.64,39.52,39.52,0,0,0,7.43.42,10.39,10.39,0,0,1,8,2.46,12,12,0,0,1,1.16,1c5.13,5.57,12,6.31,18.92,6.7.59,0,1.19-.07,1.79,0,2.19,0,2.69.67,2.44,3C356.21,127.38,356.15,127.67,356.08,128.2Z"/><path class="cls-2" d="M311.86,231.91c2.42,6.59,6.3,12,8.33,18.08,2.13-.06,32.6-9.64,34.48-10.84-7.27-.91-14.35-1.56-21.33-2.74S319.36,233.5,311.86,231.91Z"/><path class="cls-2" d="M321.4,254.3c-3,.3-4.11-1.6-5-3.86s-2.09-4.7-3.25-7.29L306,246.07c.22,4.4.43,8.52.64,12.65C309.29,258.93,316.76,256.84,321.4,254.3Z"/><path class="cls-2" d="M296,236.18l-8.64,2.28c-.21,3.59.08,7.59.12,12a10.61,10.61,0,0,0,1.55-.65c2.13-1.47,4.27-2.93,6.34-4.49a2.86,2.86,0,0,0,1.2-1.8C296.56,241.13,296.26,238.76,296,236.18Z"/><path class="cls-2" d="M287.51,221.77c.71,4.12,1.39,8.09,2.14,12.45l12.48-4.59Z"/><path class="cls-3" d="M357.92,204.42c-.35-3.06-.68-6.12-1.06-9.17a3.79,3.79,0,0,0-.61-2,2.57,2.57,0,0,0-1.92-.95c-.59.12-1.2.93-1.5,1.57-.22.47.07,1.16.11,1.75.27,4.26.72,8.52.71,12.78,0,2.24-.82,4.47-1.29,6.7-.11.49-.3,1-.43,1.43-.55,2-.23,3.12,1,3.51s2-.35,2.74-2.45A35.54,35.54,0,0,0,357.92,204.42Z"/><path class="cls-3" d="M356.79,185.78c3.7-.05,6.24-2.3,6.25-5.54a6,6,0,0,0-6-5.87c-3.51,0-6.47,2.72-6.45,6S353,185.83,356.79,185.78Z"/><path class="cls-3" d="M324.14,170.2a5.67,5.67,0,0,0-5.46-5.58,5.45,5.45,0,0,0-5.15,5.47c0,2.69,3.36,5.17,6.83,5.06C323.17,175.06,324.18,173.75,324.14,170.2Z"/><path class="cls-3" d="M320.83,188.85a7,7,0,0,0,1.44,1.62,1.6,1.6,0,0,0,2.28-.77q2.29-4.17,4.46-8.42a1.9,1.9,0,0,0-3.28-1.93c-1.22,1.93-2.34,3.92-3.41,5.94C321.77,186.33,321.4,187.47,320.83,188.85Z"/><rect class="cls-2" x="351.88" y="147.06" width="33.09" height="11.23" transform="translate(736.95 305.11) rotate(179.96)"/><polygon class="cls-2" points="322.06 134.28 340.94 153.18 348.87 145.23 329.98 126.33 322.06 134.28"/><path class="cls-3" d="M376.17,172.18a1.49,1.49,0,0,1-1.46-1.18,11.56,11.56,0,0,0-17.28-7.44,1.5,1.5,0,0,1-1.56-2.57,14.57,14.57,0,0,1,21.77,9.37,1.51,1.51,0,0,1-1.15,1.79A1.66,1.66,0,0,1,376.17,172.18Z"/><path class="cls-3" d="M331.29,154.55a1.5,1.5,0,0,1-1.39-.93,7.48,7.48,0,0,0-6.45-4.6c-4.7-.17-8.3,3.89-8.69,4.36a1.5,1.5,0,0,1-2.29-1.94c.49-.58,5-5.64,11.08-5.42,6.38.22,8.86,5.82,9.13,6.46a1.49,1.49,0,0,1-.82,2A1.46,1.46,0,0,1,331.29,154.55Z"/><path class="cls-3" d="M320.8,213.74a14,14,0,0,1-5.23-1.08c-5.24-2.11-8-6.46-7-11.09a1.5,1.5,0,0,1,2.94.62c-.8,3.8,2.16,6.47,5.2,7.69,3.61,1.46,8,1.29,9.77-2.37a1.5,1.5,0,0,1,2.71,1.28A8.85,8.85,0,0,1,320.8,213.74Z"/><path class="cls-2" d="M633.12,194.65c8.2,40.44-36,53.16-68.89,53.16S501.12,223,501.12,192.35s31.85-45.14,63.11-55.47C602.72,124.16,627,164.63,633.12,194.65Z"/><path class="cls-3" d="M601.59,231.1c-5.08,0-8.87-2.7-9.69-6.93a1.5,1.5,0,1,1,2.94-.57c.66,3.39,4,4.55,7,4.5a7.32,7.32,0,0,0,5.39-2.71,4.83,4.83,0,0,0,1.2-3.85,1.5,1.5,0,1,1,2.94-.57,7.78,7.78,0,0,1-1.8,6.31,10.28,10.28,0,0,1-7.68,3.82Z"/><path class="cls-2" d="M613,256c-.08-3.05-.37-6.1-.56-9.15l-.76-.16c-1.16,2.47-2.37,4.9-3.45,7.4-.74,1.72-1.86,2.22-3.58,1.57-1.16-.44-2.34-.85-3.87-1.4-.67,2.87-1.24,5.56-1.94,8.21a5.6,5.6,0,0,0,.87,4.56c2.5,4.28,4.84,8.67,7.13,13.08a7.8,7.8,0,0,1,.82,3.29c.2,9.14.36,18.27.42,27.41a11.78,11.78,0,0,1-.88,4.71c-.78,1.82-1.31,4.35-3.75,4.51-2.67.17-3.53-2.32-4.39-4.29-3.18-7.31-6.21-14.69-9.37-22a20.73,20.73,0,0,1-.82-15.19c1-3,1.7-6,2.51-9,.26-1,.45-2,.7-3.09l-4.76-3.1-4.52-2.87c-3.23,4.34-3.46,4.46-8,2.51-5.82-2.53-11.62-5.11-17.37-7.8-2.82-1.32-5.86-2.52-8.16-4.52-3.12-2.71-6.89-3.5-10.53-5.09-.41,1-.72,1.91-1.09,2.75-3.18,7.31-6,14.83-9.65,21.87-9,17.14-27.21,56.43-35.45,75.1l122-.08C614.12,320.76,613.59,276.93,613,256Z"/><path class="cls-2" d="M570,208.42c3.43.8,5.92-.25,7.24-3.06a6.42,6.42,0,0,0-2.08-8,9.14,9.14,0,0,0-2.81-1.27c-4.44-1.16-7.17,1.05-7.46,5.93C564.65,205.14,566.67,207.65,570,208.42Zm50.63-19.89c-3.48.07-6.84,3.22-6.92,6.5-.06,2.52,3.86,5.65,7.18,5.73,2.92.07,4.89-2.44,4.94-6.28S623.81,188.47,620.58,188.53Z"/><path class="cls-2" d="M578.69,260.78c2.28-4.12,4.5-8.12,7-12.74-10,1.74-19.44,3.54-29.33,2.18C558.75,252.58,571.53,258.62,578.69,260.78Z"/><path class="cls-2" d="M610.45,241.74l-17.58,4.79c4.22,2.48,8.34,3.94,12.52,6.06Z"/><path class="cls-3" d="M564.84,202c-.19,3.11,1.83,5.62,5.11,6.39s5.92-.25,7.24-3.06a6.42,6.42,0,0,0-2.08-8,9.14,9.14,0,0,0-2.81-1.27C567.86,194.94,565.13,197.15,564.84,202Z"/><path class="cls-3" d="M625.78,194.48c0-3.71-2-6-5.2-5.95-3.48.07-6.84,3.22-6.92,6.5-.06,2.52,3.86,5.65,7.18,5.73C623.76,200.83,625.73,198.32,625.78,194.48Z"/><path class="cls-3" d="M599.22,202.09c.75,2.43,1.4,4.75,2.24,7a1.82,1.82,0,0,0,1.69.56,1.84,1.84,0,0,0,.94-1.53,56,56,0,0,0-1.9-6.61,1.86,1.86,0,0,0-1.61-.8C600.08,200.8,599.71,201.56,599.22,202.09Z"/><path class="cls-3" d="M489.28,345.24l-1.17,2.81L617.89,348l0-2.81h0c-.65-26.49-1.3-71.94-2-94.81-.11-3.58-.54-7.14-.85-11.07,13.73-7.94,22-19.53,21.53-36.45,2.36.4,3.22-.75,3.66-2.5,1-4,2.06-7.93,3.28-12.56.83,3.17,1.54,5.81,2.21,8.45a11,11,0,0,0,.36,2c.26.54.87,1.22,1.37,1.24a2,2,0,0,0,1.45-1.1,6,6,0,0,0,.42-2.37c.24-7.63.82-15.26.57-22.87a211.07,211.07,0,0,0-2.18-23.81c-.61-4.15-2.36-8.18-3.91-12.15-7.12-18.25-20.56-30.53-37.87-38.62-5.33-2.49-11.5-3.26-17.36-4.49-4.73-1-9.57-1.5-14.65-2.26a26.5,26.5,0,0,0-.26-3.66c-.72-3.37-1.51-6.74-2.43-10.07a2.17,2.17,0,0,0-1.7-1.26c-.52,0-1.19,1-1.36,1.63a17.65,17.65,0,0,0-.16,3.1c-.36,5-3.51,8-8.45,8.26-8.12.36-16.09,1.47-23.48,5.21a8.08,8.08,0,0,1-1.65.49C520.86,98.81,509.75,106.25,500,116c-8.06,8-15.13,16.85-20.32,27.06a11.93,11.93,0,0,0-1,2.2c-3.46,12.79-4.52,25.71-2.22,38.83,1.06,6.05,3.78,11.41,6.95,16.52,2.55,4.12,5.55,7.95,8.39,11.9a36.26,36.26,0,0,0,9.61,9.4c4.36,2.84,8.76,5.61,13.14,8.4l21.29,13.53c-.35,1.17-.64,2.37-1.07,3.52a199.42,199.42,0,0,1-12,26.51c-8.53,15.78-26.25,55-33.48,71.39Zm80.08-170.17a13.34,13.34,0,0,1,.42-1.48c3.45-8,7-15.87,10.34-23.86,1.39-3.29,2.46-6.71,3.64-10.09.29-.84.46-1.72.68-2.53,7.84.16,26.68,18.39,32.29,32.84-.73.58-1.51,1.25-2.33,1.83s-1.58,1.18-1,2.24c.67,1.22,1.74.9,2.71.41s1.59-.76,2.69-1.38c1.23,2.67,2.4,4.91,3.62,7.25a2.33,2.33,0,0,0,1.83,1.11c.54-.09,1.19-1,1.33-1.67a28.45,28.45,0,0,0,.25-3.94l.71-.23c1.4,2.46,3.23,4.78,4.12,7.41a55.92,55.92,0,0,1,1.56,31.11,27.42,27.42,0,0,1-5,10.57,42,42,0,0,1-23.81,15.76c-8.95,2.23-18,4.2-27,6a63.74,63.74,0,0,1-20.35.66c-9.38-1.18-17.58-5.14-25.54-10.1a16.44,16.44,0,0,1-7.77-11.67c-.55-3.18-2.05-4.52-4.64-5.7-3.67-1.69-7.19-3.65-9.69-7.07a6.31,6.31,0,0,1-.7-6.84c1.37-3.06,3.81-5.2,6.43-7.11a4.12,4.12,0,0,1,2.3-.51c3.56,0,8.52,3.52,9.58,6.94,1.19,3.85,2.14,7.77,3.2,11.66a9.59,9.59,0,0,0,.63,2.31,1.31,1.31,0,0,0,2.29.21,6.35,6.35,0,0,0,.82-1.5c1.84-3.47,3.51-7,5.55-10.38,6.09-10,12.32-19.83,18.51-29.73a11.73,11.73,0,0,1,1.14-1.29c.35,2.61.63,4.75.94,6.88.44,3.09.81,6.19,1.43,9.25a3.18,3.18,0,0,0,1.7,2.19c1.25.28,1.57-1,1.79-2.06.48-2.26.88-4.55,1.49-6.78.65-2.4,1.5-4.74,2.33-7.31M585.74,248c-2.55,4.62-4.77,8.62-7,12.74-7.16-2.16-19.94-8.2-22.28-10.56C566.3,251.58,575.76,249.78,585.74,248Zm24.71-6.3-5.06,10.85c-4.18-2.12-8.3-3.58-12.52-6.06Zm4.21,103.42-122,.08c8.24-18.67,26.47-58,35.45-75.1,3.69-7,6.47-14.56,9.65-21.87.37-.84.68-1.71,1.09-2.75,3.64,1.59,7.41,2.38,10.53,5.09,2.3,2,5.34,3.2,8.16,4.52,5.75,2.69,11.55,5.27,17.37,7.8,4.49,1.95,4.72,1.83,8-2.51l4.52,2.87,4.76,3.1c-.25,1.12-.44,2.11-.7,3.09-.81,3-1.54,6.06-2.51,9a20.73,20.73,0,0,0,.82,15.19c3.16,7.32,6.19,14.7,9.37,22,.86,2,1.72,4.46,4.39,4.29,2.44-.16,3-2.69,3.75-4.51a11.78,11.78,0,0,0,.88-4.71c-.06-9.14-.22-18.27-.42-27.41a7.8,7.8,0,0,0-.82-3.29c-2.29-4.41-4.63-8.8-7.13-13.08a5.6,5.6,0,0,1-.87-4.56c.7-2.65,1.27-5.34,1.94-8.21,1.53.55,2.71,1,3.87,1.4,1.72.65,2.84.15,3.58-1.57,1.08-2.5,2.29-4.93,3.45-7.4l.76.16c.19,3.05.48,6.1.56,9.15C613.59,276.93,614.12,320.76,614.66,345.16Z"/><path class="cls-3" d="M622.87,180.82s-14.4-25-16-26.65,13,1.15,13,1.15Z"/><rect class="cls-7" y="318.83" width="922.43" height="118.16"/><path class="cls-8" d="M15.15,11.32C32.58,1.62,55.37-.19,73.57,8.62c8.52,4.12,15.8,11,18.12,20.4a22,22,0,0,1-.76,13.48c-1.88,4.63-5.59,8.24-7.59,12.83-1.75,4-1,8.4.4,12.42a36.49,36.49,0,0,0,6.32,11.7l.3-2.36c-.14.09.25,0,.27,0s-.27,0-.31,0l-.61-.22a16.68,16.68,0,0,1-1.95-1.07,57.75,57.75,0,0,1-5.42-4c-3-2.42-5.74-5.28-8.93-7.41-1.61-1.07-3.12,1.53-1.51,2.59.27.19.49.36.51.38.3.23.59.47.88.72.77.63,1.52,1.28,2.28,1.93,2,1.67,3.91,3.34,5.93,4.94A42,42,0,0,0,87.31,79c1.28.71,3.15,1.62,4.56.7a1.53,1.53,0,0,0,.31-2.36A32.4,32.4,0,0,1,86.64,67c-1.27-3.75-2-7.59-.18-11.25,2.29-4.54,5.91-8.28,7.64-13.13a25.09,25.09,0,0,0,.57-14C89.94,8.1,66.13,0,47.39,0A69.71,69.71,0,0,0,13.63,8.73c-1.69.94-.17,3.53,1.52,2.59Z"/><path class="cls-8" d="M73.05,64.16c-8.39-2.06-17.37-1.26-25.91-.92s-17.6,1.06-25.75-1.61a22.28,22.28,0,0,1-6.14-3.45c-1.5-1.1-3.36-2.14-4.72-3.2a16.27,16.27,0,0,1-4.32-5.73,33.77,33.77,0,0,1-3-18.53,25.62,25.62,0,0,1,11.91-19.4,1.5,1.5,0,0,0-1.52-2.59C.54,16.65-2.83,33.9,2.27,47.63a25.65,25.65,0,0,0,4.3,7.67,14.29,14.29,0,0,0,2.7,2.45c1.92,1.34,3.88,2.64,5.8,4,7.48,5.21,17.66,4.92,26.39,4.7C47,66.3,52.46,66,58,65.89a57.44,57.44,0,0,1,14.28,1.16c1.88.46,2.68-2.43.8-2.89Z"/><path class="cls-8" d="M908.25,15.05A84.52,84.52,0,0,0,849,11c-8.82,2.74-18,7.52-22.81,15.73a21,21,0,0,0-3.06,12.51C823.57,44,826,47.7,829,51.32c1.55,1.87,3.43,3.87,4.28,6.18A9,9,0,0,1,833,63a26.57,26.57,0,0,1-6.62,11.14,1.51,1.51,0,0,0,.31,2.35c1.5.8,3.26,0,4.68-.59a45.1,45.1,0,0,0,6-3.48c2.08-1.37,4.12-2.81,6.16-4.24a42.56,42.56,0,0,1,4-2.69c1.69-.93.18-3.52-1.52-2.59-3.23,1.78-6.14,4.26-9.2,6.32A62.72,62.72,0,0,1,831,72.72a12.55,12.55,0,0,1-2.13.94,4.92,4.92,0,0,1-.56.15s-.3,0-.33,0c.23,0,.26.05.1,0s-.11,0,.12,0l.3,2.36a29.85,29.85,0,0,0,6.25-9.39c1.35-3.11,2.61-7,1.33-10.38-1.63-4.24-5.41-7.21-7.78-11a15.31,15.31,0,0,1-1.67-12.18c2.39-8.91,10.68-14.64,18.83-17.87a75.69,75.69,0,0,1,28.85-4.91,80.89,80.89,0,0,1,32.45,7.13c1.74.8,3.26-1.79,1.51-2.59Z"/><path class="cls-8" d="M847.09,65.63c8.56-1.73,17.61-1,26.28-.69s18,.81,26.69-1.25c4.57-1.09,8.41-3.74,12.49-5.95a16.23,16.23,0,0,0,5.63-5.45,27,27,0,0,0,4.05-17.87,24.88,24.88,0,0,0-14-19.37c-1.72-.86-3.24,1.73-1.51,2.59,6.35,3.17,11,8.59,12.3,15.65a24.23,24.23,0,0,1-2.87,16.56,14.18,14.18,0,0,1-4.74,5.08c-1.8,1.07-3.69,2-5.5,3.09a23,23,0,0,1-6.1,2.64c-8,2.06-16.72,1.58-24.94,1.32-9.45-.29-19.26-1.14-28.6.75-1.89.39-1.09,3.28.8,2.9Z"/><path class="cls-8" d="M431,26.73a63.84,63.84,0,0,0-44.44-3c-6.51,2-13.19,5.46-16.95,11.37a16.24,16.24,0,0,0-2.64,9.27c.16,3.55,1.75,6.43,4,9.13,1.25,1.54,2.79,3.08,3.58,4.93a5.71,5.71,0,0,1-.05,3.74,19.26,19.26,0,0,1-4.91,8.32,1.52,1.52,0,0,0,.31,2.36c1.23.62,2.55.14,3.73-.38A32.47,32.47,0,0,0,378,69.88c2.56-1.67,5-3.72,7.66-5.19,1.69-.93.18-3.53-1.51-2.59-2.37,1.29-4.5,3.09-6.74,4.58-1.35.9-2.71,1.79-4.14,2.55a10.55,10.55,0,0,1-1.57.73c-.23.08-.51.1-.73.19.17-.06.12,0,.34.08l.3,2.35a22.47,22.47,0,0,0,4.66-6.9c1-2.33,2-5.12,1.22-7.67-.91-3.19-3.81-5.48-5.63-8.14a10.93,10.93,0,0,1-1.61-8.95C371.93,34.34,378,30.13,384,27.76a56.2,56.2,0,0,1,21.25-3.65,60.39,60.39,0,0,1,24.2,5.21c1.74.8,3.27-1.79,1.51-2.59Z"/><path class="cls-8" d="M385.33,64.84c6.44-1.28,13.24-.7,19.75-.49s13.51.59,20-1c3.35-.83,6.36-2.78,9.33-4.48a13,13,0,0,0,4.25-4.24,20.31,20.31,0,0,0,2.91-13.47A18.78,18.78,0,0,0,431,26.73c-1.72-.85-3.24,1.73-1.51,2.59a16,16,0,0,1,9,11.34,17.44,17.44,0,0,1-2.18,12.08,10.09,10.09,0,0,1-3.4,3.53c-2.79,1.6-5.61,3.45-8.76,4.21-6,1.45-12.37,1.08-18.46.89-7-.22-14.21-.8-21.11.57-1.9.38-1.1,3.27.79,2.9Z"/><path class="cls-8" d="M487.13,34.61c10-5.34,22.95-6.38,33.33-1.5,4.87,2.29,9.12,6.1,10.3,11.54a11,11,0,0,1-.85,7.31c-1.31,2.5-3.42,4.54-4.39,7.24-.8,2.26-.16,4.9.64,7.06a21.48,21.48,0,0,0,3.69,6.48l.31-2.35c.2-.12.46-.15.47-.1s-.53-.19-.35-.11a13.56,13.56,0,0,1-1.24-.69,37.22,37.22,0,0,1-3-2.23c-1.67-1.33-3.25-2.88-5-4-1.62-1.06-3.12,1.53-1.51,2.59.58.37,1.41,1.11,2.17,1.73,1.2,1,2.4,2,3.64,2.92,1.52,1.16,4.35,3.71,6.42,2.52a1.53,1.53,0,0,0,.31-2.36,17.32,17.32,0,0,1-3.26-6.14,10,10,0,0,1-.55-3.05,6.14,6.14,0,0,1,1.2-3.22c1.53-2.43,3.41-4.57,4.18-7.4a14.76,14.76,0,0,0-.19-8.07C529.91,31.2,516.06,27,505.26,27a42.41,42.41,0,0,0-19.65,5c-1.7.91-.18,3.5,1.52,2.59Z"/><path class="cls-8" d="M520.59,63.06c-4.73-1.1-9.73-.75-14.55-.56s-10,.62-14.77-.66c-2.44-.66-4.47-2.3-6.55-3.68a8.07,8.07,0,0,1-2.37-2.81,17.55,17.55,0,0,1-1.87-10,13.72,13.72,0,0,1,6.65-10.79A1.5,1.5,0,0,0,485.61,32c-7.72,4.56-10,14.53-6.86,22.63a15,15,0,0,0,2.66,4.56c1.38,1.57,3.43,2.63,5.16,3.77,4.35,2.87,10.14,2.76,15.15,2.66,5.93-.12,12.24-1,18.08.32,1.88.43,2.68-2.46.79-2.9Z"/><path class="cls-3" d="M577,407.28V382.61h7.41v24.67h7.56V377.56H571.36v-6.43h45.48v6.43H599.6v10.58h14.58v6.33H599.6v12.81h18.07v6.59H570.25v-6.59Z"/><path class="cls-3" d="M670.12,392.9q-3.36,11.73-9.3,16.93T645.57,415a21.76,21.76,0,0,1-7.05-1,13.91,13.91,0,0,1-4.93-2.82,13.34,13.34,0,0,1-2.94-3.87,14,14,0,0,1-1.34-4.45,61,61,0,0,1-.31-7.3q0-5.4,1.11-25.32h7.72Q636.77,388,636.77,395a52.5,52.5,0,0,0,.29,7.18,7.45,7.45,0,0,0,1.33,2.92,6.62,6.62,0,0,0,3,2.16,13,13,0,0,0,4.76.76,14,14,0,0,0,10.42-4.25q4.19-4.25,6.64-13.43Z"/><path class="cls-3" d="M702.64,397.53a68.13,68.13,0,0,1-3.37,8,31,31,0,0,1-4,6.51,5.76,5.76,0,0,1-4.51,2.1q-5.58,0-9.58-6.86a30.65,30.65,0,0,1-4-15.76q0-2.91.57-8.62c.36-3.82.54-6.69.54-8.59h7.9c-.06,1.73-.31,4.57-.78,8.51a74.6,74.6,0,0,0-.67,8.55,25.31,25.31,0,0,0,2,10.39c1.33,3,2.47,4.48,3.4,4.48q2,0,6.34-11.76Zm21.29,9.52-7.77.49a49.3,49.3,0,0,0-2.78-16.05,43.5,43.5,0,0,0-7.59-13.87L712,374.5Q723.94,387.7,723.93,407.05Z"/><path class="cls-3" d="M742.41,402.6a26.3,26.3,0,0,1-11.56,12.53l-3.43-5.27a24.66,24.66,0,0,0,7.28-7.14,23.34,23.34,0,0,0,3-8.1h-9v-5.68h9.37v-8.36h-.93a35.42,35.42,0,0,1-4.15,7.56l-5.5-3a56.92,56.92,0,0,0,4-8.62,39.6,39.6,0,0,0,2.34-8.21l6.92,1.05c-.49,2-1,3.8-1.55,5.53h13.24v5.67h-7.36v8.36h7.77v5.68h-7.05q1.86,5.2,7.85,10.66l-4.7,5.48A33.27,33.27,0,0,1,742.41,402.6Zm26.3,8.42h-7.4v2.75h-6.92V372.5h21.29v41.27h-7Zm-7.4-5.59h7.4V378.08h-7.4Z"/><path class="cls-3" d="M796.46,381.4H781.54v-5h14.92Zm-.26,31.52h-8.57v1.9h-5.34V397.48H796.2Zm-.13-38.83H783v-4.48h13.08Zm-.25,14.05H783v-4.37h12.78Zm0,6.92H783v-4.42h12.78Zm-4.75,13.49v-6.64h-3.23v6.64Zm19.07,2.05h-6.06v2h-5.79V390.15h15.34v17a49,49,0,0,0,3.64-4.6,55,55,0,0,1-2-14.59H796.72v-5.15h3l-1-5.22h-1.89v-5H803v-3.68h6.22v3.68h6.11l0-3.89h6.22l0,14.13H830V388h-8.47q.11,3.78.39,6.61c.67-1.48,1.48-3.53,2.42-6.18l5.6,1.78a53.38,53.38,0,0,1-6.29,13.07,22.16,22.16,0,0,0,1.17,2.92,6.89,6.89,0,0,0,.76,1.35.52.52,0,0,0,.26.08q.32,0,.36-.36t.31-7.05l4.8.8q-.08,5.65-.35,8.73c-.18,2.05-.62,3.43-1.31,4.14a3.79,3.79,0,0,1-2.85,1.07q-3.54,0-7.13-6.43a58.73,58.73,0,0,1-6.53,6.46l-3.64-3.86Zm-2.22-12.42v-3.45h-3.84v3.45Zm0,7.79v-4.06h-3.84V406Zm-3.79-28.35,1,5.22h2l.95-5.22Zm8.13,5.22h3v-5.22h-1.8Zm17.5-2.55-5.19,1.26L821.68,372l5-1.16Z"/><path class="cls-3" d="M264.73,463.66a28.13,28.13,0,0,1-2.7,6.85,34.46,34.46,0,0,1-7.15,9.32,45.7,45.7,0,0,1-9.25,7.06l-4-5.33a32.19,32.19,0,0,0,7.4-5.89,34.4,34.4,0,0,0,5.48-7.33H217.23V461.7h45.15Zm-23,7.1V472c0,3.51-.06,6.44-.19,8.76a31.1,31.1,0,0,1-1.42,7.41,22.75,22.75,0,0,1-3.9,7.32,24.73,24.73,0,0,1-6.65,5.83,36.24,36.24,0,0,1-9.26,3.9L217.57,499q9.57-3,13-8.41T234,475.7l-.05-4.94Z"/><path class="cls-3" d="M296.6,471.86l-4.72,6.39c-2.55-1.63-4.8-3-6.78-4.12s-6.42-3.42-13.35-6.9l4.08-5.89A168.33,168.33,0,0,1,296.6,471.86Zm20.94,6.28a47,47,0,0,1-17.12,18.4q-10.55,6.33-26.71,7.9l-1.76-7.2a70.71,70.71,0,0,0,14.72-2.68A39,39,0,0,0,297,489.63a52.35,52.35,0,0,0,7.54-6.2,50.6,50.6,0,0,0,6.82-9.4Z"/><path class="cls-3" d="M345,459.44q0,5.91-.13,9.34h21.3V475q0,12-1.63,18.62t-4.79,8.72a13.38,13.38,0,0,1-7.65,2.13A87.31,87.31,0,0,1,342,503.33l.31-7.15a76.15,76.15,0,0,0,9.3,1.21h.28a4.19,4.19,0,0,0,3.82-2.26,19.93,19.93,0,0,0,2-7.08,71,71,0,0,0,.66-9.65v-3l-13.88,0q-1.28,11-6.3,18.27a40.13,40.13,0,0,1-14,12.2l-4-5.38a39,39,0,0,0,10.9-10q4.2-5.76,5.36-15.15H323.19v-6.58H337c.08-1.94.13-5.06.13-9.34Zm15.33,6.38-3.74,1.41q-2.07-5.12-3.54-7.9l3.64-1.41A78.71,78.71,0,0,1,360.33,465.82Zm7.36-1L364,466.23c-1.14-2.81-2.33-5.45-3.57-7.9L364,457Q366,460.8,367.69,464.86Z"/><path class="cls-3" d="M422.28,486.3H374.86v-6.85h47.42Z"/><path class="cls-3" d="M465,501.71l-7.13,4.15a97.38,97.38,0,0,0-25.06-23.7l5.45-5.07A101,101,0,0,1,450,485.76a77,77,0,0,0,15.28-15.88H427.52v-6.76h45.74l3.07,3.31A65.35,65.35,0,0,1,467.54,479a87.49,87.49,0,0,1-12.3,11.7Q457.31,492.86,465,501.71Z"/><path class="cls-3" d="M506.86,505.75H499.2v-18a98.68,98.68,0,0,1-18.54,7.15l-2.6-6.25a93.42,93.42,0,0,0,17.2-7q10.33-5.18,15.06-10.06H482.94v-6.49H499v-6.43h7.67v6.43h12.95l2.69,3.32q-5.22,7.8-15.44,14.69Zm23.49-15.95-4.65,5.94a106.34,106.34,0,0,0-16.44-9.05l4.11-5.38A120.1,120.1,0,0,1,530.35,489.8Z"/><path class="cls-3" d="M558.9,480.05l-3.51,6.48q-5.73-2.49-9.44-3.76t-12.32-3.68l2.94-6.07a99.13,99.13,0,0,1,9.82,2.51Q550.82,476.94,558.9,480.05Zm23.1-2a46.86,46.86,0,0,1-17.51,18.63q-11,6.45-26.32,7.87l-1.7-6.89a61.73,61.73,0,0,0,22.72-6.41q9.51-5,16.36-16.47Zm-18.1-10.6-3.63,6.43q-2.82-1.26-5.81-2.49c-2-.83-3.62-1.44-4.88-1.83l-10.84-3.48,3-5.94A157.18,157.18,0,0,1,563.9,467.44Zm9.27,2.26-3.77,1.44q-2.05-5.11-3.53-7.9l3.64-1.44Q571.67,466,573.17,469.7Zm7.33-1.46-3.69,1.36c-1.2-3-2.38-5.64-3.54-7.9l3.54-1.31Q578.78,464.17,580.5,468.24Z"/><path class="cls-3" d="M627.25,460.7A57.85,57.85,0,0,1,619,482.49q6.24,4.45,12.72,10.09l-5.7,6.17a86,86,0,0,0-11.64-10,52.6,52.6,0,0,1-25.84,16.36l-3.28-6.38A44,44,0,0,0,597.29,493a53.07,53.07,0,0,0,10.54-9q-4.33-3-16.18-9.65l4.57-5.48q9.28,4.81,16,9.08a49.87,49.87,0,0,0,6.89-18.16Z"/><path class="cls-3" d="M666.63,471.86l-4.72,6.39c-2.55-1.63-4.81-3-6.78-4.12s-6.42-3.42-13.35-6.9l4.07-5.89A167.64,167.64,0,0,1,666.63,471.86Zm20.94,6.28a47,47,0,0,1-17.12,18.4q-10.55,6.33-26.71,7.9l-1.76-7.2a70.71,70.71,0,0,0,14.72-2.68A39,39,0,0,0,667,489.63a51.69,51.69,0,0,0,7.53-6.2,50.13,50.13,0,0,0,6.83-9.4Z"/><path class="cls-3" d="M739.42,485.53l-4.88,6.1a96.2,96.2,0,0,0-22.79-11.48v25.09h-8.13V458.82h8.21v13.74A131.76,131.76,0,0,1,739.42,485.53Z"/><path class="cls-3" d="M115.75,396.22q-5.53,13.13-21.84,18.71l-3.18-5.87a37.87,37.87,0,0,0,8.86-4.3,24.88,24.88,0,0,0,6-5.5,25.37,25.37,0,0,0,3.51-6.14,22.92,22.92,0,0,0,1.53-6.07q.29-3,.29-10.36l0-6.77h7.66v12.89a20.26,20.26,0,0,0,.94,4.65,26.87,26.87,0,0,0,3.52,7.19,32.42,32.42,0,0,0,7,7.45,42.82,42.82,0,0,0,10,5.93l-4.65,6.46a40.35,40.35,0,0,1-12-8.09A37.08,37.08,0,0,1,115.75,396.22Z"/><path class="cls-3" d="M171,415.08h-6.6V396.3c-.71.6-1.58,1.3-2.61,2.11l-2.35-3.14-.78,1.46A19.7,19.7,0,0,1,156,394v21.23h-6.35v-17a46.38,46.38,0,0,1-3.79,6.61L141.94,401a47.48,47.48,0,0,0,4.52-8.54,42.74,42.74,0,0,0,2.84-9h-5v-5.23h5.34v-10H156v10h3.33v5.23H156v3.14a31.27,31.27,0,0,0,5.24,5,43.92,43.92,0,0,0,6-6.59H160.6v-5.12h3.33l-3.43-2.52a30.15,30.15,0,0,0,6.51-9.85l6.11,1.26a16.21,16.21,0,0,1-1.52,3.11h19.57V377H178.6c-.37,1.05-.74,2-1.14,2.91h15.13v5.12h-6.74c-.4.79-.89,1.74-1.47,2.83H192v4.63h-8.88v2.71h7.77V399h-7.77v2.86h7.77v3.83h-7.77v2.91h9.5v4.91H171Zm-.64-35.15c.53-1,1-2,1.34-2.91h-3.41a26.76,26.76,0,0,1-2.6,2.91Zm.64,12.58v2.71h5.6v-2.71Zm0,6.49v2.86h5.6V399Zm0,6.69v2.91h5.6v-2.91Zm3.72-20.64c-.57.88-1.25,1.82-2,2.83h5.34c.35-.75.75-1.7,1.22-2.83Z"/><path class="cls-3" d="M229.8,406.38h-7.35l0-10.11q-9.21,4.5-9.21,8.42t8.88,3.88l2.86,0a132.47,132.47,0,0,0,17.56-.85l.36,6.43q-7.26.69-14.23.69-13.4,0-18-2.27a7.44,7.44,0,0,1-4.57-7q0-7.83,15-15.36a2.41,2.41,0,0,0-2-.85,14.82,14.82,0,0,0-6,1.72,37.58,37.58,0,0,0-8.17,5.69q-3.15,2.78-4.51,3.76l-4.5-4.84a47.71,47.71,0,0,0,13.58-14.82h-11v-6.1h13.71a44.11,44.11,0,0,0,1.62-5.84l7.59.41a56.21,56.21,0,0,1-1.47,5.43h17v6.1H217.44a47.88,47.88,0,0,1-2.48,4.11,16.06,16.06,0,0,1,5-.85c3.51,0,6,1.09,7.59,3.25q3.35-1.44,14.14-5.66l3,6.12q-5.08,1.73-15.18,5.4a30.1,30.1,0,0,1,.26,4.15Z"/><path class="cls-3" d="M269.19,410.86l-4.7,4.32a56.06,56.06,0,0,0-8.72-5.89l2.94-2.49h-9.19v-4.58h33.25v-2.37H252.26V379.13h13.6v-2.41H250.09V372.5h11.28L259,369l6.76-1.31,3,4.84h9.47l2.84-4.74,7,1-2.63,3.74h12v4.22H281.4v2.41h13.73v20.72h-5.21v2.37h8v4.58h-8v3.65a4.26,4.26,0,0,1-1.67,3.51,6.85,6.85,0,0,1-4.42,1.33H274.9l-.8-5.59h7a1.78,1.78,0,0,0,1.16-.42,1.23,1.23,0,0,0,.52-1V406.8h-20A42.85,42.85,0,0,1,269.19,410.86Zm-10.53-20.38h29.86v-2.21h-8.93a3.89,3.89,0,0,1-2.62-1,3.16,3.16,0,0,1-1.17-2.41V382.3h-5.06q-1.68,6.18-9.21,7.95l-2.17-3.32c2.92-1,4.89-2.54,5.88-4.63h-6.58Zm0,5.95h29.86v-2.91H258.66Zm12.49-19.71v2.41h4.65v-2.41Zm17.37,8.38v-2.8H281.4v1.41c0,.93.51,1.39,1.52,1.39Z"/><path class="cls-3" d="M351.32,414.33H301.74v-4.88h20.88V407H304.14V402.7h18.48v-2.49H306v-17h16.6v-2.11H302.13v-4.58h20.49v-2.24q-5.34.14-15.95.13L306,370q11.24,0,21.91-.62a158.62,158.62,0,0,0,15.81-1.49l2.32,4.73a140.49,140.49,0,0,1-16,1.42v2.49H350.7v4.58H330v2.11h16.85v17H330v2.49H348.9V407H330v2.42h21.29Zm-28.7-27.17h-9.5v2.73h9.5Zm0,6.15h-9.5v2.86h9.5Zm17.24-3.42v-2.73H330v2.73Zm0,6.28v-2.86H330v2.86Z"/><path class="cls-3" d="M403.41,379.85H388.08v9.73a17.6,17.6,0,0,1,1.47,7.9A15.77,15.77,0,0,1,384,410.05q-5.51,4.76-14.73,5.34l-1.8-6.23q11.36-.87,14.32-8.1a11.18,11.18,0,0,1-6.71,2.11,11,11,0,0,1-7.57-2.72,8.88,8.88,0,0,1-3.06-7,10.29,10.29,0,0,1,3.24-7.82,11.38,11.38,0,0,1,8.14-3.06,12.66,12.66,0,0,1,4.59.85v-3.61H355.2v-6.12h25.26v-5.15h7.62v5.15h15.33Zm-22.84,11.71-.05-1.44q-1.27-1.77-4.6-1.77a4.25,4.25,0,0,0-3.13,1.45,4.49,4.49,0,0,0-1.41,3.18,4.24,4.24,0,0,0,1,2.91,3.48,3.48,0,0,0,2.7,1.15,5.32,5.32,0,0,0,4-1.5A5.43,5.43,0,0,0,380.57,391.56Z"/><path class="cls-3" d="M439.93,407.57q6.3-2.47,6.3-7.88a7,7,0,0,0-3.11-6,13.19,13.19,0,0,0-7.83-2.2h-.65a20.49,20.49,0,0,0-4.84.69,30.73,30.73,0,0,0-5.21,1.81,28.35,28.35,0,0,0-4.11,2.21q-1.67,1.11-7.73,5.58l-4.13-5.17q21.09-14.41,27-18.91H413.76v-6h31.18l3.72,4q-5.55,3.67-16.55,11.22a21.94,21.94,0,0,1,5.32-.83q7.62,0,11.92,3.47t4.32,9.94A13.12,13.12,0,0,1,447.56,411q-6.1,4.05-16.07,4.05c-4.38,0-7.87-.72-10.44-2.16a6.88,6.88,0,0,1-3.86-6.33,6.76,6.76,0,0,1,3.29-5.67,12.26,12.26,0,0,1,7.19-2.31Q437.3,398.61,439.93,407.57Zm-6.66,1.7q-1.66-5.25-6.11-5.25a3.91,3.91,0,0,0-2.3.7,2.18,2.18,0,0,0-1,1.84q0,2.83,6.66,2.83Q432,409.39,433.27,409.27Z"/></g></g></svg>