<svg xmlns="http://www.w3.org/2000/svg" viewBox="0 0 450.12 697.28"><defs><style>.cls-1{fill:#db444a;}.cls-2{fill:#fff;}.cls-3{fill:#fefefe;}.cls-4{fill:#fcfcfc;}.cls-5{fill:#fdfdfd;}.cls-6{fill:none;stroke:#db444a;stroke-linecap:round;stroke-miterlimit:10;stroke-width:3px;}.cls-7{fill:#e57a7e;}.cls-8{fill:#fceded;}.cls-9{fill:#7e6c6c;}</style></defs><g id="レイヤー_2" data-name="レイヤー 2"><g id="レイヤー_1-2" data-name="レイヤー 1"><path class="cls-1" d="M210.15,73.73c-4,.75-7.76,2.56-11.76,3.31a1.5,1.5,0,0,0-1,1.84,1.52,1.52,0,0,0,1.84,1.05c4-.75,7.75-2.56,11.75-3.31a1.5,1.5,0,0,0-.79-2.89Z"/><path class="cls-1" d="M199.64,77.56l-8.52-7.27a49.51,49.51,0,0,1-4.52-4.64c-2.56-2.85-5.15-6-6.07-9.79a12.77,12.77,0,0,1,2.17-10.24c2.33-3.33,6.06-5,10-5.59,4.16-.62,9.09-.57,13,1.18a14.41,14.41,0,0,1,7.21,7.53c1.91,4.63.65,9.32-.72,13.91-1.44,4.79-2.89,9.49-2,14.52.32,1.9,3.22,1.1,2.89-.79-.83-4.87,1.08-9.68,2.42-14.28,1.28-4.36,2.12-8.9.63-13.31a17.62,17.62,0,0,0-7.3-9.31c-3.94-2.45-8.82-2.89-13.35-2.69s-8.86,1.22-12.36,4.06a16.27,16.27,0,0,0-5.69,10.24,16.54,16.54,0,0,0,3,11.58,52.68,52.68,0,0,0,7.43,8.76c3.08,2.89,6.46,5.51,9.67,8.25,1.47,1.25,3.6-.87,2.13-2.12Z"/><path class="cls-1" d="M198.39,77c-2,.36-1.53,2.43-1.49,3.86a31.76,31.76,0,0,0,.33,4.46c.39,2.42,1.56,4.66,4,5.55a9.24,9.24,0,0,0,3.91.37c1.33-.1,2.65-.2,4-.38a11.17,11.17,0,0,0,3.84-1.11,5.94,5.94,0,0,0,2.62-4c.48-2.18-.24-4-1-6a18,18,0,0,0-2.93-5.69,1.5,1.5,0,0,0-2.12,2.12,12.15,12.15,0,0,1,1.9,3.66A13.79,13.79,0,0,1,212.71,84a4.14,4.14,0,0,1-.29,1.74,5.55,5.55,0,0,1-.43.84c-.05.09-.39.54-.14.24,0,0-.27.26-.14.14a3.23,3.23,0,0,1-.83.42,11.9,11.9,0,0,1-1.66.43,27,27,0,0,1-3,.35,18,18,0,0,1-3,.11,5.12,5.12,0,0,1-1.1-.26c-.25-.1.29.16-.1,0l-.24-.14-.23-.14c.24.17-.08-.08-.11-.11a3.33,3.33,0,0,1-.36-.39c.17.22-.14-.23-.19-.31a3.43,3.43,0,0,1-.41-1,12.85,12.85,0,0,1-.47-3.27c0-.68,0-1.37-.06-2.05,0-.3-.06-.59-.09-.89,0-.14,0-.29,0-.43v-.15a1,1,0,0,1-.58.8,1.52,1.52,0,0,0,1.05-1.85,1.54,1.54,0,0,0-1.85-1Z"/><path class="cls-1" d="M210.5,77.82a29.63,29.63,0,0,1-5.5,2.27c-1.82.56-3.67,1-5.49,1.62a1.53,1.53,0,0,0-1,1.84,1.52,1.52,0,0,0,1.85,1c1.87-.61,3.78-1.08,5.65-1.66a33.78,33.78,0,0,0,6-2.53,1.5,1.5,0,0,0-1.51-2.59Z"/><path class="cls-1" d="M212.23,81.21a41.85,41.85,0,0,1-12.72,4.39,1.5,1.5,0,1,0,.8,2.89,44.17,44.17,0,0,0,13.43-4.69,1.5,1.5,0,0,0-1.51-2.59Z"/><ellipse class="cls-2" cx="197.06" cy="54.78" rx="12.86" ry="11.67"/><path class="cls-1" d="M198.38,67.57a17.13,17.13,0,0,1-3.3-4,20.87,20.87,0,0,1-2.79-5.61,6.73,6.73,0,0,1-.48-3.34,3.7,3.7,0,0,1,2.4-2.71,7.4,7.4,0,0,1,3.44,0,5.85,5.85,0,0,1,3.4,1.3,2.57,2.57,0,0,1,.13,3.08,2.88,2.88,0,0,1-2.88,1.09c-2.33-.42-2.33-2.95-1.07-4.49,1.49-1.83,4.23-1.85,6.2-.81a6,6,0,0,1,3,4.54,22.27,22.27,0,0,1,.11,6.47,17.3,17.3,0,0,1-1,4.73c-.38.87.92,1.64,1.3.75a19.3,19.3,0,0,0,1.18-5.58,22.32,22.32,0,0,0-.29-7.34,7.22,7.22,0,0,0-4.69-5.34,6.23,6.23,0,0,0-7.3,2c-1.4,2-1.3,5,1.09,6.16a4.34,4.34,0,0,0,6.17-2.89,3.9,3.9,0,0,0-1.12-3.61,7.54,7.54,0,0,0-4-1.54c-3-.48-6,0-7.31,3.08a6.77,6.77,0,0,0,.16,4.65,20.18,20.18,0,0,0,1.69,4A32.9,32.9,0,0,0,195,66a14,14,0,0,0,2.34,2.64c.75.61,1.81-.45,1.06-1.06Z"/><polygon class="cls-1" points="181.24 38.85 169.95 36.08 173.2 30.44 181.24 38.85"/><polygon class="cls-1" points="184.78 35.45 176.72 27.06 182.48 24.03 184.78 35.45"/><polygon class="cls-1" points="189.19 34.62 187.77 23.07 194.19 24.11 189.19 34.62"/><path class="cls-1" d="M104.85,168.07c-2.38,2.77-2.95,2.73-4.45-.54-.77-1.67-1.35-3.42-2.17-5.52-1.24,2.05-2.27,3.77-3.33,5.46-.27.44-.1,1.36-1,1.19a1.47,1.47,0,0,1-1.31-1.46c.13-1.82-.62-3.36-1.28-5.38-2.41,2.77-5.62,3.44-8.15,4.88-.71-.38-.59-.49-.43-.77,2.63-4.58,1.32-7.76-2.4-11.57-6.69-6.85-11.74-15.05-16-23.71a52.48,52.48,0,0,1-5.57-21.5,42,42,0,0,1,8.65-27c3.75-5,7.82-9.85,13.21-13.27a13.28,13.28,0,0,1,4.32-2.16C89.85,65.82,94.13,63.12,99,62c10.11-2.41,20.16-3.58,30.41-.75,6.16,1.71,12.47,2.85,17.76,6.86a70.06,70.06,0,0,1,18,19.77c5.27,8.63,8.08,17.85,9.62,27.52a36.68,36.68,0,0,1-2.32,19c-3.24-1.51-.61-5.46-3.12-7.33q-.87,5.67-1.75,11.32a10.73,10.73,0,0,1-6.24-4.64c-1.72-9.13-3.56-18.21-7.54-26.7-1.31-2.81-2.72-5.55-4.46-8.65-3.42,4.31-6.21,8.65-10,12.22a59.23,59.23,0,0,1-12.24,8.87c-5.14,2.83-10,6.26-15.59,8.24-2.69.95-3.15,2.58-1.67,5,2.44,4,4.72,8.14,8.4,11.22a5.88,5.88,0,0,1,1.23,1.31c.62,1,1.47,2.14.43,3.27-.88.95-2,.54-3,0A43.57,43.57,0,0,0,111.7,146c-1.71-.62-3.29-2.51-5,.45-.74,1.27-2.38,0-3.35-1-2.88-2.76-6.19-5-9.28-7.46-1.43-1.15-3.18-2.41-4.85-1s-.63,3.36.11,5a6.14,6.14,0,0,0,2.51,3c6,3.33,10.07,9.3,16.55,11.94.2.08.28.37.36.61s.06.3,0,.34C105.21,160.46,106.14,164.7,104.85,168.07Z"/><path class="cls-1" d="M106.28,200.71c1.1-5.55,1.38-11.19,2.87-16.72,2-7.41,3.24-15,6.39-22.11-.63-2.06-1.68-2.79-3.49-1.12.18.43.63,1.06.49,1.24-3.49,4.56-3.75,10.18-5.22,15.42-2.95,10.52-3.93,21.4-6,32.08-1.46,7.39-2.48,14.88-3.56,22.34-.86,6-1.67,11.93-2.24,17.92q-.16,1.86-.21,3.72a15.29,15.29,0,0,1,3.6-.89A468.13,468.13,0,0,1,106.28,200.71Z"/><path class="cls-1" d="M176.78,248.51c-.9-6.14-3-12.09-3.86-18.16-1.69-11.76-4.43-23.27-7.14-34.78-2.26-9.62-4.06-19.39-7.33-28.78-.68-1.94-.66-3.9,2.52-4.72,5.95-1.52,8.74-10.16,4.32-14.33-2.81-2.66-.8-3.45.21-5.07-.48-1.42.71-2,1.39-2.9.33-.44.87-.78.66-1.46L162,134c-1.47,1.31-.64,2.91-.52,4.39.36,4.21-.2,4.92-4.18,6-3.83,1.07-7.87,2.16-9,6.68-.76,2.9-2.55,4.13-5.23,4.69-7.95,1.66-15.83,3.81-24.09,2.61a5.55,5.55,0,0,0-3.83.6c.64,1.86.64,1.86,3.51,1.57-1.07.09-1.27.68-.92,1.58,3.09,2.07,6.55.89,9.83,1a4.78,4.78,0,0,1,4.35,2.39,43.31,43.31,0,0,0,12.36,12c4.43,2.83,7.52,1.55,9-3.43.79-2.6,1-5.34,1.73-8,.52,4.54,2.6,8.6,3.51,13,3,14.51,6.82,28.85,9.71,43.39q3,15.1,5.5,30.28h3.65C177.18,251.33,177,249.92,176.78,248.51Z"/><path class="cls-1" d="M104.85,168.07c-1.1-2.21,1.4-4.7-.57-7-.44-.5.77-.93,1.42-1.21,1.09-.47,2.28-.83,2.76-2.11,2-1.07,3.59-.38,5.12.93,0,1.55-1.49,1.28-2.25,1.92C108.38,162.43,107.79,166.28,104.85,168.07Z"/><path class="cls-1" d="M111.33,160.64a2.39,2.39,0,0,1,2.24-1.35.89.89,0,0,1,1.37.15c1.34,1.32,3.29,0,4.74,1.05-.3,1-1.7,0-1.88,1.07a2.06,2.06,0,0,1-2.81.05c-.54-1.82-1.86-.91-2.94-.85Z"/><path class="cls-1" d="M165.5,142.67c-.55-.11-1.35-.16-1.14-.92a2.64,2.64,0,0,1,2.53-2C167.09,141.06,166.24,141.83,165.5,142.67Z"/><path class="cls-3" d="M114.94,159.44l-1.37-.15c-1.56-1-3.36-1.16-5.11-1.5-4.58-2.42-9.39-4.5-12.46-9A4.32,4.32,0,0,0,93.38,147c-3.18-.81-4.79-3.39-5.69-6.19-.49-1.53-1.1-3.87.68-5a4.8,4.8,0,0,1,5.4.55c3.37,2.54,6.7,5.15,9.92,7.87.82.69.94,2.43,2.48,2,1.79-.5.21-2.34,1.12-3.36l12.65,6c-.19-4.41-4.17-5.07-5.76-7.78-1.86-3.2-4-6.26-5.93-9.46-1.47-2.45-.46-3.33,1.36-4,6.81-2.66,13-6.55,19.26-10.18,8.65-5,15.22-12.21,20.41-21.24A97,97,0,0,1,162,134c-.61,2.19.83,4.13.67,6.33-.22,3-.41,5-4.49,4.71-4.31-.35-8.54,3.61-9.26,7.92-.37,2.23-2.05,2.92-3.64,3.41-6.53,2-13.37,2.46-20.07,3.6C121.86,160.53,118.43,158.69,114.94,159.44Z"/><path class="cls-3" d="M97.77,253.1c.54-7.1,1.47-14.17,2.55-21.24,1.26-8.25,2.28-16.53,3.7-24.77,2.21-12.83,4.35-25.66,7.63-38.25.66-2.53,2.2-4.83,3.34-7.23l2.81-.05c3.68,1.48,7.5.45,11.25.55a3,3,0,0,1,3.1,1.71,36.17,36.17,0,0,0,14.18,13.61c3.13,1.64,4.23.95,5.5-2.37,1.59-4.13,1.72-8.55,2.5-13.16,2.1,2,1.55,4.41,2.16,6.43,4.3,14.47,7.37,29.24,10.48,44,2.71,12.84,5.77,25.64,7.76,38.59l.33,2.18"/><path class="cls-3" d="M157.68,160.05c-4,0-6.63-2.48-6.65-6,0-4.05,3.7-6.32,9.09-6.76,3-.24,4.71,2.52,4.67,7C164.75,158.27,162.52,160.07,157.68,160.05Z"/><path class="cls-3" d="M135.39,164.56c1.17-.49,1.44.63,2.09,1,4.13,2.55,4.8,2.4,7-1.8.5-.93,1.62-2.32,1.94-2,1.42,1.65,4.29,1.83,4.62,4.53a18.23,18.23,0,0,1-.74,6.28c-.73,3.24-2.43,4-5,1.82C141.82,171.42,137.92,168.69,135.39,164.56Z"/><path class="cls-4" d="M144,159.62,141.4,165l-6.24-3.69Z"/><path class="cls-5" d="M151,162.17c-.53-.32-.81-.39-.91-.56-.62-1.12-2.58-1.35-2.12-3.12.07-.28,1-.67,1.14-.54A4.61,4.61,0,0,1,151,162.17Z"/><path class="cls-1" d="M125.53,137.6c-2.39,0-4.84-2.58-4.81-5.13,0-2.22,2.87-5,5.09-5,1.87,0,4.86,3.52,5,5.83C130.94,135.42,128.28,137.56,125.53,137.6Z"/><path class="cls-1" d="M154.36,121c2,0,4.8,3.19,4.61,5.43-.26,3-2.85,3.51-5,3.86-2.56.42-4.39-1.88-4.36-4.76A5.26,5.26,0,0,1,154.36,121Z"/><path class="cls-1" d="M153.83,111c-.5,1.13-1.37,1.69-2.46.92-2.17-1.52-4.1-1-6.11.29-.46.29-1.08,1-1.78.08s-.15-1.26.32-1.83c2.25-2.71,7.46-2.78,9.56-.11C153.51,110.56,153.64,110.76,153.83,111Z"/><path class="cls-1" d="M144.75,128.4c1.4.54,3.07.79,2.6,2.92-.12.51-.56,1.08-1.26.73C144.56,131.29,144.23,130,144.75,128.4Z"/><line class="cls-1" x1="95.42" y1="253.1" x2="177.46" y2="253.1"/><rect class="cls-1" x="95.42" y="252.01" width="82.04" height="2.17"/><path class="cls-6" d="M138,141.85c.55,2.84,3.24,4.19,6.12,4.14,3.41-.06,6.37-3.21,5.82-6"/><path class="cls-1" d="M221.2,173.29a12.63,12.63,0,0,1-.55,1.63c-1.12,2.11-2.38,4.14-3.39,6.3-2.54,5.44-5.1,10.88-7.41,16.42a65.1,65.1,0,0,0-2.22,7.91,4.7,4.7,0,0,1-.46,1.43,8.44,8.44,0,0,0-1.27,5c-.13,4.63-.29,9.25-.38,13.88a28,28,0,0,0,.34,3.3l92.93.47c1.08-2.73,1.2-5.57,1.61-8.34a74,74,0,0,0,.22-17.34c-.63-7.28-1.49-14.54-2.38-21.8a60.75,60.75,0,0,0-1.51-6.55l-.37-1.63c.62-.13,1.15-.3,1.69-.36,1.44-.15,2.88-.28,4.32-.38,6-.43,11.24-3,16.34-5.95a3.35,3.35,0,0,1,2.65-.45,25.36,25.36,0,0,0,12-.14,12.89,12.89,0,0,0,9.66-14.74,6.92,6.92,0,0,1-.05-.78c.45-.25.94-.52,1.44-.78a7.93,7.93,0,0,0,4.28-8.66c-.15-.86-.32-1.7-.52-2.7a15.78,15.78,0,0,0,1.46-.79,35.92,35.92,0,0,0,4.9-3.5c3.1-3,3.25-6.47,1-11a22.45,22.45,0,0,0-2.14-3c-.45-.62-.89-1.25-1.44-2l2-1.17a8.6,8.6,0,0,0,4.63-7.78c.11-6-2.71-10-7.72-12.8a3,3,0,0,1-1.74-2.71,9.14,9.14,0,0,0-4.26-7.19,21.64,21.64,0,0,0-14-3.76c-2.24.12-2.28.16-3.14-1.74-1.52-3.35-4.26-5.61-7-7.9-1.43-1.21-3-2.26-4.49-3.4a18.78,18.78,0,0,0-10.94-3.63c-5.49-.26-11-.55-16.42.66a3.57,3.57,0,0,1-3.17-.86,21.38,21.38,0,0,0-12.79-4.73,10.4,10.4,0,0,0-5.44,1.2,2.46,2.46,0,0,1-2.8-.15,11,11,0,0,0-13.77,1.41A9.58,9.58,0,0,0,248.18,74a2.61,2.61,0,0,1,0,2c-2,4-.22,8.06,4.05,9.2a35.56,35.56,0,0,0,5.58.63c.61,0,1.24,0,2.23,0a19.91,19.91,0,0,1-1.22,1.87c-2.79,3.23-5.52,6.52-8.42,9.64-6.4,6.88-11.59,14.62-16.43,22.62-1.87,3.09-3.62,6.27-5.27,9.48a30,30,0,0,0-2.8,19.42,35.44,35.44,0,0,0,1.58,4.94c.2.59.44,1.16.8,2.09m112.36-8.91a15.85,15.85,0,0,0-10.31-5,21.47,21.47,0,0,0-8.17.59c-.54.15-1.34.42-1.64.17-1.34-1.09-2.88-.78-4.36-.89a16.22,16.22,0,0,1-7.39-2l.74-3,5.3.63a20.75,20.75,0,0,0,2.36.25,1.39,1.39,0,0,0,1.52-1.26,1.41,1.41,0,0,0-1.12-1.62,8.31,8.31,0,0,0-1.49-.27l-5.79-.9c.46-1.52.84-2.8,1.28-4.3l5.76.82c.56.08,1.19.37,1.68.22a2.2,2.2,0,0,0,1.33-1.14,1.69,1.69,0,0,0-.65-1.42,4.37,4.37,0,0,0-1.81-.66c-1.68-.34-3.38-.62-5.25-1,.51-1.86,1-3.56,1.48-5.38,2.07.68,4,1,5.58,2.26,1.11.84,1.9.8,2.48.09s.47-1.74-.72-2.55a23.36,23.36,0,0,0-3.45-1.77c-1-.46-2.09-.84-3.17-1.26.66-2.82,1.25-5.43,1.87-8,.76-3.2,0-4.36-3.33-4.93a30.16,30.16,0,0,1-4.21-1c-2.45-.81-4.64-2-5.82-4.54a2.91,2.91,0,0,0-2.86-1.59c-2,0-4-.14-6.05-.32A25.86,25.86,0,0,1,282,93.26c.06-.38.1-.59.12-.8.18-1.69-.18-2.14-1.76-2.18-.44,0-.87.06-1.3,0-5-.28-10-.82-13.7-4.86a9.24,9.24,0,0,0-.84-.68A7.5,7.5,0,0,0,258.73,83a29.55,29.55,0,0,1-5.38-.31,3.72,3.72,0,0,1-2.76-1.91,2.53,2.53,0,0,1,.37-3.5c1.29-1.36,1.29-1.36.38-3.16a6.6,6.6,0,0,1,1.23-7.6,8.52,8.52,0,0,1,11.07-1.2,4.36,4.36,0,0,0,5,.23,9.18,9.18,0,0,1,3.92-1,14.41,14.41,0,0,1,8.11,2,62.52,62.52,0,0,1,5.35,3.67c.8.57,1.47,1.08,2.54.58A11.64,11.64,0,0,1,292,69.63a63.47,63.47,0,0,1,16,.14,13.32,13.32,0,0,1,6.2,2.43c2.09,1.55,4.18,3.1,6.19,4.75a18.46,18.46,0,0,1,5.72,7.51c.79,2,.91,2,3.09,1.77,5-.45,9.82,0,14.08,3.1a6.35,6.35,0,0,1,3,5.22c0,2.39,1.3,3.83,3.33,4.9,4.11,2.19,6.32,5.56,6.18,10.36a5.71,5.71,0,0,1-3,5.15c-.49.3-1,.52-1.53.81-2.61,1.46-2.93,2.84-1.2,5.24.85,1.18,1.88,2.23,2.64,3.45,1.83,2.91,2.4,6.63-1.16,9.24a32.27,32.27,0,0,1-3.49,2.1c-.63.34-1.35.52-2,.85-1.24.63-1.41,1.13-1,2.45s.68,2.36.91,3.56a4.65,4.65,0,0,1-2.08,4.7C342.49,148.46,341.81,148.39,340.6,147.08Zm-94.85,31.55,5.18-2.11c.84,1.88,1.63,3.56,2.35,5.28s1.5,3,3.65,2.8c-3.36,1.84-8.78,3.35-10.72,3.2Zm10.31,2.85c-1.48-4.43-4.29-8.32-6-13.1,5.43,1.16,10.46,2.4,15.56,3.26s10.18,1.33,15.44,2C279.66,174.49,257.59,181.43,256.06,181.48Zm-23.76-8.35,6.26-1.65c.16,1.87.38,3.58.42,5.29a2,2,0,0,1-.88,1.31c-1.49,1.13-3,2.19-4.59,3.25a7.22,7.22,0,0,1-1.12.47C232.36,178.63,232.16,175.72,232.3,173.13Zm1.64-3.08c-.55-3.16-1-6-1.56-9l10.6,5.69Zm-5.58-22.45a25.86,25.86,0,0,1,2.11-15.49c2-4.1,4.23-8.08,6.58-12A128.18,128.18,0,0,1,253.46,98c3.08-3.24,5.79-6.84,8.68-10.27a5.83,5.83,0,0,1,.67-.58c.5.41.95.76,1.38,1.14a15.18,15.18,0,0,0,8.05,4c1,.16,2,.49,3,.57,1.94.15,3.65.58,4.78,2.38a3.7,3.7,0,0,0,1.37,1,24,24,0,0,0,8.44,3.31c3.56.51,7.15.83,11,1.27a9.55,9.55,0,0,0,4.88,4.62c2,.81,4.09,1.37,6.15,2a21,21,0,0,0,2.17.42c-.5,2.23-.87,4.22-1.4,6.17-1.67,6.14-3.41,12.27-5.09,18.41-.61,2.23-1.19,4.48-1.65,6.75a2.9,2.9,0,0,0,1.72,3.58,8.74,8.74,0,0,0,2,.79c2.44.57,4.89,1.08,7.5,1.64.95,1.82,1.08,1.88,3.22,1.16l1.23-.43a18.23,18.23,0,0,1,9.4-.81,12.21,12.21,0,0,1,7.79,4.32c1.75,2.14,2.66,4.65,1.64,7.28-1.49,3.82-4,6.71-8.36,7.39-.79.12-1.56.33-2.35.41-4.42.44-8.68.11-12.37-2.75a7.52,7.52,0,0,0-.91-.6,1.34,1.34,0,0,0-1.93.3,1.32,1.32,0,0,0,.3,1.93c.59.51,1.24,1,2.18,1.72-4.35,2.3-8.33,4.55-12.95,5.06-3.8.41-7.63.78-11.45.81a165.37,165.37,0,0,1-47.89-7.11,33.48,33.48,0,0,1-8.42-3.93C231.6,157.12,229.19,152.86,228.36,147.6Z"/><path class="cls-2" d="M304,170.24c-3.8.41-7.63.78-11.45.81a165.37,165.37,0,0,1-47.89-7.11,33.48,33.48,0,0,1-8.42-3.93c-4.63-2.89-7-7.15-7.87-12.41a25.86,25.86,0,0,1,2.11-15.49c2-4.1,4.23-8.08,6.58-12A128.18,128.18,0,0,1,253.46,98c3.08-3.24,5.79-6.84,8.68-10.27a5.83,5.83,0,0,1,.67-.58c.5.41.95.76,1.38,1.14a15.18,15.18,0,0,0,8.05,4c1,.16,2,.49,3,.57,1.94.15,3.65.58,4.78,2.38a3.7,3.7,0,0,0,1.37,1,24,24,0,0,0,8.44,3.31c3.56.51,7.15.83,11,1.27a9.55,9.55,0,0,0,4.88,4.62c2,.81,4.09,1.37,6.15,2a21,21,0,0,0,2.17.42c-.5,2.23-.87,4.22-1.4,6.17-1.67,6.14-3.41,12.27-5.09,18.41-.61,2.23-1.19,4.48-1.65,6.75a2.9,2.9,0,0,0,1.72,3.58,8.74,8.74,0,0,0,2,.79c2.44.57,4.89,1.08,7.5,1.64.95,1.82,1.08,1.88,3.22,1.16l1.23-.43a18.23,18.23,0,0,1,9.4-.81,12.21,12.21,0,0,1,7.79,4.32c1.75,2.14,2.66,4.65,1.64,7.28-1.49,3.82-4,6.71-8.36,7.39-.79.12-1.56.33-2.35.4-4.42.45-8.68.12-12.37-2.74a7.52,7.52,0,0,0-.91-.6,1.34,1.34,0,0,0-1.93.3,1.32,1.32,0,0,0,.3,1.93c.59.51,1.24,1,2.18,1.72C312.59,167.48,308.61,169.73,304,170.24Zm-21.38-28.41a2.74,2.74,0,0,0-.44-1.42,1.93,1.93,0,0,0-1.39-.69c-.43.09-.87.67-1.09,1.14s.05.84.08,1.27c.2,3.08.53,6.17.52,9.25a24.53,24.53,0,0,1-.94,4.86c-.07.35-.21.68-.31,1-.39,1.48-.16,2.26.75,2.55s1.47-.26,2-1.78a25.76,25.76,0,0,0,1.61-9.57C283.13,146.26,282.89,144,282.61,141.83Zm15.82-28.49c.43-.3,1-.76,1-1.19a1.82,1.82,0,0,0-.83-1.31,3.78,3.78,0,0,0-1.67-.35q-6.58-.63-13.16-1.21c-1.72-.16-2.49.22-2.57,1.22s.59,1.47,2.34,1.64L297,113.38l.59.05C297.74,113.42,298.18,113.52,298.43,113.34Zm-35.19-13q3.24,3.76,6.51,7.51c.24.27.51.65.8.69a2.16,2.16,0,0,0,1.54-.2,2.22,2.22,0,0,0,.33-1.53c0-.3-.35-.61-.58-.88q-3.18-3.68-6.38-7.34a3.7,3.7,0,0,0-1-.84c-.92-.47-2,.24-1.91,1.49A6.75,6.75,0,0,0,263.24,100.31Zm22.68,29.82a3.31,3.31,0,0,0-3.33-3.25,3.48,3.48,0,0,0-3.57,3.3c0,1.86,1.36,3,3.44,3S285.91,131.92,285.92,130.13Zm-30.36-9.79a3.26,3.26,0,0,0-3.07,3.26c0,1.61,2,3.08,4.07,3,1.68-.05,2.27-.84,2.25-3A3.39,3.39,0,0,0,255.56,120.34Zm2,18a1.16,1.16,0,0,0,1.65-.56c1.11-2,2.18-4.05,3.23-6.1a1.38,1.38,0,0,0-2.38-1.4c-.88,1.4-1.69,2.85-2.46,4.3-.41.76-.67,1.59-1.08,2.59A4.9,4.9,0,0,0,257.56,138.37Z"/><path class="cls-2" d="M282,93.26a25.86,25.86,0,0,0,12.35,4.06c2,.18,4,.27,6.05.32a2.91,2.91,0,0,1,2.86,1.59c1.18,2.52,3.37,3.73,5.82,4.54a30.16,30.16,0,0,0,4.21,1c3.3.57,4.09,1.73,3.33,4.93-.62,2.6-1.21,5.21-1.87,8,1.08.42,2.15.8,3.17,1.26a23.36,23.36,0,0,1,3.45,1.77c1.19.81,1.36,1.78.72,2.55s-1.37.75-2.48-.09c-1.61-1.22-3.51-1.58-5.58-2.26l-1.48,5.38c1.87.34,3.57.62,5.25,1a4.37,4.37,0,0,1,1.81.66,1.69,1.69,0,0,1,.65,1.42,2.2,2.2,0,0,1-1.33,1.14c-.49.15-1.12-.14-1.68-.22l-5.76-.82c-.44,1.5-.82,2.78-1.28,4.3l5.79.9a8.31,8.31,0,0,1,1.49.27,1.41,1.41,0,0,1,1.12,1.62,1.39,1.39,0,0,1-1.52,1.26,20.75,20.75,0,0,1-2.36-.25l-5.3-.63-.74,3a16.22,16.22,0,0,0,7.39,2c1.48.11,3-.2,4.36.89.3.25,1.1,0,1.64-.17a21.47,21.47,0,0,1,8.17-.59,15.85,15.85,0,0,1,10.31,5c1.21,1.31,1.89,1.38,3.29.28a4.65,4.65,0,0,0,2.08-4.7c-.23-1.2-.59-2.38-.91-3.56s-.2-1.82,1-2.45c.64-.33,1.36-.51,2-.85a32.27,32.27,0,0,0,3.49-2.1c3.56-2.61,3-6.33,1.16-9.24-.76-1.22-1.79-2.27-2.64-3.45-1.73-2.4-1.41-3.78,1.2-5.24.5-.29,1-.51,1.53-.81a5.71,5.71,0,0,0,3-5.15c.14-4.8-2.07-8.17-6.18-10.36-2-1.07-3.29-2.51-3.33-4.9a6.35,6.35,0,0,0-3-5.22c-4.26-3-9.07-3.55-14.08-3.1-2.18.19-2.3.26-3.09-1.77A18.46,18.46,0,0,0,320.42,77c-2-1.65-4.1-3.2-6.19-4.75a13.32,13.32,0,0,0-6.2-2.43,63.47,63.47,0,0,0-16-.14,11.64,11.64,0,0,0-3.43,1.14c-1.07.5-1.74,0-2.54-.58a62.52,62.52,0,0,0-5.35-3.67,14.41,14.41,0,0,0-8.11-2,9.18,9.18,0,0,0-3.92,1,4.36,4.36,0,0,1-5-.23,8.52,8.52,0,0,0-11.07,1.2,6.6,6.6,0,0,0-1.23,7.6c.91,1.8.91,1.8-.38,3.16a2.53,2.53,0,0,0-.37,3.5,3.72,3.72,0,0,0,2.76,1.91,29.55,29.55,0,0,0,5.38.31,7.5,7.5,0,0,1,5.83,1.78,9.24,9.24,0,0,1,.84.68c3.71,4,8.66,4.58,13.7,4.86.43,0,.86,0,1.3,0,1.58,0,1.94.49,1.76,2.18C282.14,92.67,282.1,92.88,282,93.26Z"/><path class="cls-2" d="M250,168.38c1.75,4.78,4.56,8.67,6,13.1,1.53,0,23.6-7,25-7.85-5.26-.66-10.38-1.13-15.45-2S255.45,169.54,250,168.38Z"/><path class="cls-2" d="M256.93,184.6c-2.15.21-3-1.16-3.65-2.8s-1.51-3.4-2.35-5.28l-5.18,2.11.46,9.17C248.15,188,253.57,186.44,256.93,184.6Z"/><path class="cls-2" d="M238.56,171.48l-6.26,1.65c-.14,2.59.06,5.5.09,8.67a7.22,7.22,0,0,0,1.12-.47c1.55-1.06,3.1-2.12,4.59-3.25a2,2,0,0,0,.88-1.31C238.94,175.06,238.72,173.35,238.56,171.48Z"/><path class="cls-2" d="M232.38,161c.52,3,1,5.85,1.56,9l9-3.32Z"/><path class="cls-1" d="M283.38,148.47c-.25-2.21-.49-4.43-.77-6.64a2.74,2.74,0,0,0-.44-1.42,1.93,1.93,0,0,0-1.39-.69c-.43.09-.87.67-1.09,1.14s.05.84.08,1.27c.2,3.08.53,6.17.52,9.25a24.53,24.53,0,0,1-.94,4.86c-.07.35-.21.68-.31,1-.39,1.48-.16,2.26.75,2.55s1.47-.26,2-1.78A25.76,25.76,0,0,0,283.38,148.47Z"/><path class="cls-1" d="M282.56,135c2.68,0,4.52-1.66,4.53-4a4.32,4.32,0,0,0-4.36-4.25,4.53,4.53,0,0,0-4.67,4.31C278.07,133.45,279.85,135,282.56,135Z"/><path class="cls-1" d="M258.91,123.69a4.11,4.11,0,0,0-4-4,4,4,0,0,0-3.73,4c0,2,2.43,3.74,5,3.66C258.21,127.21,258.94,126.25,258.91,123.69Z"/><path class="cls-1" d="M256.52,137.2a4.9,4.9,0,0,0,1,1.17,1.16,1.16,0,0,0,1.65-.56c1.11-2,2.18-4.05,3.23-6.1a1.38,1.38,0,0,0-2.38-1.4c-.88,1.4-1.69,2.85-2.46,4.3C257.19,135.37,256.93,136.2,256.52,137.2Z"/><rect class="cls-2" x="279" y="106.93" width="23.97" height="8.14" transform="translate(582.05 221.79) rotate(179.96)"/><polygon class="cls-2" points="257.4 97.67 271.08 111.36 276.82 105.6 263.14 91.91 257.4 97.67"/><path class="cls-6" d="M296.6,124A9.45,9.45,0,0,0,282.46,118"/><path class="cls-6" d="M251.29,110.8c.28-.33,3.2-3.68,7.16-3.54a6.53,6.53,0,0,1,5.64,4"/><path class="cls-6" d="M248.69,146.63c-.66,3.1,1.49,5.62,4.42,6.8,3.48,1.4,7.06.7,8.47-2.26"/><path class="cls-7" d="M35.32,9C47.84,2,64.18.7,77.24,7c6.15,3,11.38,7.92,13,14.75a15.29,15.29,0,0,1-.78,9.72c-1.51,3.3-4.14,5.93-5.5,9.31-1.17,2.9-.42,6.28.58,9.11a27.15,27.15,0,0,0,4.57,8.34l.3-2.36s.34-.13.41-.06a2.12,2.12,0,0,0-.49-.14,11,11,0,0,1-1.49-.83,42.92,42.92,0,0,1-3.91-2.94c-2.12-1.73-4.1-3.76-6.38-5.28-1.6-1.08-3.11,1.52-1.51,2.59l.29.2L77,50l1.64,1.39c1.46,1.25,2.91,2.49,4.42,3.67,1.68,1.33,5.42,4.91,7.84,3.41a1.53,1.53,0,0,0,.3-2.35,23.47,23.47,0,0,1-4-7.51c-.94-2.85-1.32-5.45.16-8.16,1.78-3.26,4.34-6,5.48-9.6A18.92,18.92,0,0,0,93,20.6C89.26,5.83,72.09,0,58.43,0A51,51,0,0,0,33.81,6.38c-1.69.94-.18,3.53,1.51,2.59Z"/><path class="cls-7" d="M77.17,46.48c-6-1.46-12.44-.93-18.58-.69s-12.61.78-18.5-1a14.76,14.76,0,0,1-4.37-2.34c-1.2-.86-2.5-1.61-3.68-2.5a11.53,11.53,0,0,1-3-3.92,24,24,0,0,1-2.19-13A18.21,18.21,0,0,1,35.32,9a1.5,1.5,0,0,0-1.51-2.59c-9.56,5.81-12.14,18.33-8.49,28.43a19,19,0,0,0,3.2,5.83c1.61,1.94,4,3.17,6,4.61,5.53,3.94,12.85,3.85,19.36,3.7,4-.09,8-.34,12-.39a41.7,41.7,0,0,1,10.52.82c1.87.45,2.67-2.44.8-2.9Z"/><path class="cls-7" d="M336.5,19.42a46.65,46.65,0,0,0-32.66-2.19c-4.76,1.5-9.6,4-12.35,8.36a12.06,12.06,0,0,0-2,6.91A11.06,11.06,0,0,0,292.13,39a31.41,31.41,0,0,1,2.6,3.39,3.46,3.46,0,0,1,.25,2.78,13.37,13.37,0,0,1-3.49,6,1.52,1.52,0,0,0,.3,2.36c2,1,4.6-1,6.23-2,1.91-1.23,3.7-2.75,5.68-3.85,1.69-.94.18-3.53-1.51-2.59s-3.17,2.18-4.75,3.24c-1,.64-1.92,1.27-2.93,1.82a7.62,7.62,0,0,1-1.15.56c-.05,0-.42.1-.45.14-.19,0-.18,0,0,0a.9.9,0,0,1,.39.13l.3,2.36c2.53-2.52,5.23-7,4.44-10.68-.47-2.18-2.35-3.89-3.68-5.58a7.74,7.74,0,0,1-1.76-6.29c.85-4.81,5.26-7.94,9.5-9.7a39.8,39.8,0,0,1,15.27-2.75A43.43,43.43,0,0,1,335,22c1.74.79,3.27-1.8,1.51-2.59Z"/><path class="cls-7" d="M303.34,47.77c9.6-1.89,19.71,1.45,29.23-1.2a27.08,27.08,0,0,0,6.55-3.26,10,10,0,0,0,3.11-3.18A15.25,15.25,0,0,0,344.33,30a14,14,0,0,0-7.83-10.54c-1.72-.86-3.24,1.72-1.51,2.59a11.14,11.14,0,0,1,6.34,8.11,12.18,12.18,0,0,1-1.64,8.4,6.6,6.6,0,0,1-2.4,2.38c-2.07,1.14-4,2.47-6.38,3-4.32,1-8.94.68-13.34.55-5-.16-10.1-.53-15,.44-1.9.37-1.09,3.26.79,2.89Z"/><rect class="cls-8" x="10.87" y="226.6" width="391.24" height="56.52"/><path class="cls-1" d="M263.61,297.93c3.75.7,7.27,2.4,11,3.1a1.55,1.55,0,0,0,1.85-1,1.52,1.52,0,0,0-1.05-1.85c-3.75-.7-7.27-2.4-11-3.1a1.53,1.53,0,0,0-1.84,1,1.5,1.5,0,0,0,1,1.84Z"/><path class="cls-1" d="M276.29,300.77l8.6-7.33a45.38,45.38,0,0,0,5.75-6.32c2.43-3.05,4.44-6.49,4.68-10.46a15.29,15.29,0,0,0-3.57-10.5A16.51,16.51,0,0,0,281,260.67c-4.26-.59-9.06-.51-13.1,1.13a16.12,16.12,0,0,0-8.08,7.33c-2.22,4.19-2.21,8.7-1.06,13.22,1.27,4.94,3.69,10,2.8,15.24-.32,1.89,2.57,2.7,2.9.79.71-4.17-.25-8-1.41-12s-2.71-7.94-1.94-12a13.51,13.51,0,0,1,5.12-8.23c3.22-2.41,7.3-2.83,11.21-2.75s7.85.81,10.75,3.43a12.38,12.38,0,0,1,4.12,9.1c0,3.55-1.9,6.7-4.07,9.38a43.59,43.59,0,0,1-5.37,5.9l-8.73,7.45c-1.47,1.26.66,3.37,2.12,2.12Z"/><path class="cls-1" d="M274.63,301c.25.05-.87-.63-.61-.84,0,0,0,.33,0,.38,0,.26-.06.51-.08.76-.06.56,0,1.13-.06,1.69a16.56,16.56,0,0,1-.29,2.86,8.5,8.5,0,0,1-.35,1.19c-.09.22.09-.2,0,0l-.12.24c-.05.1-.11.19-.16.28s-.22.32-.1.16-.23.24-.3.32l-.19.16c.23-.18,0,0,0,0s-.49.27-.4.23-.1,0-.14.05l-.42.11a9.3,9.3,0,0,1-2.55,0c-.9-.06-2-.14-2.76-.24a14.84,14.84,0,0,1-1.48-.28l-.72-.2-.3-.11c-.44-.16.2.12-.19-.08a4.48,4.48,0,0,1-.47-.28c.23.17.06,0,0,0-.26-.3.17.29-.06-.07a4.69,4.69,0,0,1-.76-1.78c-.25-1.44.5-2.8,1-4.11a13,13,0,0,1,2-3.94,1.53,1.53,0,0,0,0-2.12,1.51,1.51,0,0,0-2.12,0,15.33,15.33,0,0,0-2.53,4.71c-.62,1.65-1.43,3.3-1.34,5.1A6.65,6.65,0,0,0,261,309.7a7.32,7.32,0,0,0,3.45,1.45,31.62,31.62,0,0,0,4,.47,13,13,0,0,0,3.64-.07,5.89,5.89,0,0,0,4.4-4.73,22.22,22.22,0,0,0,.45-4.38c0-1.48.62-3.92-1.46-4.3a1.54,1.54,0,0,0-1.85,1.05,1.51,1.51,0,0,0,1.05,1.84Z"/><path class="cls-1" d="M262.59,301.47a31.84,31.84,0,0,0,5.69,2.38c1.76.55,3.55,1,5.3,1.56a1.5,1.5,0,1,0,.8-2.89c-1.7-.55-3.43-1-5.14-1.51a27.84,27.84,0,0,1-5.14-2.13,1.53,1.53,0,0,0-2.05.54,1.51,1.51,0,0,0,.54,2.05Z"/><path class="cls-1" d="M261,304.66a41.77,41.77,0,0,0,12.61,4.4,1.53,1.53,0,0,0,1.85-1.05,1.52,1.52,0,0,0-1.05-1.84,39.14,39.14,0,0,1-11.89-4.11,1.51,1.51,0,0,0-1.52,2.6Z"/><ellipse class="cls-2" cx="276.65" cy="277.37" rx="12.06" ry="10.94"/><path class="cls-1" d="M276.44,290.39a19.8,19.8,0,0,0,4.11-5.33,16.09,16.09,0,0,0,2.55-6.95A5,5,0,0,0,278,273c-2.42,0-6.06.54-6.87,3.22a4,4,0,0,0,4,5,3.66,3.66,0,0,0,3.58-4.69c-1.51-5.59-9.55-4.61-11.56.05a16.26,16.26,0,0,0-.85,7.61,19.18,19.18,0,0,0,1.18,6.05c.38.88,1.68.12,1.3-.76a15.26,15.26,0,0,1-.81-3.66,24.93,24.93,0,0,1-.17-5.46,7.26,7.26,0,0,1,1.65-4.58,5.31,5.31,0,0,1,6-1.14c1.37.77,2.68,3,1.38,4.38a2.57,2.57,0,0,1-4.35-1.79c.06-2.38,3.5-2.73,5.29-2.75a3.74,3.74,0,0,1,2.87,1,3.58,3.58,0,0,1,.92,3.31,18.87,18.87,0,0,1-2.54,6,17.74,17.74,0,0,1-3.58,4.54c-.75.61.32,1.66,1.06,1.06Z"/><polygon class="cls-1" points="291.48 262.44 302.06 259.85 299.02 254.56 291.48 262.44"/><polygon class="cls-1" points="288.17 259.25 295.72 251.39 290.32 248.55 288.17 259.25"/><polygon class="cls-1" points="284.02 258.48 285.36 247.65 279.35 248.62 284.02 258.48"/><path class="cls-1" d="M374.67,304.91c-6.95-3.27-13.46-7.32-20.54-9.48-19.74-6-38.06-2.57-54.71,9.91-7.14,5.36-11.36,12.7-15.56,20.24-2.25,4-4.24,8.55-9.2,10.18-1.65.55-3.37.88-5.34,1.38-.4,1.84-.38,1.77,2.52,2.49,1.81.44,3.56,1.13,4.7,1.5,0,5.77-.26,11.15.08,16.49.26,4.11-.06,6.24-2.92,9.36,2.26,1.44,2.26,1.44,7.78-4.92,2.32,7.23,3.78,15.07,10.14,19.85,4.3,3.22,6.77,7.47,9.56,12.27l3.85-2.06,6.93,6.74,1.4-2.51c6,4.22,3.71,10.48,3,15.59C314.47,425,311.65,438,309,451c-2.51,12.35-5.23,24.67-8,37-1,4.44-2,8.89-3,13.33h2.53q2.32-10.44,4.57-20.87c4.19-19.6,8.22-39.24,12.35-58.86.38-1.78,1-3.51,1.47-5.27l4.77,3.31,2.71-13.86,1.49,0c.87,4.92,1.75,9.85,2.63,14.83,2,0,2,0,3.79-4.31,4.68.38,4.68.38,3.21-4.14-.21-.62-.39-1.25-.69-2.24l6,1.92c.61-4.62,1.48-8.92,1.66-13.24.28-6.67.54-7.23,7.71-8.68,3.37,11.16,7.24,22.24,10,33.59,3.36,13.7,6.07,27.58,8.59,41.48,2.16,11.94,4.15,24,5.26,36,0,.09,0,.17,0,.26h2.51c-.07-.8-.12-1.59-.21-2.38-.71-7.05-1.79-14.07-2.95-21.06-2-12.21-3.72-24.52-6.52-36.56-3.37-14.45-7.76-28.67-11.65-43a26.39,26.39,0,0,1-.43-4.12l2,2.66a30.12,30.12,0,0,0,2.26-2.26c3.42-4.15,6.44-8.7,10.26-12.44,8.12-8,13.68-17.29,15.58-28.5A154.51,154.51,0,0,0,388.55,335a28,28,0,0,0-6.41-19.4,10.16,10.16,0,0,1-1-2.14c4.63-.66,9.49-.14,12.61-4.31.66-.88-.41,1.18,0,0-4.51,0-7.28-3.34-11.38-3.34m-2.19,5.45c2.82-6,7-.6,10.13-1.68.05.33-.06-.32,0,0Zm-50.12,95.48.34-.1c.64,1.31,1.29,2.62,2.09,4.23.44-1.06.65-1.58,1.06-2.59,1,2,1.79,3.43,2.06,4l-3.87,4.32C331.23,413.51,330.65,410.13,330.07,406.75Zm-.41-6.64,3.95.62c-.33-1.54-.64-3-1-4.54l-1.87.14-.11-1.12,12.83-2.54c-.69,6.15-1.27,11.4-2,17.74C336.61,406.82,330.88,406.45,329.66,400.11Zm-7.2-3.73c2.11,2.91,4.79,5.77-1.94,7v-9.53c5.43,1.26,5.43,1.26,4.86,3.71Zm-3.95,17.33c1.06-3.44-.77-8.18,4.9-8.85l-3.67,5.35.84.68,3.78-5c-.69,3.55-1.27,6.49-1.84,9.44C321.78,413.21,320.61,412.46,318.51,413.71ZM345,384.5c5-4.82,6.08-5.85,10.8-10.92,3.4-3.65,5.41-8.84,11-9.87,1.94-.35,4.52-.63,5.88.36,1,.71,1.16,3.94.4,5.35-1.08,2-3.25,3.5-5.15,5-1.45,1.12-3.37,1.65-4.8,2.8-6.19,5-12.17,10.48-20.07,12.6a56,56,0,0,1-25,.88c-11.48-2.14-20.19-8.11-24.39-19.24-2.1-5.55-2.95-11.58-4.69-18.71,7.63,0,14.27-.12,20.9.07,2.1.06,4.16,1.21,6.28,1.44,6.65.72,13.33,1.23,20.59,1.88.58-1.76,1.33-4.09,2.09-6.42l.31.1c-.27,2.81-.54,5.61-.8,8.23,6.25.81,9.89,4.77,14.13,7.92-2.71,8.06-1.78,12.49-7.41,18.44m-69.61-45.8c7.31-4.35,10.39-11.32,14.08-17.85a36,36,0,0,1,4.66-6.88c12.64-13.63,28.14-19.9,46.84-18.51A55.31,55.31,0,0,1,371.27,307c1.46,1.12,3.4,1.59,5.11,2.36,1.12,2.45,1.85,5.71,3.77,8a24,24,0,0,1,6,17.52A165.84,165.84,0,0,1,383,359.28c-1.65,7.67-6.33,14.1-11.79,19.6-3.92,3.93-8.6,7.1-12.94,10.62l1.51,1-5,.34c-.19-.52-.52-1.46-1.18-3.29,6.26-4,12.51-7.93,18.7-12a10.69,10.69,0,0,0,2.73-2.72c2.83-3.86,2-10.27-1.47-12.15-3.78-2-12.46.67-14.72,4.36-1.81,3-3.94,5.7-6.14,8.85,1.93-7.68,3.73-14.86,5.54-22l-1.92-.52c-1.09,3.74-2.17,7.47-3.3,11.36L341.13,355c.45-7.28.89-14.34,1.32-21.4L341,333c-.84,1.38-2.09,2.65-2.44,4.14-1,4.43-1.72,8.93-2.44,13.42-.37,2.34-1.49,3.22-3.89,2.91a126.47,126.47,0,0,0-14-1.42c-3.19-.06-4.33-1.25-3.77-4.13.93-4.82,2.08-9.59,3.05-14.4a16,16,0,0,0,0-3.17l-1.44-.18-7,19.13-21.66,2.07c2.12-8,4-15.19,5.91-22.38a3,3,0,0,0-2.49,1.46,46.94,46.94,0,0,0-3.22,8.87c-.89,4.58-1.91,9.36-1.52,13.93.53,6.24,2.36,12.36,3.55,18.55.09.47-.52,1.07-.95,1.88-3.42-5.81-4.73-11.9-5.13-18.22-.14-2.28-.23-4.44-2.75-5.54-.44,3.33-.81,6.19-1.28,9.79a27.35,27.35,0,0,1,.05-17.08C280.87,338.23,280.69,338.17,275.46,338.58Z"/><path class="cls-2" d="M376.07,501.05C375,489,373,477,370.81,465c-2.52-13.9-5.22-27.78-8.59-41.48-2.78-11.35-6.65-22.43-10-33.59-7.17,1.45-7.43,2-7.71,8.68-.18,4.32-1.05,8.62-1.66,13.24l-6-1.92c.3,1,.48,1.62.69,2.24,1.47,4.52,1.47,4.52-3.21,4.14-1.81,4.29-1.81,4.29-3.79,4.31-.88-5-1.76-9.91-2.63-14.83l-1.49,0c-.92,4.69-1.84,9.38-2.71,13.86L319,416.31c-.5,1.76-1.09,3.49-1.47,5.27-4.13,19.62-8.16,39.26-12.35,58.86q-2.19,10.24-4.48,20.48"/><path class="cls-2" d="M353.63,387.51l1.18,3.29,5-.34-1.51-1c4.34-3.52,9-6.69,12.94-10.62,5.46-5.5,10.14-11.93,11.79-19.6a165.84,165.84,0,0,0,3.14-24.45,24,24,0,0,0-6-17.52c-1.92-2.25-2.65-5.51-3.77-8-1.71-.77-3.65-1.24-5.11-2.36A55.31,55.31,0,0,0,341,295.34c-18.7-1.39-34.2,4.88-46.84,18.51a36,36,0,0,0-4.66,6.88c-3.69,6.53-6.77,13.5-14.08,17.85,5.23-.41,5.41-.35,4.11,4.06a27.35,27.35,0,0,0-.05,17.08c.47-3.6.84-6.46,1.28-9.79,2.52,1.1,2.61,3.26,2.75,5.54.4,6.32,3.25,16.28,6.66,22.1.44-.82,13.91,13.78,10.45,8.93-3.65-5.13-14.16-21.09-14.29-31.42a65.47,65.47,0,0,1,1.23-15.75,46.94,46.94,0,0,1,3.22-8.87,3,3,0,0,1,2.49-1.46l-5.91,22.38c8-.76,16.54-1,23.33-1.69,2.32-6.31,3-13.1,5.37-19.51l1.44.18a16,16,0,0,1,0,3.17c-1,4.81-2.12,9.58-3.05,14.4-.56,2.88.58,4.07,3.77,4.13a126.47,126.47,0,0,1,14,1.42c2.4.31,3.52-.57,3.89-2.91.72-4.49,2.35-7,3.37-11.41.34-1.49.67-4.77,1.51-6.15l1.49.58c-.43,7.06-.87,14.12-1.32,21.4l11.92,7.69,3.3-11.36,1.92.52c-1.81,7.18-3.61,14.36-5.54,22,2.2-3.15,4.33-5.9,6.14-8.85,2.26-3.69,10.94-6.39,14.72-4.36,3.48,1.88,4.3,8.29,1.47,12.15a10.69,10.69,0,0,1-2.73,2.72C366.14,379.58,359.89,383.52,353.63,387.51Z"/><path class="cls-2" d="M346.57,382.92c5-4.82,4.46-4.27,9.18-9.34,3.4-3.65,5.41-8.84,11-9.87,1.94-.35,4.52-.63,5.88.36,1,.71,1.16,3.94.4,5.35-1.08,2-3.25,3.5-5.15,5-1.45,1.12-3.37,1.65-4.8,2.8-6.19,5-12.17,10.48-20.07,12.6a56,56,0,0,1-25,.88c-11.48-2.14-20.19-8.11-24.39-19.24-2.1-5.55-2.95-11.58-4.69-18.71,7.63,0,14.27-.12,20.9.07,2.1.06,4.16,1.21,6.28,1.44,6.65.72,13.33,1.23,20.59,1.88l2.09-6.42.31.1c-.27,2.81-.54,5.61-.8,8.23,6.25.81,9.89,4.77,14.13,7.92-2.71,8.06-1.91,12.61-7.53,18.56"/><path class="cls-2" d="M333.61,400.73l-3.95-.62c1.22,6.34,6.95,6.71,11.84,10.3.71-6.34,1.29-11.59,2-17.74l-12.83,2.54.11,1.12,1.87-.14C333,397.78,333.28,399.19,333.61,400.73Z"/><path class="cls-2" d="M320.52,403.39c6.73-1.24,4.05-4.1,1.94-7l2.92,1.19c.57-2.45.57-2.45-4.86-3.71Z"/><path class="cls-2" d="M319.74,410.21l3.67-5.35c-5.67.67-3.84,5.41-4.9,8.85,2.1-1.25,3.27-.5,4,1.62.57-2.95,1.15-5.89,1.84-9.44l-3.78,5Z"/><path class="cls-2" d="M335.62,412.25l-2.06-4-1.06,2.59-2.09-4.23-.34.1c.58,3.38,1.16,6.76,1.68,9.82Z"/><polygon class="cls-1" points="297.49 502.08 378.59 502.08 378.59 499.76 298.26 499.76 297.49 502.08"/><path class="cls-1" d="M330.54,373a4.5,4.5,0,1,0-4.5-4.5,4.55,4.55,0,0,0,4.5,4.5Z"/><path class="cls-1" d="M306.48,369.91a4.5,4.5,0,1,0-4.5-4.5,4.55,4.55,0,0,0,4.5,4.5Z"/><path class="cls-6" d="M311.58,377.4c0,2.71,2.23,4.43,4.89,4.9,3.15.56,6.44-1.8,6.44-4.51"/><path class="cls-1" d="M315.23,368.26l-.36,1.89-.05.27a1.22,1.22,0,0,0,0,.6,1.12,1.12,0,0,0,.18.56,1.52,1.52,0,0,0,.9.69,1.49,1.49,0,0,0,1.15-.15,1.45,1.45,0,0,0,.69-.9l.36-1.89.05-.28a1,1,0,0,0,0-.6,1.12,1.12,0,0,0-.18-.55,1.53,1.53,0,0,0-.89-.69,1.51,1.51,0,0,0-1.16.15,1.49,1.49,0,0,0-.69.9Z"/><path class="cls-6" d="M300.66,360.9c0-2.16,2.63-3.9,5.88-3.9"/><path class="cls-6" d="M336.41,363.82c0-2.15-2.63-3.9-5.87-3.9"/><path class="cls-1" d="M207,361.35l9.53-1.67,1.37-.24a1.5,1.5,0,0,0-.79-2.9l-9.53,1.68-1.38.24a1.5,1.5,0,0,0,.8,2.89Z"/><path class="cls-2" d="M241.82,366.41c5.56,27.45-24.42,36.09-46.77,36.09s-42.84-16.86-42.84-37.66,21.62-30.63,42.84-37.65C221.18,318.56,237.69,346,241.82,366.41Z"/><path class="cls-6" d="M214.83,386.26c.52,2.65,3,3.92,5.74,3.87,3.2-.05,6-3,5.46-5.66"/><path class="cls-2" d="M228.18,408c-.05-2.07-.25-4.14-.38-6.21l-.51-.11c-.79,1.67-1.61,3.33-2.34,5a1.68,1.68,0,0,1-2.43,1.07c-.79-.3-1.59-.58-2.63-1-.46,2-.85,3.78-1.32,5.58a3.83,3.83,0,0,0,.59,3.09c1.7,2.91,3.29,5.89,4.84,8.88a5.26,5.26,0,0,1,.56,2.24c.13,6.2.24,12.4.28,18.61a8,8,0,0,1-.59,3.19c-.53,1.24-.89,3-2.55,3.06s-2.4-1.57-3-2.91c-2.16-5-4.21-10-6.36-14.94a14,14,0,0,1-.55-10.31c.65-2,1.15-4.08,1.7-6.13.18-.66.3-1.33.48-2.09-1.14-.74-2.19-1.43-3.24-2.1s-2.06-1.32-3.07-1.95c-2.19,2.94-2.34,3-5.39,1.7-3.95-1.72-7.89-3.47-11.8-5.3A23.38,23.38,0,0,1,185,404.4c-2.12-1.85-4.68-2.38-7.15-3.46-.28.71-.49,1.3-.74,1.87-2.16,5-4,10.06-6.55,14.85-6.1,11.63-18.47,38.3-24.06,51l82.82-.05C228.92,452,228.56,422.27,228.18,408Z"/><path class="cls-2" d="M198.94,375.75c2.32.55,4-.16,4.91-2.07a4.33,4.33,0,0,0-1.42-5.42,6.07,6.07,0,0,0-1.9-.87c-3-.78-4.87.71-5.07,4A4.16,4.16,0,0,0,198.94,375.75Zm34.36-13.49a4.94,4.94,0,0,0-4.69,4.41c-.05,1.71,2.61,3.83,4.87,3.89,2,.05,3.32-1.66,3.35-4.27S235.49,362.21,233.3,362.26Z"/><path class="cls-2" d="M204.87,411.3l4.78-8.65c-6.77,1.18-13.19,2.41-19.91,1.48C191.33,405.74,200,409.83,204.87,411.3Z"/><path class="cls-2" d="M226.43,398.38l-11.94,3.25c2.87,1.68,5.67,2.67,8.5,4.11Z"/><path class="cls-1" d="M195.46,371.42a4.16,4.16,0,0,0,3.48,4.33c2.32.55,4-.16,4.91-2.07a4.33,4.33,0,0,0-1.42-5.42,6.07,6.07,0,0,0-1.9-.87C197.51,366.61,195.66,368.1,195.46,371.42Z"/><path class="cls-1" d="M236.83,366.29c0-2.51-1.34-4.08-3.53-4a4.94,4.94,0,0,0-4.69,4.41c-.05,1.71,2.61,3.83,4.87,3.89C235.46,370.61,236.8,368.9,236.83,366.29Z"/><path class="cls-1" d="M218.8,371.46c.51,1.65.95,3.22,1.53,4.74.09.26.83.5,1.14.39a1.25,1.25,0,0,0,.64-1,38.82,38.82,0,0,0-1.29-4.48,1.26,1.26,0,0,0-1.09-.54C219.39,370.58,219.13,371.1,218.8,371.46Z"/><path class="cls-1" d="M144.17,468.63l-.79,1.91,88.1-.06,0-1.9h0c-.44-18-.88-48.85-1.35-64.37-.07-2.42-.37-4.85-.58-7.51,9.33-5.39,14.94-13.26,14.62-24.74a1.92,1.92,0,0,0,2.49-1.7c.68-2.7,1.4-5.38,2.22-8.53.57,2.15,1,3.94,1.5,5.74a8.45,8.45,0,0,0,.24,1.38c.19.37.6.83.93.85a1.38,1.38,0,0,0,1-.76,4.06,4.06,0,0,0,.29-1.6c.16-5.18.55-10.36.38-15.53a145.89,145.89,0,0,0-1.47-16.16,39.28,39.28,0,0,0-2.66-8.25c-4.83-12.39-14-20.72-25.71-26.21-3.61-1.69-7.81-2.21-11.78-3.05-3.22-.67-6.5-1-9.95-1.54a15.92,15.92,0,0,0-.18-2.48c-.48-2.29-1-4.58-1.65-6.83a1.5,1.5,0,0,0-1.15-.87c-.35,0-.8.67-.92,1.11a12.28,12.28,0,0,0-.11,2.11,5.62,5.62,0,0,1-5.73,5.6c-5.52.25-10.93,1-15.94,3.54a6.15,6.15,0,0,1-1.13.34c-9.2,2.23-16.74,7.28-23.36,13.88a72.93,72.93,0,0,0-13.8,18.37,8.66,8.66,0,0,0-.66,1.5,60.06,60.06,0,0,0-1.51,26.36,31.78,31.78,0,0,0,4.72,11.21c1.73,2.8,3.77,5.4,5.69,8.08a24.76,24.76,0,0,0,6.53,6.38c3,1.93,6,3.81,8.92,5.7l14.45,9.19c-.23.79-.43,1.6-.72,2.39a136.08,136.08,0,0,1-8.17,18c-5.79,10.71-17.82,37.33-22.73,48.46Zm54.36-115.51a10.18,10.18,0,0,1,.29-1c2.34-5.4,4.73-10.77,7-16.2.94-2.23,1.67-4.55,2.47-6.84.2-.57.31-1.17.46-1.72,5.32.11,18.11,12.48,21.92,22.29-.5.4-1,.85-1.58,1.24s-1.07.8-.68,1.53,1.18.6,1.84.27,1.08-.51,1.83-.93c.83,1.81,1.62,3.33,2.45,4.91a1.59,1.59,0,0,0,1.25.76c.36-.06.81-.69.9-1.13a19.74,19.74,0,0,0,.17-2.67l.48-.16a31.14,31.14,0,0,1,2.8,5,38,38,0,0,1,1,21.12,18.45,18.45,0,0,1-3.39,7.17,28.54,28.54,0,0,1-16.16,10.7c-6.08,1.51-12.21,2.85-18.35,4.06a43.3,43.3,0,0,1-13.82.45c-6.36-.8-11.93-3.49-17.33-6.85a11.16,11.16,0,0,1-5.28-7.93,4.67,4.67,0,0,0-3.15-3.87,15.91,15.91,0,0,1-6.58-4.79,4.32,4.32,0,0,1-.47-4.65,12.55,12.55,0,0,1,4.37-4.83,2.77,2.77,0,0,1,1.56-.34c2.41,0,5.78,2.39,6.5,4.71.81,2.61,1.45,5.28,2.17,7.92a6.09,6.09,0,0,0,.43,1.56.89.89,0,0,0,1.56.15,4.74,4.74,0,0,0,.55-1c1.25-2.36,2.38-4.78,3.77-7.05,4.13-6.76,8.36-13.46,12.56-20.18a10.38,10.38,0,0,1,.77-.87c.25,1.77.43,3.22.64,4.66.3,2.1.56,4.21,1,6.28a2.15,2.15,0,0,0,1.16,1.49c.85.19,1.07-.68,1.22-1.4.32-1.53.59-3.08,1-4.6s1-3.22,1.59-5m12.16,47.23-4.78,8.65c-4.86-1.47-13.54-5.56-15.13-7.17C196.46,405.06,202.88,403.83,209.65,402.65Zm16.78-4.27L223,405.74c-2.83-1.44-5.63-2.43-8.5-4.11Zm2.85,70.2-82.82.05c5.59-12.67,18-39.34,24.06-51,2.5-4.79,4.39-9.89,6.55-14.85.25-.57.46-1.16.74-1.87,2.47,1.08,5,1.61,7.15,3.46a23.38,23.38,0,0,0,5.53,3.06c3.91,1.83,7.85,3.58,11.8,5.3,3.05,1.32,3.2,1.24,5.39-1.7,1,.63,2,1.28,3.07,1.95s2.1,1.36,3.24,2.1c-.18.76-.3,1.43-.48,2.09-.55,2.05-1,4.12-1.7,6.13a14,14,0,0,0,.55,10.31c2.15,5,4.2,10,6.36,14.94.58,1.34,1.17,3,3,2.91s2-1.82,2.55-3.06a8,8,0,0,0,.59-3.19c0-6.21-.15-12.41-.28-18.61a5.26,5.26,0,0,0-.56-2.24c-1.55-3-3.14-6-4.84-8.88a3.83,3.83,0,0,1-.59-3.09c.47-1.8.86-3.62,1.32-5.58,1,.38,1.84.66,2.63,1a1.68,1.68,0,0,0,2.43-1.07c.73-1.69,1.55-3.35,2.34-5l.51.11c.13,2.07.33,4.14.38,6.21C228.56,422.27,228.92,452,229.28,468.58Z"/><path class="cls-1" d="M234.86,357s-9.78-16.95-10.85-18.09,8.8.78,8.8.78Z"/><path class="cls-7" d="M428.83,244.07A57.9,57.9,0,0,0,388,241.35c-6,1.89-12.11,5.14-15.46,10.67a14.85,14.85,0,0,0-2.26,8.6,14.53,14.53,0,0,0,3.67,8.26,21.87,21.87,0,0,1,3.11,4.25,5.16,5.16,0,0,1,0,3.65,17.6,17.6,0,0,1-4.41,7.47,1.51,1.51,0,0,0,.31,2.35c2.38,1.2,5.7-1.44,7.57-2.66,2.35-1.55,4.56-3.44,7-4.8,1.69-.94.18-3.53-1.51-2.59-2.14,1.18-4.07,2.81-6.1,4.18-1.24.83-2.49,1.65-3.81,2.36a9.29,9.29,0,0,1-1.39.66c-.19.07-.4.1-.59.17.42-.16-.06,0,0,0a2.94,2.94,0,0,1,.34.1l.31,2.36A21,21,0,0,0,379,280c.95-2.16,1.79-4.73,1.14-7.1-.8-2.92-3.44-5.05-5.1-7.46a10,10,0,0,1-1.54-8.08c1.44-6.07,7-10,12.5-12.15a50.68,50.68,0,0,1,19.42-3.33,54.48,54.48,0,0,1,21.85,4.77c1.75.8,3.27-1.78,1.52-2.59Z"/><path class="cls-7" d="M387.19,279.29c5.9-1.18,12.14-.63,18.11-.44s12.37.54,18.26-1c3-.77,5.68-2.55,8.34-4.07a11.84,11.84,0,0,0,4-3.95,18.89,18.89,0,0,0,2.68-12.45,17.39,17.39,0,0,0-9.7-13.33c-1.72-.86-3.24,1.73-1.52,2.59A14.51,14.51,0,0,1,435.45,257a15.92,15.92,0,0,1-2,11,8.88,8.88,0,0,1-3.2,3.24c-2.53,1.37-4.93,3.06-7.75,3.75-5.49,1.34-11.39,1-17,.8-6.32-.2-12.85-.71-19.09.54-1.89.38-1.09,3.27.79,2.9Z"/><path class="cls-7" d="M143,258.18c6.72-3.57,15.53-4.29,22.46-.86,3.21,1.58,6.05,4.24,6.55,7.94a7.1,7.1,0,0,1-1.11,4.87c-.95,1.5-2.27,2.9-2.68,4.68-.71,3.11,1.26,6.89,3.2,9.19l.31-2.36a1.8,1.8,0,0,1,.6-.14s0,0-.15-.06c-.3-.18-.61-.34-.9-.53a24,24,0,0,1-2-1.48c-1.1-.88-2.14-1.88-3.31-2.66-1.62-1.07-3.12,1.53-1.52,2.59.4.26.94.74,1.49,1.2.85.7,1.71,1.4,2.59,2.06,1.25.94,3.07,2.47,4.71,1.61a1.52,1.52,0,0,0,.31-2.36,11.36,11.36,0,0,1-2.13-4.09,4.33,4.33,0,0,1,.78-4.26,14.71,14.71,0,0,0,2.65-5.08,10.74,10.74,0,0,0-.35-5.62c-2.62-7.8-11.93-10.73-19.4-10.68a29.25,29.25,0,0,0-13.61,3.45c-1.7.91-.19,3.5,1.51,2.59Z"/><path class="cls-7" d="M165.56,276.62c-6.4-1.47-13.11.76-19.48-.73-1.72-.39-2.93-1.44-4.4-2.34a4.54,4.54,0,0,1-1.65-1.69,11.33,11.33,0,0,1-1.37-6.53,8.9,8.9,0,0,1,4.29-7.15,1.5,1.5,0,0,0-1.51-2.59c-5.39,3.22-7.06,10.11-4.91,15.82a10.71,10.71,0,0,0,1.9,3.33,17.09,17.09,0,0,0,3.31,2.47c3.06,2.11,7,2.17,10.55,2.11,4.09-.07,8.44-.73,12.47.19,1.88.43,2.68-2.46.8-2.89Z"/><rect class="cls-8" x="23.58" y="461.18" width="391.24" height="56.52"/><path class="cls-1" d="M270,516.56v-14h4.23v14h4.31V499.64H266.79V496h25.94v3.66H282.9v6h8.31v3.6H282.9v7.3h10.3v3.75h-27v-3.75Z"/><path class="cls-1" d="M323.12,508.37q-1.92,6.68-5.3,9.64a12.76,12.76,0,0,1-8.7,3,12.15,12.15,0,0,1-4-.6,7.71,7.71,0,0,1-2.81-1.6,7.54,7.54,0,0,1-1.68-2.21,7.91,7.91,0,0,1-.77-2.53,34.36,34.36,0,0,1-.18-4.15q0-3.08.64-14.42h4.4q-.6,10.13-.6,14.08a27.74,27.74,0,0,0,.17,4.09,4.12,4.12,0,0,0,.75,1.66,3.79,3.79,0,0,0,1.7,1.23,7.54,7.54,0,0,0,2.72.43,8,8,0,0,0,5.95-2.41c1.59-1.62,2.85-4.16,3.78-7.65Z"/><path class="cls-1" d="M341.67,511a39,39,0,0,1-1.92,4.54,17.36,17.36,0,0,1-2.28,3.71,3.29,3.29,0,0,1-2.57,1.19q-3.18,0-5.47-3.9a17.44,17.44,0,0,1-2.28-9c0-1.11.11-2.74.33-4.91s.31-3.81.31-4.89h4.5c0,1-.18,2.6-.44,4.85a41.41,41.41,0,0,0-.38,4.86,14.37,14.37,0,0,0,1.14,5.92c.76,1.7,1.4,2.55,1.93,2.55.77,0,2-2.24,3.62-6.7Zm12.15,5.42-4.44.27a28,28,0,0,0-1.59-9.14,24.83,24.83,0,0,0-4.32-7.89l3.56-1.78A26.67,26.67,0,0,1,353.82,516.43Z"/><path class="cls-1" d="M364.36,513.89a15,15,0,0,1-6.6,7.13l-2-3A14,14,0,0,0,360,514a13.35,13.35,0,0,0,1.72-4.61h-5.16v-3.24h5.35v-4.76h-.53a20.59,20.59,0,0,1-2.37,4.31l-3.14-1.7a31.52,31.52,0,0,0,2.29-4.91,22.19,22.19,0,0,0,1.33-4.67l3.95.6c-.27,1.11-.57,2.16-.88,3.15h7.55v3.22h-4.2v4.76h4.44v3.24h-4a15.77,15.77,0,0,0,4.47,6.06l-2.68,3.12A18.71,18.71,0,0,1,364.36,513.89Zm15,4.79h-4.23v1.57h-3.94v-23.5h12.14v23.5h-4Zm-4.23-3.18h4.23V499.93h-4.23Z"/><path class="cls-1" d="M395.19,501.82h-8.51V499h8.51ZM395,519.76h-4.89v1.09h-3V511H395Zm-.07-22.1H387.5v-2.55H395Zm-.15,8h-7.29v-2.49h7.29Zm0,3.94h-7.29v-2.52h7.29Zm-2.71,7.67V513.5h-1.84v3.77ZM403,518.45h-3.46v1.11h-3.3V506.8H405v9.7a27.37,27.37,0,0,0,2.07-2.62,31.91,31.91,0,0,1-1.13-8.31H395.33v-2.93H397l-.57-3h-1.08v-2.86h3.51v-2.09h3.55v2.09h3.49l0-2.21h3.55l0,8h4.88v2.93H409.5c0,1.44.11,2.69.22,3.77.38-.84.84-2,1.38-3.52l3.2,1a30.15,30.15,0,0,1-3.59,7.44,11.44,11.44,0,0,0,.67,1.66,3.67,3.67,0,0,0,.43.77.3.3,0,0,0,.15,0c.12,0,.18-.07.2-.21s.08-1.47.18-4l2.74.45c0,2.15-.1,3.81-.2,5a3.88,3.88,0,0,1-.75,2.35,2.16,2.16,0,0,1-1.63.61c-1.34,0-2.7-1.22-4.06-3.66a32.51,32.51,0,0,1-3.73,3.68l-2.07-2.2Zm-1.27-7.08v-2h-2.19v2Zm0,4.44V513.5h-2.19v2.31Zm-2.16-16.14.56,3h1.13l.55-3Zm4.64,3h1.74v-3h-1Zm10-1.45-3,.72-1.65-5.45,2.86-.66Z"/><path class="cls-1" d="M103.19,552.57a15.63,15.63,0,0,1-1.53,3.9,19.71,19.71,0,0,1-4.08,5.3,25.75,25.75,0,0,1-5.28,4l-2.28-3a18.55,18.55,0,0,0,4.22-3.35,19.14,19.14,0,0,0,3.12-4.18H76.1v-3.78h25.75Zm-13.08,4v.72c0,2,0,3.66-.12,5a17.1,17.1,0,0,1-.81,4.22A12.81,12.81,0,0,1,87,570.7,14,14,0,0,1,83.17,574a20.79,20.79,0,0,1-5.29,2.22l-1.59-3.55q5.47-1.68,7.41-4.79c1.3-2.07,1.94-4.89,1.94-8.48l0-2.81Z"/><path class="cls-1" d="M121.38,557.24l-2.7,3.63c-1.45-.92-2.74-1.71-3.86-2.34s-3.67-1.94-7.62-3.93l2.32-3.35A96,96,0,0,1,121.38,557.24Zm11.94,3.57a26.85,26.85,0,0,1-9.76,10.48q-6,3.6-15.24,4.5l-1-4.11a40.09,40.09,0,0,0,8.39-1.52,22.25,22.25,0,0,0,5.88-2.8,29.65,29.65,0,0,0,4.3-3.54,28.38,28.38,0,0,0,3.89-5.35Z"/><path class="cls-1" d="M149,550.17c0,2.24,0,4-.07,5.31h12.15V559a46.59,46.59,0,0,1-.93,10.6c-.62,2.5-1.53,4.16-2.73,5A7.66,7.66,0,0,1,153,575.8a49.86,49.86,0,0,1-5.79-.64l.18-4.08a44,44,0,0,0,5.3.69h.16a2.38,2.38,0,0,0,2.18-1.29,11.44,11.44,0,0,0,1.13-4,40.29,40.29,0,0,0,.37-5.49v-1.7h-7.92a22.46,22.46,0,0,1-3.59,10.4,22.8,22.8,0,0,1-8,6.94l-2.27-3.06a22.16,22.16,0,0,0,6.22-5.68,18.2,18.2,0,0,0,3.05-8.62h-7.55v-3.75h7.88c.05-1.1.07-2.87.07-5.31Zm8.75,3.63-2.14.8a48.63,48.63,0,0,0-2-4.49l2.07-.81A44.3,44.3,0,0,1,157.73,553.8Zm4.19-.54-2.1.77q-1-2.4-2-4.49l2-.75C160.56,550.22,161.27,551.71,161.92,553.26Z"/><path class="cls-1" d="M193.06,565.46H166v-3.9h27Z"/><path class="cls-1" d="M217.43,574.23l-4.06,2.36a55.59,55.59,0,0,0-14.3-13.49l3.11-2.89a59.13,59.13,0,0,1,6.67,4.94,44.09,44.09,0,0,0,8.71-9H196.05v-3.85h26.09l1.75,1.89a36.67,36.67,0,0,1-5,7.16,50.09,50.09,0,0,1-7,6.67Q213,569.19,217.43,574.23Z"/><path class="cls-1" d="M241.31,576.53h-4.37V566.28a56.38,56.38,0,0,1-10.57,4.07l-1.49-3.56a53.35,53.35,0,0,0,9.81-4,31.82,31.82,0,0,0,8.59-5.73H227.66V553.4h9.16v-3.66h4.37v3.66h7.39l1.54,1.89a31.79,31.79,0,0,1-8.81,8.37Zm13.4-9.08-2.65,3.38a60.55,60.55,0,0,0-9.38-5.15l2.34-3.06A68.34,68.34,0,0,1,254.71,567.45Z"/><path class="cls-1" d="M271,561.9l-2,3.69q-3.27-1.43-5.38-2.14t-7-2.09l1.68-3.46a56.14,56.14,0,0,1,5.6,1.43Q266.38,560.13,271,561.9Zm13.18-1.14a26.58,26.58,0,0,1-10,10.6,35.64,35.64,0,0,1-15,4.48l-1-3.92a35.41,35.41,0,0,0,13-3.65,24.36,24.36,0,0,0,9.33-9.37Zm-10.32-6-2.08,3.66c-1.07-.48-2.17-1-3.31-1.42s-2.07-.81-2.78-1l-6.19-2,1.73-3.38A89.78,89.78,0,0,1,273.85,554.72Zm5.28,1.29-2.14.82q-1.19-2.91-2-4.5l2.07-.82A45.13,45.13,0,0,1,279.13,556Zm4.19-.83-2.11.77q-1-2.57-2-4.5l2-.74Q282.33,552.86,283.32,555.18Z"/><path class="cls-1" d="M310,550.88a32.86,32.86,0,0,1-4.73,12.41q3.57,2.54,7.26,5.74l-3.25,3.52a50.12,50.12,0,0,0-6.64-5.69,30,30,0,0,1-14.74,9.32L286,572.55a25.36,25.36,0,0,0,6.88-3.25,30.55,30.55,0,0,0,6-5.15q-2.48-1.7-9.23-5.49l2.6-3.12q5.31,2.75,9.14,5.17a28.19,28.19,0,0,0,3.94-10.34Z"/><path class="cls-1" d="M332.45,557.24l-2.7,3.63c-1.45-.92-2.74-1.71-3.86-2.34s-3.67-1.94-7.62-3.93l2.32-3.35A96,96,0,0,1,332.45,557.24Zm11.94,3.57a26.85,26.85,0,0,1-9.76,10.48q-6,3.6-15.24,4.5l-1-4.11a40.09,40.09,0,0,0,8.39-1.52,22.25,22.25,0,0,0,5.88-2.8,29.65,29.65,0,0,0,4.3-3.54,28.38,28.38,0,0,0,3.89-5.35Z"/><path class="cls-1" d="M374,565l-2.79,3.47a54.84,54.84,0,0,0-13-6.53v14.28h-4.64V549.81h4.69v7.83A75.58,75.58,0,0,1,374,565Z"/><path class="cls-1" d="M38.63,510.26q-3.15,7.47-12.46,10.65l-1.81-3.34a22,22,0,0,0,5.05-2.45A14.4,14.4,0,0,0,32.82,512a14.81,14.81,0,0,0,2-3.5,12.76,12.76,0,0,0,.87-3.45q.16-1.68.17-5.9l0-3.85h4.38v7.34a11.58,11.58,0,0,0,.53,2.64,15.21,15.21,0,0,0,2,4.09,18.48,18.48,0,0,0,4,4.25A24.78,24.78,0,0,0,52.42,517l-2.65,3.68a23,23,0,0,1-6.85-4.61A21.23,21.23,0,0,1,38.63,510.26Z"/><path class="cls-1" d="M70.16,521H66.39V510.3c-.4.34-.89.74-1.48,1.2l-1.34-1.78-.45.83A11.78,11.78,0,0,1,61.56,509v12.08H57.94v-9.69a27.22,27.22,0,0,1-2.16,3.76L53.57,513a27.75,27.75,0,0,0,2.58-4.86,24.83,24.83,0,0,0,1.62-5.1H54.9v-3h3v-5.67h3.62V500h1.9v3h-1.9v1.79a18.64,18.64,0,0,0,3,2.87A24.46,24.46,0,0,0,68,503.9H64.21V501h1.9l-2-1.44a17.28,17.28,0,0,0,3.71-5.61l3.49.72a9.51,9.51,0,0,1-.87,1.77H81.65v2.9H74.48c-.21.6-.43,1.15-.65,1.66h8.63v2.91H78.61c-.22.45-.5,1-.84,1.61h4.36v2.64H77.07v1.54H81.5v2.15H77.07v1.63H81.5v2.18H77.07v1.65h5.42v2.8H70.16Zm-.37-20a18.2,18.2,0,0,0,.77-1.66H68.62A16.74,16.74,0,0,1,67.13,501Zm.37,7.16v1.54h3.2v-1.54Zm0,3.69v1.63h3.2v-1.63Zm0,3.81v1.65h3.2v-1.65Zm2.12-11.75c-.32.5-.71,1-1.16,1.61h3c.19-.43.42-1,.69-1.61Z"/><path class="cls-1" d="M103.69,516h-4.2l0-5.75c-3.51,1.71-5.26,3.3-5.26,4.79s1.69,2.21,5.06,2.21l1.64,0a75.6,75.6,0,0,0,10-.48l.21,3.66q-4.14.4-8.12.4c-5.09,0-8.51-.43-10.24-1.3a4.23,4.23,0,0,1-2.61-4q0-4.45,8.55-8.75a1.36,1.36,0,0,0-1.14-.48,8.37,8.37,0,0,0-3.46,1,21.31,21.31,0,0,0-4.66,3.24c-1.19,1-2,1.76-2.57,2.14l-2.56-2.76a27.2,27.2,0,0,0,7.74-8.44H85.81V498h7.82a26,26,0,0,0,.93-3.32l4.33.23q-.42,1.81-.84,3.09h9.72v3.47H96.63a25.59,25.59,0,0,1-1.41,2.35,9.16,9.16,0,0,1,2.83-.49,5,5,0,0,1,4.33,1.85q1.91-.82,8.07-3.22l1.72,3.48c-1.94.66-4.82,1.68-8.66,3.08a17.46,17.46,0,0,1,.15,2.36Z"/><path class="cls-1" d="M126.15,518.59l-2.68,2.46a31.92,31.92,0,0,0-5-3.35l1.68-1.42h-5.24v-2.61h19v-1.35H116.5V500.53h7.75v-1.38h-9v-2.4h6.43l-1.35-2,3.86-.75,1.72,2.75h5.4l1.62-2.69,4,.57-1.5,2.12h6.84v2.4h-9.17v1.38H141v11.79h-3v1.35h4.55v2.61H138v2.08a2.45,2.45,0,0,1-.95,2,4,4,0,0,1-2.53.75h-5.09l-.46-3.18h4a1,1,0,0,0,.66-.24.71.71,0,0,0,.3-.56v-.85H122.5A24,24,0,0,1,126.15,518.59Zm-6-11.6h17v-1.26h-5.09a2.24,2.24,0,0,1-1.5-.59,1.81,1.81,0,0,1-.67-1.37v-1.44H127q-1,3.53-5.26,4.53L120.54,505a5.4,5.4,0,0,0,3.36-2.64h-3.75Zm0,3.39h17v-1.66h-17Zm7.12-11.23v1.38h2.65v-1.38Zm9.91,4.78v-1.6h-4.06v.81c0,.53.29.79.87.79Z"/><path class="cls-1" d="M173,520.57H144.72v-2.78h11.91v-1.38H146.09V514h10.54v-1.42h-9.47v-9.65h9.47v-1.21H144.94v-2.6h11.69v-1.28q-3,.07-9.1.08l-.37-2.52q6.41,0,12.5-.36a86.13,86.13,0,0,0,9-.85l1.33,2.7a82,82,0,0,1-9.14.81v1.42h11.79v2.6H160.86v1.21h9.61v9.65h-9.61V514h10.76v2.46H160.86v1.38H173ZM156.63,505.1h-5.42v1.55h5.42Zm0,3.5h-5.42v1.63h5.42Zm9.84-2V505.1h-5.61v1.55Zm0,3.58V508.6h-5.61v1.63Z"/><path class="cls-1" d="M202.71,500.94H194v5.54a10,10,0,0,1,.84,4.5,9,9,0,0,1-3.15,7.15,13.82,13.82,0,0,1-8.39,3l-1-3.54c4.32-.34,7.05-1.87,8.18-4.62a6.39,6.39,0,0,1-3.83,1.2,6.27,6.27,0,0,1-4.32-1.54,5,5,0,0,1-1.75-4,5.87,5.87,0,0,1,1.85-4.46,6.5,6.5,0,0,1,4.64-1.74,7.38,7.38,0,0,1,2.63.48v-2.05H175.21v-3.48h14.42v-2.93H194v2.93h8.74Zm-13,6.67,0-.82a3,3,0,0,0-2.63-1,2.43,2.43,0,0,0-1.78.82,2.57,2.57,0,0,0-.81,1.81,2.37,2.37,0,0,0,.6,1.66,2,2,0,0,0,1.54.66,3.05,3.05,0,0,0,2.26-.86A3.1,3.1,0,0,0,189.68,507.61Z"/><path class="cls-1" d="M223.55,516.72q3.58-1.41,3.59-4.48a4,4,0,0,0-1.77-3.44,7.63,7.63,0,0,0-4.47-1.25h-.37a11.68,11.68,0,0,0-2.76.39,18,18,0,0,0-3,1,17.68,17.68,0,0,0-2.34,1.26q-.94.63-4.41,3.18l-2.35-2.95q12-8.2,15.38-10.76H208.62v-3.43H226.4l2.12,2.25q-3.17,2.1-9.43,6.39a12.54,12.54,0,0,1,3-.47,10.63,10.63,0,0,1,6.8,2,6.84,6.84,0,0,1,2.46,5.66,7.47,7.47,0,0,1-3.48,6.62,16.33,16.33,0,0,1-9.17,2.31,12.08,12.08,0,0,1-5.95-1.24,3.9,3.9,0,0,1-2.2-3.6,3.85,3.85,0,0,1,1.87-3.23,7,7,0,0,1,4.1-1.31Q222,511.62,223.55,516.72Zm-3.8,1q-1-3-3.49-3a2.21,2.21,0,0,0-1.31.4,1.25,1.25,0,0,0-.58,1c0,1.07,1.27,1.61,3.8,1.61A15.59,15.59,0,0,0,219.75,517.68Z"/><rect class="cls-9" y="601.95" width="450.12" height="95.33"/><path class="cls-2" d="M92.14,644.82a58.13,58.13,0,0,1-7,.47c-3.48,0-5.87-.34-7.19-1a3.3,3.3,0,0,1-2-3.06q0-2.55,2.72-4.6l2,1.46c-1.24,1.17-1.86,2.14-1.86,2.9a1.51,1.51,0,0,0,.12.61,1.3,1.3,0,0,0,.57.54,5,5,0,0,0,1.66.45,21.54,21.54,0,0,0,3.07.18h.71a46.62,46.62,0,0,0,6.81-.52Zm-.73-12.4a8.82,8.82,0,0,0-1.42.37,12.86,12.86,0,0,0-1.28.48L85,635.06l-1.21-1.72,2.28-1.06c-1.94,0-4.84.1-8.73.24l-.07-2.42Q80,630,87.89,630H90.5Z"/><path class="cls-2" d="M98.55,640.12c-1,1.48-1.89,2.66-2.62,3.54L94.4,641.5a49.34,49.34,0,0,0,3.75-5c.08-.17.21-.44.4-.81v-2.19H95.13V631.3h3.42v-3.16h2.78v5.48q3.65-3.5,6.24-3.5a3.68,3.68,0,0,1,2.6.93,3.23,3.23,0,0,1,1,2.47c0,.58-.12,2-.36,4.33-.2,1.87-.33,3.23-.38,4.09v.2c0,.44.15.66.46.66a7.1,7.1,0,0,0,2.54-1l.64,2.26a6.44,6.44,0,0,1-3.6,1.29,2.78,2.78,0,0,1-2.12-.79,3,3,0,0,1-.76-2.16c0-.24.15-1.77.44-4.58.15-1.61.25-3,.27-4.08v-.15c0-.65-.34-1-1-1a4.94,4.94,0,0,0-2.34,1,21,21,0,0,0-3.62,3.15v8.91H98.55Z"/><path class="cls-2" d="M121.92,630.56c0,.41,0,.9,0,1.48h2.71a3.54,3.54,0,0,1,2.71,1.1,3.94,3.94,0,0,1,1,2.82,20,20,0,0,1-1,7,3.52,3.52,0,0,1-3.42,2.66,9,9,0,0,1-4-1.45l.91-2.36a9.64,9.64,0,0,0,1.65.71,5,5,0,0,0,1.15.31.91.91,0,0,0,.66-.29,3.61,3.61,0,0,0,.58-1.18,10.8,10.8,0,0,0,.46-2,20.42,20.42,0,0,0,.15-2.63,5,5,0,0,0-.13-1.4,1.1,1.1,0,0,0-.42-.6,1.35,1.35,0,0,0-.75-.2h-2.45a20.26,20.26,0,0,1-5.16,11.44l-2.13-1.58a20.54,20.54,0,0,0,2.53-3.85,19.19,19.19,0,0,0,1.78-6h-3.56V632h3.91v-3.76h2.87Zm12.23,8.14-2.82.72a29.42,29.42,0,0,0-1.38-4,20.73,20.73,0,0,0-1.39-2.51,14.56,14.56,0,0,0-1.41-1.92l2.25-1.4a20.88,20.88,0,0,1,3,4.37A17.63,17.63,0,0,1,134.15,638.7Z"/><path class="cls-2" d="M139.63,645.76l-.4-2.48a29.09,29.09,0,0,0,7.8-.79c1.78-.52,2.67-1.38,2.67-2.57a2.34,2.34,0,0,0-.95-2,4.38,4.38,0,0,0-2.62-.69,10.47,10.47,0,0,0-4.4,1,9.61,9.61,0,0,0-3.53,2.66l-2.15-1.26a23.21,23.21,0,0,0,1.67-8.28l2.89.16a21.39,21.39,0,0,1-.86,5.16,11.23,11.23,0,0,1,3-1.26,12.69,12.69,0,0,1,3.32-.5,7.92,7.92,0,0,1,4.81,1.29,4.37,4.37,0,0,1,1.73,3.73,4.52,4.52,0,0,1-1.13,3.1,7.13,7.13,0,0,1-3.48,1.92A39.86,39.86,0,0,1,139.63,645.76Zm11.62-15.28L150,633a26.46,26.46,0,0,0-5.19-1.46c-2.11-.39-3.86-.65-5.27-.78l.76-2.34A56.77,56.77,0,0,1,151.25,630.48Z"/><path class="cls-2" d="M163.86,645.52l-.73-2.44a13,13,0,0,0,5.86-1.79,4.61,4.61,0,0,0,2-4,4.8,4.8,0,0,0-1.41-3.62,6.31,6.31,0,0,0-3.92-1.6,20,20,0,0,1-2.05,8.86q-1.86,3.4-4.66,3.4a3.41,3.41,0,0,1-3-1.72,7,7,0,0,1-1.12-3.92v-.24a8,8,0,0,1,2.73-6,10.31,10.31,0,0,1,6.89-2.8h.41a10.26,10.26,0,0,1,6.53,2,6.56,6.56,0,0,1,2.56,5.45,7.28,7.28,0,0,1-2.58,5.92Q168.79,645.13,163.86,645.52Zm-1-13.22a7,7,0,0,0-3.75,2.31,5.89,5.89,0,0,0-1.54,3.94,5.24,5.24,0,0,0,.38,2.05c.25.63.61.94,1.07.94.92,0,1.76-.89,2.51-2.67A19.58,19.58,0,0,0,162.86,632.3Z"/><path class="cls-2" d="M194.49,634.29l-1.43,2.23a20.72,20.72,0,0,1-4.5-2.49,22.84,22.84,0,0,1-4.12-3.61,19,19,0,0,1-4,3.59,22.18,22.18,0,0,1-4.68,2.61l-1.27-2.08a19.17,19.17,0,0,0,4.8-2.75,14.1,14.1,0,0,0,3.74-3.76h2.51a19.14,19.14,0,0,0,3.51,3.23A23.42,23.42,0,0,0,194.49,634.29Zm-16.26,8.55v-7.26H181v7.26h2.69v-10.2h2.86v3.56h5.16v2.36h-5.16v4.28h6.85v2.4H175.49v-2.4Z"/><path class="cls-2" d="M203.18,642.39a23,23,0,0,1-7.67,3l-.72-1.95a24.77,24.77,0,0,0,6-2.17h-5.38v-1.86h7.73v-.92h-6.7v-1.73h6.7v-.92h-7V634h3.67l-.44-1.12h-3.69V631h2.21l-1-2.27,2.35-.58,1.26,2.85h.89V627.9h2.37V631h1.5V627.9h2.34V631h1l1.25-2.87,2.45.58-1.2,2.29h2.36v1.87h-3.8l-.67,1.12h4v1.87h-7.25v.92h6.75v1.73h-6.75v.92h7.82v1.86H208.3a26.33,26.33,0,0,0,6,2l-1,2.18a21.24,21.24,0,0,1-7.48-3.21v3.49h-2.65Zm-1.24-9.51.45,1.12h4.1l.59-1.12Z"/><path class="cls-2" d="M220.42,629.1a29.22,29.22,0,0,0-1.25,7.55,30.3,30.3,0,0,0,1.1,8.15l-2.7.62a31.48,31.48,0,0,1-1.07-8,35.67,35.67,0,0,1,1.16-8.72Zm12.68,15.6c-1.6.15-3,.22-4.11.22q-4.31,0-5.88-1a3.15,3.15,0,0,1-1.57-2.83,6.06,6.06,0,0,1,2-4.18l2.17,1.16a4.11,4.11,0,0,0-1.58,2.93,1.23,1.23,0,0,0,.83,1.1,9.07,9.07,0,0,0,3.41.41c.88,0,2.42-.1,4.62-.28Zm-.21-12.24h-.83c-.86,0-2.28,0-4.27,0s-3.91.13-5.78.26v-2.38c4.42-.21,7.49-.32,9.19-.32.68,0,1.24,0,1.69.06Z"/><path class="cls-2" d="M78.64,666.14a22.13,22.13,0,0,1-.71,4,15.59,15.59,0,0,1-1.25,3.44l-2.52-.87A23,23,0,0,0,76,665.83ZM91.33,662a21.9,21.9,0,0,1-1.69,2.85c-.59.83-1.48,1.92-2.68,3.29a55.64,55.64,0,0,1-4.28,4.32v1.22a.57.57,0,0,0,.42.6,8.64,8.64,0,0,0,2,.14,5.12,5.12,0,0,0,1.88-.2,1.29,1.29,0,0,0,.48-.92,19.23,19.23,0,0,0,.13-2.85l2.37.31v3.62a2.07,2.07,0,0,1-.49,1.42,2.53,2.53,0,0,1-1.41.75,16.81,16.81,0,0,1-3.11.2c-.53,0-1.07,0-1.63,0s-1-.06-1.34-.1a2.3,2.3,0,0,1-1-.33,2.35,2.35,0,0,1-.72-.68,2.19,2.19,0,0,1-.36-.92,25.18,25.18,0,0,1-3.78,2.3L75,675.09a28.66,28.66,0,0,0,5-3.36v-8.36h2.75V669q4.69-4.86,6-8Zm-4.5.51-1.84,2a59.51,59.51,0,0,0-5.1-3.82l1.63-1.81a29,29,0,0,1,2.91,1.79A20.37,20.37,0,0,1,86.83,662.55Zm7,10.06-2.7.84a30.84,30.84,0,0,0-2.63-6.51L91,666A28.94,28.94,0,0,1,93.86,672.61Z"/><path class="cls-2" d="M102.61,670.81A14.74,14.74,0,0,1,99.74,674a18.74,18.74,0,0,1-4.11,2.71l-1.29-1.89a20.51,20.51,0,0,0,3.35-2.42,18.34,18.34,0,0,0,2.87-3Zm-.77-9.92a14.13,14.13,0,0,1-2.19,2.24,19.84,19.84,0,0,1-3.86,2.63l-1.37-1.93a16.25,16.25,0,0,0,3-2,15.14,15.14,0,0,0,2.41-2.39Zm.75,4.64a17.17,17.17,0,0,1-3.09,3.05A18.81,18.81,0,0,1,95.93,671l-1.32-2a15.34,15.34,0,0,0,3.27-2.26,29.57,29.57,0,0,0,2.74-2.68Zm4.26,9.18a10.26,10.26,0,0,1-2.8,1.51,13.12,13.12,0,0,1-2.93.87l-1-1.94a16.28,16.28,0,0,0,4.52-1.74h-1.92V662.88H106l.36-1.13H102.1v-2h11.31v2h-4.36l-.51,1.13h3.93v10.53h-2.55a25.87,25.87,0,0,0,4.12,1.68l-1.22,2a12.67,12.67,0,0,1-2.68-1,10.79,10.79,0,0,1-2.29-1.4l1.13-1.28h-3.39Zm2.93-8.84v-1.22h-4.4v1.22Zm-4.4,2.83h4.4v-1.26h-4.4Zm4.4,1.6h-4.4v1.32h4.4Z"/><path class="cls-2" d="M123.65,676.89l-.72-2.44a12.92,12.92,0,0,0,5.86-1.79,4.62,4.62,0,0,0,2-4,4.8,4.8,0,0,0-1.41-3.62,6.34,6.34,0,0,0-3.92-1.6,20.08,20.08,0,0,1-2.06,8.87q-1.85,3.39-4.65,3.39a3.4,3.4,0,0,1-3-1.72,7,7,0,0,1-1.13-3.92v-.24a8,8,0,0,1,2.74-6,10.31,10.31,0,0,1,6.89-2.8h.41a10.27,10.27,0,0,1,6.53,2,6.56,6.56,0,0,1,2.55,5.45,7.3,7.3,0,0,1-2.57,5.92Q128.59,676.51,123.65,676.89Zm-1-13.21a6.94,6.94,0,0,0-3.75,2.3,5.91,5.91,0,0,0-1.55,3.95,5.5,5.5,0,0,0,.38,2.05c.26.62.62.93,1.07.93q1.39,0,2.52-2.67A19.77,19.77,0,0,0,122.66,663.68Z"/><path class="cls-2" d="M151.67,676.27H136v-2.61h12.56V664l-12.39,0v-2.58h15.49Z"/><path class="cls-2" d="M165.87,664.43l-1.8,2.42q-1.45-.93-2.58-1.56c-.74-.43-2.44-1.3-5.07-2.62l1.55-2.24A65.19,65.19,0,0,1,165.87,664.43Zm8,2.38a17.81,17.81,0,0,1-6.51,7,24.21,24.21,0,0,1-10.16,3l-.67-2.73a26.85,26.85,0,0,0,5.6-1,14.68,14.68,0,0,0,3.92-1.87,19.74,19.74,0,0,0,2.87-2.35,19.5,19.5,0,0,0,2.59-3.57Z"/><path class="cls-2" d="M190.39,662.59v0a29.44,29.44,0,0,1-.38,3,15,15,0,0,1-1.76,5,10.76,10.76,0,0,1-4.43,4.21,21.45,21.45,0,0,1-8.07,2.21l-.78-2.59a18.92,18.92,0,0,0,6.89-1.87,9.09,9.09,0,0,0,3.92-3.59,14.27,14.27,0,0,0,1.47-5.58l-12.4,0v-2.52l14.56,0A2.44,2.44,0,0,0,190.39,662.59Zm4.08-2a2,2,0,0,1-.63,1.5,2.41,2.41,0,0,1-3.16,0,2,2,0,0,1-.63-1.5,2,2,0,0,1,.63-1.5,2.41,2.41,0,0,1,3.16,0A2,2,0,0,1,194.47,660.56Zm-1.32-.88a1.25,1.25,0,0,0-2.14.88,1.19,1.19,0,0,0,.36.88,1.28,1.28,0,0,0,1.78,0,1.19,1.19,0,0,0,.36-.88A1.21,1.21,0,0,0,193.15,659.68Z"/><path class="cls-2" d="M212.74,665.23a14.56,14.56,0,0,1-.93,5,9,9,0,0,1-2.93,3.93,11.62,11.62,0,0,1-4.61,2.14,28.37,28.37,0,0,1-5.36.67l-.58-2.54c3.65-.2,6.3-.81,8-1.85a7.24,7.24,0,0,0,3.2-4.84H196.44v-2.56Zm-.76-2.1H197v-2.46H212Z"/><path class="cls-2" d="M227.37,676.93h-3v-8.86A37,37,0,0,1,216.2,671l-.9-2.56a30.08,30.08,0,0,0,9-3.62,18.11,18.11,0,0,0,5.8-5.5l2.86,1.08a21.71,21.71,0,0,1-2.81,3.51,24.62,24.62,0,0,1-2.79,2.29Z"/><path class="cls-2" d="M254.25,661.31a10.28,10.28,0,0,1-1,2.61,13.25,13.25,0,0,1-2.72,3.53,17.11,17.11,0,0,1-3.52,2.68l-1.52-2a12.34,12.34,0,0,0,2.82-2.24,13.14,13.14,0,0,0,2.08-2.78H236.19v-2.52h17.17Zm-8.72,2.7v.48c0,1.33,0,2.44-.07,3.32a11.23,11.23,0,0,1-.55,2.81,8.5,8.5,0,0,1-1.48,2.78,9.31,9.31,0,0,1-2.52,2.21,13.68,13.68,0,0,1-3.53,1.48l-1.06-2.36q3.65-1.12,4.94-3.19a10.66,10.66,0,0,0,1.29-5.66l0-1.87Z"/><path class="cls-2" d="M266.38,664.43l-1.8,2.42q-1.45-.93-2.58-1.56t-5.08-2.62l1.56-2.24A65.93,65.93,0,0,1,266.38,664.43Zm8,2.38a18,18,0,0,1-6.51,7,24.26,24.26,0,0,1-10.16,3l-.67-2.73a27,27,0,0,0,5.6-1,14.68,14.68,0,0,0,3.92-1.87,16.06,16.06,0,0,0,5.46-5.92Z"/><path class="cls-2" d="M294.63,675l-2.2,2.1q-1.74-1.87-6.72-6.14a29.88,29.88,0,0,1-9.19,6.2l-1.43-2.3a27.3,27.3,0,0,0,7.31-4.71,20.46,20.46,0,0,0,5.26-6.84h-10v-2.56h12.9l.8.77a18.75,18.75,0,0,1-1.6,4.08,25.32,25.32,0,0,1-2.27,3.28Q291.77,672.31,294.63,675Z"/><path class="cls-2" d="M311.79,674.29l-.14,2.64-1.42,0a12.87,12.87,0,0,1-5.64-1,6.9,6.9,0,0,1-2.9-2.44,6.16,6.16,0,0,1-.87-3.26c0-2.38,1.18-4.58,3.54-6.58l-8.72.08v-2.5h17.5v2.52h-4.51a9.56,9.56,0,0,0-3.5,2.75,5.74,5.74,0,0,0-1.38,3.61q0,4.22,6.45,4.22Q311,674.35,311.79,674.29Zm-.87-6.47-1.45.53c-.27-.67-.72-1.67-1.33-3l1.39-.55A33,33,0,0,1,310.92,667.82Zm2.8-.57-1.42.52c-.46-1.13-.9-2.13-1.34-3l1.34-.5C312.84,665.29,313.31,666.29,313.72,667.25Z"/><path class="cls-2" d="M334.3,663.69h-5.83v3.69a6.71,6.71,0,0,1,.56,3,6,6,0,0,1-2.1,4.77,9.25,9.25,0,0,1-5.6,2l-.69-2.36q4.32-.33,5.45-3.08a4.51,4.51,0,0,1-5.43-.23,3.34,3.34,0,0,1-1.17-2.64,3.93,3.93,0,0,1,1.24-3,4.35,4.35,0,0,1,3.1-1.16,4.92,4.92,0,0,1,1.74.32v-1.36H316v-2.33h9.61v-2h2.9v2h5.83Zm-8.69,4.44,0-.55a2,2,0,0,0-1.75-.67,1.63,1.63,0,0,0-1.19.55,1.73,1.73,0,0,0-.53,1.21,1.59,1.59,0,0,0,.39,1.1,1.34,1.34,0,0,0,1,.44,2,2,0,0,0,1.51-.57A2.09,2.09,0,0,0,325.61,668.13Z"/><path class="cls-2" d="M343.34,673.86a2.9,2.9,0,0,1-1,2.21,3.54,3.54,0,0,1-4.76,0,2.9,2.9,0,0,1-1-2.21,2.93,2.93,0,0,1,1-2.21,3.57,3.57,0,0,1,4.76,0A2.93,2.93,0,0,1,343.34,673.86Zm-1.92,0a1.36,1.36,0,0,0-.42-1,1.42,1.42,0,0,0-2,0,1.36,1.36,0,0,0-.42,1,1.43,1.43,0,0,0,2.86,0Z"/></g></g></svg>