<svg xmlns="http://www.w3.org/2000/svg" viewBox="0 0 457.07 681.82"><defs><style>.cls-1{fill:#fff;}.cls-2{fill:#db444a;}.cls-3{fill:#fefefe;}.cls-4{fill:#fcfcfc;}.cls-5{fill:#fdfdfd;}.cls-6{fill:#7e6c6c;}</style></defs><g id="レイヤー_2" data-name="レイヤー 2"><g id="レイヤー_1-2" data-name="レイヤー 1"><path class="cls-1" d="M313.23,329.84c.07-2.63.32-5.26.48-7.89l.66-.13c1,2.12,2,4.22,3,6.37a2.13,2.13,0,0,0,3.09,1.35c1-.38,2-.73,3.35-1.21.58,2.48,1.07,4.79,1.68,7.08a4.85,4.85,0,0,1-.75,3.93c-2.16,3.7-4.17,7.48-6.15,11.28a6.63,6.63,0,0,0-.71,2.84c-.17,7.88-.3,15.75-.34,23.63a10.17,10.17,0,0,0,.75,4.06c.68,1.57,1.14,3.76,3.25,3.89,2.3.14,3.05-2,3.79-3.7,2.74-6.31,5.35-12.68,8.08-19a17.8,17.8,0,0,0,.69-13.09c-.83-2.56-1.46-5.18-2.16-7.78-.23-.84-.4-1.7-.61-2.66,1.45-.94,2.77-1.81,4.11-2.67l3.91-2.48c2.79,3.74,3,3.84,6.86,2.15,5-2.18,10-4.41,15-6.73,2.43-1.14,5.05-2.18,7-3.9,2.7-2.34,5.95-3,9.09-4.39.36.9.63,1.64.94,2.36,2.76,6.3,5.17,12.79,8.36,18.86,7.76,14.77,23.53,85.92,30.66,102H311.88C312.33,423,312.77,347.92,313.23,329.84Z"/><path class="cls-1" d="M360.61,261.12a11.75,11.75,0,0,1,1,1.11c5.35,8.53,10.74,17,16,25.62,1.77,2.88,3.21,6,4.8,8.95a5.82,5.82,0,0,0,.71,1.3,1.15,1.15,0,0,0,2-.19,8.58,8.58,0,0,0,.54-2c.91-3.36,1.73-6.74,2.75-10.06.91-2.94,5.2-6,8.27-6a3.57,3.57,0,0,1,2,.44,15.86,15.86,0,0,1,5.56,6.13,5.44,5.44,0,0,1-.6,5.89c-2.16,2.95-5.19,4.65-8.36,6.1-2.24,1-3.54,2.18-4,4.92a14.18,14.18,0,0,1-6.71,10.07c-6.87,4.28-14,7.7-22,8.72a55.14,55.14,0,0,1-17.58-.56c-7.82-1.54-15.62-3.22-23.36-5.14A36.36,36.36,0,0,1,301,302.86a23.59,23.59,0,0,1-4.32-9.11A48.1,48.1,0,0,1,298,266.93c.77-2.27,2.34-4.27,3.55-6.39l.62.2a21.35,21.35,0,0,0,.22,3.4c.11.56.68,1.36,1.14,1.43a2,2,0,0,0,1.58-1c1.06-2,1.95-4.12,3-6.42,1,.54,1.68,1,2.44,1.36s1.77.7,2.34-.35-.16-1.45-.86-1.94-1.38-1.07-2-1.57c4.84-12.47,21.11-28.19,27.88-28.34.19.71.34,1.47.59,2.19,1,2.91,2,5.86,3.15,8.69,2.91,6.89,6,13.71,8.94,20.57a10.66,10.66,0,0,1,.37,1.27c-1.77,1.4-4,1.65-6,2.41-1.07.41-2.77.47-2.33,2.07s1.94.86,3,.53c2.08-.63,4.15-1.3,6.61-2.08.72,2.21,1.46,4.23,2,6.3s.87,3.89,1.28,5.84c.2.91.48,2,1.56,1.77a2.74,2.74,0,0,0,1.47-1.89c.53-2.63.84-5.31,1.23-8C360.07,265.21,360.31,263.37,360.61,261.12Zm-5.77,22.19c-.25-4.2-2.61-6.1-6.45-5.11a7.71,7.71,0,0,0-2.42,1.11,5.5,5.5,0,0,0-1.8,6.88c1.15,2.42,3.29,3.33,6.26,2.64A5.3,5.3,0,0,0,354.84,283.31Zm-52.65-6.47c0,3.31,1.75,5.48,4.27,5.41,2.87-.07,6.26-2.77,6.2-4.94-.07-2.83-3-5.54-6-5.6C303.89,271.66,302.16,273.64,302.19,276.84ZM324,305.18a20.16,20.16,0,0,0,3.28,1.6c.59.17,1.61.24,2.05-.43a2.52,2.52,0,0,0-.94-1.9,8,8,0,0,0-2.06-1.18c-2.58-1.3-4.88-.64-6.28,1.91a1.7,1.7,0,0,0,.06,1.57,1.63,1.63,0,0,0,1.54.27A14.72,14.72,0,0,0,324,305.18Zm-6.48-23c-.36-.51-.6-1.2-1-1.33a1.6,1.6,0,0,0-1.47.51,48.43,48.43,0,0,0-2.34,5.44,1.24,1.24,0,0,0,2.14,1.12C315.82,286.07,316.63,284.16,317.54,282.16Z"/><path class="cls-1" d="M342.91,334c-2-3.55-3.89-7-6.1-11,8.62,1.5,16.79,3.05,25.34,1.87C360.13,326.9,349.09,332.1,342.91,334Z"/><path class="cls-1" d="M315.46,317.58l15.19,4.12c-3.65,2.13-7.21,3.4-10.82,5.23Z"/><path class="cls-2" d="M354.84,283.31a5.3,5.3,0,0,1-4.41,5.52c-3,.69-5.11-.22-6.26-2.64a5.5,5.5,0,0,1,1.8-6.88,7.71,7.71,0,0,1,2.42-1.11C352.23,277.21,354.59,279.11,354.84,283.31Z"/><path class="cls-2" d="M302.19,276.84c0-3.2,1.7-5.18,4.49-5.13,3,.06,5.91,2.77,6,5.6.06,2.17-3.33,4.87-6.2,4.94C303.94,282.32,302.23,280.15,302.19,276.84Z"/><path class="cls-2" d="M324,305.18a14.72,14.72,0,0,1-2.35,1.84,1.63,1.63,0,0,1-1.54-.27,1.7,1.7,0,0,1-.06-1.57c1.4-2.55,3.7-3.21,6.28-1.91a8,8,0,0,1,2.06,1.18,2.26,2.26,0,0,1,.94,1.9,2,2,0,0,1-2.05.43A20.16,20.16,0,0,1,324,305.18Z"/><path class="cls-2" d="M322.34,282.82c-.91,2-1.72,3.9-2.68,5.73a1.24,1.24,0,0,1-2.15-1.12,49.23,49.23,0,0,1,2.34-5.44,1.62,1.62,0,0,1,1.47-.51C321.74,281.62,322,282.31,322.34,282.82Z"/><path class="cls-2" d="M420.19,444c-6.25-14.14-21.58-85.22-29-98.82a172.28,172.28,0,0,1-10.41-22.85c-.36-1-.62-2-.93-3l18.39-11.68c3.79-2.41,7.59-4.79,11.35-7.25a31.38,31.38,0,0,0,8.3-8.11c2.44-3.4,5-6.71,7.24-10.26,2.73-4.41,5.08-9,6-14.25a76,76,0,0,0-1.94-33.47,10.37,10.37,0,0,0-.84-1.9,92.35,92.35,0,0,0-17.58-23.32c-8.42-8.38-18-14.79-29.74-17.62a6.77,6.77,0,0,1-1.43-.43c-6.38-3.21-13.27-4.16-20.29-4.47-4.26-.19-7-2.81-7.3-7.12a14.75,14.75,0,0,0-.14-2.67c-.15-.57-.73-1.36-1.18-1.41a1.88,1.88,0,0,0-1.46,1.1c-.8,2.86-1.48,5.77-2.1,8.68a23.71,23.71,0,0,0-.22,3.15c-4.39.66-8.57,1.1-12.65,2-5.06,1.07-10.4,1.73-15,3.88-15,7-26.55,17.58-32.69,33.32-1.34,3.42-2.85,6.9-3.38,10.48a183.17,183.17,0,0,0-1.86,20.52c-.22,6.56.29,13.15.5,19.72a5.14,5.14,0,0,0,.37,2,1.76,1.76,0,0,0,1.25,1c.43,0,1-.61,1.19-1.08a9.68,9.68,0,0,0,.31-1.75c.57-2.29,1.18-4.56,1.9-7.29,1.05,4,2,7.4,2.84,10.83.38,1.51,1.12,2.5,3.16,2.15-.39,14.58,6.75,24.57,18.62,31.41-.26,3.39-.63,6.46-.72,9.54-.59,19.72-1.13,96.2-1.67,119h0v2.42H421.21l-1-2.42ZM301,302.86a23.59,23.59,0,0,1-4.32-9.11A48.1,48.1,0,0,1,298,266.93c.77-2.27,2.34-4.27,3.55-6.39l.62.2a21.35,21.35,0,0,0,.22,3.4c.11.56.68,1.36,1.14,1.43a2,2,0,0,0,1.58-1c1.06-2,2.06-3.95,3.12-6.25,1,.54,1.57.82,2.33,1.19s1.77.7,2.34-.35-.16-1.45-.86-1.94-1.38-1.07-2-1.57c4.84-12.47,21.11-28.19,27.88-28.34.19.71.34,1.47.59,2.19,1,2.91,2,5.86,3.14,8.69,2.92,6.89,6,13.71,8.95,20.57a10.66,10.66,0,0,1,.37,1.27c-1.77,1.4-4,1.65-6,2.41-1.07.41-2.77.47-2.33,2.07s1.94.86,3,.53c2.08-.63,4.15-1.3,6.61-2.08.72,2.21,1.46,4.23,2,6.3s.87,3.89,1.28,5.84c.2.91.48,2,1.56,1.77a2.74,2.74,0,0,0,1.47-1.89c.53-2.63.84-5.31,1.23-8,.26-1.84.5-3.68.8-5.93a11.75,11.75,0,0,1,1,1.11c5.35,8.53,10.74,17,16,25.62,1.77,2.88,3.21,6,4.8,8.95a5.54,5.54,0,0,0,.71,1.29,1.14,1.14,0,0,0,2-.18,8.58,8.58,0,0,0,.54-2c.91-3.36,1.73-6.74,2.75-10.06.91-2.94,5.2-6,8.27-6a3.57,3.57,0,0,1,2,.44,15.86,15.86,0,0,1,5.56,6.13,5.44,5.44,0,0,1-.6,5.89c-2.16,2.95-5.19,4.65-8.36,6.1-2.24,1-3.54,2.18-4,4.92a14.18,14.18,0,0,1-6.71,10.07c-6.87,4.28-14,7.7-22,8.72a55.14,55.14,0,0,1-17.58-.56c-7.82-1.54-15.62-3.22-23.36-5.14A36.36,36.36,0,0,1,301,302.86Zm61.19,22c-2,2-13.06,7.24-19.24,9.11-2-3.55-3.89-7-6.1-11C345.43,324.49,353.6,326,362.15,324.86Zm-31.5-3.16c-3.65,2.13-7.21,3.4-10.82,5.23l-4.37-9.35Zm-17.42,8.14c.07-2.63.32-5.26.48-7.89l.66-.13c1,2.12,2,4.22,3,6.37a2.13,2.13,0,0,0,3.09,1.35c1-.38,2-.73,3.35-1.21.58,2.48,1.07,4.79,1.68,7.08a4.85,4.85,0,0,1-.75,3.93c-2.16,3.7-4.17,7.48-6.15,11.28a6.63,6.63,0,0,0-.71,2.84c-.17,7.88-.3,15.75-.34,23.63a10.17,10.17,0,0,0,.75,4.06c.68,1.57,1.14,3.76,3.25,3.89,2.3.14,3.05-2,3.79-3.7,2.74-6.31,5.35-12.68,8.08-19a17.8,17.8,0,0,0,.69-13.09c-.83-2.56-1.46-5.18-2.16-7.78-.23-.84-.4-1.7-.61-2.66,1.45-.94,2.77-1.81,4.11-2.67l3.91-2.48c2.79,3.74,3,3.84,6.86,2.15,5-2.18,10-4.41,15-6.73,2.43-1.14,5.05-2.18,7-3.9,2.7-2.34,5.95-3,9.09-4.39.36.9.63,1.64.94,2.36,2.76,6.3,5.17,12.79,8.36,18.86,7.76,14.77,23.53,85.92,30.66,102H311.88C312.33,423,312.77,347.92,313.23,329.84Z"/><path class="cls-2" d="M304.69,265.06s12.43-21.54,13.79-23-11.19,1-11.19,1Z"/><polygon class="cls-1" points="310.29 287.45 315.11 278.55 318.59 280.8 315.11 289.05 311.88 289.99 310.29 287.45"/><path class="cls-2" d="M208,570.72a2.65,2.65,0,0,1-1.94.84c-2.23.2-4.45.5-6.67.78s-4.17.58-6.8.94c.53-1.37.89-2.21,1.18-3.07a53.67,53.67,0,0,0,2.33-7.29A44,44,0,0,0,192,534.31c-2.44-4.74-5-9.41-7.79-14C177,508.56,169.36,497.15,159.91,487c-4.29-4.6-8.32-9.44-12.44-14.19a27.37,27.37,0,0,1-1.8-2.76c1.46,0,2.38.07,3.28,0,2.76-.26,5.6-.23,8.24-.94,6.3-1.67,8.91-7.73,6-13.54a3.85,3.85,0,0,1-.06-3A14.12,14.12,0,0,0,158.85,438c-5.82-5.48-13.47-6.18-20.32-2.06a3.67,3.67,0,0,1-4.14.23,15.35,15.35,0,0,0-8-1.77c-7.12.13-13.32,2.76-18.88,7a5.33,5.33,0,0,1-4.69,1.27c-8-1.79-16.14-1.34-24.24-1-5.82.27-11.39,1.69-16.15,5.37-2.2,1.69-4.52,3.23-6.64,5-4,3.37-8,6.7-10.28,11.65-1.27,2.8-1.33,2.73-4.62,2.56a32,32,0,0,0-20.61,5.56c-3.75,2.61-6,6-6.29,10.6a4.35,4.35,0,0,1-2.57,4C4,490.47-.16,496.48,0,505.27c.11,5.3,2.48,8.89,6.85,11.46l3,1.73c-.81,1.16-1.46,2.09-2.12,3a32.63,32.63,0,0,0-3.17,4.4c-3.27,6.64-3,11.76,1.52,16.17,2.11,2,4.8,3.48,7.25,5.15a20.05,20.05,0,0,0,2.14,1.15c-.28,1.48-.54,2.73-.76,4a11.68,11.68,0,0,0,6.34,12.77c.73.38,1.45.79,2.12,1.15a10.18,10.18,0,0,1-.07,1.15A19,19,0,0,0,37.38,589.1a37.52,37.52,0,0,0,17.75.2,4.92,4.92,0,0,1,3.92.65c7.54,4.29,15.26,8.13,24.14,8.75q3.19.22,6.37.56c.8.09,1.59.33,2.5.53-.22,1-.38,1.69-.55,2.41a90.34,90.34,0,0,0-2.22,9.65C88,622.54,86.73,633.24,85.8,644a109.28,109.28,0,0,0,.33,25.56c.62,4.07.8,8.26,2.4,12.29L225.75,681a41.42,41.42,0,0,0,.49-4.86c-.14-6.82-2.93-29.16-3.13-29.87-1.07-3.9-1.74-8-3.29-11.66-3.41-8.16-7.19-16.17-11-24.18-1.49-3.18-3.35-6.18-5-9.29a18.55,18.55,0,0,1-.82-2.4c2-.57,3.86-1,5.64-1.6,6.27-2.09,12.53-4.2,18.76-6.38a6.13,6.13,0,0,0,3.74-3.17C222.64,583,214.74,577.82,208,570.72Zm-186.19-10c-2.22-1.74-3.63-4-3.07-6.92.34-1.77.86-3.51,1.34-5.25.55-2,.28-2.68-1.54-3.61-.95-.48-2-.74-2.94-1.25a47.88,47.88,0,0,1-5.16-3.09c-5.25-3.84-4.41-9.32-1.72-13.62,1.13-1.8,2.65-3.35,3.9-5.08,2.56-3.54,2.07-5.58-1.77-7.73-.75-.42-1.54-.75-2.28-1.18a8.45,8.45,0,0,1-4.47-7.59c-.21-7.08,3.05-12.05,9.12-15.27,3-1.59,4.85-3.71,4.9-7.23s1.81-5.77,4.49-7.69c6.29-4.5,13.39-5.24,20.79-4.59,3.22.29,3.39.39,4.57-2.6a27.09,27.09,0,0,1,8.42-11.09c3-2.43,6.06-4.71,9.14-7a19.67,19.67,0,0,1,9.16-3.58,93.36,93.36,0,0,1,23.62-.22,16.73,16.73,0,0,1,5.06,1.67c1.6.73,2.58,0,3.75-.86a93.49,93.49,0,0,1,7.9-5.41,21.22,21.22,0,0,1,12-2.91,13.63,13.63,0,0,1,5.79,1.47c2.72,1.55,4.95,1.27,7.43-.35,5.42-3.53,11.69-2.8,16.36,1.76a9.7,9.7,0,0,1,1.82,11.2c-1.34,2.65-1.34,2.65.56,4.66a3.73,3.73,0,0,1,.55,5.16,5.49,5.49,0,0,1-4.08,2.82,43.23,43.23,0,0,1-7.94.45,11.1,11.1,0,0,0-8.6,2.63,15.16,15.16,0,0,0-1.24,1c-5.48,5.95-12.78,6.75-20.22,7.17-.64,0-1.28-.08-1.92-.06-2.34.06-2.88.73-2.61,3.22,0,.31.1.62.18,1.18-5.64,3.77-11.78,5.38-18.22,6-3,.28-6,.4-8.94.48-1.88.05-3.42.64-4.22,2.35-1.75,3.7-5,5.49-8.58,6.69a43.87,43.87,0,0,1-6.23,1.4c-4.86.85-6,2.57-4.91,7.28.92,3.82,1.8,7.66,2.77,11.82-1.59.63-3.17,1.18-4.68,1.87a34.44,34.44,0,0,0-5.1,2.6c-1.75,1.19-2,2.62-1.06,3.77s2,1.1,3.67-.14c2.38-1.79,5.19-2.33,8.24-3.34.75,2.69,1.44,5.19,2.19,7.93-2.77.5-5.27.92-7.76,1.43a6.62,6.62,0,0,0-2.67,1,2.56,2.56,0,0,0-.95,2.1,3.23,3.23,0,0,0,2,1.68c.73.22,1.65-.21,2.49-.33,2.72-.4,5.44-.78,8.49-1.21l1.9,6.34c-3.11.48-5.83.89-8.55,1.32a13.41,13.41,0,0,0-2.19.4,2.07,2.07,0,0,0-1.65,2.4,2,2,0,0,0,2.23,1.85,34.62,34.62,0,0,0,3.5-.37l7.82-.93,1.1,4.49a24.3,24.3,0,0,1-10.92,3c-2.19.16-4.46-.3-6.43,1.31-.44.37-1.63,0-2.42-.25a31.74,31.74,0,0,0-12.07-.86,23.4,23.4,0,0,0-15.21,7.38C24.92,562.2,23.92,562.3,21.85,560.68Zm144.28,59.5c-2.88.23-10.87-2-15.83-4.71,3.17.32,4.39-1.71,5.39-4.12s2.22-5,3.46-7.78l7.65,3.1C166.57,611.37,166.35,615.77,166.13,620.18Zm-51.42-20.85c7.77-1,15.33-1.68,22.81-2.94s14.94-3.12,23-4.82c-2.58,7-6.73,12.78-8.9,19.3C149.31,610.81,116.71,600.6,114.71,599.33Zm71.81,12a10.45,10.45,0,0,1-1.65-.7c-2.28-1.56-4.57-3.12-6.78-4.78a3,3,0,0,1-1.29-1.93c0-2.52.37-5,.61-7.8l9.24,2.42C186.87,602.37,186.56,606.65,186.52,611.33Zm-15.64-22.21,15.64-8.39c-.76,4.4-1.49,8.63-2.29,13.28Zm10-9.9A49.42,49.42,0,0,1,168.4,585c-23.09,6.73-46.59,10.71-70.7,10.52a168.14,168.14,0,0,1-16.91-1.18c-6.82-.74-12.69-4.06-19.13-7.45,1.4-1.09,2.35-1.77,3.23-2.53a1.94,1.94,0,0,0,.43-2.84,2,2,0,0,0-2.85-.45,13.45,13.45,0,0,0-1.34.88c-5.45,4.22-11.73,4.72-18.26,4.07-1.17-.12-2.31-.42-3.47-.6-6.43-1-10.15-5.25-12.35-10.87-1.52-3.89-.17-7.58,2.41-10.74A18.09,18.09,0,0,1,41,557.45a27,27,0,0,1,13.88,1.19c.61.22,1.21.43,1.82.63,3.16,1.06,3.35,1,4.75-1.71,3.84-.83,7.47-1.58,11.08-2.43a12.54,12.54,0,0,0,3-1.16c2.28-1.23,3.06-2.69,2.54-5.28-.69-3.34-1.53-6.66-2.44-10-2.48-9-5.07-18.07-7.54-27.12-.78-2.87-1.33-5.81-2.07-9.09a31.58,31.58,0,0,0,3.2-.61c3-.94,6.14-1.76,9.09-3a14,14,0,0,0,7.19-6.81c5.67-.65,11-1.13,16.23-1.88,4.5-.65,8.55-2.64,12.46-4.88a5.52,5.52,0,0,0,2-1.54c1.66-2.65,4.2-3.29,7.06-3.51,1.48-.11,2.92-.61,4.4-.84a22.53,22.53,0,0,0,11.88-5.87c.63-.57,1.3-1.08,2-1.69a9.17,9.17,0,0,1,1,.85c4.26,5.06,8.26,10.36,12.81,15.14,9.42,9.88,17.21,20.93,24.26,32.54,3.48,5.74,6.81,11.6,9.73,17.64a38,38,0,0,1,3.13,22.82C191.23,568.68,187.66,575,180.83,579.22Z"/><path class="cls-1" d="M61.66,586.91c1.4-1.09,2.35-1.77,3.23-2.53a1.94,1.94,0,0,0,.43-2.84,2,2,0,0,0-2.85-.45,13.45,13.45,0,0,0-1.34.88c-5.45,4.22-11.73,4.72-18.26,4.07-1.17-.12-2.31-.42-3.47-.6-6.43-1-10.15-5.25-12.35-10.87-1.52-3.89-.17-7.58,2.41-10.74A18.09,18.09,0,0,1,41,557.45a27,27,0,0,1,13.89,1.19c.6.22,1.2.43,1.81.63,3.16,1.06,3.35,1,4.75-1.71,3.84-.83,7.47-1.58,11.08-2.43a12.54,12.54,0,0,0,3-1.16c2.28-1.23,3.06-2.69,2.54-5.28-.69-3.34-1.53-6.65-2.44-10-2.48-9-5.07-18.07-7.54-27.12-.78-2.87-1.33-5.81-2.07-9.09a31.58,31.58,0,0,0,3.2-.61c3-.94,6.14-1.76,9.09-3a14,14,0,0,0,7.19-6.81c5.67-.65,11-1.13,16.23-1.88,4.5-.65,8.55-2.64,12.46-4.88a5.52,5.52,0,0,0,2-1.54c1.66-2.65,4.2-3.29,7.06-3.51,1.48-.11,2.92-.61,4.4-.84a22.5,22.5,0,0,0,11.88-5.87c.63-.57,1.3-1.08,2-1.69a8.19,8.19,0,0,1,1,.86c4.26,5,8.26,10.35,12.81,15.13,9.42,9.88,17.21,20.93,24.26,32.54,3.48,5.74,6.81,11.6,9.73,17.64a38,38,0,0,1,3.13,22.82c-1.21,7.76-4.78,14-11.61,18.3A49.42,49.42,0,0,1,168.4,585c-23.09,6.73-46.59,10.71-70.69,10.52a168.13,168.13,0,0,1-16.92-1.18C74,593.62,68.09,590.3,61.66,586.91Zm49.54-24.65a38.11,38.11,0,0,0,2.38,14.09c.77,2.25,1.63,3,2.93,2.62s1.69-1.57,1.1-3.75c-.13-.51-.34-1-.45-1.52-.51-2.38-1.39-4.77-1.39-7.15,0-4.55.47-9.1.76-13.64,0-.64.34-1.38.11-1.87-.32-.69-1-1.55-1.61-1.67a2.74,2.74,0,0,0-2,1,4,4,0,0,0-.65,2.09C111.92,555.73,111.57,559,111.2,562.26Zm-21-51.62.89-.08c6.58-.61,13.16-1.21,19.74-1.84,2.58-.25,3.57-1,3.46-2.42s-1.26-2-3.8-1.8q-9.71.88-19.42,1.8a5.81,5.81,0,0,0-2.47.52,2.64,2.64,0,0,0-1.22,1.93c0,.64.88,1.31,1.51,1.76C89.31,510.77,90,510.62,90.25,510.64Zm51.62-21c.08-1.84-1.46-2.89-2.82-2.18a5.08,5.08,0,0,0-1.43,1.23q-4.73,5.38-9.41,10.82c-.35.4-.84.86-.86,1.3a2,2,0,0,0,2.76,2.55c.43-.06.83-.63,1.17-1q4.83-5.52,9.61-11.08A10.4,10.4,0,0,0,141.87,489.64Zm-29.33,50.11c3.07,0,5.07-1.72,5.09-4.45a5.14,5.14,0,0,0-5.28-4.86,4.88,4.88,0,0,0-4.92,4.8C107.44,537.88,109.52,539.71,112.54,539.75Zm34.91-14.06c0,3.11.86,4.26,3.33,4.34,3.05.09,6-2.08,6-4.45a4.8,4.8,0,0,0-4.53-4.8A5,5,0,0,0,147.45,525.69Zm0,40.26c0,.13-1.66-.13-1.69,0-.64,0-3.32.55-4,.61-1.58.16-2.62-.18-4.2,0-2.33.27-3.22-1.26-2.9-.08.47,1.77,2,1.35,3.16,1.23,4.32-.45,8.64-1.31,12.88.6a1.61,1.61,0,0,0,2.37-.93c.39-1.15-.42-1.85-1.39-2.12C149.29,564.57,149.9,566.56,147.45,566Zm3.4-20.33c-.6-1.48-1-2.69-1.59-3.81-1.15-2.15-2.34-4.28-3.65-6.33a2,2,0,0,0-3.51,2.06c1.56,3,3.14,6,4.77,9a1.73,1.73,0,0,0,2.45.81A7.25,7.25,0,0,0,150.85,545.62Z"/><path class="cls-1" d="M113.12,480.9c-5.64,3.77-11.78,5.38-18.22,6-3,.28-6,.4-8.94.48-1.88.05-3.42.64-4.23,2.35-1.74,3.7-5,5.49-8.57,6.69a43.87,43.87,0,0,1-6.23,1.4c-4.86.85-6,2.57-4.91,7.27.92,3.83,1.8,7.67,2.77,11.83-1.59.63-3.17,1.18-4.68,1.87a34.44,34.44,0,0,0-5.1,2.6c-1.75,1.19-2,2.62-1.06,3.77s2,1.1,3.67-.14c2.38-1.79,5.19-2.33,8.24-3.34.75,2.69,1.44,5.19,2.19,7.92-2.77.51-5.27.93-7.76,1.44a6.62,6.62,0,0,0-2.67,1,2.56,2.56,0,0,0-.95,2.1,3.26,3.26,0,0,0,2,1.68c.73.22,1.65-.21,2.49-.33,2.72-.4,5.44-.78,8.49-1.21l1.9,6.34c-3.11.48-5.83.89-8.55,1.32a13.41,13.41,0,0,0-2.19.4,2.07,2.07,0,0,0-1.65,2.4,2,2,0,0,0,2.23,1.85,34.62,34.62,0,0,0,3.5-.37l7.82-.93,1.1,4.49a24.3,24.3,0,0,1-10.92,3c-2.19.16-4.46-.3-6.43,1.31-.44.37-1.63,0-2.42-.25a31.74,31.74,0,0,0-12.07-.86,23.35,23.35,0,0,0-15.21,7.38c-1.8,1.93-2.8,2-4.87.41-2.22-1.74-3.63-4-3.07-6.92.34-1.77.86-3.51,1.34-5.25.55-2,.28-2.68-1.54-3.61-.95-.48-2-.74-2.94-1.25a47.88,47.88,0,0,1-5.16-3.09c-5.25-3.84-4.41-9.32-1.72-13.62,1.13-1.8,2.65-3.35,3.9-5.08,2.56-3.54,2.07-5.58-1.77-7.73-.75-.42-1.54-.75-2.28-1.18a8.45,8.45,0,0,1-4.47-7.59c-.21-7.08,3.05-12.05,9.12-15.27,3-1.59,4.85-3.71,4.9-7.23s1.81-5.77,4.49-7.69c6.29-4.5,13.39-5.24,20.79-4.59,3.22.29,3.39.39,4.57-2.6a27,27,0,0,1,8.42-11.09c3-2.43,6.06-4.71,9.15-7a19.59,19.59,0,0,1,9.15-3.58,93.36,93.36,0,0,1,23.62-.22,16.73,16.73,0,0,1,5.06,1.67c1.6.73,2.58,0,3.75-.86a93.49,93.49,0,0,1,7.9-5.41,21.22,21.22,0,0,1,12-2.91,13.63,13.63,0,0,1,5.79,1.47c2.72,1.55,4.95,1.27,7.43-.35,5.42-3.53,11.69-2.8,16.36,1.76a9.7,9.7,0,0,1,1.82,11.2c-1.34,2.65-1.34,2.65.56,4.66a3.73,3.73,0,0,1,.55,5.16,5.52,5.52,0,0,1-4.08,2.82,43.23,43.23,0,0,1-7.94.45,11.1,11.1,0,0,0-8.6,2.63,15.16,15.16,0,0,0-1.24,1c-5.48,5.95-12.78,6.75-20.22,7.17-.64,0-1.28-.08-1.92-.06-2.34.06-2.88.73-2.61,3.22C113,480,113,480.34,113.12,480.9Z"/><path class="cls-1" d="M160.48,591.57c-2.58,7-6.73,12.78-8.9,19.3-2.27-.06-34.87-10.27-36.87-11.54,7.77-1,15.33-1.68,22.8-2.94S152.46,593.27,160.48,591.57Z"/><path class="cls-1" d="M150.3,615.47c3.17.32,4.39-1.71,5.39-4.12s2.22-5,3.46-7.78l7.65,3.1c-.24,4.7-.45,9.1-.67,13.51C163.25,620.41,155.26,618.18,150.3,615.47Z"/><path class="cls-1" d="M177.41,596.12l9.24,2.42c.22,3.83-.09,8.11-.13,12.79a10.45,10.45,0,0,1-1.65-.7c-2.28-1.56-4.58-3.12-6.78-4.78a3,3,0,0,1-1.29-1.93C176.85,601.4,177.17,598.87,177.41,596.12Z"/><path class="cls-1" d="M186.52,580.73c-.76,4.4-1.49,8.63-2.29,13.28l-13.35-4.89Z"/><path class="cls-2" d="M111.2,562.26c.37-3.26.72-6.53,1.13-9.79a4,4,0,0,1,.65-2.09,2.74,2.74,0,0,1,2-1c.64.12,1.29,1,1.61,1.67.23.49-.07,1.23-.11,1.87-.29,4.54-.78,9.09-.76,13.64,0,2.38.88,4.77,1.39,7.15.11.51.32,1,.45,1.52.59,2.18.25,3.34-1.1,3.75s-2.16-.37-2.93-2.62A38.11,38.11,0,0,1,111.2,562.26Z"/><path class="cls-2" d="M90.25,510.64c-.28,0-.94.13-1.31-.13-.63-.45-1.46-1.12-1.51-1.76a2.64,2.64,0,0,1,1.22-1.93,5.81,5.81,0,0,1,2.47-.52q9.7-.93,19.42-1.8c2.54-.23,3.68.33,3.8,1.8s-.88,2.17-3.46,2.42c-6.58.63-13.16,1.23-19.74,1.84Z"/><path class="cls-2" d="M141.87,489.64a10.4,10.4,0,0,1-1,1.62q-4.77,5.57-9.61,11.08c-.34.39-.74,1-1.17,1a2,2,0,0,1-2.76-2.55c0-.44.51-.9.86-1.3q4.68-5.43,9.41-10.82a5.08,5.08,0,0,1,1.43-1.23C140.41,486.75,142,487.8,141.87,489.64Z"/><path class="cls-2" d="M112.39,542.36c-4-.05-6.67-2.45-6.68-5.9a6.37,6.37,0,0,1,6.43-6.27c3.76,0,6.92,2.9,6.91,6.35S116.41,542.42,112.39,542.36Z"/><path class="cls-2" d="M147.31,525.72a6.05,6.05,0,0,1,5.83-6,5.83,5.83,0,0,1,5.51,5.84c0,2.87-3.59,5.52-7.31,5.4C148.34,530.9,147.27,529.5,147.31,525.72Z"/><path class="cls-2" d="M154,564a2.36,2.36,0,0,1,2.12,2.72,1.82,1.82,0,0,1-2.53,1.77c-5.36-1.86-10.16.19-15.06,1.65-1.37.41-3,1.29-3.94-1.1-.65-1.61.25-2.65,2.88-3.48,1.79-.56,3.58-1.12,5.38-1.65.72-.21,1.46-.36,2.19-.53C145,563.2,151,563.52,154,564Z"/><path class="cls-2" d="M150.85,545.62a7.25,7.25,0,0,1-1.53,1.72,1.73,1.73,0,0,1-2.45-.81c-1.63-3-3.21-6-4.77-9a2,2,0,0,1,3.51-2.06c1.31,2,2.5,4.18,3.65,6.33C149.85,542.93,150.25,544.14,150.85,545.62Z"/><path class="cls-2" d="M183.8,532.43c-3.25,1.65-5.34,4.51-7.47,7.46-3.21,4.44-3.79,9.28-2.26,14.55,2,6.74,7.1,10.47,13.5,9.81a17.55,17.55,0,0,0,1.77-.26c1.84-.39,3.15.18,4.46,1.82,6.85,8.6,13.32,17.52,19.58,26.65.24.34-1,2-.95,2.29C220.16,593.62,235,590,235,584.64c0-5-6.08-8.33-9.38-12.22-5.23-6.16-10.89-11.88-16-18.18-4.19-5.19-9.25-9.79-11.36-16.73C194.13,531.36,189.91,529.33,183.8,532.43Zm12.5,12c-.57,3.19-1.38,6.35-2.24,9.47a11.54,11.54,0,0,1-1.76,3.69,7.75,7.75,0,0,1-12.34.6c-4.47-4.85-4.68-10.79-.22-17.38a13.05,13.05,0,0,1,6.6-5.74C191.57,533.07,197.36,538.45,196.3,544.44Z"/><path class="cls-1" d="M179.74,540.82a13.05,13.05,0,0,1,6.6-5.74c5.23-2,11,3.37,10,9.36-.57,3.19-1.38,6.35-2.24,9.47a11.54,11.54,0,0,1-1.76,3.69,7.75,7.75,0,0,1-12.34.6C175.49,553.35,175.28,547.41,179.74,540.82Z"/><path class="cls-2" d="M65.81,149.83c-3.3,3.82-4.07,3.76-6.16-.76-1.06-2.3-1.87-4.72-3-7.61-1.73,2.83-3.14,5.2-4.61,7.53-.38.61-.14,1.88-1.39,1.64a2,2,0,0,1-1.81-2C49,146.1,48,144,47.08,141.2c-3.34,3.82-7.77,4.74-11.27,6.73-1-.53-.82-.68-.6-1.06,3.64-6.32,1.83-10.71-3.32-16-9.26-9.46-16.25-20.79-22.18-32.74A72.61,72.61,0,0,1,2,68.47C1.5,54.84,5.78,42.23,14,31.24c5.18-6.95,10.81-13.6,18.27-18.33,1.88-1.19,3.87-2.58,6-3C45.05,8.65,51,4.91,57.7,3.32c14-3.32,27.9-4.95,42.08-1,8.52,2.35,17.24,3.93,24.57,9.46a97,97,0,0,1,24.84,27.3c7.28,11.92,11.17,24.65,13.3,38a50.53,50.53,0,0,1-3.2,26.18c-4.48-2.1-.84-7.54-4.31-10.13q-1.22,7.83-2.43,15.63a14.83,14.83,0,0,1-8.63-6.41c-2.38-12.59-4.93-25.13-10.43-36.86-1.82-3.87-3.76-7.67-6.17-11.94-4.73,5.94-8.59,11.94-13.8,16.88A81.56,81.56,0,0,1,96.6,82.64C89.48,86.55,82.77,91.28,75,94c-3.72,1.31-4.35,3.56-2.3,6.92,3.37,5.54,6.52,11.24,11.61,15.48a7.72,7.72,0,0,1,1.7,1.82c.87,1.41,2,2.94.59,4.51-1.2,1.31-2.81.74-4.17,0a62.44,62.44,0,0,0-7.16-3.51c-2.37-.85-4.55-3.46-6.91.62-1,1.77-3.29,0-4.63-1.31-4-3.82-8.57-6.88-12.85-10.31-2-1.59-4.39-3.33-6.7-1.31s-.87,4.64.15,6.93a8.45,8.45,0,0,0,3.48,4.15c8.28,4.61,13.93,12.84,22.89,16.49.27.11.38.52.5.84,0,.16.09.42,0,.47C66.3,139.31,67.59,145.17,65.81,149.83Z"/><path class="cls-2" d="M67.79,194.89c1.51-7.66,1.91-15.45,4-23.08,2.77-10.24,4.48-20.77,8.84-30.54-.87-2.84-2.32-3.85-4.83-1.54.24.59.87,1.47.67,1.72-4.82,6.29-5.18,14.05-7.21,21.28-4.09,14.53-5.45,29.55-8.37,44.29-2,10.21-3.43,20.55-4.93,30.85-1.19,8.23-2.3,16.47-3.09,24.74q-.24,2.56-.3,5.13c1.66-.39,3.33-1.25,5-1.22A645.66,645.66,0,0,1,67.79,194.89Z"/><path class="cls-2" d="M165.32,260.89c-1.25-8.48-4.13-16.7-5.34-25.07-2.34-16.24-6.13-32.13-9.88-48C147,174.5,144.48,161,140,148.05c-.93-2.67-.92-5.38,3.49-6.51,8.23-2.1,12.09-14,6-19.79-3.89-3.67-1.1-4.76.3-7-.66-2,1-2.81,1.92-4,.46-.6,1.2-1.08.91-2l-7.65-6c-2,1.8-.89,4-.71,6.06.49,5.82-.29,6.8-5.79,8.33-5.29,1.49-10.89,3-12.53,9.23-1.05,4-3.53,5.7-7.23,6.47-11,2.3-21.89,5.26-33.32,3.61a7.68,7.68,0,0,0-5.31.83c.89,2.56.89,2.56,4.86,2.16-1.48.12-1.75.94-1.26,2.18,4.26,2.86,9,1.23,13.59,1.38a6.63,6.63,0,0,1,6,3.31,59.62,59.62,0,0,0,17.1,16.54c6.12,3.92,10.4,2.15,12.49-4.72,1.1-3.6,1.39-7.38,2.39-11,.72,6.26,3.6,11.87,4.86,17.89,4.17,20,9.44,39.83,13.43,59.91q4.15,20.85,7.61,41.8h5.05C165.87,264.78,165.61,262.83,165.32,260.89Z"/><path class="cls-2" d="M65.81,149.83c-1.52-3.06,1.94-6.49-.8-9.62-.6-.69,1.08-1.29,2-1.67,1.5-.64,3.15-1.14,3.81-2.91,2.71-1.47,5-.52,7.09,1.28,0,2.14-2.07,1.78-3.11,2.66C70.69,142,69.87,147.35,65.81,149.83Z"/><path class="cls-2" d="M74.78,139.57a3.27,3.27,0,0,1,3.09-1.87,1.22,1.22,0,0,1,1.89.21c1.87,1.81,4.57-.06,6.57,1.45-.42,1.36-2.35,0-2.6,1.48a2.88,2.88,0,0,1-3.9.07c-.74-2.51-2.57-1.26-4.06-1.18Z"/><path class="cls-2" d="M149.72,114.75c-.76-.15-1.87-.21-1.58-1.27a3.64,3.64,0,0,1,3.5-2.73C151.92,112.52,150.73,113.6,149.72,114.75Z"/><path class="cls-3" d="M79.76,137.91l-1.89-.21c-2.15-1.39-4.65-1.6-7.07-2.07-6.33-3.34-13-6.22-17.23-12.5A6,6,0,0,0,50,120.7c-4.4-1.12-6.64-4.68-7.88-8.56-.67-2.11-1.53-5.33.94-6.87a6.66,6.66,0,0,1,7.47.75c4.67,3.51,9.27,7.11,13.73,10.87,1.13,1,1.3,3.35,3.43,2.76,2.48-.68.28-3.23,1.54-4.63l17.5,8.26c-.26-6.1-5.77-7-8-10.75-2.58-4.42-5.54-8.64-8.2-13.06-2-3.38-.64-4.59,1.88-5.58,9.42-3.67,18-9,26.64-14.06C111,72.92,120.1,63,127.28,50.5a133.94,133.94,0,0,1,17.62,52.26c-.84,3,1.15,5.7.93,8.74-.3,4.11-.57,7-6.21,6.5-6-.49-11.82,5-12.81,10.93-.52,3.08-2.84,4-5,4.71-9,2.8-18.5,3.39-27.77,5C89.34,139.41,84.59,136.87,79.76,137.91Z"/><path class="cls-3" d="M56,267.22c.75-9.81,2-19.57,3.52-29.32,1.75-11.39,3.15-22.83,5.12-34.21,3.06-17.7,6-35.42,10.56-52.81.91-3.49,3-6.66,4.61-10l3.9-.07c5.08,2,10.37.61,15.55.75,2.18.06,3.11.39,4.3,2.36a49.86,49.86,0,0,0,19.62,18.79c4.33,2.27,5.84,1.31,7.61-3.27,2.19-5.7,2.37-11.8,3.45-18.16,2.9,2.77,2.15,6.08,3,8.88,5.95,20,10.2,40.37,14.5,60.74,3.75,17.73,8,35.4,10.73,53.29.16,1,.31,2,.46,3"/><path class="cls-3" d="M138.9,138.75c-5.48,0-9.17-3.43-9.2-8.22,0-5.6,5.12-8.73,12.58-9.34,4.2-.34,6.5,3.47,6.45,9.63C148.68,136.29,145.6,138.78,138.9,138.75Z"/><path class="cls-3" d="M108.06,145c1.61-.68,2,.87,2.88,1.42,5.72,3.52,6.65,3.31,9.74-2.48.69-1.29,2.24-3.22,2.67-2.71,2,2.27,6,2.52,6.41,6.26.36,3-.39,5.81-1,8.66-1,4.48-3.37,5.57-6.9,2.52C117,154.44,111.56,150.67,108.06,145Z"/><path class="cls-4" d="M120,138.16l-3.59,7.38-8.63-5.1Z"/><path class="cls-5" d="M129.7,141.68c-.74-.44-1.13-.54-1.26-.78-.86-1.54-3.57-1.86-2.94-4.3.1-.38,1.34-.92,1.58-.75A6.36,6.36,0,0,1,129.7,141.68Z"/><path class="cls-2" d="M94.42,107.75c-3.31,0-6.69-3.56-6.66-7.08,0-3.07,4-6.91,7-6.84,2.58.06,6.71,4.87,6.91,8C101.9,104.75,98.22,107.7,94.42,107.75Z"/><path class="cls-2" d="M134.31,84.79c2.73,0,6.64,4.41,6.37,7.49-.36,4.09-4,4.86-6.92,5.34-3.53.57-6.08-2.59-6-6.57C127.78,88.09,131.31,84.73,134.31,84.79Z"/><path class="cls-2" d="M133.56,71.05c-.69,1.57-1.88,2.34-3.39,1.28-3-2.11-5.67-1.37-8.45.39-.64.41-1.5,1.33-2.46.11s-.22-1.74.43-2.53c3.11-3.73,10.32-3.82,13.23-.14C133.12,70.42,133.3,70.69,133.56,71.05Z"/><path class="cls-2" d="M111.92,127.71c-1.62-.61-3.21-.81-4.22-1.69-1.19-1-3.78-2-2.48-4,1.57-2.52,2.49.7,3.73,1.11a21.58,21.58,0,0,0,4.29.71c1.15.14,3.09-.89,3.3.9s-1.74,2-3.17,2.26A5.25,5.25,0,0,0,111.92,127.71Z"/><path class="cls-2" d="M121,95.05c1.93.74,4.24,1.09,3.59,4-.16.71-.77,1.49-1.74,1C120.75,99.05,120.29,97.31,121,95.05Z"/><line class="cls-2" x1="52.76" y1="267.22" x2="166.26" y2="267.22"/><rect class="cls-2" x="52.76" y="265.72" width="113.5" height="3"/><path class="cls-2" d="M266.12,102.69c-20.77,0-44.37-.8-61.87-6.79-19.3-6.62-29.35-19-29.84-36.83a41.16,41.16,0,0,1,11.77-30.82C207.85,5.67,255.51.94,291.64.94c5.81,0,11.84.11,17.93.35,2.41.11,5.36.14,9.17.14,2.87,0,5.92,0,9.18,0h.63c3.81,0,7.24-.07,10.92-.07,20.34,0,43.77.77,63.06,6.51,23.25,6.93,35.89,20,37.61,38.73,1.4,15.16-1.72,26.71-9.46,35.33S410.9,95.94,392.73,99c-17.65,3-40.09,3.36-59.7,3.36-4.83,0-10.26,0-17-.07-1.72,0-3.47,0-5.22,0-7.21,0-14.78.1-22.06.21h-.11c-7.38.14-15,.24-22.47.24Z"/><path class="cls-1" d="M180.23,57.18c1.33,46.81,75.87,37.6,135,38.09C390.77,95.9,437.58,94,433,45.55S341.68,6.47,308.73,5.18C248.43,2.8,178.93,11.62,180.23,57.18Z"/><path class="cls-1" d="M236.11,90.09l-22.27-1.93c-5.18.63-4.83,11.94,5.81,15.16,13.41,4.07,20.34-7.73,16.46-13.23"/><path class="cls-2" d="M209.29,120.45a10.65,10.65,0,0,1-3.71-.7,8.07,8.07,0,0,1-4.7-4.7,6.39,6.39,0,0,1,1.05-5.35,9.22,9.22,0,0,1,7.81-3.64,12.35,12.35,0,0,1,2.94.38,6,6,0,0,1,4.49,4.1,7.17,7.17,0,0,1-1,6.54,9.12,9.12,0,0,1-6.83,3.37Z"/><path class="cls-1" d="M204.74,111.24c-1.09,1.68-.14,4.48,2.41,5.56a5.41,5.41,0,0,0,6.65-1.43c1.47-1.93.81-5.92-1.92-6.9C208.48,107.25,205.82,109.56,204.74,111.24Z"/><path class="cls-2" d="M197.35,129.65c-2.35,0-4.76-1-5.81-2.9a5.27,5.27,0,0,1,.7-5.43,6.64,6.64,0,0,1,5.49-2.48,10.13,10.13,0,0,1,2.31.28,5,5,0,0,1,3.72,3.95,5.14,5.14,0,0,1-2.21,5.39,8.33,8.33,0,0,1-4.2,1.19Z"/><path class="cls-1" d="M194.2,125.31c1.19,2.21,3.85,2.21,5.91,1s1.09-4.62-.59-5C195.18,120.24,193,123.14,194.2,125.31Z"/><path class="cls-2" d="M211.63,93.48c.6,3.86,4.87,8.2,11.17,8.9,6.17,1.08,11.31-2.31,12.85-5.95,1.82-3.61.25-6.13.74-6.41.17-.46,3.22,2.27,1.61,7.35-.74,2.38-2.63,6.27-5.5,8a15.67,15.67,0,0,1-10.29,1.86c-7.46-.66-14.36-6.37-14.22-11.62-.1-2.56,2.17-6.52,3.5-7.29s2.21-.42,2.21-.24C213.77,88.44,210.86,89.42,211.63,93.48Z"/><path class="cls-2" d="M299.19,521.1c-18.8,0-40.17-.73-56-6.15-17.47-6-26.57-17.19-27-33.36a37.28,37.28,0,0,1,10.66-27.9c19.62-20.45,62.78-24.73,95.5-24.73,5.26,0,10.72.09,16.23.32,2.19.09,4.85.12,8.31.12,2.6,0,5.36,0,8.31,0h.57c3.45,0,6.56-.06,9.89-.06,18.42,0,39.63.69,57.1,5.89,21.06,6.28,32.5,18.08,34.06,35.07,1.27,13.73-1.56,24.2-8.56,32S430.3,515,413.85,517.74c-16,2.69-36.31,3-54.06,3-4.38,0-9.29,0-15.44-.06-1.56,0-3.14,0-4.73,0-6.53,0-13.38.09-20,.19h-.1c-6.69.12-13.6.22-20.36.22Z"/><path class="cls-1" d="M221.42,479.88c1.2,42.39,68.71,34,122.23,34.5,68.42.57,110.81-1.18,106.69-45S367.62,434,337.78,432.8C283.18,430.64,220.24,438.63,221.42,479.88Z"/><path class="cls-1" d="M272,509.68l-20.16-1.74c-4.7.57-4.38,10.81,5.26,13.73,12.14,3.68,18.42-7,14.9-12"/><path class="cls-2" d="M247.73,537.17a9.61,9.61,0,0,1-3.36-.63,7.33,7.33,0,0,1-4.25-4.25,5.79,5.79,0,0,1,1-4.85,8.34,8.34,0,0,1,7.07-3.3,11.11,11.11,0,0,1,2.66.35,5.49,5.49,0,0,1,4.06,3.71,6.52,6.52,0,0,1-1,5.93,8.27,8.27,0,0,1-6.19,3Z"/><path class="cls-1" d="M243.61,528.84c-1,1.52-.12,4,2.19,5a4.9,4.9,0,0,0,6-1.3c1.34-1.75.73-5.36-1.74-6.25C247,525.22,244.6,527.31,243.61,528.84Z"/><path class="cls-2" d="M236.92,545.51a6,6,0,0,1-5.26-2.63,4.79,4.79,0,0,1,.63-4.91,6,6,0,0,1,5-2.25,9.26,9.26,0,0,1,2.09.25,4.47,4.47,0,0,1,3.36,3.58,4.68,4.68,0,0,1-2,4.89,7.62,7.62,0,0,1-3.81,1.07Z"/><path class="cls-1" d="M234.07,541.58c1.08,2,3.49,2,5.36.86s1-4.19-.54-4.54C235,537,233,539.62,234.07,541.58Z"/><path class="cls-2" d="M249.86,512.76c.54,3.49,4.41,7.42,10.11,8,5.58,1,10.24-2.09,11.64-5.39,1.65-3.26.22-5.55.67-5.8.15-.41,2.91,2.06,1.45,6.66-.66,2.16-2.37,5.67-5,7.23a14.25,14.25,0,0,1-9.33,1.68c-6.75-.6-13-5.77-12.87-10.53-.09-2.31,2-5.9,3.17-6.59s2-.38,2-.22C251.79,508.19,249.16,509.08,249.86,512.76Z"/><path class="cls-2" d="M287.23,640c-18.8,0-40.17-.73-56-6.15-17.47-6-26.57-17.19-27-33.36a37.23,37.23,0,0,1,10.65-27.9c19.63-20.45,62.78-24.73,95.5-24.73,5.27,0,10.72.09,16.24.31,2.18.1,4.85.13,8.3.13,2.6,0,5.36,0,8.31,0h.57c3.46,0,6.57-.06,9.89-.06,18.43,0,39.64.69,57.11,5.89,21.05,6.28,32.5,18.08,34.05,35.07,1.27,13.73-1.55,24.19-8.56,32s-17.91,12.72-34.37,15.48c-16,2.69-36.3,3-54.06,3-4.38,0-9.29,0-15.44-.06-1.55,0-3.14,0-4.73,0-6.53,0-13.38.09-20,.19h-.1c-6.69.12-13.6.22-20.35.22Z"/><path class="cls-1" d="M209.45,598.75c1.21,42.39,68.71,34,122.23,34.5,68.43.57,110.82-1.18,106.7-45s-82.73-35.38-112.56-36.56C271.22,549.51,208.28,557.5,209.45,598.75Z"/><path class="cls-1" d="M260.06,628.55l-20.17-1.74c-4.69.57-4.38,10.81,5.26,13.73,12.15,3.68,18.43-7,14.91-12"/><path class="cls-2" d="M235.77,656a9.61,9.61,0,0,1-3.36-.63,7.27,7.27,0,0,1-4.25-4.25,5.75,5.75,0,0,1,1-4.85,8.36,8.36,0,0,1,7.07-3.3,11,11,0,0,1,2.66.35,5.45,5.45,0,0,1,4.06,3.71,6.46,6.46,0,0,1-1,5.93,8.24,8.24,0,0,1-6.18,3Z"/><path class="cls-1" d="M231.65,647.7c-1,1.53-.13,4.06,2.18,5a4.91,4.91,0,0,0,6-1.3c1.33-1.75.73-5.36-1.75-6.25C235,644.09,232.63,646.18,231.65,647.7Z"/><path class="cls-2" d="M225,664.38a6,6,0,0,1-5.27-2.63,4.79,4.79,0,0,1,.64-4.91,6,6,0,0,1,5-2.26,9.43,9.43,0,0,1,2.1.26,4.49,4.49,0,0,1,3.36,3.58,4.65,4.65,0,0,1-2,4.88,7.47,7.47,0,0,1-3.8,1.08Z"/><path class="cls-1" d="M222.1,660.45c1.08,2,3.49,2,5.36.86s1-4.19-.54-4.54C223,655.85,221,658.48,222.1,660.45Z"/><path class="cls-2" d="M237.89,631.63c.54,3.49,4.41,7.42,10.12,8,5.58,1,10.24-2.09,11.63-5.39,1.65-3.26.23-5.55.67-5.8.16-.41,2.92,2.06,1.46,6.66-.67,2.15-2.38,5.67-5,7.23a14.28,14.28,0,0,1-9.32,1.68c-6.76-.6-13-5.77-12.88-10.53-.09-2.31,2-5.9,3.18-6.59s2-.38,2-.23C239.83,627.06,237.19,628,237.89,631.63Z"/><path class="cls-2" d="M174.35,292.18c-7.46,0-15.09-.11-22.48-.25h-.11c-7.28-.1-14.84-.21-22.06-.21-1.75,0-3.5,0-5.21,0-6.8.07-12.22.07-17.06.07-19.6,0-42.05-.39-59.7-3.37-18.17-3-30.21-8.47-37.95-17.08S-1.08,251.21.33,236.05c1.71-18.77,14.35-31.8,37.6-38.73,19.29-5.74,42.72-6.51,63.06-6.51,3.68,0,7.11,0,10.93.07h.63c3.25,0,6.3,0,9.17,0,3.82,0,6.76,0,9.17-.14,6.1-.24,12.12-.35,17.93-.35,36.14,0,83.79,4.73,105.46,27.32a41.13,41.13,0,0,1,11.77,30.81c-.49,17.86-10.54,30.22-29.83,36.83-17.51,6-41.11,6.8-61.87,6.8Z"/><path class="cls-1" d="M131.73,194.66C98.79,196,12,186.57,7.43,235s42.27,50.35,117.83,49.72c59.1-.49,133.65,8.72,135-38.09C261.53,201.1,192,192.28,131.73,194.66Z"/><path class="cls-1" d="M204.35,279.57c-3.88,5.5,3.05,17.3,16.46,13.24,10.64-3.23,11-14.54,5.81-15.17l-22.27,1.93"/><path class="cls-2" d="M231.17,309.93h0a9.1,9.1,0,0,1-6.82-3.36,7.14,7.14,0,0,1-1-6.55,6,6,0,0,1,4.48-4.1,12.35,12.35,0,0,1,2.94-.38,9.22,9.22,0,0,1,7.81,3.64,6.4,6.4,0,0,1,1.05,5.36,8.09,8.09,0,0,1-4.69,4.69,10.71,10.71,0,0,1-3.72.7Z"/><path class="cls-1" d="M228.58,298c-2.73,1-3.39,5-1.92,6.9a5.4,5.4,0,0,0,6.65,1.44c2.56-1.09,3.5-3.89,2.42-5.57S232,296.73,228.58,298Z"/><path class="cls-2" d="M243.11,319.14a8.33,8.33,0,0,1-4.2-1.19,5.16,5.16,0,0,1-2.2-5.4,5,5,0,0,1,3.71-3.95,10.13,10.13,0,0,1,2.31-.28,6.66,6.66,0,0,1,5.5,2.48,5.31,5.31,0,0,1,.7,5.43c-1.05,1.89-3.47,2.91-5.82,2.91Z"/><path class="cls-1" d="M240.94,310.73c-1.68.39-2.66,3.75-.59,5s4.73,1.26,5.92-.95S245.29,309.72,240.94,310.73Z"/><path class="cls-2" d="M226.76,277.54c0-.18.84-.53,2.21.24s3.61,4.73,3.5,7.29c.14,5.25-6.76,11-14.22,11.62A15.74,15.74,0,0,1,208,294.84c-2.87-1.72-4.76-5.61-5.5-8-1.61-5.07,1.44-7.8,1.61-7.35.49.28-1.08,2.8.74,6.41,1.54,3.64,6.69,7,12.85,5.95,6.3-.7,10.57-5,11.17-8.89C229.6,278.91,226.69,277.92,226.76,277.54Z"/><path class="cls-2" d="M174.35,408.43c-7.46,0-15.09-.1-22.48-.24h-.11c-7.28-.11-14.84-.21-22.06-.21-1.75,0-3.5,0-5.21,0-6.8.07-12.22.07-17.06.07-19.6,0-42.05-.38-59.7-3.36-18.17-3.05-30.21-8.47-37.95-17.09S-1.08,367.46.33,352.3c1.71-18.77,14.35-31.79,37.6-38.72,19.29-5.75,42.72-6.52,63.06-6.52,3.68,0,7.11,0,10.93.07h.63c3.25,0,6.3,0,9.17,0,3.82,0,6.76,0,9.17-.14,6.1-.25,12.12-.35,17.93-.35,36.14,0,83.79,4.73,105.46,27.31a41.14,41.14,0,0,1,11.77,30.81c-.49,17.86-10.54,30.22-29.83,36.84-17.51,6-41.11,6.79-61.87,6.79Z"/><path class="cls-1" d="M131.73,310.92C98.79,312.21,12,302.83,7.43,351.29S49.7,401.64,125.26,401c59.1-.49,133.65,8.72,135-38.1C261.53,317.36,192,308.53,131.73,310.92Z"/><path class="cls-1" d="M204.35,395.83c-3.88,5.49,3.05,17.29,16.46,13.23,10.64-3.22,11-14.53,5.81-15.16l-22.27,1.93"/><path class="cls-2" d="M245.48,421h0a9.12,9.12,0,0,1-7.59-.59,7.16,7.16,0,0,1-3.4-5.69,6,6,0,0,1,2.64-5.47,12.49,12.49,0,0,1,2.59-1.45,9.22,9.22,0,0,1,8.6.49,6.33,6.33,0,0,1,3,4.58,8,8,0,0,1-2.61,6.1,10.6,10.6,0,0,1-3.19,2Z"/><path class="cls-1" d="M238.63,410.8c-2.17,1.92-1.31,5.88.77,7.12a5.41,5.41,0,0,0,6.71-1.14c2-1.95,1.81-4.91.18-6.06S241.33,408.4,238.63,410.8Z"/><path class="cls-2" d="M260,425.08a8.41,8.41,0,0,1-4.35.45,5.15,5.15,0,0,1-4-4.19,5,5,0,0,1,2-5,10.71,10.71,0,0,1,2-1.12,6.66,6.66,0,0,1,6,.27,5.29,5.29,0,0,1,2.66,4.78c-.27,2.15-2.14,4-4.31,4.86Z"/><path class="cls-1" d="M254.85,418.08c-1.42,1-1.08,4.46,1.31,4.87s4.85-.59,5.14-3.08S258.51,415.52,254.85,418.08Z"/><path class="cls-2" d="M226.76,393.79c0-.17.84-.52,2.21.25s3.61,4.73,3.5,7.28c.14,5.25-6.76,11-14.22,11.63A15.68,15.68,0,0,1,208,411.09c-2.87-1.71-4.76-5.6-5.5-8-1.61-5.08,1.44-7.81,1.61-7.35.49.28-1.08,2.8.74,6.4,1.54,3.64,6.69,7,12.85,6,6.3-.71,10.57-5.05,11.17-8.9C229.6,395.16,226.69,394.18,226.76,393.79Z"/><path class="cls-6" d="M217,45a1.58,1.58,0,0,1-.7,1.31,2.56,2.56,0,0,1-1.6.54H211.8l-.27-2.26H214a.63.63,0,0,0,.41-.16.48.48,0,0,0,.19-.37V40.36h-7.17v-2h7.17V35.84h1.49a20.55,20.55,0,0,0,2.47-1.77H209v-1.9l12.26,0,1.1,1.15A18.23,18.23,0,0,1,217,37.46v.86h6.38v2H217Z"/><path class="cls-6" d="M239.34,46.51c-1.75.15-3.45.23-5.07.23a29.4,29.4,0,0,1-4.72-.24,5.07,5.07,0,0,1-2.6-1.24,3.25,3.25,0,0,1-.94-2.42Q226,40,230.2,38q-.27-2.86-.28-5.77h2.42v1c0,1.23,0,2.51.11,3.83,1.29-.48,3.19-1.08,5.72-1.79l.7,2.07a43.63,43.63,0,0,0-7.82,2.64c-1.81.89-2.72,1.83-2.72,2.84,0,1.23,1.36,1.84,4.08,1.84h.78q2.63,0,6.05-.35ZM238,34.5l-1.23.45c-.22-.58-.6-1.45-1.12-2.58l1.18-.42C237.25,32.79,237.65,33.64,238,34.5Zm2.38-.48-1.19.44c-.39-1-.77-1.81-1.15-2.55l1.15-.43C239.59,32.27,240,33.11,240.37,34Z"/><path class="cls-6" d="M252.91,40.51h-5.2a20.16,20.16,0,0,0-.32,2.58c0,1.11,1.06,1.66,3.18,1.66a7,7,0,0,0,3.31-.51,1.54,1.54,0,0,0,.81-1.39,8.49,8.49,0,0,0-1.1-4l2-.55a9.56,9.56,0,0,1,1.47,4.6c0,2.58-2.18,3.86-6.53,3.86a7.58,7.58,0,0,1-4.11-.94A3.11,3.11,0,0,1,245,43.08a20.46,20.46,0,0,1,.29-2.57h-3.23v-2h3.57c.12-.57.25-1.25.42-2h-3.73v-2h4.19c.23-1,.44-1.77.64-2.44l2.43.19L249,34.45h6.8v2h-7.29l-.45,2h4.84Z"/><path class="cls-6" d="M264.51,34c0,.36,0,.79,0,1.28h2.15a3,3,0,0,1,2.28.92,3.32,3.32,0,0,1,.86,2.38,17.31,17.31,0,0,1-.84,5.91,3,3,0,0,1-2.87,2.28,4.6,4.6,0,0,1-1.22-.19,11.54,11.54,0,0,1-2.13-1.05l.77-2a5.59,5.59,0,0,0,2.28.88.76.76,0,0,0,.56-.24,3.34,3.34,0,0,0,.5-1,8.93,8.93,0,0,0,.39-1.76,17.92,17.92,0,0,0,.13-2.19,4.44,4.44,0,0,0-.11-1.18.89.89,0,0,0-.36-.51,1.15,1.15,0,0,0-.64-.17H264.3a17.19,17.19,0,0,1-4.21,9.61l-1.88-1.17a15.49,15.49,0,0,0,2-3.3,17.68,17.68,0,0,0,1.53-5.14h-3V35.26h3.31l0-3.21h2.44Zm10.33,7.16-2.29.64a23.94,23.94,0,0,0-1.46-3.85,19,19,0,0,0-2-3.06l1.9-1.11A19.17,19.17,0,0,1,274.84,41.14Zm-2-7-1.2.46c-.47-1.14-.84-2-1.14-2.55l1.15-.46A27.38,27.38,0,0,1,272.87,34.12Zm2.29-.18-1.16.44c-.37-.91-.75-1.76-1.15-2.55l1.11-.42C274.42,32.28,274.82,33.12,275.16,33.94Z"/><path class="cls-6" d="M284.68,41.18a20.4,20.4,0,0,1-1.09,2.57,9.47,9.47,0,0,1-1.29,2.1,1.83,1.83,0,0,1-1.46.68c-1.2,0-2.23-.74-3.09-2.21a9.84,9.84,0,0,1-1.3-5.09c0-.62.06-1.55.19-2.78s.17-2.15.17-2.77h2.56c0,.56-.1,1.48-.25,2.75a23.15,23.15,0,0,0-.22,2.76,8,8,0,0,0,.65,3.35c.43,1,.79,1.44,1.09,1.44s1.12-1.26,2.05-3.79Zm6.88,3.07-2.51.16a15.83,15.83,0,0,0-.9-5.18,14.07,14.07,0,0,0-2.45-4.48l2-1A15.11,15.11,0,0,1,291.56,44.25Z"/><path class="cls-6" d="M303.3,44.41a2.68,2.68,0,0,0,2-2.54,2.25,2.25,0,0,0-1-1.94,4.3,4.3,0,0,0-2.53-.71h-.21a6.53,6.53,0,0,0-1.56.22,10.83,10.83,0,0,0-1.69.58,9.22,9.22,0,0,0-1.32.72c-.36.24-1.2.84-2.5,1.8l-1.34-1.67q6.82-4.65,8.72-6.1h-7.06V32.83h10.08l1.2,1.27c-1.19.8-3,2-5.35,3.62a7.48,7.48,0,0,1,1.72-.26,6,6,0,0,1,3.86,1.12,3.85,3.85,0,0,1,1.39,3.2,4.24,4.24,0,0,1-2,3.75,9.3,9.3,0,0,1-5.2,1.31,6.87,6.87,0,0,1-3.37-.7,2.21,2.21,0,0,1-1.25-2A2.17,2.17,0,0,1,297,42.27a3.91,3.91,0,0,1,2.32-.74A3.73,3.73,0,0,1,303.3,44.41Zm-2.15.55a2,2,0,0,0-2-1.69,1.27,1.27,0,0,0-.74.23.69.69,0,0,0-.33.59c0,.61.72.91,2.16.91A8.45,8.45,0,0,0,301.15,45Z"/><path class="cls-6" d="M318.37,32.54c-1.15,2.35-2.07,4.31-2.76,5.86a2.67,2.67,0,0,1,.92-.17,2.21,2.21,0,0,1,2.39,1.67l.3,3a2.49,2.49,0,0,0,.45,1.34,1.19,1.19,0,0,0,1,.44c1.46,0,2.43-1.72,2.89-5.16l2.27.55c-.38,2.5-1,4.25-1.85,5.25a4.25,4.25,0,0,1-3.41,1.49,3.72,3.72,0,0,1-2.72-.87,5,5,0,0,1-1-3.28l-.05-1.17a1.88,1.88,0,0,0-.21-.91.56.56,0,0,0-.5-.33,2,2,0,0,0-1.31.67,9.27,9.27,0,0,0-1.67,3c-.45,1-.89,2-1.3,3l-2.29-.57L313,38.26q.35-.82,2.91-6.28Z"/><path class="cls-6" d="M333.08,32c0,.21,0,.56,0,1.07s0,.74,0,1.1h5.52v2h-5.74a23.6,23.6,0,0,1-1.39,6,18.56,18.56,0,0,1-2.54,5L327,45.9a18.22,18.22,0,0,0,2.24-4.51,24.66,24.66,0,0,0,1.26-5.27h-2.92v-2h3.07c0-.89.06-1.61.06-2.17Zm9.49,14.28a26.13,26.13,0,0,1-4,.27,20.75,20.75,0,0,1-3-.19,3.7,3.7,0,0,1-2-.9,2.25,2.25,0,0,1-.74-1.67,3.88,3.88,0,0,1,1.37-2.64l1.78.83a3,3,0,0,0-.83,1.61.54.54,0,0,0,.3.48,3.48,3.48,0,0,0,1.21.29,18.21,18.21,0,0,0,2.06.1,22.24,22.24,0,0,0,3.75-.32ZM342.12,37,342,39c-.32,0-.65,0-1,0-1.88,0-4.22.13-7,.38l-.15-2A61.81,61.81,0,0,1,340.8,37C341.34,37,341.78,37,342.12,37Zm-1.71-2.75-1.22.46c-.47-1.14-.84-2-1.14-2.55l1.19-.46A27.62,27.62,0,0,1,340.41,34.26Zm2.38-.43-1.2.44q-.58-1.44-1.14-2.55l1.14-.42C342.05,32.17,342.45,33,342.79,33.83Z"/><path class="cls-6" d="M350.19,34c0,.35,0,.77,0,1.26h2.31a3,3,0,0,1,2.3.94,3.33,3.33,0,0,1,.88,2.39,17.12,17.12,0,0,1-.86,5.94,3,3,0,0,1-2.91,2.27,7.54,7.54,0,0,1-3.42-1.24l.77-2a7.2,7.2,0,0,0,1.4.61,4.59,4.59,0,0,0,1,.27.79.79,0,0,0,.57-.25,3.11,3.11,0,0,0,.49-1,8.68,8.68,0,0,0,.39-1.73,16.44,16.44,0,0,0,.13-2.23,4.53,4.53,0,0,0-.11-1.19.89.89,0,0,0-.36-.51,1,1,0,0,0-.63-.17H350A17.2,17.2,0,0,1,345.59,47l-1.81-1.34a16.94,16.94,0,0,0,2.16-3.28,16.31,16.31,0,0,0,1.51-5.1h-3V35.24h3.32V32.05h2.44Zm10.39,6.92-2.4.62A27,27,0,0,0,357,38.09,19.5,19.5,0,0,0,355.83,36a12.57,12.57,0,0,0-1.2-1.64l1.91-1.19a17.65,17.65,0,0,1,2.57,3.72A15.13,15.13,0,0,1,360.58,40.9Z"/><path class="cls-6" d="M365.24,46.9l-.34-2.1a25.21,25.21,0,0,0,6.63-.67c1.52-.45,2.27-1.18,2.27-2.19a2,2,0,0,0-.81-1.7,3.66,3.66,0,0,0-2.22-.6,8.87,8.87,0,0,0-3.74.86,8.36,8.36,0,0,0-3,2.25l-1.82-1.07a19.66,19.66,0,0,0,1.42-7l2.46.15a17.88,17.88,0,0,1-.74,4.38,9.68,9.68,0,0,1,2.58-1.07,10.75,10.75,0,0,1,2.82-.43,6.7,6.7,0,0,1,4.08,1.1,3.7,3.7,0,0,1,1.48,3.17,3.81,3.81,0,0,1-1,2.63,6,6,0,0,1-3,1.64A34.12,34.12,0,0,1,365.24,46.9Zm9.88-13L374,36a22.26,22.26,0,0,0-4.42-1.23c-1.78-.34-3.27-.56-4.47-.67l.65-2A49.07,49.07,0,0,1,375.12,33.91Z"/><path class="cls-6" d="M213.2,69.05h-3.14v1H208V57.5h5.21Zm-2-6.67V59.09h-1.12v3.29Zm0,5.09V63.81h-1.12v3.66Zm6.89,1.75-2,1q-.93-1.43-2.1-3l1.52-.85h-1.73V64.68h5.83V63.39h-6V61.55h3.79V60.19h-3.28V58.42h3.28V56.76h2.32v1.66h3.25v1.77h-3.25v1.36h3.86v1.84h-1.66v1.29h1.32v1.75h-1.32v3.45a1.69,1.69,0,0,1-.59,1.37,2.44,2.44,0,0,1-1.61.49h-2.14l-.27-2.08h1.81c.35,0,.53-.16.53-.49V66.43h-3.67A20.75,20.75,0,0,1,218.07,69.22Z"/><path class="cls-6" d="M228.82,67.76a8,8,0,0,1-3.44,4.06l-1.17-1.53a7.13,7.13,0,0,0,3-5.1h-2.55V63.4h2.61V60.71h-.1a11.65,11.65,0,0,1-1.08,2.45l-1.79-.84a18.89,18.89,0,0,0,1.63-5.56l2.15.2a18.87,18.87,0,0,1-.41,2h3.58v1.74h-1.79V63.4h2.05v1.79h-1.85A9.43,9.43,0,0,0,231.89,68l-1.52,1.57A10.73,10.73,0,0,1,228.82,67.76Zm4.29,1.92-.89-2.9,2.1-.5c.3.92.65,2.06,1.05,3.4h.92c.31-.83.66-2,1.08-3.44l2.18.46a29.26,29.26,0,0,1-1.09,3h2.25v1.88h-9.89V69.68Zm7.16-10.43h-8.89V57.39h8.89Zm-.47,6.81h-8V60.28h8Zm-2.27-1.73V62h-3.45v2.32Z"/><path class="cls-6" d="M250.61,68.71h-3.22v.84a24,24,0,0,0,2.87-.29v.62a15.92,15.92,0,0,0,1.15-3,20,20,0,0,0,.64-4.88H251V60.33H252V56.9h2.19v3.43h2.84v5.18c0,.19,0,.7-.05,1.52a17.53,17.53,0,0,1-.19,2.15,6.74,6.74,0,0,1-.29,1.28,1.94,1.94,0,0,1-.43.65,2,2,0,0,1-.68.44,2.24,2.24,0,0,1-.84.16h-1.78l-.22-1.77h1.15a.91.91,0,0,0,.69-.28,3.71,3.71,0,0,0,.4-1.64c.09-.9.14-1.91.14-3V62h-.85c0,1.11-.09,2-.15,2.62a15.82,15.82,0,0,1-.41,2.23,16.43,16.43,0,0,1-.89,2.55,11.92,11.92,0,0,1-1.28,2.28l-1.18-.82a24.78,24.78,0,0,1-3.84.53c-2,.18-3.55.28-4.66.31l-.29-1.91c.81,0,2.08,0,3.83-.13v-1H242V67.2h3.22v-.72h-3.51v-1.6h3.51V64.2h-3.18v-4h1.38v-.76h-1.81V57.83h1.81v-.92h2v.92h1.66v-.92h2v.92h2v1.62h-2v.76h1.38v4h-3.09v.68h3.35v1.6h-3.35v.72h3.22Zm-5.37-7.12H244v1.24h1.27Zm.2-1.38h1.66v-.76h-1.66Zm3.05,2.62V61.59h-1.13v1.24Z"/><path class="cls-6" d="M263.66,70.36a1.19,1.19,0,0,1-.55,1,2.11,2.11,0,0,1-1.33.42h-2l-.22-2h1.5c.31,0,.47-.14.47-.44V67a12.67,12.67,0,0,1-1.8,2.39l-1.44-1.28a16.94,16.94,0,0,0,2.83-4.43h-2.33V62h2.58c-.46-.42-1.13-1-2-1.74l1.42-1.33,1.59,1.3a14.65,14.65,0,0,0,1.32-1.33h-4.5V57.24h6.52l.88.94a14.64,14.64,0,0,1-2.91,3.12,8.68,8.68,0,0,1,.73.68h1.79l.56.47c-.06.18-.14.42-.25.72a14,14,0,0,0,2.42-.93,7.65,7.65,0,0,1-1.18-1.43,14.28,14.28,0,0,1-1.06,1.13l-1.38-1a10.07,10.07,0,0,0,2.54-4.25l2,.31a8.42,8.42,0,0,1-.41,1.12h5.23v1.62h-.86a6.45,6.45,0,0,1-1.59,2.44,14,14,0,0,0,2.84.83L274,64.8a19.21,19.21,0,0,1-3.4-1.34,12.89,12.89,0,0,1-2.19.92h1.83c0,.49,0,.87,0,1.13H274c0,1.28,0,2.33-.09,3.14a7.23,7.23,0,0,1-.29,1.79,1.66,1.66,0,0,1-.74.91,2.63,2.63,0,0,1-1.41.34h-2l-.27-1.84h1.67a.74.74,0,0,0,.7-.44,6.56,6.56,0,0,0,.22-2.24H270A5.8,5.8,0,0,1,268.47,70a7.28,7.28,0,0,1-3.1,1.86l-1-1.69a5.78,5.78,0,0,0,2.19-1.26,4.44,4.44,0,0,0,1.22-1.74h-2.18V65.51H268c0-.23,0-.57,0-1L267,64.8l-.58-1.25a12.76,12.76,0,0,1-1.31,2.66l-1.37-.58c.21-.49.48-1.17.81-2h-.85Zm6.85-9.16a5.68,5.68,0,0,0,1.16-1.46h-2.54A5.42,5.42,0,0,0,270.51,61.2Z"/><path class="cls-6" d="M281.6,59c0,.36,0,.79,0,1.28h2.14a3,3,0,0,1,2.29.92,3.36,3.36,0,0,1,.86,2.38,17.31,17.31,0,0,1-.84,5.91,3,3,0,0,1-2.87,2.28,4.73,4.73,0,0,1-1.23-.19,11.86,11.86,0,0,1-2.12-1l.77-2a5.68,5.68,0,0,0,2.28.87.77.77,0,0,0,.56-.24,3.34,3.34,0,0,0,.5-1,9.71,9.71,0,0,0,.39-1.76,18.06,18.06,0,0,0,.12-2.19A4,4,0,0,0,284.3,63a.92.92,0,0,0-.35-.51,1.15,1.15,0,0,0-.64-.17h-1.93a17.12,17.12,0,0,1-4.21,9.61l-1.88-1.17a14.72,14.72,0,0,0,2-3.3,17.39,17.39,0,0,0,1.54-5.14h-3V60.26h3.31l0-3.21h2.44Zm10.32,7.16-2.28.64a23,23,0,0,0-1.47-3.85,18.29,18.29,0,0,0-2-3.06l1.9-1.11A19,19,0,0,1,291.92,66.14Zm-2-7-1.21.46c-.46-1.14-.84-2-1.13-2.55l1.15-.46A27.38,27.38,0,0,1,290,59.12Zm2.29-.18-1.16.44c-.37-.91-.75-1.76-1.15-2.55l1.11-.42C291.5,57.28,291.9,58.12,292.25,58.94Z"/><path class="cls-6" d="M305.39,71.19h-12V69.26h12v-1.8H293.68V65.53h11.71V63.86H293.54V62h2.31a38.93,38.93,0,0,0-2.05-3.9l2.15-.81a31.51,31.51,0,0,1,2.3,4.13l-1.61.58h2.77V56.76h2.46V62h2.25L303,61.55a30.38,30.38,0,0,0,2.38-4.4l2.42.8a36.31,36.31,0,0,1-2.49,4h2.53v9.78h-2.44Z"/><path class="cls-6" d="M316,57c0,.21,0,.56,0,1.07s0,.74,0,1.1h5.52v2h-5.74a23.6,23.6,0,0,1-1.39,5.95,18,18,0,0,1-2.54,5l-1.94-1.14a18.22,18.22,0,0,0,2.24-4.51,24.7,24.7,0,0,0,1.27-5.27h-2.92v-2h3.06c0-.89.07-1.61.07-2.17Zm9.49,14.28a26,26,0,0,1-4,.27,20.51,20.51,0,0,1-3-.19,3.64,3.64,0,0,1-2-.9,2.21,2.21,0,0,1-.74-1.67,3.86,3.86,0,0,1,1.36-2.64l1.78.83a2.91,2.91,0,0,0-.82,1.61.53.53,0,0,0,.29.48,3.55,3.55,0,0,0,1.21.29,18.4,18.4,0,0,0,2.07.1,22.22,22.22,0,0,0,3.74-.32ZM325,62l-.12,2q-.48,0-1,0c-1.89,0-4.22.13-7,.38l-.15-2a62,62,0,0,1,7-.38C324.25,62,324.69,62,325,62Z"/><path class="cls-6" d="M332.16,72.15l-.46-2.06c2.77-.32,4.64-.89,5.63-1.7a4.68,4.68,0,0,0,1.48-3.86c0-3.08-.71-4.63-2.12-4.63a4.58,4.58,0,0,0-2.31.69,5.15,5.15,0,0,0-1.95,2.34,7.73,7.73,0,0,0-.79,3.43,8.51,8.51,0,0,0,.08,1.1l-2.21.15a26.6,26.6,0,0,1-.38-4.69,32.05,32.05,0,0,1,.57-6.05l2.39.21c-.16.87-.39,2.17-.68,3.92a6.3,6.3,0,0,1,5.35-3.24,3.77,3.77,0,0,1,3.37,1.75,8.64,8.64,0,0,1,1.16,4.79c0,2.6-.76,4.49-2.29,5.7S335.19,71.91,332.16,72.15Z"/><path class="cls-6" d="M348.07,58.44l-.72-1.51,2.16-.44.92,1.95h3.27l1-2L357,57l-1,1.44h3.89v1.75H344.33V58.44Zm2.17,9.65h-2.85V71.8h-2.28V61.23h7.37v9a1.34,1.34,0,0,1-.53,1.12,2.2,2.2,0,0,1-1.38.4h-1.75l-.26-1.89h1.21c.32,0,.47-.14.47-.42Zm0-4.15V62.83h-2.85v1.11Zm-2.85,2.63h2.85V65.43h-2.85Zm8.28,2.11h-2.13V61.59h2.13Zm3.38,1.47a1.36,1.36,0,0,1-.61,1.14,2.18,2.18,0,0,1-1.33.45h-2.46l-.25-2h1.87c.34,0,.51-.16.51-.49v-8.4h2.27Z"/><path class="cls-6" d="M367.25,57c0,.21,0,.56,0,1.07s0,.74,0,1.1h5.51v2H367a23.6,23.6,0,0,1-1.39,5.95,18,18,0,0,1-2.54,5l-1.94-1.14a17.88,17.88,0,0,0,2.24-4.51,24.12,24.12,0,0,0,1.27-5.27h-2.92v-2h3.06c0-.89.07-1.61.07-2.17Zm9.49,14.28a26,26,0,0,1-4,.27,20.51,20.51,0,0,1-3-.19,3.64,3.64,0,0,1-2-.9,2.21,2.21,0,0,1-.74-1.67,3.86,3.86,0,0,1,1.36-2.64l1.78.83a2.91,2.91,0,0,0-.82,1.61.54.54,0,0,0,.3.48,3.41,3.41,0,0,0,1.21.29,18.09,18.09,0,0,0,2.06.1,22.22,22.22,0,0,0,3.74-.32ZM376.3,62l-.12,2q-.48,0-1,0c-1.89,0-4.22.13-7,.38l-.15-2a62,62,0,0,1,7-.38C375.51,62,376,62,376.3,62Zm-1.71-2.75-1.23.46c-.46-1.14-.84-2-1.13-2.55l1.18-.46A26.38,26.38,0,0,1,374.59,59.26Zm2.38-.43-1.21.44q-.58-1.44-1.14-2.55l1.14-.42C376.22,57.17,376.62,58,377,58.83Z"/><path class="cls-6" d="M393.81,69.37l-1.47,2a22.08,22.08,0,0,0-4.83-3,3.58,3.58,0,0,1-.85,2.67,4.08,4.08,0,0,1-2.85.82,6.74,6.74,0,0,1-3.57-.8A2.62,2.62,0,0,1,379,68.69a2.74,2.74,0,0,1,1.41-2.43,6.35,6.35,0,0,1,3.44-.89,10,10,0,0,1,1.29.09V56.87h2.46V60h5.6V62h-5.6v4A22.6,22.6,0,0,1,393.81,69.37Zm-8.66-1.84a7.06,7.06,0,0,0-1.34-.13,4.61,4.61,0,0,0-1.76.31c-.52.21-.77.5-.77.88a.94.94,0,0,0,.63.86,3.63,3.63,0,0,0,1.55.3,2,2,0,0,0,1.36-.31,1.11,1.11,0,0,0,.33-.86Z"/><path class="cls-6" d="M398.54,67q-1.34,2-2.25,3.06L395,68.29a46.23,46.23,0,0,0,3.17-4.24c.07-.16.2-.42.37-.75V61.5h-2.92V59.63h2.92V56.91h2.34v4.52a7.86,7.86,0,0,1,5.59-2.76,3.25,3.25,0,0,1,2.95,1.55,8.21,8.21,0,0,1,1,4.46,14.44,14.44,0,0,1-.28,3A16.26,16.26,0,0,1,412,69.2l-1.16,1.94-1.49-1.31a4.23,4.23,0,0,1-3.83,1.91,3.73,3.73,0,0,1-2.33-.79,2.35,2.35,0,0,1-1-1.94,2.46,2.46,0,0,1,1-2.06,3.89,3.89,0,0,1,2.47-.76,7.84,7.84,0,0,1,2.47.4,18,18,0,0,0,.07-1.91,7.7,7.7,0,0,0-.44-3.13,1.34,1.34,0,0,0-1.23-.85q-2.42,0-5.56,3.69v7.43h-2.34Zm9,1.5a3,3,0,0,0-1.81-.57c-1,0-1.52.33-1.52,1s.47.83,1.4.83A2,2,0,0,0,407.54,68.54Z"/><path class="cls-6" d="M44.7,234.2H42.43v-7c-.31.49-.7,1-1.16,1.65l-1.46-1.3A22.15,22.15,0,0,0,41.88,224a22.49,22.49,0,0,0,1.78-4.9l2.3.39a19.58,19.58,0,0,1-1.58,4.35h.32v6.33a19,19,0,0,0,2.4-2.91,18.88,18.88,0,0,0,1.77-3H45.24v-1.86h4.18v-3.25h2.34v3.25h4.57v1.86H52.12a16.71,16.71,0,0,0,2,3.17,16.3,16.3,0,0,0,2.63,2.8l-1.48,1.74a21.54,21.54,0,0,1-1.63-1.68v1H51.71V234H49.48v-2.76h-2v-1A14.47,14.47,0,0,1,46,231.8l-1.25-1.28Zm3.41-4.78h1.37v-2C49,228.13,48.59,228.79,48.11,229.42Zm3.6,0H53a16.14,16.14,0,0,1-1.26-1.87Z"/><path class="cls-6" d="M60.6,223.33q.52-.68,1-1.44H57.29v-1.66h6.8V219h2.36v1.25h7v1.66H70.46a31.59,31.59,0,0,1,2.63,2.47l-2.06,1c-.23-.29-.49-.57-.76-.86q-3.67.33-12.07.61l-.26-1.82h.81Zm8.76,7.74h-8v3H59.05v-8.4H71.68v6.58a1.52,1.52,0,0,1-.52,1.23,2,2,0,0,1-1.35.45H67.26l-.21-1.91h1.78c.35,0,.53-.15.53-.45Zm0-3.25v-.88h-8v.88Zm-8,2.06h8V229h-8Zm2.85-8c-.31.45-.66.91-1.05,1.39,2.4-.06,4.28-.12,5.61-.19-.37-.34-.7-.61-1-.82l.51-.38Z"/><path class="cls-6" d="M87.11,225.89H77.85v-.95a16.78,16.78,0,0,1-2.8,1.45L74,224.62a18.54,18.54,0,0,0,4.09-2.4,11.65,11.65,0,0,0,3.14-3.13h2.26a17.63,17.63,0,0,0,7.43,5.27l-1.21,1.95A17.86,17.86,0,0,1,87.11,225Zm-.34,7.33q-4,.45-11.21.81l-.35-2,2.17-.08A31.43,31.43,0,0,0,79,229.15H75v-2H89.83v2H86.39a29.36,29.36,0,0,1,3.47,4.1l-2.49.93A9.45,9.45,0,0,0,86.77,233.22ZM79.3,224h6.19a16.29,16.29,0,0,1-3.09-2.84A15.93,15.93,0,0,1,79.3,224Zm.84,7.83c2.19-.12,3.94-.24,5.24-.36-.55-.66-1-1.22-1.46-1.68l1.11-.6H81.72C81.23,230.05,80.7,230.93,80.14,231.79Z"/><path class="cls-6" d="M97.93,230a15.31,15.31,0,0,1-2.67,2.17,18,18,0,0,1-2.92,1.63L91.14,232a19.58,19.58,0,0,0,3-1.75,18.92,18.92,0,0,0,1.93-1.67Zm2.81,4.14H98.22v-5.71c-3.06.17-5.18.27-6.38.29l-.28-2.1h.38c.9,0,2.32,0,4.24-.09a42.31,42.31,0,0,0-3.44-2.92l1.51-1.44a11.59,11.59,0,0,1,1.29,1c.46-.46.89-.92,1.27-1.37-1.84.1-3.24.16-4.21.16L92.31,220q4.68,0,8-.36a31.36,31.36,0,0,0,4.72-.69l1.13,1.8a47.64,47.64,0,0,1-6.44.82,27.44,27.44,0,0,1-2.66,2.86l1.34,1.15a28.32,28.32,0,0,0,4.18-4.22l2.15,1.1a34.72,34.72,0,0,1-4.18,3.91l3.11-.18c-.31-.43-.64-.84-1-1.24l1.85-1a37.53,37.53,0,0,1,3.35,4.28l-2,1L105,228c-1,.09-2.39.19-4.24.3Zm7-2.33-1.44,1.94a20.52,20.52,0,0,1-3-1.86,10.7,10.7,0,0,1-2.25-2.07l1.63-1.4a20.81,20.81,0,0,0,2.38,2A16.6,16.6,0,0,0,107.77,231.82Z"/><path class="cls-6" d="M114.65,219.2c0,.21,0,.56,0,1.07s0,.74,0,1.1h5.52v2h-5.74a23.6,23.6,0,0,1-1.39,5.95,18,18,0,0,1-2.54,5l-1.94-1.14a18.22,18.22,0,0,0,2.24-4.51,24.7,24.7,0,0,0,1.27-5.27h-2.92v-2h3.06c0-.89.07-1.61.07-2.17Zm9.49,14.28a25.94,25.94,0,0,1-4,.28,20.39,20.39,0,0,1-3-.2,3.64,3.64,0,0,1-2-.9,2.21,2.21,0,0,1-.74-1.67,3.86,3.86,0,0,1,1.36-2.64l1.78.83a2.91,2.91,0,0,0-.82,1.61.52.52,0,0,0,.3.48,3.2,3.2,0,0,0,1.21.29,18.09,18.09,0,0,0,2.06.1,21.22,21.22,0,0,0,3.74-.32Zm-.44-9.23-.12,2q-.48,0-1,0c-1.89,0-4.22.13-7,.38l-.15-2a62,62,0,0,1,6.95-.38C122.91,224.23,123.35,224.23,123.7,224.25ZM122,221.5l-1.23.46c-.46-1.14-.84-2-1.13-2.55l1.18-.45A25.16,25.16,0,0,1,122,221.5Zm2.37-.43-1.2.44q-.59-1.44-1.14-2.55l1.14-.42C123.62,219.41,124,220.25,124.36,221.07Z"/><path class="cls-6" d="M131.76,221.22c0,.35,0,.77,0,1.26H134a3,3,0,0,1,2.31.94,3.36,3.36,0,0,1,.87,2.39,17,17,0,0,1-.86,5.95,3,3,0,0,1-2.91,2.26,7.62,7.62,0,0,1-3.42-1.24l.77-2a9.07,9.07,0,0,0,1.4.61,4.83,4.83,0,0,0,1,.26.78.78,0,0,0,.56-.25,3.07,3.07,0,0,0,.5-1,8.71,8.71,0,0,0,.38-1.73,16.44,16.44,0,0,0,.13-2.23,4.13,4.13,0,0,0-.11-1.19.92.92,0,0,0-.35-.51,1.15,1.15,0,0,0-.64-.17h-2.08a17.33,17.33,0,0,1-4.39,9.72l-1.81-1.34a17.09,17.09,0,0,0,2.15-3.28,16.31,16.31,0,0,0,1.51-5.1h-3v-2.08h3.32v-3.19h2.44Zm10.39,6.92-2.39.62a25.18,25.18,0,0,0-1.17-3.43,18,18,0,0,0-1.19-2.13,11.5,11.5,0,0,0-1.2-1.64l1.91-1.19a17.65,17.65,0,0,1,2.57,3.72A14.47,14.47,0,0,1,142.15,228.14Z"/><path class="cls-6" d="M146.82,234.15l-.35-2.11a25.11,25.11,0,0,0,6.63-.67q2.28-.68,2.28-2.19a2,2,0,0,0-.81-1.7,3.69,3.69,0,0,0-2.23-.6,8.9,8.9,0,0,0-3.74.86,8.15,8.15,0,0,0-3,2.26l-1.83-1.08a19.65,19.65,0,0,0,1.42-7l2.46.14a18.42,18.42,0,0,1-.73,4.38,9.6,9.6,0,0,1,2.57-1.07,10.83,10.83,0,0,1,2.82-.42A6.74,6.74,0,0,1,156.4,226a3.71,3.71,0,0,1,1.47,3.17,3.81,3.81,0,0,1-1,2.63,6,6,0,0,1-2.95,1.64A34.64,34.64,0,0,1,146.82,234.15Zm9.87-13-1.09,2.1a22.33,22.33,0,0,0-4.41-1.23c-1.79-.34-3.28-.56-4.47-.67l.64-2A48.28,48.28,0,0,1,156.69,221.16Z"/><path class="cls-6" d="M42.63,246.35c-.3-.6-.57-1.09-.81-1.48l2-.7a15.69,15.69,0,0,1,1.23,2.18h2.18c-.32-.8-.58-1.41-.78-1.86l2-.56c.33.65.68,1.46,1,2.42h1.84a16,16,0,0,0,1.17-2.26l2.24.52c-.31.57-.65,1.14-1,1.74h2v3.4H53.85v-1.69H42.57v1.69H40.66v-3.4Zm10,12.16H43.74v.5H41.49v-5.17h5l.37-.88H43v-4.07H53.35V253H49.24l-.47.88h6.17v5.21H52.61Zm-8.87-1.61h8.87v-1.46H43.74Zm7.52-5.37v-1.17H45.09v1.17Z"/><path class="cls-6" d="M64.13,256.28a19.55,19.55,0,0,1-6.51,2.58L57,257.2a20.88,20.88,0,0,0,5.13-1.85H57.57v-1.57h6.56V253H58.44v-1.47h5.69v-.78H58.19v-1.59h3.12l-.38-1H57.79v-1.6h1.89l-.84-1.92,2-.49,1.07,2.41h.76V244h2v2.64h1.26V244h2v2.64h.86l1.06-2.43,2.08.49-1,1.94h2v1.6H69.7l-.58,1h3.43v1.59H66.39v.78h5.74V253H66.39v.79H73v1.57H68.49A21.94,21.94,0,0,0,73.61,257l-.87,1.85a18.23,18.23,0,0,1-6.35-2.73v3H64.13Zm-1-8.08.39,1H67l.51-1Z"/><path class="cls-6" d="M80.26,246.22c0,.36,0,.79,0,1.28h2.14a3,3,0,0,1,2.29.92,3.38,3.38,0,0,1,.86,2.38,17.31,17.31,0,0,1-.84,5.91A3,3,0,0,1,81.8,259a4.73,4.73,0,0,1-1.23-.19,11.86,11.86,0,0,1-2.12-1.05l.77-2a5.68,5.68,0,0,0,2.28.87.77.77,0,0,0,.56-.24,3.22,3.22,0,0,0,.5-1,9.71,9.71,0,0,0,.39-1.76,18.06,18.06,0,0,0,.12-2.19,4.56,4.56,0,0,0-.1-1.18,1,1,0,0,0-.36-.51,1.15,1.15,0,0,0-.64-.17H80.05a17.13,17.13,0,0,1-4.22,9.61L74,258a14.72,14.72,0,0,0,2-3.3,17.39,17.39,0,0,0,1.54-5.14h-3V247.5H77.8l0-3.21h2.44Zm10.32,7.17L88.3,254a23,23,0,0,0-1.47-3.85,18.29,18.29,0,0,0-2-3.06l1.9-1.1A18.86,18.86,0,0,1,90.58,253.39Zm-2-7-1.21.46c-.46-1.14-.84-2-1.13-2.55l1.15-.46A27.38,27.38,0,0,1,88.62,246.36Zm2.29-.18-1.16.44c-.37-.91-.75-1.76-1.15-2.55l1.11-.42C90.16,244.52,90.56,245.36,90.91,246.18Z"/><path class="cls-6" d="M106.92,257.24a1.41,1.41,0,0,1-.61,1.17,2.33,2.33,0,0,1-1.46.46h-2.27l-.28-2h1.8q.51,0,.51-.45v-8.16H94.48V259H92.12v-12.6h5.16c.29-.82.53-1.61.72-2.36l2.46.41c-.31.8-.58,1.45-.8,1.95h7.26Zm-9.06-1.36v.73H95.69v-6.89h7.64v6.16Zm0-1.83h3.28v-2.53H97.86Z"/><path class="cls-6" d="M117.51,253.42a22.6,22.6,0,0,1-1.08,2.58,10.89,10.89,0,0,1-1.29,2.1,1.87,1.87,0,0,1-1.46.67c-1.21,0-2.24-.74-3.1-2.21a9.89,9.89,0,0,1-1.29-5.08c0-.63.06-1.56.18-2.78s.18-2.16.18-2.78h2.55c0,.56-.1,1.48-.25,2.75a23.15,23.15,0,0,0-.22,2.76,8.14,8.14,0,0,0,.65,3.35c.43,1,.8,1.44,1.1,1.44s1.11-1.26,2-3.79Zm6.89,3.07-2.51.16a15.83,15.83,0,0,0-.9-5.18,14.09,14.09,0,0,0-2.46-4.48l2-1A15.07,15.07,0,0,1,124.4,256.49Z"/><path class="cls-6" d="M139.47,256.73l-.12,2.24-1.21,0a11,11,0,0,1-4.8-.86,6,6,0,0,1-2.46-2.08,5.15,5.15,0,0,1-.74-2.77c0-2,1-3.89,3-5.59l-7.42.07v-2.12h14.88v2.14h-3.83a8.22,8.22,0,0,0-3,2.33,4.9,4.9,0,0,0-1.17,3.07q0,3.59,5.48,3.59C138.54,256.78,139,256.76,139.47,256.73Z"/><path class="cls-6" d="M151.69,253.42A22.82,22.82,0,0,1,150.6,256a10.41,10.41,0,0,1-1.29,2.1,1.85,1.85,0,0,1-1.46.67c-1.2,0-2.23-.74-3.09-2.21a9.8,9.8,0,0,1-1.3-5.08c0-.63.06-1.56.19-2.78s.17-2.16.17-2.78h2.55c0,.56-.1,1.48-.25,2.75a25,25,0,0,0-.21,2.76,8.14,8.14,0,0,0,.64,3.35c.43,1,.8,1.44,1.1,1.44s1.12-1.26,2-3.79Zm6.88,3.07-2.51.16a15.83,15.83,0,0,0-.9-5.18,14.07,14.07,0,0,0-2.45-4.48l2-1A15.07,15.07,0,0,1,158.57,256.49Z"/><path class="cls-6" d="M170.31,256.66a2.7,2.7,0,0,0,2-2.54,2.26,2.26,0,0,0-1-2,4.3,4.3,0,0,0-2.53-.71h-.21a6.4,6.4,0,0,0-1.56.22,10.83,10.83,0,0,0-1.69.58A9.38,9.38,0,0,0,164,253c-.35.24-1.19.84-2.5,1.8l-1.33-1.67q6.81-4.65,8.72-6.1h-7.06v-1.94h10.08l1.2,1.28c-1.2.79-3,2-5.35,3.62a7,7,0,0,1,1.72-.27,6,6,0,0,1,3.86,1.12,3.88,3.88,0,0,1,1.39,3.2,4.24,4.24,0,0,1-2,3.75,9.3,9.3,0,0,1-5.2,1.31,6.84,6.84,0,0,1-3.37-.7,2.21,2.21,0,0,1-1.25-2,2.19,2.19,0,0,1,1.06-1.83,4,4,0,0,1,2.33-.74A3.74,3.74,0,0,1,170.31,256.66Zm-2.15.54a2,2,0,0,0-2-1.69,1.25,1.25,0,0,0-.74.23.69.69,0,0,0-.33.59c0,.61.72.91,2.15.91A8.52,8.52,0,0,0,168.16,257.2Z"/><path class="cls-6" d="M190.63,256.73l-.11,2.24-1.21,0a11,11,0,0,1-4.8-.86,5.82,5.82,0,0,1-2.46-2.08,5.15,5.15,0,0,1-.74-2.77c0-2,1-3.89,3-5.59l-7.42.07v-2.12h14.88v2.14H188a8.22,8.22,0,0,0-3,2.33,4.9,4.9,0,0,0-1.17,3.07q0,3.59,5.48,3.59C189.71,256.78,190.16,256.76,190.63,256.73Zm-.74-5.5-1.23.45c-.23-.57-.61-1.42-1.13-2.54l1.19-.47A27,27,0,0,1,189.89,251.23Zm2.38-.48-1.2.44q-.58-1.45-1.14-2.55l1.14-.43C191.52,249.08,191.93,249.93,192.27,250.75Z"/><path class="cls-6" d="M209.52,251.92a11.17,11.17,0,0,1-3,5.47,7.25,7.25,0,0,1-4.93,1.67,7.12,7.12,0,0,1-2.28-.33,4.52,4.52,0,0,1-1.59-.91,4.28,4.28,0,0,1-.95-1.25,4.46,4.46,0,0,1-.44-1.44,21.34,21.34,0,0,1-.1-2.35c0-1.16.12-3.89.36-8.17h2.5c-.23,3.83-.35,6.48-.35,8a16.52,16.52,0,0,0,.1,2.31,2.38,2.38,0,0,0,.43.95,2.06,2.06,0,0,0,1,.69,4.14,4.14,0,0,0,1.54.25,4.55,4.55,0,0,0,3.37-1.37,9.72,9.72,0,0,0,2.15-4.33Z"/><path class="cls-6" d="M225.24,257,224,258.72a19.2,19.2,0,0,0-4.15-2.63,3.12,3.12,0,0,1-.74,2.31,3.48,3.48,0,0,1-2.46.72,5.72,5.72,0,0,1-3-.69,2.23,2.23,0,0,1-1.11-2,2.32,2.32,0,0,1,1.21-2.07,5.46,5.46,0,0,1,2.95-.76,10.32,10.32,0,0,1,1.1.07v-7.37h2.14v2.66h4.79v1.74h-4.79v3.45A18.5,18.5,0,0,1,225.24,257Zm-7.43-1.64a5.78,5.78,0,0,0-1.14-.11,4,4,0,0,0-1.54.27c-.44.18-.66.44-.66.77a.8.8,0,0,0,.55.75,3,3,0,0,0,1.34.26,1.79,1.79,0,0,0,1.17-.26,1,1,0,0,0,.28-.77Z"/><path class="cls-6" d="M56.42,350.42l.56-1.93a5.5,5.5,0,0,0,2.3.56,3,3,0,0,0,1.92-.57,2,2,0,0,0,.71-1.62,2.06,2.06,0,0,0-1-1.86,5.32,5.32,0,0,0-2.81-.63,13.38,13.38,0,0,0-2.36.22v4.58a1.77,1.77,0,0,1-.8,1.53,3.49,3.49,0,0,1-2,.56,4.2,4.2,0,0,1-2.79-1A3,3,0,0,1,49,347.84a3.8,3.8,0,0,1,1.16-2.7,8.33,8.33,0,0,1,3.17-1.93v-2.09H49.37v-1.95H53.3v-2.64h2.43v2.64H59.8v1.95H55.73v1.48a15.14,15.14,0,0,1,2.33-.18,8.18,8.18,0,0,1,4.55,1.13,3.62,3.62,0,0,1,1.75,3.23A4.13,4.13,0,0,1,63.05,350a5.05,5.05,0,0,1-3.51,1.18A6.27,6.27,0,0,1,56.42,350.42Zm-3.12-5.09c-1.43.69-2.15,1.5-2.15,2.44a1.25,1.25,0,0,0,.5,1,1.83,1.83,0,0,0,1.16.4.43.43,0,0,0,.49-.48ZM65,340.91l-1.8,1.4a24.7,24.7,0,0,0-2.15-2.21,23.56,23.56,0,0,0-2.36-2l1.46-1.47a16.36,16.36,0,0,1,2.5,1.9A23.69,23.69,0,0,1,65,340.91Z"/><path class="cls-6" d="M75,351.27H72.53V346H68.22v-1.4c-.6.23-1.24.46-1.91.67l-.84-1.82a16.87,16.87,0,0,0,4.61-1.92,11.89,11.89,0,0,0,2.61-2h2.25a10.4,10.4,0,0,0,2.38,1.68,21.94,21.94,0,0,0,4.92,2.05l-1.12,1.95c-.66-.22-1.27-.45-1.84-.68V346H75Zm-2.7-4.1a15.44,15.44,0,0,1-2.68,2.3A11.3,11.3,0,0,1,66.9,351l-1.22-1.69a17.44,17.44,0,0,0,2.53-1.44,12.29,12.29,0,0,0,2.11-1.77ZM81.6,339H78.22v.92H76V339H71.78v.91H69.54V339H66.09v-1.72h3.45v-.93h2.24v.93H76v-.93h2.26v.93H81.6Zm-9.07,5.14v-1.59H75v1.59h3.34a17,17,0,0,1-4.47-2.81,15.26,15.26,0,0,1-4.47,2.81Zm9.43,5-1.48,1.9a22.19,22.19,0,0,1-5.08-3.67l1.71-1.29a18.36,18.36,0,0,0,2.28,1.67A18.17,18.17,0,0,0,82,349.15Z"/><path class="cls-6" d="M85.84,351.16H83.45v-7.09h2.39v4.43h3.72v-5.25H84.2V337.4h2.33v4h3v-5h2.38v5H95.1v-4.08h2.37v5.9H91.94v5.25H96V344h2.4v7.18H96v-.78H85.84Z"/><path class="cls-6" d="M115.52,344.12a11.18,11.18,0,0,1-3,5.46,7.23,7.23,0,0,1-4.93,1.68,6.84,6.84,0,0,1-2.28-.34,4.5,4.5,0,0,1-1.6-.91,4.46,4.46,0,0,1-.95-1.25,4.73,4.73,0,0,1-.43-1.43,19.26,19.26,0,0,1-.1-2.36q0-1.74.36-8.16h2.49q-.35,5.73-.34,8a15.27,15.27,0,0,0,.1,2.32,2.16,2.16,0,0,0,.43.94,2.08,2.08,0,0,0,1,.7,4.33,4.33,0,0,0,1.54.24,4.52,4.52,0,0,0,3.37-1.37,9.56,9.56,0,0,0,2.14-4.33Z"/><path class="cls-6" d="M121.2,337.18a24.58,24.58,0,0,0-1,6.4,26.28,26.28,0,0,0,.95,7l-2.34.47a27.17,27.17,0,0,1-.92-6.86,29.88,29.88,0,0,1,1-7.31Zm12.39,11.35-1.35,1.91a15.66,15.66,0,0,0-2.41-1.86,2.47,2.47,0,0,1-.88,1.86,4.92,4.92,0,0,1-3,.64,4.46,4.46,0,0,1-2.63-.75,2.37,2.37,0,0,1-1.07-2,2.51,2.51,0,0,1,1.08-2.09,4.13,4.13,0,0,1,2.55-.81,13.41,13.41,0,0,1,1.54.1v-3.71H122v-2.06h5.42v-3h2.38v3H133v2.06h-3.12v4.42A16.28,16.28,0,0,1,133.59,348.53Zm-6.13-.47v-.58a4.24,4.24,0,0,0-1.54-.26,1.8,1.8,0,0,0-1,.27.83.83,0,0,0-.43.7.75.75,0,0,0,.45.68,2.09,2.09,0,0,0,1,.25C127,349.12,127.46,348.76,127.46,348.06Z"/><path class="cls-6" d="M147.45,341.62a10,10,0,0,1-2.23,5.38,36.19,36.19,0,0,1,4.66,2.13l-1.45,2a53.82,53.82,0,0,0-5.09-2.47,18.48,18.48,0,0,1-8.11,2.59l-.62-2a20.07,20.07,0,0,0,6.19-1.68,34.48,34.48,0,0,0-4-1.3.65.65,0,0,1-.56-.67.48.48,0,0,1,.05-.23c.43-1.05.92-2.32,1.46-3.82h-3.44v-2h4.15c.49-1.43.84-2.58,1.05-3.43l2.53.31q-.22,1-1,3.12H150v2ZM143,346.09a8.15,8.15,0,0,0,2-4.47h-4.57c-.5,1.34-.92,2.39-1.28,3.15C139.92,345,141.21,345.46,143,346.09Z"/><path class="cls-6" d="M153.15,339.06a21.84,21.84,0,0,1-.59,5.29L151,344a19.6,19.6,0,0,0,.54-5Zm2.68,12.26h-2.24v-15.1h2.24Zm1.76-10.82-1.18.32-.54-2.64,1.12-.31ZM167.33,351H157V349.1h4.25v-3.44h-3.5v-1.9h3.5v-2.62h-1.53a12.42,12.42,0,0,1-1.12,2.35l-1.79-1a15,15,0,0,0,1.55-5.78l2.26.13a22.37,22.37,0,0,1-.36,2.4h1v-3h2.42v3h3.39v1.87H163.7v2.62h3.13v1.9H163.7v3.44h3.63Z"/><path class="cls-6" d="M174.21,338.42c0,.36,0,.78,0,1.27h2.15a3,3,0,0,1,2.28.93,3.3,3.3,0,0,1,.86,2.38,17.39,17.39,0,0,1-.84,5.91,3,3,0,0,1-2.87,2.27,4.22,4.22,0,0,1-1.22-.19,11.31,11.31,0,0,1-2.13-1l.77-2a5.68,5.68,0,0,0,2.28.87.76.76,0,0,0,.56-.24,3.11,3.11,0,0,0,.5-1,8.62,8.62,0,0,0,.39-1.76,17.92,17.92,0,0,0,.13-2.19,4.49,4.49,0,0,0-.11-1.18,1,1,0,0,0-.36-.5,1.15,1.15,0,0,0-.64-.17H174a17.13,17.13,0,0,1-4.22,9.6l-1.87-1.17a15.11,15.11,0,0,0,2-3.29,17.68,17.68,0,0,0,1.53-5.14h-3v-2.08h3.31l0-3.21h2.44Zm10.32,7.16-2.28.64a23.11,23.11,0,0,0-1.47-3.86,18.29,18.29,0,0,0-2-3.06l1.9-1.1A18.86,18.86,0,0,1,184.53,345.58Zm-2-7-1.21.45c-.46-1.14-.84-2-1.13-2.54l1.15-.46A25.18,25.18,0,0,1,182.57,338.56Zm2.29-.19-1.16.44c-.37-.9-.75-1.75-1.15-2.54l1.11-.43C184.11,336.71,184.51,337.56,184.86,338.37Z"/><path class="cls-6" d="M56.27,376l-2.43.44c-.67-2.83-1.43-5.84-2.26-9l-2.5.73L48.52,366l2.52-.66c-.36-1.34-.7-2.55-1-3.62l2.41-.49.94,3.48c1.07-.28,2-.5,2.67-.67-.37-.51-.84-1.14-1.43-1.9l1.93-.95c.53.59,1.15,1.38,1.87,2.36a11.42,11.42,0,0,1,1.88-.19,4.48,4.48,0,0,1,3.22,1.16,4,4,0,0,1,1.22,3.09,3.51,3.51,0,0,1-1.37,2.95,5.82,5.82,0,0,1-3.65,1.06,13.05,13.05,0,0,1-2.52-.27l0-2.07a12,12,0,0,0,2.2.25c1.91,0,2.86-.63,2.86-1.88a2.4,2.4,0,0,0-.56-1.68,2,2,0,0,0-1.54-.63,3,3,0,0,0-.52,0,11.71,11.71,0,0,1,.86,1.55l-2.19.85a14.46,14.46,0,0,0-1.08-1.94c-1,.23-2.1.52-3.37.87C54.75,369.85,55.53,372.93,56.27,376Z"/><path class="cls-6" d="M69.74,375.81,69.36,374a33.4,33.4,0,0,0,4.56-.44,5.74,5.74,0,0,0,2.71-1.19,2.83,2.83,0,0,0,1-2.28,2.77,2.77,0,0,0-.87-2.13,3.27,3.27,0,0,0-2.28-.8,54.39,54.39,0,0,0-7.89,1.12l-.32-1.87,4.47-.66a31.44,31.44,0,0,1,3.78-.38,5.78,5.78,0,0,1,3.89,1.24,4.26,4.26,0,0,1,1.45,3.44Q79.89,375.7,69.74,375.81Z"/><path class="cls-6" d="M89,361.4c0,.2,0,.56,0,1.06s0,.75,0,1.11H94.5v2H88.76a23,23,0,0,1-1.38,5.94,18.12,18.12,0,0,1-2.55,5l-1.93-1.13a18.3,18.3,0,0,0,2.23-4.52,24,24,0,0,0,1.27-5.26H83.48v-2h3.06c0-.9.07-1.62.07-2.17Zm9.48,14.28a26,26,0,0,1-4,.27,20.65,20.65,0,0,1-3-.19,3.64,3.64,0,0,1-2-.91,2.23,2.23,0,0,1-.74-1.66,3.84,3.84,0,0,1,1.37-2.64l1.78.83a2.85,2.85,0,0,0-.83,1.61.54.54,0,0,0,.3.48,3.25,3.25,0,0,0,1.21.28,18,18,0,0,0,2.06.11,21.26,21.26,0,0,0,3.75-.33ZM98,366.45l-.12,2-1,0c-1.88,0-4.22.12-7,.38l-.15-2a64.6,64.6,0,0,1,7-.38Q97.53,366.42,98,366.45Z"/><path class="cls-6" d="M104.29,362.2a23.41,23.41,0,0,0-1.15,6.58,27.37,27.37,0,0,0,.85,6.83l-2.3.41a27.78,27.78,0,0,1-.8-6.46,29.11,29.11,0,0,1,1.1-7.72Zm11.06,2.54h-2.68v2.05h3v2h-3v2.57a16.74,16.74,0,0,1,3.67,2.3l-1.35,1.9a16.19,16.19,0,0,0-2.32-1.8c-.16,1.62-1.45,2.44-3.85,2.44a4.34,4.34,0,0,1-2.57-.74,2.33,2.33,0,0,1-1-2,2.52,2.52,0,0,1,1-2.09,3.94,3.94,0,0,1,2.49-.81,11,11,0,0,1,1.59.13v-1.89h-5.42v-2h5.42v-2.05h-5.06v-2h10.07Zm-5,8.44v-.53a4.34,4.34,0,0,0-1.59-.27,1.73,1.73,0,0,0-.92.25.79.79,0,0,0-.4.68.75.75,0,0,0,.4.67,1.89,1.89,0,0,0,1,.24C109.83,374.22,110.34,373.87,110.34,373.18Z"/><path class="cls-6" d="M120.9,376.22l-.42-2.07a15,15,0,0,0,6.36-1.38,3.67,3.67,0,0,0,2.21-3.35,1.69,1.69,0,0,0-.7-1.46,3,3,0,0,0-1.87-.52q-.8,0-1.74.09c-.62.05-1.17.11-1.65.19s-2,.34-4.6.8l-.2-2.14,3.48-.53q1.52-.24,2.7-.33c.79-.06,1.48-.09,2.08-.09a5.82,5.82,0,0,1,3.65,1,3.5,3.5,0,0,1,1.35,3,5.47,5.47,0,0,1-2.79,4.9A16.1,16.1,0,0,1,120.9,376.22Zm9-13.52-.53,2.11a30.26,30.26,0,0,0-4.31-.59c-1.86-.15-3.44-.22-4.74-.22h-.92v-2.07c1.76,0,3.41.05,4.94.16S127.75,362.4,129.92,362.7Z"/><path class="cls-6" d="M140,363.42c0,.36,0,.78,0,1.27h2.14a3,3,0,0,1,2.29.93,3.34,3.34,0,0,1,.86,2.38,17.39,17.39,0,0,1-.84,5.91,3,3,0,0,1-2.87,2.27,4.34,4.34,0,0,1-1.23-.19,11.62,11.62,0,0,1-2.12-1l.77-2a5.7,5.7,0,0,0,2.27.87.74.74,0,0,0,.56-.24,2.76,2.76,0,0,0,.5-1,9.32,9.32,0,0,0,.4-1.76,18.06,18.06,0,0,0,.12-2.19,4.09,4.09,0,0,0-.11-1.18.9.9,0,0,0-.36-.5,1.09,1.09,0,0,0-.63-.17h-1.93a17.12,17.12,0,0,1-4.21,9.6l-1.88-1.17a14.38,14.38,0,0,0,2-3.29,17.09,17.09,0,0,0,1.53-5.14h-3v-2.08h3.31l0-3.21H140Zm10.32,7.16-2.29.64a22.32,22.32,0,0,0-1.46-3.86,18.29,18.29,0,0,0-2-3.06l1.89-1.1A18.77,18.77,0,0,1,150.36,370.58Zm-2-7-1.21.45c-.46-1.14-.84-2-1.13-2.54l1.15-.46A27.58,27.58,0,0,1,148.4,363.56Zm2.29-.19-1.16.44c-.37-.9-.75-1.75-1.15-2.54l1.1-.43C149.94,361.71,150.34,362.56,150.69,363.37Z"/><path class="cls-6" d="M160.21,370.61a24.83,24.83,0,0,1-1.09,2.58,10.29,10.29,0,0,1-1.29,2.1,1.88,1.88,0,0,1-1.46.68c-1.2,0-2.24-.74-3.1-2.22a9.86,9.86,0,0,1-1.29-5.08c0-.62.06-1.55.18-2.78s.18-2.16.18-2.77h2.55c0,.56-.1,1.47-.25,2.74a25.5,25.5,0,0,0-.22,2.76,8.14,8.14,0,0,0,.65,3.35c.43,1,.8,1.45,1.1,1.45s1.12-1.27,2.05-3.79Zm6.88,3.07-2.51.16a15.87,15.87,0,0,0-.9-5.18,14,14,0,0,0-2.46-4.47l2-1A15.07,15.07,0,0,1,167.09,373.68Z"/><path class="cls-6" d="M177.29,370.61a21.12,21.12,0,0,1-1.09,2.58,9.9,9.9,0,0,1-1.28,2.1,1.89,1.89,0,0,1-1.46.68c-1.21,0-2.24-.74-3.1-2.22a9.86,9.86,0,0,1-1.29-5.08c0-.62.06-1.55.18-2.78s.18-2.16.18-2.77H172c0,.56-.1,1.47-.25,2.74a23.15,23.15,0,0,0-.22,2.76,8.14,8.14,0,0,0,.65,3.35c.43,1,.79,1.45,1.1,1.45s1.11-1.27,2.05-3.79Zm6.89,3.07-2.52.16a15.87,15.87,0,0,0-.9-5.18,14.13,14.13,0,0,0-2.45-4.47l2-1A15.12,15.12,0,0,1,184.18,373.68Z"/><path class="cls-6" d="M201,373.81l-1.47,2a21.71,21.71,0,0,0-4.83-3,3.6,3.6,0,0,1-.85,2.66,4,4,0,0,1-2.86.82,6.64,6.64,0,0,1-3.56-.8,2.57,2.57,0,0,1-1.28-2.34,2.74,2.74,0,0,1,1.41-2.44,6.33,6.33,0,0,1,3.44-.88,12,12,0,0,1,1.29.08v-8.58h2.46v3.11h5.6v2.06h-5.6v4A22.6,22.6,0,0,1,201,373.81ZM192.33,372a7.1,7.1,0,0,0-1.34-.14,4.86,4.86,0,0,0-1.77.31c-.51.21-.76.51-.76.89a.93.93,0,0,0,.63.85,3.58,3.58,0,0,0,1.54.3,2.13,2.13,0,0,0,1.37-.3,1.12,1.12,0,0,0,.33-.87Z"/><path class="cls-6" d="M205.72,371.48q-1.33,1.95-2.25,3.06l-1.29-1.82a47.45,47.45,0,0,0,3.16-4.23c.08-.17.21-.42.38-.76v-1.8H202.8v-1.88h2.92v-2.71h2.34v4.51a7.86,7.86,0,0,1,5.59-2.76,3.29,3.29,0,0,1,2.95,1.55,8.27,8.27,0,0,1,1,4.47,14.46,14.46,0,0,1-.29,3,15.39,15.39,0,0,1,1.84,1.47L218,375.58c-.33-.3-.82-.74-1.49-1.31a4.23,4.23,0,0,1-3.83,1.9,3.78,3.78,0,0,1-2.33-.78,2.35,2.35,0,0,1-1-1.95,2.46,2.46,0,0,1,1-2.05,3.87,3.87,0,0,1,2.47-.76,7.63,7.63,0,0,1,2.48.4,18.15,18.15,0,0,0,.07-1.91,7.66,7.66,0,0,0-.44-3.13,1.35,1.35,0,0,0-1.23-.86c-1.61,0-3.47,1.24-5.56,3.7v7.43h-2.34Zm9,1.49a3,3,0,0,0-1.81-.56c-1,0-1.52.32-1.52,1s.47.83,1.39.83A2,2,0,0,0,214.72,373Z"/><path class="cls-6" d="M257.37,468.76a47.39,47.39,0,0,1-5.41,1.29l-.44-1.86,1.16-.2v-7.83l-.27.21-1.08-1.43a10.89,10.89,0,0,0,3.5-3.86h2.31a8.48,8.48,0,0,0,2.91,2.66l-1.13,1.48a7.45,7.45,0,0,1-1.49-1.06,8.05,8.05,0,0,1-1.3-1.44,9.81,9.81,0,0,1-2.34,2.58h1.53v-1H257v1H259v5.92h-.91c.38.84.77,1.81,1.19,2.92a9.48,9.48,0,0,0,1.28-1.8,11.38,11.38,0,0,0,.87-2.08,11,11,0,0,0,.42-2c.05-.58.08-1.3.08-2.16v-.24a11.88,11.88,0,0,1-1.28,2.41l-1.57-.89a21,21,0,0,0,2.09-6.39l2.2.16A15.57,15.57,0,0,1,263,457h4.42l.36.35a27.23,27.23,0,0,1-.71,2.68,11.64,11.64,0,0,1-.8,2.08l-1.74-.39a14.3,14.3,0,0,0,.79-3.07h-2.84l-.22.57h1.91l0,1.94a8.89,8.89,0,0,0,.28,1.74,9.7,9.7,0,0,0,1.3,2.83,11.86,11.86,0,0,0,2.25,2.69L266.44,470a12.86,12.86,0,0,1-3.16-4.41A10,10,0,0,1,262,468.1a8.44,8.44,0,0,1-1.85,2l-1.28-1.17-1.28.42C257.5,469.2,257.45,469,257.37,468.76Zm-2.52-7.11H257v-1h-2.1Zm2.1,1.12h-2.1v1.07H257Zm-2.1,4.84q1.23-.24,2-.42c-.21-.53-.42-1-.65-1.51l1.54-.46h-2.84Z"/><path class="cls-6" d="M285.29,463.28l-.7,2.17-1.89-.71a8.8,8.8,0,0,1-4.48,5.61l-1.42-1.51a9.84,9.84,0,0,0,2.46-2.28,6.89,6.89,0,0,0,1.15-2.6,21.56,21.56,0,0,0-3.63-.83c-1.74,4-3.59,6-5.54,6a2.3,2.3,0,0,1-1.8-.8,2.8,2.8,0,0,1-.7-1.94,5.18,5.18,0,0,1,1.74-3.72,6,6,0,0,1,4.44-1.74h.13a20.26,20.26,0,0,0,.56-2.85H270.7v-2h7.19l.33.36a21.56,21.56,0,0,1-.76,4.66,28.15,28.15,0,0,1,3.25.69c0-.4.05-1,.05-1.77,0-.31,0-.64,0-1h2.43v1.41c0,.78,0,1.47-.07,2.06Zm-11-.29a3.32,3.32,0,0,0-1.92.73,3.57,3.57,0,0,0-1.12,1.41,3.51,3.51,0,0,0-.32,1.25c0,.35.1.53.32.53C272.21,466.91,273.23,465.6,274.33,463Z"/><path class="cls-6" d="M298.58,461.91h-9.26v-1a17,17,0,0,1-2.81,1.46l-1.09-1.77a19,19,0,0,0,4.08-2.41,11.5,11.5,0,0,0,3.14-3.13h2.27a17.42,17.42,0,0,0,7.43,5.27l-1.22,1.95a17.16,17.16,0,0,1-2.54-1.27Zm-.35,7.34q-4,.44-11.2.8l-.36-2,2.18-.07a30.56,30.56,0,0,0,1.64-2.77h-4v-2H301.3v2h-3.44a30.68,30.68,0,0,1,3.47,4.1l-2.49.93A8.26,8.26,0,0,0,298.23,469.25ZM290.77,460H297a16.66,16.66,0,0,1-3.1-2.83A16.12,16.12,0,0,1,290.77,460Zm.83,7.83c2.2-.11,3.94-.23,5.24-.35-.54-.67-1-1.23-1.46-1.69l1.11-.6h-3.3Q292.46,466.52,291.6,467.81Z"/><path class="cls-6" d="M310.52,470l-.61-2.07a11.1,11.1,0,0,0,5-1.52,3.93,3.93,0,0,0,1.67-3.45,4,4,0,0,0-1.21-3.07,5.35,5.35,0,0,0-3.33-1.36,16.94,16.94,0,0,1-1.74,7.53q-1.57,2.89-4,2.89a2.9,2.9,0,0,1-2.51-1.46,5.91,5.91,0,0,1-1-3.33v-.21a6.82,6.82,0,0,1,2.32-5.08,8.78,8.78,0,0,1,5.86-2.38h.34a8.77,8.77,0,0,1,5.56,1.7,5.59,5.59,0,0,1,2.17,4.64,6.18,6.18,0,0,1-2.19,5A11.16,11.16,0,0,1,310.52,470Zm-.84-11.23a5.94,5.94,0,0,0-3.19,2,5,5,0,0,0-1.31,3.35,4.54,4.54,0,0,0,.32,1.75c.22.53.52.79.91.79.78,0,1.5-.75,2.14-2.27A16.79,16.79,0,0,0,309.68,458.73Z"/><path class="cls-6" d="M325,470.15h-2.18v-2.43H320v-1.64h2.84v-1H320.5v-6.31h2.32v-1h-2.64v-1.54h2.64v-1.16H325v1.16h2.72v1.54H325v1h2.33v.88a13.31,13.31,0,0,0,1.92-2.17,9.13,9.13,0,0,0,1.31-2.47h2.29a8.07,8.07,0,0,0,.77,1.34q.56.79,1.08,1.44a15.62,15.62,0,0,0,1.93,1.84l-1.39,1.52-.39-.32v1H333v2h3.12v1.85H333V470h-2.37v-4.36h-2.87v-1.85h2.87v-2h-1.86v-1c-.23.21-.44.38-.61.53l-.84-1.09v4.83H325v1h2.64v1.64H325Zm.28-8.84v-1.08h-2.74v1.08Zm0,2.24v-1.12h-2.74v1.12Zm4.41-3.57h4.22a12,12,0,0,1-2.12-2.9A9.83,9.83,0,0,1,329.66,460Z"/><path class="cls-6" d="M352.26,467.45h-6v1.16a1.37,1.37,0,0,1-.62,1.14,2.65,2.65,0,0,1-1.55.44h-2.57l-.2-1.79h2a.64.64,0,0,0,.39-.14.45.45,0,0,0,.17-.33v-.48h-6v-1.37h6v-.82h-6.73v-1.5h6.73V463H338V461.7h5.84v-.76h-5.41v-3.11h5.41v-.77h-6.54V455.6h6.54v-.76h2.41v.76h6.9v1.46h-6.9v.77h5.53v3.11h-5.53v.76h6v2.06h1.05v1.5h-1.05Zm-8.44-8.5h-3.31v.92h3.31Zm5.8.92V459h-3.39v.92Zm.38,3.89V463h-3.77v.73Zm-3.77,2.32H350v-.82h-3.77Z"/><path class="cls-6" d="M358.32,456a24.52,24.52,0,0,0-1,6.4,25.89,25.89,0,0,0,1,7l-2.35.47A27.17,27.17,0,0,1,355,463a30,30,0,0,1,1-7.32Zm12.39,11.35-1.35,1.9a16.21,16.21,0,0,0-2.41-1.85,2.49,2.49,0,0,1-.88,1.86,4.92,4.92,0,0,1-3,.64,4.46,4.46,0,0,1-2.63-.75,2.36,2.36,0,0,1-1.06-2,2.5,2.5,0,0,1,1.07-2.09,4.13,4.13,0,0,1,2.55-.81,13.41,13.41,0,0,1,1.54.1v-3.71h-5.41v-2.06h5.41v-3H367v3h3.11v2.06H367V465A16.45,16.45,0,0,1,370.71,467.36Zm-6.13-.47v-.58a4.24,4.24,0,0,0-1.54-.26,1.83,1.83,0,0,0-1,.27.83.83,0,0,0-.43.7.75.75,0,0,0,.45.68,2.12,2.12,0,0,0,1,.25C364.09,468,364.58,467.59,364.58,466.89Z"/><path class="cls-6" d="M254.88,492a13.4,13.4,0,0,1-2.47,2.29l-1.13-1.46a10,10,0,0,0,1.57-1.47,13,13,0,0,0,1.52-2H252v-1.77h2.92v-1h-3.1v-1.77h1.57l-.4-1.55h-.9v-1.78H255v-1.49h2.2v1.49H260v1.78h-.82l-.52,1.55H260v1.77h-2.92v1h2.55v1.77h-2.24a12.38,12.38,0,0,0,2.2,1.77l-1,1.75a13.69,13.69,0,0,1-1.47-1.3v3.56h-2.23Zm.15-8.68.38,1.55h1.2l.44-1.55ZM266.25,495H264v-8.09h-1.32a14.55,14.55,0,0,1-2.3,8.17l-1.61-1.21a9.83,9.83,0,0,0,1.18-2.87,18.4,18.4,0,0,0,.53-4.87v-4.9a24.84,24.84,0,0,0,6.13-1.1l.93,1.72a34.44,34.44,0,0,1-4.85,1V485h5.14v1.86h-1.57Z"/><path class="cls-6" d="M277.09,488.4a12,12,0,0,1-2.74,3.83,16.48,16.48,0,0,1-4.46,2.86l-1.15-1.85a11.67,11.67,0,0,0,4.81-3.52,10.53,10.53,0,0,0,2.18-5.37v-1.72l-4.14,0v-2h6.59v2a13.79,13.79,0,0,0,.31,2.93,9.66,9.66,0,0,0,1.13,2.73,11.65,11.65,0,0,0,2.09,2.6,17.72,17.72,0,0,0,3.12,2.27l-1.65,1.94a20.65,20.65,0,0,1-3.94-3.38A13.83,13.83,0,0,1,277.09,488.4Z"/><path class="cls-6" d="M290.43,495.14h-2.11v-5.66a14.3,14.3,0,0,1-1.88,1.36l-.92-1.57a12.67,12.67,0,0,0,2.72-2.35,10.26,10.26,0,0,0,1.81-2.82h-3.79v-1.83h2.1v-2.11h2.12v2.11h2l.45.46a13.27,13.27,0,0,1-2.24,4.3,26.38,26.38,0,0,0,2.66,2.07l-1.06,1.79c-.67-.52-1.28-1-1.82-1.54Zm11.68-.49H291.78v-2h4.08v-6.31h-3.27v-1.95h3.27v-4.13h2.39v4.13h3.42v1.95h-3.42v6.31h3.86Z"/><path class="cls-6" d="M309.35,493.2a16.82,16.82,0,0,1-5.7,1.94l-.66-1.8a18.79,18.79,0,0,0,4.26-1.18h-2.88v-7.27h13.26v7.27h-2.92a30.19,30.19,0,0,0,4.25,1l-.92,1.9a20.25,20.25,0,0,1-5.59-1.8l.71-1.13h-4.53Zm7.65-9.05H304.88v-3.6H317ZM315.25,487v-.9h-8.59v.9Zm-8.59,2h8.59v-.93h-8.59Zm8.59,1.05h-8.59v.88h8.59Zm-.35-7.12v-1.07H307v1.07Z"/><path class="cls-6" d="M327.61,495l-.62-2.07a11,11,0,0,0,5-1.52,3.9,3.9,0,0,0,1.67-3.45,4.06,4.06,0,0,0-1.2-3.07,5.35,5.35,0,0,0-3.33-1.36,16.93,16.93,0,0,1-1.75,7.53q-1.56,2.89-3.95,2.89a2.91,2.91,0,0,1-2.52-1.46,6,6,0,0,1-1-3.33v-.21a6.83,6.83,0,0,1,2.33-5.08,8.76,8.76,0,0,1,5.86-2.38h.34a8.74,8.74,0,0,1,5.55,1.7,5.6,5.6,0,0,1,2.18,4.64,6.18,6.18,0,0,1-2.19,5A11.16,11.16,0,0,1,327.61,495Zm-.84-11.23a5.9,5.9,0,0,0-3.19,2,5,5,0,0,0-1.32,3.35,4.55,4.55,0,0,0,.33,1.75c.22.53.52.79.91.79.78,0,1.49-.75,2.13-2.27A16.78,16.78,0,0,0,326.77,483.73Z"/><path class="cls-6" d="M341.62,495.22h-2.27v-7.15a17.76,17.76,0,0,1-1.24,1.65l-1.41-1.2a25.47,25.47,0,0,0,2-3.32,24.1,24.1,0,0,0,2.12-5.21l2.3.4a21.2,21.2,0,0,1-1.86,4.45h.34Zm11.15-.41H342.44v-2h3.89v-6h-4.27v-1.93h4.27v-4.6h2.43v4.6h4.45v1.93h-4.45v6h4Z"/><path class="cls-6" d="M369.35,492.45h-6v1.16a1.35,1.35,0,0,1-.63,1.14,2.62,2.62,0,0,1-1.54.44h-2.58l-.19-1.79h2a.59.59,0,0,0,.38-.14.43.43,0,0,0,.18-.33v-.48h-6v-1.37h6v-.82h-6.73v-1.5h6.73V488h-5.84V486.7h5.84v-.76h-5.42v-3.11h5.42v-.77h-6.54V480.6h6.54v-.76h2.41v.76h6.9v1.46h-6.9v.77h5.52v3.11h-5.52v.76h6v2.06h1v1.5h-1Zm-8.44-8.5H357.6v.92h3.31Zm5.8.92V484h-3.39v.92Zm.37,3.89V488h-3.76v.73Zm-3.76,2.32h3.76v-.82h-3.76Z"/><path class="cls-6" d="M377.38,480.23c0,.2,0,.56,0,1.06s0,.75,0,1.1h5.51v2h-5.74a23.07,23.07,0,0,1-1.38,5.94,18.12,18.12,0,0,1-2.55,5l-1.93-1.13a18.3,18.3,0,0,0,2.23-4.52,24.17,24.17,0,0,0,1.27-5.26h-2.92v-2h3.07q.06-1.33.06-2.16Zm9.48,14.28a26,26,0,0,1-3.95.27,20.54,20.54,0,0,1-3-.2,3.7,3.7,0,0,1-2-.9,2.23,2.23,0,0,1-.74-1.66,3.84,3.84,0,0,1,1.37-2.64l1.78.83a2.91,2.91,0,0,0-.83,1.61.54.54,0,0,0,.3.48,3.47,3.47,0,0,0,1.21.28,18,18,0,0,0,2.06.11,21.26,21.26,0,0,0,3.75-.33Zm-.44-9.23-.12,2c-.31,0-.64,0-1,0-1.88,0-4.22.12-7,.38l-.15-2a64.6,64.6,0,0,1,7-.38Q385.91,485.25,386.42,485.28Zm-1.71-2.75-1.22.45c-.47-1.14-.84-2-1.14-2.54l1.18-.46A24.33,24.33,0,0,1,384.71,482.53Zm2.38-.43-1.2.44q-.58-1.46-1.14-2.55l1.14-.43C386.34,480.43,386.74,481.28,387.09,482.1Z"/><path class="cls-6" d="M391.87,494.75l.18-2.06A14,14,0,0,0,395,493a9.56,9.56,0,0,0,4.54-.79,2.37,2.37,0,0,0,1.36-2.11c0-1.63-1.14-2.45-3.42-2.45a8.53,8.53,0,0,0-3.2.66,19.2,19.2,0,0,0-4.17,2.54l-1.43-1.71q1.79-1.24,8.58-6.2h-6.63v-2h10l1,1.36c-.64.52-2.34,1.74-5.12,3.66a8.22,8.22,0,0,1,1.7-.13,6.56,6.56,0,0,1,2.86.55,4.29,4.29,0,0,1,1.71,1.48,3.91,3.91,0,0,1,.61,2.2,4.26,4.26,0,0,1-2,3.64c-1.31.92-3.36,1.39-6.16,1.39A19.39,19.39,0,0,1,391.87,494.75Z"/><path class="cls-6" d="M409.28,495.05l-.42-2.07a15,15,0,0,0,6.37-1.38,3.68,3.68,0,0,0,2.2-3.35,1.69,1.69,0,0,0-.7-1.46,3,3,0,0,0-1.87-.52c-.53,0-1.11,0-1.74.08s-1.17.12-1.65.2-2,.34-4.6.8l-.2-2.14,3.48-.53q1.52-.24,2.7-.33c.79-.06,1.48-.1,2.08-.1a5.87,5.87,0,0,1,3.66,1,3.52,3.52,0,0,1,1.34,3,5.44,5.44,0,0,1-2.79,4.89A16,16,0,0,1,409.28,495.05Zm9-13.52-.53,2.11a30.26,30.26,0,0,0-4.31-.59c-1.86-.15-3.44-.22-4.74-.22h-.92v-2.07c1.76,0,3.41.05,4.94.16S416.13,481.23,418.3,481.53Z"/><path class="cls-6" d="M272.59,587.77H257.12v-2.13h6.16v-12h2.51v4.05h5.55v2.07h-5.55v5.85h6.8Z"/><path class="cls-6" d="M288.6,586.44a1.65,1.65,0,0,1-.6,1.32,2.16,2.16,0,0,1-1.4.5H284l-.42-2.14h2.23a.45.45,0,0,0,.51-.5v-9.89h-12v-1.87H288.6Zm-3.16-7.91H274.71v-1.74h10.73Zm-.94,6.92h-6.69v.85h-2.2v-6.7h8.89Zm-2.22-1.75v-2.38h-4.42v2.38Z"/><path class="cls-6" d="M295.09,574.18a24.22,24.22,0,0,0-1,6.4,25.89,25.89,0,0,0,1,7l-2.35.47a27.08,27.08,0,0,1-.91-6.86,29.85,29.85,0,0,1,1-7.31Zm12.38,11.36-1.35,1.9a15.2,15.2,0,0,0-2.41-1.86,2.48,2.48,0,0,1-.88,1.87,5,5,0,0,1-3,.63,4.43,4.43,0,0,1-2.62-.75,2.34,2.34,0,0,1-1.07-2,2.53,2.53,0,0,1,1.07-2.1,4.13,4.13,0,0,1,2.55-.81,13.27,13.27,0,0,1,1.54.1v-3.71h-5.41v-2.06h5.41v-3h2.39v3h3.11v2.06h-3.11v4.42A16.3,16.3,0,0,1,307.47,585.54Zm-6.13-.48v-.58a4.24,4.24,0,0,0-1.54-.26,1.77,1.77,0,0,0-1,.27.81.81,0,0,0-.43.71.73.73,0,0,0,.44.67,2,2,0,0,0,1,.25C300.85,586.12,301.34,585.77,301.34,585.06Z"/><path class="cls-6" d="M317.41,580.76H308v-1.87h2l-.57-2.16h-1.1v-1.85h3.47V573.3h2.32v1.58h3.2v1.85h-.88l-.71,2.16h1.68Zm-3,6.7H311v.7h-2.21v-6.57h7.84v6.57h-2.25ZM311,585.69h3.38v-2.28H311Zm1.25-6.8h1.33l.58-2.16h-2.46Zm11.89-4.64a16,16,0,0,1-.65,2.15c-.39,1.1-.68,1.88-.9,2.34a6.83,6.83,0,0,1,1.36,3.9,5.22,5.22,0,0,1-.19,1.46,2.59,2.59,0,0,1-.57,1,2.07,2.07,0,0,1-.91.54,6.27,6.27,0,0,1-1.6.15h-.14l-.44-2h.44a3.12,3.12,0,0,0,.72,0,.54.54,0,0,0,.22-.18,1,1,0,0,0,.2-.43,3.77,3.77,0,0,0,.06-.73,5.29,5.29,0,0,0-.33-1.77,5.18,5.18,0,0,0-.78-1.51.7.7,0,0,1-.1-.32.68.68,0,0,1,.07-.27,18.89,18.89,0,0,0,.83-3.06h-1.36v12.85h-2.21v-14.6h5.81Z"/><path class="cls-6" d="M333.78,588.31H331.3V575.92h-5.74v-2H340.8v2h-7v2a25.09,25.09,0,0,0,5.67,2.61l-1.06,2.24a31.59,31.59,0,0,1-4.61-2.26Z"/><path class="cls-6" d="M357.78,585.81l-1.46,2a22.17,22.17,0,0,0-4.83-3,3.54,3.54,0,0,1-.86,2.66,4,4,0,0,1-2.85.83,6.69,6.69,0,0,1-3.57-.81,2.59,2.59,0,0,1-1.28-2.34,2.74,2.74,0,0,1,1.41-2.44,6.36,6.36,0,0,1,3.45-.88,12,12,0,0,1,1.28.08v-8.58h2.47v3.11h5.59v2.06h-5.59v4A22.56,22.56,0,0,1,357.78,585.81ZM349.12,584a7,7,0,0,0-1.33-.14,4.62,4.62,0,0,0-1.77.32c-.51.2-.77.5-.77.88a.92.92,0,0,0,.64.85,3.55,3.55,0,0,0,1.54.3,2.15,2.15,0,0,0,1.37-.3,1.11,1.11,0,0,0,.32-.87Z"/><path class="cls-6" d="M364.48,588.58l-.45-2.06c2.76-.32,4.64-.88,5.62-1.69a4.69,4.69,0,0,0,1.48-3.86c0-3.09-.7-4.63-2.12-4.63a4.52,4.52,0,0,0-2.3.69,5.13,5.13,0,0,0-2,2.33,7.94,7.94,0,0,0-.78,3.44,8.44,8.44,0,0,0,.07,1.1l-2.21.14a27.38,27.38,0,0,1-.38-4.68,32.05,32.05,0,0,1,.57-6.05l2.4.21c-.17.87-.4,2.17-.69,3.91a6.27,6.27,0,0,1,5.35-3.23,3.79,3.79,0,0,1,3.38,1.75,8.62,8.62,0,0,1,1.15,4.79q0,3.88-2.29,5.69T364.48,588.58Z"/><path class="cls-6" d="M387.75,582h-5.19a18.09,18.09,0,0,0-.32,2.58q0,1.65,3.18,1.65a7.06,7.06,0,0,0,3.3-.5,1.56,1.56,0,0,0,.81-1.39,8.41,8.41,0,0,0-1.09-4l2-.55a9.53,9.53,0,0,1,1.47,4.59q0,3.87-6.52,3.87a7.53,7.53,0,0,1-4.11-.94,3.12,3.12,0,0,1-1.47-2.79,19.09,19.09,0,0,1,.3-2.56h-3.23v-2h3.57c.11-.57.25-1.26.41-2h-3.72v-2h4.18c.23-1,.45-1.76.65-2.43l2.42.18-.56,2.25h6.8v2h-7.3l-.45,2h4.84Z"/><path class="cls-6" d="M260.58,613.29h-2.07v-7a6.71,6.71,0,0,1-.89,1.31l-1.25-1.08a22,22,0,0,0,1.88-4.06,20.47,20.47,0,0,0,1.08-4.26l2.05.26a21.72,21.72,0,0,1-1.29,4.64h.49Zm5.89-5.22a5.4,5.4,0,0,1-.48.48h5l.78.56a7.82,7.82,0,0,1-2.38,2,28.6,28.6,0,0,0,3.86.41l-.78,1.61a23,23,0,0,1-5.37-1,24.73,24.73,0,0,1-5.94,1l-.41-1.43a23.31,23.31,0,0,0,4.14-.59,7.94,7.94,0,0,1-1.29-1,14.28,14.28,0,0,1-1.88.81l-.83-1.17a12.45,12.45,0,0,0,3.64-2.16.8.8,0,0,1-.34-.7V605.7h1.46v.94c0,.19.11.28.33.28h2.1a.43.43,0,0,0,.35-.13,1.84,1.84,0,0,0,.13-.89l1.22.14v.89a1,1,0,0,1-.31.77,2,2,0,0,1-1.28.33c-.65,0-1.13,0-1.44,0Zm-2.35-1.73a7,7,0,0,1-.74,1.22,8,8,0,0,1-1,1.14l-1.25-.7a7.12,7.12,0,0,0,1.21-1.37h-1.22v-2.29h.95v-4h3.27l.22-.54h-4.15v-1.22h11.31v1.22h-5.07l-.3.54h4.29v4h1.11v2.29h-1.13l1.34,1.24-1.21.91c-.94-1-1.61-1.65-2-2l1.14-.84.35.32v-.79h-3.88l.63.71-1.09.63-.91-1.14.41-.2h-3.84v.83a2.84,2.84,0,0,0,.17-.36Zm5.62-4.49v-.56h-5.57v.56Zm-5.57,1.31h5.57v-.63h-5.57Zm0,1.31h5.57v-.62h-5.57Zm2.92,6.12a8.2,8.2,0,0,0,1.57-.77h-3.19A9.79,9.79,0,0,0,267.09,610.59Z"/><path class="cls-6" d="M280.76,603.58a13.93,13.93,0,0,1-2.7,1.54,26.49,26.49,0,0,1-3.4,1.13l-.78-1.59a19.55,19.55,0,0,0,4.41-1.72h-3.77v-1.6h6.19v-.74c-1.32,0-2.93.09-4.82.11l-.31-1.56a65.57,65.57,0,0,0,11.21-.75l.9,1.54a28.45,28.45,0,0,1-4.74.55v.85h6.3v1.6h-3.92a16.06,16.06,0,0,0,1.83.76c.62.21,1.59.48,2.91.82L289,606.25a20.19,20.19,0,0,1-6.1-2.69v1.85h-2.15Zm.5,4.1a5.57,5.57,0,0,1-2.19,3.8,10.63,10.63,0,0,1-4.29,1.8l-.75-1.79c2.78-.54,4.43-1.81,4.93-3.81h-3.21V606h10.87l-.43,2h2.66c0,2.32-.3,3.76-.82,4.33a2.48,2.48,0,0,1-1.89.84H283.4l-.44-2h2.56c.45,0,.72-.16.8-.47a3,3,0,0,0,.21-1.15h-2.72l.44-1.85Z"/><path class="cls-6" d="M304.69,610.93l-.12,2.24-1.21,0a10.85,10.85,0,0,1-4.8-.86,5.86,5.86,0,0,1-2.46-2.07,5.27,5.27,0,0,1-.74-2.77c0-2,1-3.89,3-5.6L291,602v-2.13h14.87V602H302a8.12,8.12,0,0,0-3,2.33,4.88,4.88,0,0,0-1.17,3.07q0,3.58,5.49,3.59C303.76,611,304.21,611,304.69,610.93Zm-.74-5.51-1.24.46c-.23-.58-.6-1.43-1.13-2.55l1.19-.46C303.2,603.69,303.59,604.54,304,605.42Zm2.37-.48-1.2.44q-.58-1.44-1.14-2.55l1.14-.42C305.58,603.28,306,604.12,306.32,604.94Z"/><path class="cls-6" d="M313.87,598.72c0,.89-.1,1.7-.19,2.44h3.64v2h-3.94a18.83,18.83,0,0,1-3.78,8.45l-1.82-1.31a16.82,16.82,0,0,0,3.22-7.14h-2.57v-2h2.92a24.55,24.55,0,0,0,.2-2.51Zm10.29,11.95-1.23,1.84a20.91,20.91,0,0,0-2.79-2,2.51,2.51,0,0,1-.9,2.13,6.11,6.11,0,0,1-5.74,0,2.29,2.29,0,0,1-1.1-2,2.54,2.54,0,0,1,1.17-2.2,4.86,4.86,0,0,1,2.85-.81,10.49,10.49,0,0,1,1.42.09v-4.31h2.3v4.93A21.35,21.35,0,0,1,324.16,610.67Zm-6.32-1.16a6.52,6.52,0,0,0-1.42-.14,2.86,2.86,0,0,0-1.32.28.88.88,0,0,0-.56.79q0,1,1.95,1c.9,0,1.35-.32,1.35-1Zm6.44-5.74-1.83,1.38a25.79,25.79,0,0,0-2.41-2.41,18.58,18.58,0,0,0-2.54-2l1.4-1.55a16.92,16.92,0,0,1,2.75,2A24,24,0,0,1,324.28,603.77Z"/><path class="cls-6" d="M331.3,607.81a22.18,22.18,0,0,0-1.8,3.12,7.35,7.35,0,0,0-.56,1.8H327.1a18.06,18.06,0,0,1-1.13-6.34,30.61,30.61,0,0,1,1.06-7.47l2.37.36a37.58,37.58,0,0,0-1,4.23,19.12,19.12,0,0,0-.2,2.77,20.09,20.09,0,0,0,.14,2.62c.32-.5.8-1.25,1.46-2.24Zm1.62,5.73-.95-2a4.92,4.92,0,0,0,3.6-5V604h-5.39v-2h5.3v-3.3h2.45V602h3.27v2H338v2.64A6.55,6.55,0,0,1,332.92,613.54Z"/><path class="cls-6" d="M345.55,608.54c-.86,1.27-1.6,2.27-2.22,3l-1.3-1.84a43.7,43.7,0,0,0,3.19-4.23l.33-.69v-1.86h-2.9v-1.89h2.9v-2.68h2.37V603c2.07-2,3.83-3,5.3-3a3.13,3.13,0,0,1,2.22.8,2.73,2.73,0,0,1,.85,2.1c0,.49-.1,1.72-.31,3.68-.16,1.59-.27,2.75-.31,3.48v.16q0,.57.39.57a6.11,6.11,0,0,0,2.15-.86l.55,1.93A5.47,5.47,0,0,1,355.7,613a2.35,2.35,0,0,1-1.8-.67,2.54,2.54,0,0,1-.65-1.83c0-.21.13-1.51.37-3.9.13-1.37.21-2.53.23-3.47V603c0-.55-.28-.83-.86-.83a4.31,4.31,0,0,0-2,.83,18.18,18.18,0,0,0-3.08,2.68v7.58h-2.37Z"/><path class="cls-6" d="M363,599.18a24.22,24.22,0,0,0-1,6.4,25.89,25.89,0,0,0,1,7l-2.35.47a27.08,27.08,0,0,1-.91-6.86,30.05,30.05,0,0,1,1-7.31Zm12.4,11.36-1.37,1.9a15.2,15.2,0,0,0-2.41-1.86,2.5,2.5,0,0,1-.87,1.86,4.93,4.93,0,0,1-3,.64,4.46,4.46,0,0,1-2.63-.75,2.36,2.36,0,0,1-1.06-2,2.53,2.53,0,0,1,1.07-2.1,4.13,4.13,0,0,1,2.55-.81,13.12,13.12,0,0,1,1.53.1v-3.65H363.8v-2.06h5.41v-2.91h2.4v2.91h3.11v2.06h-3.11v4.36A15.78,15.78,0,0,1,375.37,610.54Zm-6.16-.48v-.58a4.09,4.09,0,0,0-1.53-.26,1.77,1.77,0,0,0-1,.27.81.81,0,0,0-.43.71.75.75,0,0,0,.44.67,2,2,0,0,0,1,.25C368.72,611.12,369.21,610.77,369.21,610.06Zm4.54-9.4-1.17.46c-.21-.57-.55-1.4-1-2.5l1.08-.44A24.91,24.91,0,0,1,373.75,600.66Zm2.1-.37-1.13.44c-.41-1-.78-1.84-1.1-2.48l1.08-.42C375.05,598.49,375.44,599.31,375.85,600.29Z"/><path class="cls-6" d="M386,599.86l-.33,8.87h-2.35l-.34-8.87Zm-.07,12.51H383v-2.16h2.87Z"/></g></g></svg>