<svg xmlns="http://www.w3.org/2000/svg" viewBox="0 0 899.63 672.19"><defs><style>.cls-1{fill:#fff;}.cls-2{fill:#db444a;}.cls-3{fill:#fefefe;}.cls-4{fill:#fcfcfc;}.cls-5{fill:#fdfdfd;}.cls-6{fill:#7e6c6c;}</style></defs><g id="レイヤー_2" data-name="レイヤー 2"><g id="レイヤー_1-2" data-name="レイヤー 1"><path class="cls-1" d="M539.45,378c.07-2.63.32-5.26.48-7.89l.66-.13c1,2.12,2,4.22,3,6.37a2.13,2.13,0,0,0,3.09,1.35c1-.38,2-.73,3.35-1.21.58,2.48,1.08,4.79,1.68,7.08a4.81,4.81,0,0,1-.75,3.93c-2.16,3.7-4.17,7.48-6.15,11.28a6.62,6.62,0,0,0-.7,2.84c-.17,7.88-.31,15.76-.35,23.63a10.4,10.4,0,0,0,.75,4.07c.69,1.56,1.14,3.75,3.25,3.88,2.31.14,3-2,3.79-3.7,2.74-6.31,5.35-12.68,8.08-19a17.8,17.8,0,0,0,.7-13.09c-.84-2.56-1.47-5.18-2.17-7.78-.23-.84-.39-1.7-.61-2.66l4.11-2.67,3.91-2.48c2.79,3.74,3,3.84,6.86,2.16,5-2.19,10-4.42,15-6.74,2.43-1.14,5.06-2.18,7-3.9,2.7-2.34,5.95-3,9.09-4.39.36.9.63,1.64,1,2.37,2.75,6.29,5.16,12.78,8.35,18.85,7.77,14.77,23.53,85.92,30.66,102H538.1C538.55,471.17,539,396.09,539.45,378Z"/><path class="cls-1" d="M586.84,309.29a11.23,11.23,0,0,1,1,1.11c5.35,8.53,10.74,17,16,25.62,1.76,2.88,3.2,6,4.79,9a6,6,0,0,0,.71,1.3,1.15,1.15,0,0,0,2-.19,8.58,8.58,0,0,0,.54-2c.91-3.36,1.73-6.74,2.76-10.06.91-2.94,5.19-6,8.26-6a3.47,3.47,0,0,1,2,.43,15.93,15.93,0,0,1,5.56,6.13,5.42,5.42,0,0,1-.6,5.9c-2.15,2.94-5.19,4.64-8.36,6.09-2.24,1-3.53,2.19-4,4.92a14.18,14.18,0,0,1-6.71,10.07c-6.87,4.28-14,7.7-22,8.72a55.15,55.15,0,0,1-17.58-.56c-7.82-1.54-15.62-3.22-23.36-5.14A36.36,36.36,0,0,1,527.18,351a23.62,23.62,0,0,1-4.32-9.1,48.13,48.13,0,0,1,1.33-26.83c.77-2.27,2.34-4.27,3.55-6.39l.62.2a21.27,21.27,0,0,0,.22,3.4c.11.56.68,1.36,1.14,1.43a2,2,0,0,0,1.58-1c1.06-2,2-4.12,3-6.42.95.54,1.67,1,2.43,1.36s1.77.7,2.34-.35-.16-1.45-.86-1.94-1.38-1.07-2-1.57c4.84-12.47,21.11-28.19,27.88-28.34.19.71.34,1.47.59,2.19,1,2.91,2,5.86,3.15,8.69,2.91,6.89,6,13.72,8.94,20.57a8.85,8.85,0,0,1,.37,1.28c-1.77,1.39-4,1.64-6,2.4-1.07.41-2.76.47-2.33,2.07s1.94.86,3,.53c2.09-.63,4.16-1.3,6.61-2.08.72,2.21,1.46,4.23,2,6.3.53,1.92.87,3.89,1.29,5.84.19.91.47,2,1.55,1.77a2.74,2.74,0,0,0,1.47-1.88c.53-2.64.85-5.32,1.23-8C586.29,313.38,586.53,311.54,586.84,309.29Zm-5.78,22.19c-.25-4.2-2.61-6.1-6.45-5.11a7.71,7.71,0,0,0-2.42,1.11,5.5,5.5,0,0,0-1.8,6.88c1.15,2.42,3.3,3.33,6.26,2.64A5.3,5.3,0,0,0,581.06,331.48ZM528.42,325c0,3.31,1.74,5.48,4.26,5.42,2.87-.07,6.26-2.78,6.2-4.95-.07-2.83-3-5.54-6-5.6C530.11,319.83,528.38,321.82,528.42,325Zm21.82,28.34a20.16,20.16,0,0,0,3.28,1.6c.59.17,1.61.24,2.05-.43a2.52,2.52,0,0,0-.94-1.9,7.82,7.82,0,0,0-2.06-1.17c-2.58-1.31-4.88-.64-6.28,1.9a1.7,1.7,0,0,0,.06,1.57,1.63,1.63,0,0,0,1.54.27A14.72,14.72,0,0,0,550.24,353.35Zm-6.48-23c-.36-.51-.6-1.2-1-1.33a1.6,1.6,0,0,0-1.47.51,50.34,50.34,0,0,0-2.34,5.44,1.24,1.24,0,0,0,2.15,1.12C542,334.24,542.85,332.33,543.76,330.33Z"/><path class="cls-1" d="M569.13,382.15c-2-3.56-3.89-7-6.1-11,8.62,1.49,16.79,3,25.34,1.86C586.35,375.07,575.32,380.28,569.13,382.15Z"/><path class="cls-1" d="M541.68,365.75l15.19,4.12c-3.65,2.14-7.21,3.4-10.81,5.23Z"/><path class="cls-2" d="M581.06,331.48a5.3,5.3,0,0,1-4.41,5.52c-3,.69-5.11-.22-6.26-2.64a5.5,5.5,0,0,1,1.8-6.88,7.71,7.71,0,0,1,2.42-1.11C578.45,325.38,580.81,327.28,581.06,331.48Z"/><path class="cls-2" d="M528.42,325c0-3.19,1.69-5.18,4.48-5.13,3,.06,5.91,2.77,6,5.6.06,2.17-3.33,4.88-6.2,4.95C530.16,330.49,528.46,328.32,528.42,325Z"/><path class="cls-2" d="M550.24,353.35a14.72,14.72,0,0,1-2.35,1.84,1.63,1.63,0,0,1-1.54-.27,1.7,1.7,0,0,1-.06-1.57c1.4-2.54,3.7-3.21,6.28-1.9a7.82,7.82,0,0,1,2.06,1.17,2.26,2.26,0,0,1,.94,1.9,2,2,0,0,1-2.05.43A20.16,20.16,0,0,1,550.24,353.35Z"/><path class="cls-2" d="M548.56,331c-.91,2-1.72,3.9-2.68,5.73a1.24,1.24,0,0,1-2.15-1.12,51.21,51.21,0,0,1,2.34-5.44,1.62,1.62,0,0,1,1.47-.51C548,329.79,548.2,330.48,548.56,331Z"/><path class="cls-2" d="M646.42,492.2c-6.26-14.14-21.59-85.22-29-98.82A173.57,173.57,0,0,1,607,370.53c-.36-1-.62-2-.92-3,6.29-4,12.34-7.83,18.38-11.68,3.79-2.41,7.59-4.79,11.35-7.25a31.38,31.38,0,0,0,8.3-8.11c2.44-3.4,5-6.71,7.24-10.26,2.73-4.41,5.08-9,6-14.25a76,76,0,0,0-1.94-33.47,10.68,10.68,0,0,0-.84-1.9A92.11,92.11,0,0,0,637,257.26c-8.42-8.38-18-14.79-29.74-17.62a6.93,6.93,0,0,1-1.43-.42c-6.38-3.22-13.27-4.17-20.29-4.48-4.26-.19-7-2.81-7.3-7.11a14.81,14.81,0,0,0-.14-2.68c-.15-.57-.72-1.36-1.18-1.41a1.88,1.88,0,0,0-1.46,1.1c-.8,2.86-1.47,5.77-2.09,8.68a22.25,22.25,0,0,0-.23,3.15c-4.39.66-8.57,1.1-12.65,2-5.06,1.07-10.4,1.73-15,3.88-15,7-26.55,17.58-32.69,33.32-1.33,3.42-2.85,6.9-3.37,10.48a181.07,181.07,0,0,0-1.87,20.52c-.21,6.56.29,13.15.5,19.72a5.14,5.14,0,0,0,.37,2,1.76,1.76,0,0,0,1.26,1c.42,0,1-.61,1.18-1.08a9.68,9.68,0,0,0,.31-1.75c.57-2.28,1.18-4.56,1.9-7.29,1,4,2,7.4,2.84,10.83.38,1.51,1.13,2.5,3.16,2.15-.39,14.58,6.76,24.57,18.63,31.41-.27,3.39-.64,6.46-.73,9.55-.59,19.71-1.12,96.19-1.67,119h0v2.42H647.43l-1-2.42ZM527.18,351a23.62,23.62,0,0,1-4.32-9.1,48.13,48.13,0,0,1,1.33-26.83c.77-2.27,2.34-4.27,3.55-6.39l.62.2a21.27,21.27,0,0,0,.22,3.4c.11.56.68,1.36,1.14,1.43a2,2,0,0,0,1.58-1c1.06-2,2.07-3.95,3.13-6.25,1,.54,1.56.82,2.32,1.19s1.77.7,2.34-.35-.16-1.45-.86-1.94-1.38-1.07-2-1.57c4.84-12.47,21.11-28.19,27.88-28.34.19.71.34,1.47.59,2.19,1,2.91,2,5.86,3.15,8.69,2.91,6.89,6,13.72,8.94,20.57a9.07,9.07,0,0,1,.37,1.27c-1.77,1.4-4,1.65-6,2.41-1.07.41-2.76.47-2.33,2.07s1.94.86,3,.53c2.08-.63,4.16-1.3,6.61-2.08.72,2.21,1.46,4.23,2,6.3.53,1.92.87,3.89,1.29,5.84.19.91.47,2,1.55,1.77a2.74,2.74,0,0,0,1.47-1.88c.53-2.64.85-5.32,1.23-8,.26-1.84.5-3.68.81-5.93a11.23,11.23,0,0,1,1,1.11c5.35,8.53,10.74,17,16,25.62,1.76,2.88,3.2,6,4.79,9a6,6,0,0,0,.71,1.3,1.15,1.15,0,0,0,2-.19,8.58,8.58,0,0,0,.54-2c.91-3.36,1.73-6.74,2.76-10.06.91-2.94,5.19-6,8.26-6a3.47,3.47,0,0,1,2,.43,15.93,15.93,0,0,1,5.56,6.13,5.42,5.42,0,0,1-.6,5.9c-2.15,2.94-5.19,4.64-8.36,6.09-2.24,1-3.53,2.19-4,4.92a14.18,14.18,0,0,1-6.71,10.07c-6.87,4.28-14,7.7-22,8.72a55.15,55.15,0,0,1-17.58-.56c-7.82-1.54-15.62-3.22-23.36-5.14A36.36,36.36,0,0,1,527.18,351Zm61.19,22c-2,2-13,7.25-19.24,9.12-2-3.56-3.89-7-6.1-11C571.65,372.66,579.82,374.21,588.37,373Zm-31.5-3.16c-3.65,2.14-7.21,3.4-10.81,5.23l-4.38-9.35ZM539.45,378c.07-2.63.32-5.26.48-7.89l.66-.13c1,2.12,2,4.22,3,6.37a2.13,2.13,0,0,0,3.09,1.35c1-.38,2-.73,3.35-1.21.58,2.48,1.08,4.79,1.68,7.08a4.81,4.81,0,0,1-.75,3.93c-2.16,3.7-4.17,7.48-6.15,11.28a6.62,6.62,0,0,0-.7,2.84c-.17,7.88-.31,15.76-.35,23.63a10.4,10.4,0,0,0,.75,4.07c.69,1.56,1.14,3.75,3.25,3.88,2.31.14,3-2,3.79-3.7,2.74-6.31,5.35-12.68,8.08-19a17.8,17.8,0,0,0,.7-13.09c-.84-2.56-1.47-5.18-2.17-7.78-.23-.84-.39-1.7-.61-2.66l4.11-2.67,3.91-2.48c2.79,3.74,3,3.84,6.86,2.16,5-2.19,10-4.42,15-6.74,2.43-1.14,5.06-2.18,7-3.9,2.7-2.34,5.95-3,9.09-4.39.36.9.63,1.64,1,2.37,2.75,6.29,5.16,12.78,8.35,18.85,7.77,14.77,23.53,85.92,30.66,102H538.1C538.55,471.17,539,396.09,539.45,378Z"/><path class="cls-2" d="M530.92,313.24s12.42-21.54,13.79-23-11.2,1-11.2,1Z"/><polygon class="cls-1" points="536.51 335.62 541.33 326.72 544.81 328.97 541.33 337.22 538.1 338.16 536.51 335.62"/><path class="cls-2" d="M330.32,375.72c-3.3,3.83-4.08,3.77-6.17-.75-1.06-2.3-1.86-4.72-3-7.62-1.72,2.84-3.14,5.2-4.6,7.53-.38.61-.15,1.89-1.39,1.65a2,2,0,0,1-1.81-2c.18-2.51-.86-4.63-1.78-7.42-3.33,3.83-7.77,4.74-11.26,6.73-1-.53-.82-.67-.6-1.06,3.64-6.32,1.82-10.71-3.32-16-9.26-9.45-16.25-20.78-22.18-32.73a72.31,72.31,0,0,1-7.71-29.7c-.5-13.63,3.77-26.23,12-37.23,5.19-6.95,10.81-13.6,18.27-18.32,1.89-1.19,3.88-2.59,6-3,6.82-1.28,12.75-5,19.46-6.61,14-3.32,27.91-5,42.08-1,8.52,2.36,17.25,3.94,24.57,9.46a97.11,97.11,0,0,1,24.84,27.3C421,276.86,424.87,289.6,427,303a50.59,50.59,0,0,1-3.2,26.17c-4.49-2.09-.84-7.53-4.32-10.12q-1.22,7.81-2.42,15.63a14.9,14.9,0,0,1-8.64-6.41c-2.38-12.6-4.92-25.14-10.42-36.86-1.82-3.88-3.77-7.67-6.18-11.95-4.73,5.95-8.58,11.95-13.79,16.88a81.62,81.62,0,0,1-16.93,12.24c-7.12,3.92-13.83,8.64-21.57,11.38-3.72,1.32-4.35,3.56-2.31,6.92,3.38,5.55,6.52,11.24,11.62,15.49a7.69,7.69,0,0,1,1.7,1.81c.87,1.41,2,2.95.59,4.51-1.21,1.32-2.81.74-4.17.05a63.4,63.4,0,0,0-7.17-3.51c-2.36-.85-4.54-3.46-6.9.62-1,1.77-3.3,0-4.64-1.31-4-3.81-8.56-6.87-12.84-10.31-2-1.58-4.4-3.33-6.71-1.3s-.86,4.64.15,6.92a8.54,8.54,0,0,0,3.49,4.16c8.27,4.6,13.93,12.84,22.88,16.49.28.11.39.51.5.83,0,.16.09.43,0,.48C330.81,365.2,332.1,371.06,330.32,375.72Z"/><path class="cls-2" d="M332.3,420.79c1.51-7.67,1.91-15.46,4-23.09,2.77-10.24,4.47-20.76,8.84-30.54-.87-2.84-2.32-3.84-4.83-1.53.24.58.86,1.46.67,1.71-4.83,6.29-5.18,14.05-7.21,21.28-4.09,14.53-5.45,29.56-8.37,44.29-2,10.21-3.44,20.55-4.93,30.86-1.2,8.22-2.31,16.46-3.09,24.73-.17,1.72-.26,3.43-.3,5.13,1.66-.39,3.32-1.24,5-1.21A641,641,0,0,1,332.3,420.79Z"/><path class="cls-2" d="M429.83,486.78c-1.25-8.47-4.13-16.69-5.34-25.07-2.34-16.24-6.14-32.13-9.88-48C411.48,400.4,409,386.92,404.47,374c-.94-2.68-.92-5.39,3.48-6.51,8.24-2.1,12.1-14,6-19.8-3.89-3.66-1.1-4.76.3-7-.67-2,1-2.81,1.92-4,.45-.61,1.2-1.08.91-2l-7.65-6c-2,1.81-.89,4-.72,6.06.5,5.82-.28,6.8-5.78,8.34-5.3,1.48-10.89,3-12.53,9.22-1.05,4-3.53,5.7-7.23,6.48-11,2.29-21.89,5.25-33.32,3.61a7.62,7.62,0,0,0-5.31.82c.89,2.57.89,2.57,4.86,2.16-1.48.13-1.75.94-1.27,2.19,4.27,2.85,9.05,1.23,13.59,1.38a6.59,6.59,0,0,1,6,3.3,59.82,59.82,0,0,0,17.11,16.55c6.12,3.91,10.4,2.15,12.49-4.73,1.09-3.59,1.39-7.37,2.39-11,.71,6.26,3.6,11.86,4.85,17.88,4.18,20,9.44,39.83,13.44,59.92,2.76,13.9,5.33,27.82,7.6,41.8h5C430.38,490.67,430.12,488.73,429.83,486.78Z"/><path class="cls-2" d="M330.32,375.72c-1.52-3.06,1.94-6.49-.8-9.62-.6-.68,1.07-1.28,2-1.67,1.51-.64,3.16-1.14,3.82-2.9,2.71-1.48,5-.53,7.09,1.27,0,2.15-2.07,1.78-3.12,2.66C335.2,367.92,334.38,373.24,330.32,375.72Z"/><path class="cls-2" d="M339.28,365.46a3.3,3.3,0,0,1,3.1-1.87,1.23,1.23,0,0,1,1.89.21c1.86,1.82,4.56-.06,6.56,1.46-.41,1.35-2.34,0-2.6,1.47a2.87,2.87,0,0,1-3.89.07c-.74-2.51-2.57-1.26-4.06-1.17Z"/><path class="cls-2" d="M414.23,340.64c-.77-.15-1.87-.21-1.58-1.27a3.62,3.62,0,0,1,3.5-2.72C416.42,338.42,415.24,339.49,414.23,340.64Z"/><path class="cls-3" d="M344.27,363.8l-1.89-.21c-2.15-1.38-4.65-1.59-7.07-2.06-6.34-3.35-13-6.22-17.24-12.5a6,6,0,0,0-3.62-2.44c-4.39-1.12-6.63-4.68-7.87-8.55-.68-2.11-1.53-5.34.94-6.88a6.66,6.66,0,0,1,7.47.76c4.67,3.5,9.27,7.11,13.73,10.87,1.13.95,1.3,3.35,3.43,2.76,2.48-.69.28-3.24,1.54-4.64l17.5,8.26c-.27-6.09-5.77-7-8-10.75-2.59-4.41-5.54-8.64-8.21-13.06-2-3.38-.63-4.59,1.89-5.57,9.42-3.68,17.95-9.05,26.64-14.07,12-6.91,21.06-16.85,28.24-29.32a134.06,134.06,0,0,1,17.62,52.25c-.84,3,1.15,5.7.93,8.74-.3,4.11-.57,7-6.22,6.5-6-.49-11.81,5-12.81,10.93-.51,3.08-2.83,4-5,4.72-9,2.79-18.5,3.39-27.77,5C353.85,365.31,349.1,362.77,344.27,363.8Z"/><path class="cls-3" d="M320.53,493.12c.75-9.81,2-19.57,3.52-29.33,1.75-11.39,3.15-22.83,5.12-34.21,3.06-17.7,6-35.41,10.55-52.8.91-3.49,3-6.66,4.62-10l3.89-.07c5.09,2,10.38.61,15.56.75,2.17.06,3.1.39,4.3,2.37a49.81,49.81,0,0,0,19.61,18.78c4.33,2.27,5.85,1.32,7.61-3.26,2.2-5.71,2.38-11.81,3.46-18.17,2.9,2.77,2.15,6.08,3,8.88,6,20,10.2,40.37,14.51,60.75,3.74,17.73,8,35.39,10.73,53.28l.45,3"/><path class="cls-3" d="M403.41,364.64c-5.48,0-9.18-3.42-9.2-8.22,0-5.6,5.11-8.73,12.57-9.33,4.21-.34,6.51,3.47,6.46,9.63C413.19,362.19,410.1,364.67,403.41,364.64Z"/><path class="cls-3" d="M372.57,370.87c1.61-.67,2,.87,2.88,1.42,5.72,3.52,6.65,3.32,9.74-2.48.68-1.29,2.23-3.21,2.67-2.71,2,2.28,5.94,2.53,6.4,6.26.37,3-.38,5.82-1,8.67-1,4.47-3.37,5.56-6.91,2.51C381.46,380.34,376.07,376.57,372.57,370.87Z"/><path class="cls-4" d="M384.47,364.05l-3.59,7.38-8.63-5.09Z"/><path class="cls-5" d="M394.2,367.58c-.73-.44-1.12-.54-1.26-.79-.85-1.54-3.56-1.86-2.93-4.3.09-.38,1.34-.92,1.58-.75A6.36,6.36,0,0,1,394.2,367.58Z"/><path class="cls-2" d="M358.93,333.64c-3.31.05-6.7-3.55-6.66-7.07,0-3.07,4-6.91,7.05-6.84,2.58,0,6.71,4.87,6.91,8C366.41,330.64,362.73,333.6,358.93,333.64Z"/><path class="cls-2" d="M398.81,310.68c2.74.06,6.64,4.41,6.38,7.5-.36,4.09-3.95,4.85-6.93,5.33-3.52.58-6.07-2.59-6-6.57C392.28,314,395.81,310.62,398.81,310.68Z"/><path class="cls-2" d="M398.07,297c-.69,1.56-1.88,2.33-3.39,1.27-3-2.1-5.67-1.37-8.45.4-.64.4-1.5,1.33-2.47.1s-.21-1.74.44-2.52c3.11-3.74,10.32-3.83,13.23-.14C397.63,296.31,397.81,296.58,398.07,297Z"/><path class="cls-2" d="M376.43,353.6c-1.62-.61-3.22-.81-4.22-1.68-1.19-1-3.78-2-2.48-4.06,1.57-2.52,2.49.7,3.72,1.12a21.65,21.65,0,0,0,4.3.7c1.15.15,3.08-.89,3.3.91s-1.74,1.94-3.18,2.25A5.17,5.17,0,0,0,376.43,353.6Z"/><path class="cls-2" d="M385.52,320.94c1.93.75,4.24,1.09,3.59,4-.16.71-.77,1.5-1.74,1C385.26,324.94,384.8,323.21,385.52,320.94Z"/><line class="cls-2" x1="317.27" y1="493.12" x2="430.77" y2="493.12"/><rect class="cls-2" x="317.27" y="491.62" width="113.5" height="3"/><path class="cls-2" d="M555,496.88a2.78,2.78,0,0,1-2,.88c-2.35.22-4.69.53-7,.83s-4.39.6-7.16,1c.55-1.44.93-2.33,1.24-3.24a56.58,56.58,0,0,0,2.45-7.68,46.31,46.31,0,0,0-4.37-30.13c-2.57-5-5.3-9.91-8.21-14.71-7.53-12.42-15.62-24.43-25.57-35.1-4.52-4.84-8.77-9.94-13.11-15a30.45,30.45,0,0,1-1.9-2.91c1.54,0,2.51.08,3.47,0,2.9-.27,5.89-.25,8.67-1,6.64-1.77,9.38-8.14,6.3-14.27a4,4,0,0,1-.07-3.18,14.88,14.88,0,0,0-4.48-15.36c-6.13-5.77-14.18-6.52-21.4-2.17a3.85,3.85,0,0,1-4.36.23,16.16,16.16,0,0,0-8.46-1.85c-7.5.13-14,2.9-19.89,7.36a5.63,5.63,0,0,1-4.93,1.34c-8.45-1.89-17-1.42-25.53-1-6.14.28-12,1.78-17,5.64-2.31,1.79-4.76,3.41-7,5.29-4.2,3.56-8.47,7.06-10.83,12.27-1.34,2.95-1.4,2.88-4.87,2.7a33.77,33.77,0,0,0-21.71,5.86c-4,2.75-6.33,6.36-6.62,11.16a4.57,4.57,0,0,1-2.71,4.2c-7.79,4.29-12.17,10.62-12,19.89.11,5.57,2.61,9.35,7.21,12.06l3.17,1.83c-.86,1.22-1.54,2.2-2.24,3.16a36,36,0,0,0-3.34,4.64c-3.45,7-3.22,12.38,1.6,17,2.23,2.14,5.05,3.66,7.64,5.43a24.35,24.35,0,0,0,2.25,1.21c-.29,1.56-.57,2.87-.8,4.19A12.3,12.3,0,0,0,358.07,491c.77.4,1.53.83,2.23,1.21a11.11,11.11,0,0,1-.07,1.21,20,20,0,0,0,15,22.87,39.42,39.42,0,0,0,18.7.2,5.24,5.24,0,0,1,4.12.69c8,4.52,16.07,8.56,25.43,9.22,2.24.16,4.48.35,6.71.59a26.07,26.07,0,0,1,2.63.56c-.23,1-.4,1.78-.58,2.53A98.25,98.25,0,0,0,430,540.2c-1.39,11.26-2.7,22.53-3.68,33.83a114.36,114.36,0,0,0,.35,26.92c.65,4.29.83,8.7,2.53,12.95l144.53-.83a44.2,44.2,0,0,0,.51-5.13c-.14-7.18-3.08-30.71-3.29-31.46-1.13-4.1-1.84-8.38-3.47-12.28-3.59-8.59-7.58-17-11.54-25.47-1.58-3.34-3.54-6.51-5.27-9.78a17.72,17.72,0,0,1-.86-2.53c2.13-.6,4.06-1.06,5.94-1.69,6.6-2.2,13.19-4.41,19.76-6.71a6.42,6.42,0,0,0,3.93-3.34C570.4,509.79,562.08,504.35,555,496.88ZM358.91,486.31c-2.34-1.84-3.82-4.17-3.23-7.3.35-1.86.9-3.69,1.41-5.52.57-2.06.3-2.83-1.62-3.8-1-.51-2.12-.79-3.1-1.33a46.39,46.39,0,0,1-5.43-3.25c-5.54-4.05-4.65-9.82-1.82-14.35,1.19-1.89,2.79-3.52,4.11-5.34,2.69-3.74,2.18-5.88-1.87-8.15-.78-.44-1.62-.79-2.39-1.24a8.92,8.92,0,0,1-4.72-8c-.22-7.46,3.22-12.69,9.61-16.09C353,410.28,355,408,355,404.34s1.9-6.08,4.73-8.1c6.62-4.75,14.09-5.52,21.89-4.83,3.39.3,3.57.4,4.81-2.75A28.6,28.6,0,0,1,395.33,377c3.13-2.57,6.39-5,9.64-7.38a20.75,20.75,0,0,1,9.63-3.77,98.19,98.19,0,0,1,24.88-.23,17.9,17.9,0,0,1,5.34,1.75c1.68.78,2.72,0,3.95-.9a99.34,99.34,0,0,1,8.31-5.7,22.43,22.43,0,0,1,12.62-3.06,14.37,14.37,0,0,1,6.1,1.54c2.87,1.64,5.22,1.34,7.83-.36,5.71-3.72,12.31-2.95,17.23,1.85a10.24,10.24,0,0,1,1.92,11.8c-1.41,2.79-1.41,2.79.59,4.9,1.67,1.77,1.85,3.4.58,5.44a5.78,5.78,0,0,1-4.3,3,46.16,46.16,0,0,1-8.37.48,11.66,11.66,0,0,0-9,2.76,15.24,15.24,0,0,0-1.31,1.07c-5.77,6.27-13.46,7.11-21.3,7.55-.67,0-1.34-.08-2-.06-2.47.06-3,.76-2.74,3.39,0,.33.09.65.18,1.24-5.93,4-12.4,5.67-19.19,6.31-3.13.29-6.27.42-9.42.51-2,.05-3.6.67-4.44,2.47-1.84,3.9-5.23,5.78-9,7.05a45.45,45.45,0,0,1-6.56,1.47c-5.12.9-6.36,2.71-5.16,7.67,1,4,1.88,8.07,2.9,12.46-1.67.66-3.33,1.23-4.92,2a35.68,35.68,0,0,0-5.37,2.74c-1.85,1.26-2.11,2.76-1.12,4s2.14,1.16,3.87-.15c2.5-1.89,5.46-2.45,8.68-3.52.78,2.84,1.51,5.47,2.31,8.35-2.92.53-5.56,1-8.18,1.51a6.9,6.9,0,0,0-2.81,1,2.66,2.66,0,0,0-1,2.22,3.38,3.38,0,0,0,2.06,1.77c.77.23,1.74-.23,2.62-.36l9-1.27c.69,2.34,1.29,4.32,2,6.68l-9,1.39a14.91,14.91,0,0,0-2.31.42,2.2,2.2,0,0,0-1.74,2.53,2.15,2.15,0,0,0,2.36,2,35.33,35.33,0,0,0,3.68-.39l8.24-1,1.15,4.73a25.53,25.53,0,0,1-11.49,3.12c-2.31.16-4.7-.32-6.78,1.38-.46.39-1.71,0-2.55-.27a33.68,33.68,0,0,0-12.71-.9,24.65,24.65,0,0,0-16,7.77C362.15,487.9,361.09,488,358.91,486.31Zm152,62.66c-3,.24-11.44-2.1-16.67-5,3.35.34,4.63-1.8,5.68-4.34s2.34-5.29,3.64-8.2l8.06,3.28C511.34,539.69,511.1,544.33,510.87,549Zm-54.15-22c8.18-1,16.15-1.76,24-3.1s15.74-3.28,24.19-5.07c-2.72,7.41-7.09,13.46-9.38,20.33C493.16,539.1,458.83,528.35,456.72,527Zm75.63,12.64a11.26,11.26,0,0,1-1.73-.73c-2.41-1.65-4.82-3.29-7.15-5a3.21,3.21,0,0,1-1.36-2c.06-2.66.39-5.32.64-8.22l9.74,2.55C532.72,530.22,532.4,534.72,532.35,539.65Zm-16.47-23.39,16.47-8.84c-.8,4.64-1.56,9.09-2.41,14Zm10.48-10.43a52.23,52.23,0,0,1-13.09,6.11C489,519,464.19,523.23,438.81,523A177.23,177.23,0,0,1,421,521.77c-7.18-.78-13.37-4.27-20.15-7.84,1.47-1.15,2.47-1.87,3.4-2.67a2,2,0,0,0,.45-3,2.06,2.06,0,0,0-3-.46,12.19,12.19,0,0,0-1.41.92c-5.74,4.45-12.36,5-19.24,4.28-1.23-.12-2.44-.43-3.66-.62-6.77-1.06-10.69-5.54-13-11.46-1.6-4.09-.18-8,2.53-11.31A19,19,0,0,1,379,482.91a28.33,28.33,0,0,1,14.62,1.25l1.92.66c3.32,1.12,3.52,1,5-1.8,4.06-.88,7.88-1.67,11.68-2.56a12.67,12.67,0,0,0,3.12-1.23c2.41-1.29,3.23-2.83,2.68-5.56-.72-3.52-1.61-7-2.57-10.47-2.61-9.53-5.34-19-7.94-28.57-.82-3-1.4-6.12-2.18-9.58a31.74,31.74,0,0,0,3.37-.64c3.21-1,6.47-1.85,9.57-3.12a14.72,14.72,0,0,0,7.58-7.18c6-.68,11.55-1.19,17.1-2,4.74-.68,9-2.78,13.11-5.14a5.75,5.75,0,0,0,2.13-1.62c1.76-2.79,4.42-3.47,7.44-3.7,1.56-.12,3.08-.64,4.63-.88a23.71,23.71,0,0,0,12.52-6.19c.66-.6,1.37-1.14,2.14-1.77a8.16,8.16,0,0,1,1.05.9c4.49,5.32,8.7,10.9,13.5,15.93,9.91,10.42,18.12,22.06,25.54,34.28,3.67,6.05,7.18,12.22,10.26,18.58a40.06,40.06,0,0,1,3.29,24C537.31,494.73,533.56,501.34,526.36,505.83Z"/><path class="cls-1" d="M400.84,513.93c1.47-1.15,2.47-1.87,3.4-2.67a2,2,0,0,0,.45-3,2.06,2.06,0,0,0-3-.46,12.19,12.19,0,0,0-1.41.92c-5.74,4.45-12.36,5-19.24,4.28-1.23-.12-2.44-.43-3.66-.62-6.77-1.06-10.69-5.54-13-11.46-1.6-4.1-.18-8,2.53-11.31A19,19,0,0,1,379,482.91a28.32,28.32,0,0,1,14.62,1.25l1.92.66c3.32,1.12,3.53,1,5-1.8,4.06-.88,7.88-1.67,11.67-2.56a12.59,12.59,0,0,0,3.13-1.23c2.41-1.29,3.23-2.83,2.68-5.56-.72-3.52-1.61-7-2.57-10.47-2.61-9.53-5.34-19-7.94-28.57-.82-3-1.4-6.12-2.18-9.58a31.74,31.74,0,0,0,3.37-.64c3.21-1,6.47-1.85,9.57-3.12a14.72,14.72,0,0,0,7.58-7.18c6-.68,11.55-1.19,17.1-2,4.74-.68,9-2.78,13.11-5.14a5.75,5.75,0,0,0,2.13-1.62c1.76-2.79,4.42-3.47,7.44-3.7,1.56-.12,3.08-.64,4.63-.88a23.71,23.71,0,0,0,12.52-6.19c.66-.6,1.37-1.14,2.14-1.77a8.16,8.16,0,0,1,1.05.9c4.49,5.32,8.7,10.9,13.5,15.93,9.91,10.42,18.12,22.06,25.54,34.28,3.67,6.05,7.18,12.22,10.26,18.58a40.06,40.06,0,0,1,3.29,24c-1.28,8.17-5,14.78-12.23,19.27a52.23,52.23,0,0,1-13.09,6.11C489,519,464.19,523.23,438.81,523A177.23,177.23,0,0,1,421,521.77C413.81,521,407.62,517.5,400.84,513.93ZM453,488a39.82,39.82,0,0,0,2.51,14.84c.81,2.37,1.71,3.19,3.09,2.76s1.78-1.65,1.16-3.95c-.15-.54-.37-1.06-.48-1.61-.53-2.5-1.46-5-1.47-7.53,0-4.78.5-9.57.8-14.36,0-.67.37-1.45.12-2-.34-.73-1-1.64-1.69-1.76a2.94,2.94,0,0,0-2.17,1.06,4.37,4.37,0,0,0-.68,2.21C453.78,481.09,453.41,484.53,453,488ZM431,433.6l.93-.09c6.93-.64,13.87-1.27,20.8-1.94,2.71-.26,3.76-1,3.64-2.55s-1.33-2.13-4-1.89q-10.23.93-20.46,1.89a6.23,6.23,0,0,0-2.6.55,2.8,2.8,0,0,0-1.29,2c.06.68.93,1.39,1.59,1.86C430,433.73,430.66,433.58,431,433.6Zm54.36-22.12c.09-1.93-1.54-3-3-2.3a5.45,5.45,0,0,0-1.5,1.3c-3.32,3.78-6.62,7.59-9.92,11.39-.36.42-.88.91-.9,1.38a3.43,3.43,0,0,0,.5,2.36,3.39,3.39,0,0,0,2.4.32c.46-.06.88-.66,1.25-1.08q5.07-5.81,10.11-11.66A10.42,10.42,0,0,0,485.32,411.48Zm-30.88,52.78c3.23,0,5.34-1.81,5.35-4.69a5.4,5.4,0,0,0-5.56-5.11,5.14,5.14,0,0,0-5.18,5.05C449.06,462.29,451.25,464.22,454.44,464.26Zm36.77-14.81c0,3.27.89,4.49,3.5,4.57,3.22.1,6.32-2.19,6.33-4.68a5,5,0,0,0-4.77-5.06A5.24,5.24,0,0,0,491.21,449.45Zm0,42.4c0,.14-1.75-.14-1.79,0-.67,0-3.5.58-4.17.65-1.67.17-2.76-.2-4.43,0-2.44.28-3.38-1.33-3.05-.08.49,1.86,2.05,1.42,3.33,1.28,4.55-.47,9.11-1.37,13.56.64a1.72,1.72,0,0,0,2.51-1c.4-1.22-.45-2-1.47-2.25C493.14,490.4,493.78,492.5,491.21,491.85Zm3.58-21.41c-.64-1.55-1.06-2.84-1.68-4-1.21-2.26-2.47-4.51-3.84-6.67a2.15,2.15,0,0,0-3.7,2.18c1.64,3.17,3.3,6.33,5,9.46a1.8,1.8,0,0,0,2.57.85A7.46,7.46,0,0,0,494.79,470.44Z"/><path class="cls-1" d="M455,402.27c-5.93,4-12.4,5.67-19.19,6.31-3.13.29-6.27.42-9.42.51-2,.05-3.6.67-4.44,2.47-1.84,3.9-5.23,5.78-9,7.05a45.45,45.45,0,0,1-6.56,1.47c-5.12.9-6.36,2.71-5.16,7.67,1,4,1.88,8.07,2.9,12.46-1.67.66-3.33,1.23-4.92,2a35.68,35.68,0,0,0-5.37,2.74c-1.85,1.26-2.11,2.76-1.12,4s2.14,1.16,3.87-.15c2.5-1.89,5.46-2.45,8.68-3.52.78,2.84,1.51,5.47,2.31,8.35-2.92.53-5.56,1-8.18,1.51a6.9,6.9,0,0,0-2.81,1,2.65,2.65,0,0,0-1,2.22,3.38,3.38,0,0,0,2.06,1.77c.77.23,1.74-.23,2.62-.36l9-1.27c.69,2.34,1.29,4.32,2,6.68l-9,1.39a16.2,16.2,0,0,0-2.31.42,2.2,2.2,0,0,0-1.74,2.53,2.15,2.15,0,0,0,2.36,2,35.33,35.33,0,0,0,3.68-.39l8.24-1,1.15,4.73a25.53,25.53,0,0,1-11.49,3.12c-2.31.16-4.7-.32-6.78,1.38-.46.39-1.71,0-2.55-.27a33.68,33.68,0,0,0-12.71-.9,24.65,24.65,0,0,0-16,7.77c-1.89,2-3,2.14-5.13.44-2.34-1.84-3.82-4.17-3.23-7.3.35-1.86.9-3.69,1.41-5.52.57-2.06.3-2.83-1.62-3.8-1-.51-2.12-.79-3.1-1.33a46.39,46.39,0,0,1-5.43-3.25c-5.54-4.05-4.65-9.82-1.82-14.35,1.19-1.89,2.79-3.52,4.11-5.34,2.69-3.74,2.18-5.88-1.87-8.15-.78-.44-1.62-.79-2.39-1.24a8.92,8.92,0,0,1-4.72-8c-.22-7.46,3.22-12.69,9.61-16.09C353,410.28,355,408,355,404.34s1.9-6.08,4.73-8.1c6.62-4.75,14.09-5.52,21.89-4.83,3.39.3,3.57.4,4.81-2.75A28.54,28.54,0,0,1,395.34,377c3.12-2.57,6.38-5,9.63-7.38a20.75,20.75,0,0,1,9.63-3.77,98.19,98.19,0,0,1,24.88-.23,17.9,17.9,0,0,1,5.34,1.75c1.68.78,2.72,0,3.95-.9a99.34,99.34,0,0,1,8.31-5.7,22.43,22.43,0,0,1,12.62-3.06,14.37,14.37,0,0,1,6.1,1.54c2.87,1.64,5.22,1.34,7.83-.36,5.71-3.72,12.31-2.95,17.23,1.85a10.24,10.24,0,0,1,1.92,11.8c-1.41,2.79-1.41,2.79.59,4.9,1.67,1.77,1.85,3.4.58,5.44a5.78,5.78,0,0,1-4.3,3,46.16,46.16,0,0,1-8.37.48,11.66,11.66,0,0,0-9,2.76,15.24,15.24,0,0,0-1.31,1.07c-5.77,6.27-13.46,7.11-21.3,7.55-.67,0-1.34-.08-2-.06-2.47.06-3,.76-2.74,3.39C454.89,401.36,455,401.68,455,402.27Z"/><path class="cls-1" d="M504.93,518.84c-2.73,7.41-7.09,13.46-9.38,20.33-2.39-.07-36.72-10.82-38.83-12.16,8.18-1,16.15-1.76,24-3.1S496.48,520.63,504.93,518.84Z"/><path class="cls-1" d="M494.2,544c3.35.34,4.63-1.8,5.68-4.34s2.34-5.29,3.64-8.2l8.06,3.28c-.24,4.94-.48,9.58-.71,14.22C507.85,549.21,499.43,546.87,494.2,544Z"/><path class="cls-1" d="M522.75,523.63l9.74,2.55c.23,4-.09,8.54-.14,13.47a11.26,11.26,0,0,1-1.73-.73c-2.41-1.65-4.82-3.29-7.15-5a3.21,3.21,0,0,1-1.36-2C522.17,529.19,522.5,526.53,522.75,523.63Z"/><path class="cls-1" d="M532.35,507.42c-.8,4.64-1.56,9.09-2.41,14l-14.06-5.15Z"/><path class="cls-2" d="M453,488c.39-3.44.76-6.88,1.19-10.31a4.37,4.37,0,0,1,.68-2.21,2.94,2.94,0,0,1,2.17-1.06c.67.12,1.35,1,1.69,1.76.25.52-.08,1.3-.12,2-.3,4.79-.81,9.58-.8,14.36,0,2.52.94,5,1.47,7.53.11.55.33,1.07.48,1.61.62,2.3.26,3.51-1.16,3.95s-2.28-.39-3.09-2.76A39.82,39.82,0,0,1,453,488Z"/><path class="cls-2" d="M431,433.6c-.3,0-1,.13-1.39-.14-.66-.47-1.53-1.18-1.59-1.86a2.8,2.8,0,0,1,1.29-2,6.23,6.23,0,0,1,2.6-.55q10.23-1,20.46-1.89c2.67-.24,3.87.34,4,1.89s-.93,2.29-3.64,2.55c-6.93.67-13.87,1.3-20.8,1.94Z"/><path class="cls-2" d="M485.32,411.48a10.42,10.42,0,0,1-1,1.71q-5,5.87-10.11,11.66c-.37.42-.79,1-1.25,1.08a3.39,3.39,0,0,1-2.4-.32,3.43,3.43,0,0,1-.5-2.36c0-.47.54-1,.9-1.38,3.3-3.8,6.6-7.61,9.92-11.39a5.45,5.45,0,0,1,1.5-1.3C483.78,408.44,485.41,409.55,485.32,411.48Z"/><path class="cls-2" d="M454.28,467c-4.17-.05-7-2.58-7-6.22a6.74,6.74,0,0,1,6.78-6.61c4,0,7.29,3.06,7.28,6.7S458.51,467.07,454.28,467Z"/><path class="cls-2" d="M491.05,449.48a6.39,6.39,0,0,1,6.15-6.29,6.14,6.14,0,0,1,5.8,6.15c0,3-3.78,5.81-7.7,5.69C492.14,454.93,491,453.46,491.05,449.48Z"/><path class="cls-2" d="M498,489.82a2.48,2.48,0,0,1,2.24,2.87,1.91,1.91,0,0,1-2.67,1.86c-5.64-2-10.69.2-15.86,1.74-1.44.44-3.14,1.36-4.15-1.16-.68-1.69.27-2.79,3-3.66q2.82-.9,5.67-1.74c.75-.23,1.53-.38,2.3-.57C488.62,489,494.91,489.3,498,489.82Z"/><path class="cls-2" d="M494.79,470.44a7.46,7.46,0,0,1-1.62,1.81,1.8,1.8,0,0,1-2.57-.85c-1.73-3.13-3.39-6.29-5-9.46a2.15,2.15,0,0,1,3.7-2.18c1.37,2.16,2.63,4.41,3.84,6.67C493.73,467.6,494.15,468.89,494.79,470.44Z"/><path class="cls-2" d="M529.49,456.55c-3.42,1.73-5.63,4.75-7.87,7.85-3.38,4.68-4,9.78-2.38,15.33,2.07,7.11,7.48,11,14.22,10.33a17.19,17.19,0,0,0,1.87-.27c1.93-.42,3.32.19,4.69,1.92,7.21,9.05,14,18.45,20.62,28.06.25.37-1.07,2.1-1,2.42,8.15-1.19,23.77-5,23.77-10.65,0-5.27-6.41-8.77-9.88-12.87-5.51-6.49-11.48-12.52-16.83-19.15-4.42-5.47-9.74-10.31-12-17.62C540.37,455.42,535.92,453.28,529.49,456.55Zm13.16,12.65c-.6,3.36-1.44,6.69-2.35,10a12,12,0,0,1-1.86,3.88c-3.32,4.51-9.21,4.74-13,.63-4.71-5.1-4.93-11.37-.23-18.3a13.66,13.66,0,0,1,7-6.05C537.67,457.22,543.77,462.89,542.65,469.2Z"/><path class="cls-1" d="M525.21,465.39a13.66,13.66,0,0,1,7-6.05c5.5-2.12,11.6,3.55,10.48,9.85-.6,3.37-1.44,6.7-2.35,10a12,12,0,0,1-1.86,3.88c-3.32,4.51-9.21,4.74-13,.63C520.73,478.59,520.51,472.32,525.21,465.39Z"/><path class="cls-2" d="M275.29,193.58a6.12,6.12,0,0,1-4.83-2.39l-6.75-8.91-118.32-3.56a6.17,6.17,0,0,1-5.28-3.39L103.32,99.55a6.26,6.26,0,0,1-.56-3.52l10-70a6.27,6.27,0,0,1,3.71-4.72L166.8.48A5.69,5.69,0,0,1,169.11,0h.16L364,4.47a6.23,6.23,0,0,1,4.15,1.76l34.55,34.56a5.84,5.84,0,0,1,1.76,4.15l1.84,87.29a6.22,6.22,0,0,1-.52,2.55L391,168.46a6,6,0,0,1-5.07,3.59l-88.37,7.23.8,3a6,6,0,0,1-.68,4.75,5.9,5.9,0,0,1-3.91,2.76l-17.26,3.63a3.36,3.36,0,0,1-1.24.2Z"/><polygon class="cls-1" points="118.22 25.25 168.59 4.39 363.34 8.87 397.89 43.42 399.69 130.71 384.91 164.38 289.27 172.21 291.99 182.24 274.73 185.87 266.26 174.65 145.03 171.01 108.23 95.23 118.22 25.25"/><path class="cls-2" d="M287.92,216.35a5.5,5.5,0,0,1-4.8-2.79l-4.63-8.35a5.34,5.34,0,0,1-.24-4.8,5.47,5.47,0,0,1,3.63-3.11l14.31-3.68a5.14,5.14,0,0,1,1.35-.16,5.47,5.47,0,0,1,5.24,3.88l2.59,8.67a5.46,5.46,0,0,1-.44,4.19,5.58,5.58,0,0,1-3.31,2.64l-12.31,3.35a7.67,7.67,0,0,1-1.39.16Z"/><polygon class="cls-1" points="281.8 200.62 297.7 196.54 300.58 206.17 286.92 209.88 281.8 200.62"/><path class="cls-2" d="M298.26,238.28a5.38,5.38,0,0,1-4.91-3.11l-3.08-6.43a5.44,5.44,0,0,1,0-4.6,5.53,5.53,0,0,1,3.48-3l11.46-3.24a6.27,6.27,0,0,1,1.48-.2,5.38,5.38,0,0,1,5,3.4l2.6,6.27a5.25,5.25,0,0,1-.12,4.39,5.4,5.4,0,0,1-3.31,2.88l-11,3.4a5.4,5.4,0,0,1-1.56.23Z"/><polygon class="cls-1" points="293.87 224.54 306.65 220.99 309.53 227.94 297.26 231.69 293.87 224.54"/><path class="cls-2" d="M171.73,378a4.69,4.69,0,0,1-4.15.13l-7.83-3.59L78.08,415.24a4.75,4.75,0,0,1-4.82-.39L20.65,376.79A4.79,4.79,0,0,1,19,374.61L.25,323.4a4.83,4.83,0,0,1,.81-4.56l26.6-32.48a4.4,4.4,0,0,1,1.4-1.17l.11-.06L163.08,217.2a4.77,4.77,0,0,1,3.46-.32l36.06,10.87a4.56,4.56,0,0,1,2.71,2.19l33.06,58.61a4.91,4.91,0,0,1,.58,1.93l2.23,28.26a4.61,4.61,0,0,1-2.13,4.29l-57.39,37.12,1.62,1.71a4.64,4.64,0,0,1,1.27,3.48,4.51,4.51,0,0,1-1.65,3.3l-10.4,8.76a2.59,2.59,0,0,1-.77.59Z"/><polygon class="cls-1" points="3.69 320.89 30.31 288.37 164.22 220.43 200.28 231.31 233.31 289.94 235.55 318.2 173.44 358.37 178.94 364.19 168.54 372.95 158.7 368.41 75.03 410.13 22.41 372.07 3.69 320.89"/><path class="cls-2" d="M188.61,388.85a4.26,4.26,0,0,1-4.28-.15l-6.19-4a4.13,4.13,0,0,1-1.91-3.17,4.21,4.21,0,0,1,1.34-3.44l8.37-7.71a4.22,4.22,0,0,1,5.83.12l4.92,4.94a4.19,4.19,0,0,1,1.23,3,4.28,4.28,0,0,1-1.29,3l-7.13,6.76a5.65,5.65,0,0,1-.89.62Z"/><polygon class="cls-1" points="178.72 380.39 188.03 371.83 193.5 377.32 185.57 384.82 178.72 380.39"/><path class="cls-2" d="M203.63,400a4.15,4.15,0,0,1-4.47-.33l-4.44-3.25a4.2,4.2,0,0,1-.43-6.4l6.61-6.38a4.3,4.3,0,0,1,.93-.67,4.13,4.13,0,0,1,4.65.47l4.05,3.31a4,4,0,0,1,1.52,3,4.11,4.11,0,0,1-1.2,3.16l-6.25,6.33a4.12,4.12,0,0,1-1,.73Z"/><polygon class="cls-1" points="195.63 392.24 203.02 385.17 207.51 388.84 200.55 395.86 195.63 392.24"/><path class="cls-2" d="M727.9,473.41a2.41,2.41,0,0,1-.77-.58l-10.4-8.76a4.53,4.53,0,0,1-1.65-3.3,4.64,4.64,0,0,1,1.27-3.48l1.62-1.71-57.39-37.12a4.61,4.61,0,0,1-2.13-4.29l2.23-28.26a4.86,4.86,0,0,1,.58-1.93l33.06-58.62a4.55,4.55,0,0,1,2.71-2.18l36.06-10.87a4.77,4.77,0,0,1,3.46.32l133.91,67.93.11.06a4.4,4.4,0,0,1,1.4,1.17l26.6,32.48a4.83,4.83,0,0,1,.81,4.56L880.64,470a4.76,4.76,0,0,1-1.66,2.19l-52.61,38.06a4.75,4.75,0,0,1-4.82.39L739.88,470l-7.83,3.59a4.66,4.66,0,0,1-4.15-.14Z"/><polygon class="cls-1" points="877.22 467.5 824.61 505.56 740.93 463.84 731.09 468.38 720.69 459.62 726.19 453.8 664.08 413.63 666.32 385.37 699.35 326.74 735.41 315.86 869.32 383.8 895.94 416.32 877.22 467.5"/><path class="cls-2" d="M711,484.28a5.65,5.65,0,0,1-.89-.62L703,476.9a4.28,4.28,0,0,1-1.29-3,4.19,4.19,0,0,1,1.23-3l4.92-4.94a4.22,4.22,0,0,1,5.83-.12l8.37,7.71A4.21,4.21,0,0,1,723.4,477a4.13,4.13,0,0,1-1.91,3.17l-6.19,4a4.26,4.26,0,0,1-4.28.15Z"/><polygon class="cls-1" points="714.06 480.25 706.13 472.75 711.6 467.25 720.91 475.82 714.06 480.25"/><path class="cls-2" d="M696,495.41a3.9,3.9,0,0,1-1-.74l-6.25-6.32a4.11,4.11,0,0,1-1.2-3.16,4,4,0,0,1,1.52-3l4-3.31a4.15,4.15,0,0,1,4.65-.48,4.72,4.72,0,0,1,.93.68l6.61,6.37a4.27,4.27,0,0,1,1.27,3.31,4.2,4.2,0,0,1-1.7,3.1l-4.44,3.25a4.17,4.17,0,0,1-4.47.33Z"/><polygon class="cls-1" points="699.08 491.29 692.12 484.27 696.61 480.6 704 487.67 699.08 491.29"/><path class="cls-2" d="M655.53,215.76a3.19,3.19,0,0,1-1.17-.19L638,212.12a5.59,5.59,0,0,1-3.71-2.61,5.73,5.73,0,0,1-.64-4.51l.75-2.8-83.75-6.85a5.68,5.68,0,0,1-4.81-3.41l-14-31.92a5.92,5.92,0,0,1-.49-2.42l1.74-82.74a5.56,5.56,0,0,1,1.66-3.94L567.5,38.17a5.92,5.92,0,0,1,3.93-1.67L756,32.26h.15a5.36,5.36,0,0,1,2.2.46l47.71,19.73a5.91,5.91,0,0,1,3.52,4.46l9.46,66.38a5.78,5.78,0,0,1-.53,3.33l-34.87,71.83a5.84,5.84,0,0,1-5,3.22L666.51,205l-6.39,8.45a5.79,5.79,0,0,1-4.59,2.27Z"/><polygon class="cls-1" points="813.89 122.53 779.01 194.36 664.09 197.81 656.06 208.45 639.71 205 642.28 195.5 551.63 188.08 537.62 156.16 539.33 73.42 572.08 40.67 756.67 36.43 804.42 56.19 813.89 122.53"/><path class="cls-2" d="M643.57,237.34a7.12,7.12,0,0,1-1.33-.15L630.58,234a5.32,5.32,0,0,1-3.14-2.5,5.16,5.16,0,0,1-.42-4l2.46-8.21a5.18,5.18,0,0,1,5-3.68,4.75,4.75,0,0,1,1.29.16l13.56,3.48a5.17,5.17,0,0,1,3.44,2.95,5,5,0,0,1-.23,4.55l-4.39,7.91a5.2,5.2,0,0,1-4.54,2.65Z"/><polygon class="cls-1" points="644.51 231.21 631.57 227.69 634.29 218.56 649.36 222.42 644.51 231.21"/><path class="cls-2" d="M633.76,258.13a4.92,4.92,0,0,1-1.48-.23l-10.45-3.22a5.1,5.1,0,0,1-3.14-2.72,5,5,0,0,1-.11-4.17l2.46-5.94a5.1,5.1,0,0,1,4.77-3.22,5.62,5.62,0,0,1,1.4.19l10.87,3.07a5.16,5.16,0,0,1,3.29,2.84,5.09,5.09,0,0,1,0,4.35l-2.91,6.1a5.12,5.12,0,0,1-4.66,2.95Z"/><polygon class="cls-1" points="634.71 251.88 623.08 248.32 625.81 241.73 637.93 245.1 634.71 251.88"/><path class="cls-2" d="M245.21,493.77a2.84,2.84,0,0,1,1,.16l14.29,3a5,5,0,0,1,3.81,6.23l-.66,2.44,73.21,6a5,5,0,0,1,4.21,3l12.24,27.91a5.11,5.11,0,0,1,.43,2.11l-1.52,72.33a4.86,4.86,0,0,1-1.46,3.44L322.16,649a5.14,5.14,0,0,1-3.44,1.45l-161.35,3.71h-.14a4.69,4.69,0,0,1-1.92-.4l-41.7-17.24a5.18,5.18,0,0,1-3.08-3.91l-8.27-58a5.11,5.11,0,0,1,.46-2.91l30.48-62.79a5.12,5.12,0,0,1,4.37-2.81l98-2.95,5.6-7.38a5,5,0,0,1,4-2Z"/><polygon class="cls-1" points="106.79 575.25 137.28 512.47 237.73 509.45 244.75 500.15 259.05 503.17 256.8 511.47 336.03 517.96 348.28 545.86 346.79 618.18 318.16 646.81 156.8 650.52 115.07 633.24 106.79 575.25"/><path class="cls-2" d="M273,476.38a7.24,7.24,0,0,1,.87.77l6.75,8.13a4.61,4.61,0,0,1,1,3.36,4.54,4.54,0,0,1-1.7,3.06L274,496.35a4.53,4.53,0,0,1-5.39.14,4.37,4.37,0,0,1-.85-.76l-8-9.29a4.52,4.52,0,0,1-1-3.84,4.42,4.42,0,0,1,2.44-3.14l7.11-3.46a4.57,4.57,0,0,1,4.59.38Z"/><polygon class="cls-1" points="269.19 480.3 276.7 489.31 270.17 494.48 261.32 484.15 269.19 480.3"/><path class="cls-2" d="M290.39,466.41a4.11,4.11,0,0,1,.95.91l5.86,7.54a4.47,4.47,0,0,1,.89,3.53,4.38,4.38,0,0,1-2,3l-4.74,3a4.46,4.46,0,0,1-5-.09,5.1,5.1,0,0,1-.91-.83l-6.24-7.65a4.55,4.55,0,0,1-.94-3.69,4.5,4.5,0,0,1,2.21-3.09l5.15-2.91a4.47,4.47,0,0,1,4.81.22Z"/><polygon class="cls-1" points="286.58 470.41 293.12 478.79 287.86 482.14 280.88 473.65 286.58 470.41"/><path class="cls-6" d="M134.77,574.82a55.73,55.73,0,0,1-6.36,1.52l-.52-2.19,1.36-.23V564.7l-.32.25-1.27-1.68a12.85,12.85,0,0,0,4.12-4.54h2.72a10,10,0,0,0,3.42,3.13l-1.33,1.74a8.64,8.64,0,0,1-1.75-1.25,9.39,9.39,0,0,1-1.53-1.69,12,12,0,0,1-2.75,3h1.79v-1.14h2v1.14h2.43v7h-1.07c.45,1,.91,2.13,1.4,3.44a11.2,11.2,0,0,0,1.51-2.12,13,13,0,0,0,1-2.45,12.74,12.74,0,0,0,.49-2.32,25.36,25.36,0,0,0,.11-2.54v-.28a14.09,14.09,0,0,1-1.52,2.83l-1.84-1a24.8,24.8,0,0,0,2.45-7.52l2.59.18a16.08,16.08,0,0,1-.49,2.14h5.21l.42.42a31.5,31.5,0,0,1-.84,3.15,14.39,14.39,0,0,1-.94,2.45l-2-.46a16.91,16.91,0,0,0,.93-3.62h-3.34l-.26.68h2.25l0,2.28a10.12,10.12,0,0,0,.34,2,11.22,11.22,0,0,0,1.52,3.34,14.18,14.18,0,0,0,2.65,3.16l-1.8,1.86a14.92,14.92,0,0,1-3.72-5.19,12.11,12.11,0,0,1-1.56,3,10.18,10.18,0,0,1-2.18,2.31l-1.5-1.37-1.52.49C134.93,575.33,134.86,575.11,134.77,574.82Zm-3-8.36h2.48v-1.2H131.8Zm2.48,1.32H131.8V569h2.48Zm-2.48,5.69c1-.19,1.73-.35,2.3-.5-.24-.61-.5-1.21-.77-1.77l1.81-.54H131.8Z"/><path class="cls-6" d="M167.62,568.37l-.82,2.55-2.23-.83a10.4,10.4,0,0,1-5.27,6.6l-1.67-1.77a11.9,11.9,0,0,0,2.89-2.68,8.31,8.31,0,0,0,1.36-3.07,26.09,26.09,0,0,0-4.27-1q-3.09,7.09-6.53,7.1a2.69,2.69,0,0,1-2.11-.93,3.35,3.35,0,0,1-.82-2.29,6.13,6.13,0,0,1,2-4.38,7.07,7.07,0,0,1,5.22-2h.16a23.61,23.61,0,0,0,.65-3.36h-5.77V560h8.46l.39.42a25.57,25.57,0,0,1-.9,5.48,31.57,31.57,0,0,1,3.83.81c0-.47.05-1.17.05-2.09,0-.35,0-.74,0-1.16h2.86v1.66c0,.92,0,1.73-.09,2.42Zm-12.9-.34a4,4,0,0,0-2.26.86,4.24,4.24,0,0,0-1.32,1.66,4,4,0,0,0-.37,1.48c0,.41.12.61.37.61C152.23,572.64,153.43,571.11,154.72,568Z"/><path class="cls-6" d="M183.25,566.76h-10.9v-1.11a21,21,0,0,1-3.3,1.71l-1.28-2.08a22.79,22.79,0,0,0,4.8-2.83,13.74,13.74,0,0,0,3.7-3.69h2.66a20.64,20.64,0,0,0,8.74,6.21l-1.43,2.29a19.41,19.41,0,0,1-3-1.5Zm-.41,8.64q-4.67.51-13.18.94l-.42-2.4,2.56-.09a36.12,36.12,0,0,0,1.93-3.25H169v-2.34h17.45v2.34h-4a35.26,35.26,0,0,1,4.08,4.82l-2.93,1.1A10,10,0,0,0,182.84,575.4Zm-8.78-10.9h7.28a19.64,19.64,0,0,1-3.64-3.34A19.21,19.21,0,0,1,174.06,564.5Zm1,9.21c2.58-.14,4.64-.28,6.16-.42-.64-.79-1.21-1.45-1.71-2l1.3-.7H176.9C176.33,571.66,175.71,572.7,175,573.71Z"/><path class="cls-6" d="M197.3,576.24l-.73-2.45a12.84,12.84,0,0,0,5.86-1.78,4.62,4.62,0,0,0,2-4.06,4.74,4.74,0,0,0-1.42-3.61,6.28,6.28,0,0,0-3.91-1.6A20.13,20.13,0,0,1,197,571.6c-1.23,2.26-2.78,3.4-4.66,3.4a3.42,3.42,0,0,1-2.95-1.72,7,7,0,0,1-1.13-3.92v-.24a8.06,8.06,0,0,1,2.73-6,10.38,10.38,0,0,1,6.9-2.79h.4a10.29,10.29,0,0,1,6.53,2,6.56,6.56,0,0,1,2.56,5.46,7.28,7.28,0,0,1-2.58,5.92C203.1,575.14,200.59,576,197.3,576.24Zm-1-13.22a7,7,0,0,0-3.75,2.31,5.84,5.84,0,0,0-1.55,3.94,5.46,5.46,0,0,0,.38,2.05c.26.63.61.94,1.07.94.92,0,1.76-.89,2.51-2.67A19.57,19.57,0,0,0,196.31,563Z"/><path class="cls-6" d="M214.3,576.46h-2.57V573.6h-3.34v-1.93h3.34V570.5H209v-7.42h2.73v-1.14h-3.11v-1.82h3.11v-1.36h2.53v1.36h3.2v1.82h-3.2v1.14H217v1a16.28,16.28,0,0,0,2.26-2.55,11.12,11.12,0,0,0,1.54-2.91h2.69a9,9,0,0,0,.91,1.57c.43.62.85,1.19,1.27,1.7A18.84,18.84,0,0,0,228,564.1l-1.63,1.78-.46-.38v1.12h-2.17V569h3.68v2.18h-3.68v5.12h-2.77v-5.12h-3.38V569h3.38v-2.38h-2.19v-1.14l-.73.62-1-1.28v5.68H214.3v1.17h3.1v1.93h-3.1Zm.32-10.4v-1.28H211.4v1.28Zm0,2.64v-1.32H211.4v1.32Zm5.2-4.2h5a14.41,14.41,0,0,1-2.5-3.42A11.58,11.58,0,0,1,219.82,564.5Z"/><path class="cls-6" d="M246.41,573.28h-7.1v1.36a1.57,1.57,0,0,1-.74,1.34,3,3,0,0,1-1.81.52h-3l-.23-2.1h2.32a.72.72,0,0,0,.45-.17.52.52,0,0,0,.2-.39v-.56h-7.05v-1.61h7.05v-1h-7.92v-1.76h7.92v-.86H229.6v-1.56h6.87v-.9H230.1V562h6.37v-.9h-7.69v-1.72h7.69v-.9h2.84v.9h8.12v1.72h-8.12v.9h6.5v3.66h-6.5v.9h7.1v2.42h1.22v1.76h-1.22Zm-9.94-10h-3.89v1.08h3.89Zm6.82,1.08v-1.08h-4v1.08Zm.45,4.58v-.86h-4.43v.86Zm-4.43,2.73h4.43v-1h-4.43Z"/><path class="cls-6" d="M253.53,559.82a29,29,0,0,0-1.21,7.53,30.56,30.56,0,0,0,1.13,8.21l-2.76.56a32.36,32.36,0,0,1-1.07-8.08,35.35,35.35,0,0,1,1.14-8.6Zm14.58,13.36-1.59,2.24a18,18,0,0,0-2.84-2.19,2.88,2.88,0,0,1-1,2.19,5.71,5.71,0,0,1-3.47.76,5.25,5.25,0,0,1-3.1-.89,2.79,2.79,0,0,1-1.25-2.39,3,3,0,0,1,1.26-2.47,4.9,4.9,0,0,1,3-.95c.51,0,1.11,0,1.81.11v-4.36h-6.37v-2.42h6.37v-3.55h2.81v3.55h3.66v2.42H263.7v5.2A19,19,0,0,1,268.11,573.18Zm-7.22-.56v-.68a5,5,0,0,0-1.81-.3,2.13,2.13,0,0,0-1.15.31,1,1,0,0,0-.5.83.86.86,0,0,0,.52.79,2.4,2.4,0,0,0,1.22.29C260.32,573.86,260.89,573.45,260.89,572.62Z"/><path class="cls-6" d="M131.84,600.75a15.41,15.41,0,0,1-2.91,2.69l-1.33-1.71a13,13,0,0,0,1.86-1.73,16.93,16.93,0,0,0,1.78-2.32h-2.83V595.6h3.43v-1.16h-3.65v-2.08H130l-.47-1.82h-1.06v-2.1h3.42V586.7h2.59v1.74h3.28v2.1h-1l-.61,1.82h1.67v2.08h-3.44v1.16h3v2.08h-2.63a14.58,14.58,0,0,0,2.59,2.08l-1.23,2.06a17.86,17.86,0,0,1-1.73-1.53v4.19h-2.62Zm.18-10.21.44,1.82h1.41l.52-1.82Zm13.19,13.71h-2.65v-9.53H141a17.07,17.07,0,0,1-2.7,9.62l-1.89-1.42a12.15,12.15,0,0,0,1.39-3.39,22.17,22.17,0,0,0,.62-5.72V588a28.92,28.92,0,0,0,7.21-1.29l1.09,2A43.12,43.12,0,0,1,141,589.9v2.64h6.06v2.18h-1.86Z"/><path class="cls-6" d="M158,596.52a14.18,14.18,0,0,1-3.22,4.5,19.14,19.14,0,0,1-5.25,3.36l-1.35-2.18a13.68,13.68,0,0,0,5.65-4.13,12.36,12.36,0,0,0,2.57-6.32v-2l-4.87,0v-2.34h7.75c0,.16,0,.34,0,.53v1.78a15.82,15.82,0,0,0,.35,3.44,11.77,11.77,0,0,0,1.33,3.22,13.44,13.44,0,0,0,2.47,3.06,21.4,21.4,0,0,0,3.66,2.67l-1.93,2.28a24.1,24.1,0,0,1-4.65-4A16.44,16.44,0,0,1,158,596.52Z"/><path class="cls-6" d="M173.66,604.44h-2.48v-6.65a17,17,0,0,1-2.21,1.59l-1.09-1.84a15.38,15.38,0,0,0,3.21-2.77,12.24,12.24,0,0,0,2.12-3.31h-4.45V589.3h2.46v-2.48h2.49v2.48H176l.52.54a15.61,15.61,0,0,1-2.63,5.07,32.77,32.77,0,0,0,3.13,2.43l-1.24,2.1a27.59,27.59,0,0,1-2.15-1.81Zm13.75-.58H175.25v-2.38h4.81v-7.42h-3.85v-2.3h3.85V586.9h2.8v4.86h4v2.3h-4v7.42h4.55Z"/><path class="cls-6" d="M195.93,602.17q-1.78,1.23-6.72,2.27l-.77-2.12a21.28,21.28,0,0,0,5-1.38h-3.39v-8.56h15.6v8.56h-3.43a37.79,37.79,0,0,0,5,1.21l-1.08,2.23a23.14,23.14,0,0,1-6.57-2.12l.83-1.32h-5.33Zm9-10.65H190.67v-4.24h14.25Zm-2,3.36v-1H192.76v1Zm-10.11,2.32h10.11v-1.08H192.76Zm10.11,1.24H192.76v1h10.11Zm-.43-8.37v-1.26h-9.28v1.26Z"/><path class="cls-6" d="M217.4,604.24l-.72-2.45a12.93,12.93,0,0,0,5.86-1.78,4.64,4.64,0,0,0,2-4.06,4.77,4.77,0,0,0-1.41-3.61,6.34,6.34,0,0,0-3.92-1.6,20,20,0,0,1-2.06,8.86c-1.23,2.26-2.78,3.4-4.65,3.4a3.42,3.42,0,0,1-3-1.72,7,7,0,0,1-1.13-3.92v-.24a8,8,0,0,1,2.74-6,10.35,10.35,0,0,1,6.89-2.79h.4a10.34,10.34,0,0,1,6.54,2,6.58,6.58,0,0,1,2.55,5.46,7.3,7.3,0,0,1-2.57,5.92Q222.34,603.85,217.4,604.24Zm-1-13.22a7,7,0,0,0-3.75,2.31,5.88,5.88,0,0,0-1.55,3.94,5.46,5.46,0,0,0,.38,2.05c.26.63.61.94,1.07.94.93,0,1.76-.89,2.52-2.67A19.83,19.83,0,0,0,216.41,591Z"/><path class="cls-6" d="M233.88,604.54h-2.67v-8.41a21.59,21.59,0,0,1-1.45,1.93l-1.67-1.4a34.82,34.82,0,0,0,4.87-10l2.71.48a24.93,24.93,0,0,1-2.19,5.22h.4Zm13.13-.48H234.84V601.7h4.59v-7.1h-5v-2.28h5v-5.4h2.85v5.4h5.24v2.28h-5.24v7.1H247Z"/><path class="cls-6" d="M266.51,601.28h-7.1v1.36a1.56,1.56,0,0,1-.73,1.34,3.08,3.08,0,0,1-1.82.52h-3l-.23-2.1h2.32a.72.72,0,0,0,.45-.17.49.49,0,0,0,.2-.39v-.56h-7v-1.61h7v-1h-7.92v-1.76h7.92v-.86H249.7v-1.56h6.87v-.9H250.2V590h6.37v-.9h-7.69v-1.72h7.69v-.9h2.84v.9h8.12v1.72h-8.12v.9h6.5v3.66h-6.5v.9h7.1v2.42h1.22v1.76h-1.22Zm-9.94-10h-3.89v1.08h3.89Zm6.83,1.08v-1.08h-4v1.08Zm.44,4.58v-.86h-4.43v.86Zm-4.43,2.73h4.43v-1h-4.43Z"/><path class="cls-6" d="M276,586.9c0,.24,0,.66,0,1.25s0,.88,0,1.3h6.49v2.34h-6.75a28,28,0,0,1-1.63,7,21.66,21.66,0,0,1-3,5.85l-2.28-1.34a21.35,21.35,0,0,0,2.64-5.31,29.47,29.47,0,0,0,1.49-6.2h-3.44v-2.34h3.6c.06-1.05.08-1.9.08-2.55Zm11.16,16.8a30.87,30.87,0,0,1-4.65.32,24.59,24.59,0,0,1-3.55-.23,4.3,4.3,0,0,1-2.4-1.06,2.62,2.62,0,0,1-.87-2,4.53,4.53,0,0,1,1.61-3.11l2.09,1a3.45,3.45,0,0,0-1,1.89.64.64,0,0,0,.36.57,4,4,0,0,0,1.42.34,21.92,21.92,0,0,0,2.43.12,25.71,25.71,0,0,0,4.4-.38Zm-.52-10.86-.14,2.32q-.56,0-1.17,0-3.31,0-8.24.45l-.18-2.32a74.47,74.47,0,0,1,8.18-.45C285.67,592.81,286.18,592.82,286.59,592.84Zm-2-3.23-1.45.53a32.56,32.56,0,0,0-1.33-3l1.39-.54A28.86,28.86,0,0,1,284.58,589.61Zm2.79-.51-1.41.52c-.46-1.14-.9-2.14-1.34-3l1.34-.5C286.5,587.14,287,588.14,287.37,589.1Z"/><path class="cls-6" d="M293,604l.2-2.42a16.94,16.94,0,0,0,3.46.42,11.22,11.22,0,0,0,5.33-.93,2.81,2.81,0,0,0,1.61-2.49q0-2.88-4-2.88a10.19,10.19,0,0,0-3.76.77,23.23,23.23,0,0,0-4.9,3l-1.69-2q2.11-1.47,10.09-7.3h-7.79V587.8h11.79l1.13,1.6c-.74.61-2.75,2-6,4.3a10,10,0,0,1,2-.15,7.63,7.63,0,0,1,3.37.65,5,5,0,0,1,2,1.74,4.58,4.58,0,0,1,.71,2.58,5,5,0,0,1-2.31,4.29c-1.54,1.09-3.95,1.63-7.25,1.63A22.32,22.32,0,0,1,293,604Z"/><path class="cls-6" d="M313.48,604.34l-.5-2.44a17.64,17.64,0,0,0,7.5-1.62,4.33,4.33,0,0,0,2.59-3.94,2,2,0,0,0-.82-1.72,3.59,3.59,0,0,0-2.2-.61c-.63,0-1.31,0-2.05.1s-1.38.14-1.94.22-2.37.4-5.41.95l-.24-2.52,4.09-.62c1.19-.19,2.25-.31,3.18-.39s1.74-.11,2.45-.11a6.91,6.91,0,0,1,4.3,1.21,4.14,4.14,0,0,1,1.58,3.49,6.43,6.43,0,0,1-3.29,5.76Q319.45,604.13,313.48,604.34Zm10.61-15.91-.61,2.49a35.45,35.45,0,0,0-5.08-.7c-2.19-.17-4-.26-5.57-.26-.39,0-.75,0-1.09,0l0-2.44c2.06,0,4,.06,5.8.18S321.54,588.08,324.09,588.43Z"/><path class="cls-6" d="M570.54,111.71h-2.67v-8.28c-.37.58-.83,1.23-1.37,1.94l-1.71-1.52a26.72,26.72,0,0,0,2.43-4.16,26.42,26.42,0,0,0,2.09-5.77l2.71.46a24,24,0,0,1-1.86,5.12h.38v7.44a21.44,21.44,0,0,0,2.82-3.43,22.83,22.83,0,0,0,2.08-3.57h-4.27v-2.2h4.92V93.92h2.75v3.82h5.37v2.2h-4.94a20.75,20.75,0,0,0,2.32,3.72,19.54,19.54,0,0,0,3.1,3.3L583,109a25.5,25.5,0,0,1-1.92-2v1.21h-2.24v3.24h-2.62v-3.24H573.8V107A17.07,17.07,0,0,1,572,108.9l-1.47-1.51Zm4-5.61h1.62v-2.35C575.65,104.57,575.11,105.36,574.55,106.1Zm4.24,0h1.48a17,17,0,0,1-1.48-2.2Z"/><path class="cls-6" d="M589.24,98.93c.41-.53.81-1.1,1.21-1.69h-5.1v-2h8V93.81h2.78v1.47h8.17v2h-3.46a33.48,33.48,0,0,1,3.09,2.9l-2.41,1.23c-.28-.33-.58-.67-.9-1q-4.33.39-14.2.71l-.3-2.14h.94Zm10.31,9.1h-9.39v3.57h-2.74v-9.89h14.86v7.75a1.8,1.8,0,0,1-.61,1.45,2.37,2.37,0,0,1-1.6.53h-3l-.23-2.25h2.09c.41,0,.62-.18.62-.53Zm0-3.82v-1h-9.39v1Zm-9.39,2.42h9.39v-1h-9.39Zm3.36-9.39c-.37.53-.78,1.07-1.25,1.63,2.83-.06,5-.14,6.61-.22-.44-.4-.83-.72-1.16-1l.61-.44Z"/><path class="cls-6" d="M620.43,101.94H609.54v-1.12a19.43,19.43,0,0,1-3.3,1.71L605,100.45a22.16,22.16,0,0,0,4.81-2.83,13.67,13.67,0,0,0,3.69-3.68h2.66a20.66,20.66,0,0,0,8.75,6.2l-1.43,2.3a21.07,21.07,0,0,1-3-1.51Zm-.4,8.63q-4.66.53-13.18,1l-.42-2.4L609,109a37.57,37.57,0,0,0,1.93-3.25h-4.74v-2.35h17.45v2.35h-4a34.1,34.1,0,0,1,4.08,4.82l-2.93,1.09A11,11,0,0,0,620,110.57Zm-8.79-10.9h7.29a19,19,0,0,1-3.64-3.34A19,19,0,0,1,611.24,99.67Zm1,9.21c2.58-.14,4.64-.28,6.16-.42-.64-.78-1.21-1.44-1.72-2l1.31-.7h-3.89C613.52,106.84,612.89,107.87,612.23,108.88Z"/><path class="cls-6" d="M633.16,106.79a18.55,18.55,0,0,1-3.14,2.55,20.26,20.26,0,0,1-3.43,1.91l-1.42-2.08a23.76,23.76,0,0,0,3.51-2,22,22,0,0,0,2.26-2Zm3.31,4.86h-3V105q-5.4.3-7.5.33l-.34-2.46h.45c1.06,0,2.73,0,5-.11a46,46,0,0,0-4.05-3.44l1.78-1.7a16.87,16.87,0,0,1,1.52,1.13c.54-.54,1-1.07,1.5-1.61-2.17.13-3.82.19-5,.19L626.55,95q5.51-.06,9.45-.42a36.25,36.25,0,0,0,5.56-.82l1.33,2.12a54.67,54.67,0,0,1-7.58,1,33,33,0,0,1-3.13,3.36l1.58,1.36a34,34,0,0,0,4.92-5l2.53,1.28a39.43,39.43,0,0,1-4.93,4.6l3.66-.21c-.36-.5-.75-1-1.15-1.46l2.17-1.2a44.4,44.4,0,0,1,3.94,5l-2.41,1.24-1-1.5c-1.16.1-2.82.22-5,.36Zm8.26-2.73-1.68,2.28a23.36,23.36,0,0,1-3.48-2.19,12.83,12.83,0,0,1-2.65-2.43l1.93-1.64a21.65,21.65,0,0,0,2.79,2.31A18.93,18.93,0,0,0,644.73,108.92Z"/><path class="cls-6" d="M652.83,94.08c0,.24,0,.65,0,1.25,0,.44,0,.87,0,1.29h6.49V99h-6.75a28,28,0,0,1-1.63,7,21.38,21.38,0,0,1-3,5.85l-2.27-1.34a21.53,21.53,0,0,0,2.63-5.31A28.92,28.92,0,0,0,649.78,99h-3.44V96.62H650c0-1,.07-1.89.07-2.54ZM664,110.87a29.53,29.53,0,0,1-4.65.33,24.59,24.59,0,0,1-3.55-.23,4.37,4.37,0,0,1-2.4-1.06,2.64,2.64,0,0,1-.87-2,4.51,4.51,0,0,1,1.61-3.1l2.09,1a3.41,3.41,0,0,0-1,1.9.65.65,0,0,0,.35.57,4.11,4.11,0,0,0,1.42.33,22,22,0,0,0,2.43.12,24.74,24.74,0,0,0,4.4-.38ZM663.47,100l-.14,2.33c-.37,0-.76,0-1.16,0q-3.33,0-8.25.45l-.18-2.33a74.6,74.6,0,0,1,8.18-.45C662.55,100,663.07,100,663.47,100Zm-2-3.23-1.44.54c-.55-1.34-1-2.34-1.34-3l1.4-.54A31,31,0,0,1,661.46,96.78Zm2.8-.51-1.42.52c-.45-1.13-.9-2.13-1.34-3l1.34-.5C663.38,94.32,663.85,95.31,664.26,96.27Z"/><path class="cls-6" d="M673,96.45c0,.41,0,.9-.05,1.48h2.72a3.56,3.56,0,0,1,2.71,1.1,3.94,3.94,0,0,1,1,2.82,20.2,20.2,0,0,1-1,7q-1,2.67-3.42,2.67a9,9,0,0,1-4-1.46l.9-2.36a11.05,11.05,0,0,0,1.66.72,5.48,5.48,0,0,0,1.14.3.84.84,0,0,0,.66-.29,3.3,3.3,0,0,0,.59-1.18,10.66,10.66,0,0,0,.45-2,18.65,18.65,0,0,0,.16-2.63,5.34,5.34,0,0,0-.13-1.39,1.13,1.13,0,0,0-.42-.6,1.28,1.28,0,0,0-.75-.21h-2.45a20.27,20.27,0,0,1-5.17,11.44l-2.13-1.57a20.16,20.16,0,0,0,2.54-3.86,19.12,19.12,0,0,0,1.77-6h-3.55V97.93h3.91V94.17H673Zm12.22,8.14-2.81.73a32.19,32.19,0,0,0-1.38-4,21.67,21.67,0,0,0-1.4-2.51,14.56,14.56,0,0,0-1.41-1.92l2.25-1.4a21,21,0,0,1,3,4.38A17.41,17.41,0,0,1,685.18,104.59Z"/><path class="cls-6" d="M690.67,111.65l-.4-2.48a29.51,29.51,0,0,0,7.79-.78c1.79-.53,2.68-1.38,2.68-2.58a2.33,2.33,0,0,0-1-2,4.33,4.33,0,0,0-2.62-.7,10.3,10.3,0,0,0-4.4,1,9.58,9.58,0,0,0-3.53,2.65l-2.15-1.26a23.33,23.33,0,0,0,1.67-8.28l2.89.17a21.39,21.39,0,0,1-.86,5.15,11.29,11.29,0,0,1,3-1.26,12.76,12.76,0,0,1,3.33-.5,7.87,7.87,0,0,1,4.8,1.29,4.36,4.36,0,0,1,1.73,3.73,4.51,4.51,0,0,1-1.12,3.1,7,7,0,0,1-3.48,1.92A39.86,39.86,0,0,1,690.67,111.65Zm11.62-15.28L701,98.85a26.15,26.15,0,0,0-5.2-1.45,53.1,53.1,0,0,0-5.26-.78l.76-2.35A57.69,57.69,0,0,1,702.29,96.37Z"/><path class="cls-6" d="M568.11,124.6c-.36-.7-.68-1.28-1-1.74l2.4-.82A18.57,18.57,0,0,1,571,124.6h2.56c-.37-.94-.67-1.66-.91-2.18l2.38-.67a30.13,30.13,0,0,1,1.23,2.85h2.17a20.25,20.25,0,0,0,1.38-2.66l2.63.61c-.37.67-.77,1.35-1.19,2h2.3v4H581.3v-2H568v2h-2.25v-4Zm11.74,14.31H569.41v.59h-2.65v-6.09h5.94l.43-1h-4.54v-4.79h12.12v4.79h-4.83l-.56,1h7.26v6.13h-2.73ZM569.41,137h10.44V135.3H569.41Zm8.85-6.32v-1.39H571v1.39Z"/><path class="cls-6" d="M593.4,136.28a22.55,22.55,0,0,1-7.67,3l-.71-1.95a24.36,24.36,0,0,0,6-2.17h-5.38v-1.85h7.72v-.92h-6.69v-1.74h6.69v-.92h-7V127.9h3.67l-.44-1.13h-3.69V124.9h2.22l-1-2.27,2.34-.57,1.26,2.84h.89v-3.11H594v3.11h1.49v-3.11h2.35v3.11h1l1.24-2.86,2.46.57-1.21,2.29h2.37v1.87H600l-.68,1.13h4v1.86h-7.25v.92h6.75v1.74h-6.75v.92h7.82v1.85h-5.35a25.85,25.85,0,0,0,6,2l-1,2.18a21.32,21.32,0,0,1-7.48-3.21v3.5H593.4Zm-1.24-9.51.46,1.13h4.1l.59-1.13Z"/><path class="cls-6" d="M612.37,124.45c0,.42,0,.92,0,1.5h2.53a3.49,3.49,0,0,1,2.69,1.09,3.94,3.94,0,0,1,1,2.8,20.36,20.36,0,0,1-1,6.95c-.67,1.79-1.79,2.68-3.38,2.68a5.18,5.18,0,0,1-1.44-.23,13.44,13.44,0,0,1-2.5-1.23l.91-2.32a6.68,6.68,0,0,0,2.68,1,.86.86,0,0,0,.65-.28,3.41,3.41,0,0,0,.59-1.21,10.17,10.17,0,0,0,.46-2.07,19.94,19.94,0,0,0,.15-2.58,4.84,4.84,0,0,0-.13-1.38,1,1,0,0,0-.42-.6,1.29,1.29,0,0,0-.74-.2h-2.27a20.19,20.19,0,0,1-5,11.3L605,138.32a17.4,17.4,0,0,0,2.4-3.88,20.12,20.12,0,0,0,1.8-6.05h-3.57V126h3.9l0-3.78h2.87Zm12.15,8.43-2.69.75a27.35,27.35,0,0,0-1.73-4.54,21.59,21.59,0,0,0-2.34-3.6L620,124.2A22.37,22.37,0,0,1,624.52,132.88Zm-2.31-8.26-1.42.53c-.55-1.34-1-2.34-1.34-3l1.36-.53C621.38,122.72,621.85,123.72,622.21,124.62Zm2.69-.22-1.37.52q-.64-1.61-1.35-3l1.3-.5C624,122.44,624.49,123.44,624.9,124.4Z"/><path class="cls-6" d="M643.73,137.42a1.66,1.66,0,0,1-.71,1.36,2.72,2.72,0,0,1-1.72.55h-2.67l-.32-2.39h2.11c.39,0,.59-.18.59-.53v-9.6H629.1V139.5h-2.78V124.67h6.08c.34-1,.62-1.89.84-2.77l2.9.48c-.37.94-.68,1.71-.95,2.29h8.54Zm-10.66-1.6v.86h-2.55v-8.12h9v7.26Zm0-2.16h3.87v-3h-3.87Z"/><path class="cls-6" d="M656.2,132.92a28.46,28.46,0,0,1-1.28,3,11.71,11.71,0,0,1-1.52,2.47,2.19,2.19,0,0,1-1.72.79c-1.41,0-2.62-.86-3.64-2.6a11.66,11.66,0,0,1-1.52-6c0-.73.07-1.83.22-3.27s.2-2.54.2-3.26h3c0,.66-.12,1.73-.3,3.23a28.31,28.31,0,0,0-.25,3.24,9.57,9.57,0,0,0,.76,4c.5,1.13.93,1.7,1.29,1.7s1.31-1.49,2.41-4.47Zm8.1,3.61-3,.18a18.51,18.51,0,0,0-1.06-6.09,16.72,16.72,0,0,0-2.88-5.26l2.37-1.18A17.73,17.73,0,0,1,664.3,136.53Z"/><path class="cls-6" d="M682,136.81l-.13,2.64-1.43,0a12.9,12.9,0,0,1-5.64-1,6.9,6.9,0,0,1-2.9-2.44,6.16,6.16,0,0,1-.87-3.26c0-2.38,1.18-4.58,3.54-6.58l-8.72.09v-2.5h17.5v2.51h-4.51a9.66,9.66,0,0,0-3.5,2.75,5.74,5.74,0,0,0-1.38,3.61q0,4.22,6.45,4.22Q681.18,136.87,682,136.81Z"/><path class="cls-6" d="M696.4,132.92a26.53,26.53,0,0,1-1.28,3,11.71,11.71,0,0,1-1.52,2.47,2.17,2.17,0,0,1-1.71.79c-1.42,0-2.63-.86-3.65-2.6a11.66,11.66,0,0,1-1.52-6c0-.73.08-1.83.22-3.27s.21-2.54.21-3.26h3c0,.66-.12,1.73-.3,3.23a28.31,28.31,0,0,0-.25,3.24,9.57,9.57,0,0,0,.76,4c.51,1.13.94,1.7,1.29,1.7q.76,0,2.42-4.47Zm8.1,3.61-3,.18a18.51,18.51,0,0,0-1.06-6.09,16.33,16.33,0,0,0-2.88-5.26l2.37-1.18A17.73,17.73,0,0,1,704.5,136.53Z"/><path class="cls-6" d="M718.31,136.72c1.6-.62,2.39-1.62,2.39-3a2.64,2.64,0,0,0-1.18-2.29,5,5,0,0,0-3-.84h-.24a7.94,7.94,0,0,0-1.84.26,12,12,0,0,0-2,.69,12.22,12.22,0,0,0-1.56.84c-.42.28-1.4,1-2.94,2.12l-1.57-2q8-5.46,10.26-7.17h-8.3v-2.29h11.85l1.42,1.51q-2.11,1.4-6.29,4.25a8.65,8.65,0,0,1,2-.31,7.08,7.08,0,0,1,4.53,1.31,4.58,4.58,0,0,1,1.64,3.78,5,5,0,0,1-2.32,4.41,10.93,10.93,0,0,1-6.11,1.54,8.23,8.23,0,0,1-4-.82,2.62,2.62,0,0,1-1.47-2.41,2.57,2.57,0,0,1,1.25-2.15,4.72,4.72,0,0,1,2.74-.87A4.4,4.4,0,0,1,718.31,136.72Zm-2.53.65c-.43-1.33-1.2-2-2.33-2a1.45,1.45,0,0,0-.87.27.8.8,0,0,0-.39.69c0,.72.85,1.08,2.54,1.08C715.1,137.42,715.45,137.4,715.78,137.37Z"/><path class="cls-6" d="M742.22,136.81l-.14,2.64-1.42,0a12.92,12.92,0,0,1-5.65-1,6.93,6.93,0,0,1-2.89-2.44,6.16,6.16,0,0,1-.87-3.26c0-2.38,1.18-4.58,3.54-6.58l-8.73.09v-2.5h17.5v2.51h-4.5a9.78,9.78,0,0,0-3.51,2.75,5.78,5.78,0,0,0-1.37,3.61q0,4.22,6.45,4.22Q741.38,136.87,742.22,136.81Zm-.87-6.47-1.46.53c-.27-.67-.71-1.67-1.32-3l1.39-.55A33,33,0,0,1,741.35,130.34Zm2.79-.57-1.41.52q-.69-1.69-1.35-3l1.35-.5C743.27,127.82,743.74,128.81,744.14,129.77Z"/><path class="cls-6" d="M764.44,131.16a13.15,13.15,0,0,1-3.53,6.42,8.49,8.49,0,0,1-5.8,2,8.31,8.31,0,0,1-2.68-.4,5,5,0,0,1-3-2.54,5.43,5.43,0,0,1-.51-1.69,23.4,23.4,0,0,1-.11-2.77c0-1.36.14-4.57.42-9.61h2.93q-.4,6.75-.4,9.39a20.18,20.18,0,0,0,.11,2.72,2.79,2.79,0,0,0,.51,1.11,2.43,2.43,0,0,0,1.13.82,5.09,5.09,0,0,0,1.81.29,5.36,5.36,0,0,0,4-1.61,11.34,11.34,0,0,0,2.52-5.1Z"/><path class="cls-6" d="M782.93,137.17l-1.44,2a22.59,22.59,0,0,0-4.88-3.1,3.69,3.69,0,0,1-.87,2.72,4.1,4.1,0,0,1-2.9.84,6.73,6.73,0,0,1-3.58-.81,2.62,2.62,0,0,1-1.31-2.37,2.76,2.76,0,0,1,1.42-2.44,6.46,6.46,0,0,1,3.47-.89,11.66,11.66,0,0,1,1.31.08v-8.67h2.51v3.13h5.63v2h-5.63v4.07A21.69,21.69,0,0,1,782.93,137.17Zm-8.74-1.92a7.2,7.2,0,0,0-1.35-.14,4.6,4.6,0,0,0-1.81.33c-.51.21-.77.51-.77.9a1,1,0,0,0,.65.89,3.7,3.7,0,0,0,1.57.3,2.11,2.11,0,0,0,1.38-.31,1.19,1.19,0,0,0,.33-.91Z"/><path class="cls-6" d="M730,379.12l-15.85-8.95,1.23-2.18,6.31,3.56,6.93-12.26,2.57,1.45-2.34,4.15,5.68,3.21-1.2,2.12L727.6,367l-3.39,6,7,3.93Z"/><path class="cls-6" d="M743.49,383.63l-6.85-3.86-.49.86-2.26-1.27,3.88-6.86,9.1,5.14Zm5-6.55-11-6.2,1-1.79,11,6.21Zm-6.24,3.47,1.38-2.44-4.53-2.55L737.69,378Zm4.9,6.47a1.94,1.94,0,0,1-1.38,1,2.47,2.47,0,0,1-1.72-.3l-2.7-1.52.81-2.44,2.29,1.3a.53.53,0,0,0,.81-.22L751,374.71l-12.3-6.94,1.08-1.92,14.67,8.28Z"/><path class="cls-6" d="M760.85,378.21a28.8,28.8,0,0,0-4.75,6,30.64,30.64,0,0,0-3.06,7.71l-2.67-.87a31.2,31.2,0,0,1,3-7.57,34.8,34.8,0,0,1,5.23-6.92ZM767,397l-2.48,1.16a18.82,18.82,0,0,0-1.39-3.3,2.94,2.94,0,0,1-2,1.41,5.78,5.78,0,0,1-3.4-1.06,5.22,5.22,0,0,1-2.25-2.29,2.76,2.76,0,0,1,.08-2.7,3,3,0,0,1,2.32-1.53,4.86,4.86,0,0,1,3.07.65,15.91,15.91,0,0,1,1.52,1l2.15-3.8-5.55-3.13,1.2-2.11,5.54,3.13,1.74-3.09,2.45,1.38-1.74,3.09,3.19,1.8-1.2,2.11-3.18-1.8-2.56,4.53A19.12,19.12,0,0,1,767,397Zm-6-4,.33-.6a5,5,0,0,0-1.43-1.15,2.1,2.1,0,0,0-1.15-.29,1,1,0,0,0-.85.47.91.91,0,0,0,.06.95,2.53,2.53,0,0,0,.92.85C759.85,393.77,760.56,393.7,761,393Z"/><path class="cls-6" d="M772.92,403l-3.46-2-.4.72-2.27-1.28,3.8-6.73,8,4.54-3.8,6.73-2.3-1.31Zm7-5.1-9.61-5.43,1.08-1.92,2,1.14.66-2.54-1.12-.64,1.07-1.89,3.56,2,.91-1.62,2.37,1.34-.91,1.62,3.28,1.84-1.07,1.9-.9-.51-2,1.81,1.72,1Zm-9.43,1.33,3.46,2,1.32-2.34-3.46-2ZM775.7,393l1.36.77,1.85-1.87-2.53-1.43Zm14.86,2.13a17.41,17.41,0,0,1-1.9,1.83c-1,.91-1.8,1.53-2.27,1.87a8,8,0,0,1-.88,4.78,5.73,5.73,0,0,1-1,1.4,2.88,2.88,0,0,1-1.17.7,2.37,2.37,0,0,1-1.24,0,7,7,0,0,1-1.72-.77l-.15-.08.7-2.29.45.25a4.31,4.31,0,0,0,.76.38,1,1,0,0,0,.34-.05,1.21,1.21,0,0,0,.44-.34,3.76,3.76,0,0,0,.49-.71,6.21,6.21,0,0,0,.68-2,6.31,6.31,0,0,0,.08-2,.74.74,0,0,1,.09-.38.63.63,0,0,1,.22-.24,22.49,22.49,0,0,0,2.63-2.65l-1.41-.8-7.43,13.17L776,405.9,784.42,391l6,3.36Z"/><path class="cls-6" d="M792.32,415.07l-2.54-1.44L797,400.94l-5.88-3.32,1.16-2.06,15.61,8.81-1.16,2.06-7.19-4.06-1.14,2a29.77,29.77,0,0,0,4.3,5.95L800.27,412a37.31,37.31,0,0,1-3.42-5Z"/><path class="cls-6" d="M818.35,426.39l-2.66,1.2a26.21,26.21,0,0,0-3.2-5.89,4.22,4.22,0,0,1-2.41,2.24,4.78,4.78,0,0,1-3.4-.81,7.86,7.86,0,0,1-3.19-2.88,3.07,3.07,0,0,1,0-3.15,3.23,3.23,0,0,1,2.86-1.68,7.54,7.54,0,0,1,4,1.09,12.93,12.93,0,0,1,1.26.83l5-8.79,2.52,1.42-1.8,3.19,5.74,3.24-1.19,2.11-5.74-3.24-2.29,4.06A26.37,26.37,0,0,1,818.35,426.39Zm-7.8-6.9a8.39,8.39,0,0,0-1.29-.9,5.61,5.61,0,0,0-2-.71c-.64-.08-1.07.07-1.29.46a1.09,1.09,0,0,0,.15,1.25,4.5,4.5,0,0,0,1.41,1.2,2.52,2.52,0,0,0,1.57.48,1.38,1.38,0,0,0,.84-.7Z"/><path class="cls-6" d="M823.61,433.11l.72-2.38q4.53,1.9,6.75,1.52a5.53,5.53,0,0,0,3.75-3.09q2.67-4.76.51-6a5.31,5.31,0,0,0-2.77-.63,6.11,6.11,0,0,0-3.36,1.26,9.35,9.35,0,0,0-2.78,3.06,9.2,9.2,0,0,0-.56,1.18l-2.35-1.14a30.51,30.51,0,0,1,2.32-5,36.55,36.55,0,0,1,4.09-5.86l2.33,1.6c-.68.79-1.66,2-3,3.61a6.74,6.74,0,0,1,3.44-1.08,6.85,6.85,0,0,1,3.91.86,4.48,4.48,0,0,1,2.45,3.75,10.16,10.16,0,0,1-1.59,5.57q-2.25,4-5.64,4.51C829.6,435.21,826.85,434.62,823.61,433.11Z"/><path class="cls-6" d="M851.28,439.77l-5.32-3a23.26,23.26,0,0,0-1.82,2.46c-.63,1.13.13,2.3,2.3,3.53a8.47,8.47,0,0,0,3.68,1.4,1.83,1.83,0,0,0,1.63-1,10,10,0,0,0,1.17-4.69l2.41.61a11.27,11.27,0,0,1-1.16,5.56q-2.24,4-8.92.19a8.83,8.83,0,0,1-3.66-3.35,3.62,3.62,0,0,1,.11-3.69,22.2,22.2,0,0,1,1.78-2.46l-3.31-1.87,1.18-2.08,3.66,2.06c.44-.52,1-1.14,1.61-1.86l-3.82-2.15,1.15-2,4.29,2.43c.78-.85,1.47-1.55,2.06-2.12l2.39,1.59-1.89,2,7,3.94-1.15,2-7.47-4.22-1.65,1.84,5,2.8Z"/><path class="cls-6" d="M703.57,397.08l-2.12-1.19,4-7.16a8.66,8.66,0,0,1-1.67.83l-.65-1.84a25.74,25.74,0,0,0,4.27-3.07,24.45,24.45,0,0,0,3.57-3.74l2,1.45a26.15,26.15,0,0,1-4,4l.49.28Zm9-1.94a5.54,5.54,0,0,1-.76.22l5.09,2.88.49,1a9.42,9.42,0,0,1-3.63.73,33.32,33.32,0,0,0,3.71,2.65l-1.72,1.19a27.45,27.45,0,0,1-4.95-4.09,29.66,29.66,0,0,1-6.67-2.38l.4-1.7a29.64,29.64,0,0,0,4.58,1.79,9.78,9.78,0,0,1-.76-1.72,16.18,16.18,0,0,1-2.4-.26l-.17-1.69a14.64,14.64,0,0,0,5-.1,1,1,0,0,1,.06-.92l.78-1.38,1.5.85-.54,1c-.11.18-.05.34.17.47l2.16,1.21a.54.54,0,0,0,.43.08c.13,0,.34-.32.64-.85l1.17.85-.52.92a1.18,1.18,0,0,1-.76.61,2.43,2.43,0,0,1-1.5-.4c-.68-.35-1.18-.62-1.5-.8Zm-1.4-3.14a7,7,0,0,1-1.46.83,9.69,9.69,0,0,1-1.65.62l-.87-1.44a8.28,8.28,0,0,0,2-.71l-1.24-.71,1.32-2.34,1,.55,2.31-4.1,3.35,1.89.53-.43-4.25-2.4.71-1.26L724.57,389l-.71,1.26-5.19-2.93-.63.38,4.4,2.48-2.31,4.1,1.14.64-1.33,2.35-1.16-.66.65,2.06-1.76.23c-.4-1.54-.7-2.62-.91-3.23l1.66-.2.16.53.46-.82-4-2.24.24,1.1h-1.49l-.27-1.7.54,0-3.93-2.22-.49.85a2.5,2.5,0,0,0,.38-.27Zm.58,6.08a10.62,10.62,0,0,0,2.06.13l-3.26-1.85A11.24,11.24,0,0,0,711.8,398.08Zm.55-8,5.71,3.22.36-.63-5.71-3.22Zm.76-1.34,5.71,3.22.36-.64-5.71-3.22Zm6.46,1.89.33-.58-5.71-3.23-.33.58Z"/><path class="cls-6" d="M728,403.3a6.54,6.54,0,0,1-4.44,2.62,12.18,12.18,0,0,1-5.43-.64l.26-2.26c3.17,1.06,5.58.71,7.26-1l-3.29-1.85,1-1.77,11.14,6.27-1.62,1.85L735.6,408q-2.05,3.54-3.34,4a3,3,0,0,1-2.42-.23L727,410.15l.71-2.31,2.62,1.48c.46.26.83.25,1.1,0a3.86,3.86,0,0,0,.88-1.05l-2.79-1.58,1.51-1.64Zm1.86-4.49a15.92,15.92,0,0,1-3.65,0,31,31,0,0,1-4.14-.8l.13-2.08a22.75,22.75,0,0,0,5.5.79l-3.86-2.19.93-1.64,6.34,3.59.43-.76q-2.09-1.08-5-2.68l.59-1.78Q735.75,396,739,397l0,2.11a35.37,35.37,0,0,1-5.18-2.19l-.49.87,6.46,3.65-.92,1.64-4-2.27a16.11,16.11,0,0,0,1.44,1.83c.51.58,1.34,1.42,2.5,2.53l-2.09,1.16a23.51,23.51,0,0,1-4.69-6.28L731,401.93l-2.2-1.25Z"/><path class="cls-6" d="M750.13,420.18l-1.42,2.23c-.63-.34-1.05-.56-1.25-.68a12.78,12.78,0,0,1-4.42-3.65,6.91,6.91,0,0,1-1.32-3.55,6.1,6.1,0,0,1,.84-3.27q1.76-3.11,6.32-4l-7.64-4.21,1.23-2.18,15.24,8.61-1.24,2.19-3.92-2.22a9.71,9.71,0,0,0-4.41.67,5.8,5.8,0,0,0-3,2.47q-2.07,3.67,3.54,6.85C749.15,419.69,749.62,419.93,750.13,420.18Zm2.42-6.07-1.53-.25c.1-.72.21-1.81.32-3.26l1.48.21A30.58,30.58,0,0,1,752.55,414.11Zm2.71.88-1.48-.24q.24-1.81.3-3.27l1.42.22C755.46,412.86,755.38,414,755.26,415Z"/><path class="cls-6" d="M766.6,413c-.56.89-1.09,1.68-1.61,2.38l3.73,2.11-1.15,2-4-2.28a22.38,22.38,0,0,1-8.77,6.47l-1.11-2.4a19.68,19.68,0,0,0,7.44-5.45l-2.63-1.48,1.14-2,3,1.68a24.87,24.87,0,0,0,1.65-2.45Zm3.62,18.19-2.33,1.17a23.19,23.19,0,0,0-1.7-3.66,2.94,2.94,0,0,1-2.15,1.66,7.16,7.16,0,0,1-5.86-3.35,2.7,2.7,0,0,1,0-2.71,3,3,0,0,1,2.47-1.58,5.77,5.77,0,0,1,3.39.83,12.11,12.11,0,0,1,1.4.91L768,420l2.36,1.33-2.85,5.05A24.61,24.61,0,0,1,770.22,431.18Zm-5.8-4.85a8,8,0,0,0-1.38-1,3.39,3.39,0,0,0-1.52-.47,1,1,0,0,0-1,.49c-.4.72.06,1.45,1.38,2.2q1.39.78,2-.21Zm9.91-2.15-2.67.35a30,30,0,0,0-1.07-3.86,22.87,22.87,0,0,0-1.46-3.5l2.33-.77a19.75,19.75,0,0,1,1.67,3.63A28,28,0,0,1,774.33,424.18Z"/><path class="cls-6" d="M779.19,432.38a26.75,26.75,0,0,0-3.65,2.15,8.91,8.91,0,0,0-1.61,1.52L772,435a21,21,0,0,1,2.51-7.14,35.35,35.35,0,0,1,5.41-7l2.22,1.73a44.61,44.61,0,0,0-3.46,3.77,22.81,22.81,0,0,0-1.8,2.72,25.23,25.23,0,0,0-1.38,2.76l2.8-1.45Zm-1.66,6.81.17-2.57a5.79,5.79,0,0,0,6.57-3l1.48-2.62-5.53-3.13,1.17-2.07,5.44,3.07,1.91-3.39,2.5,1.42-1.91,3.38,3.35,1.89-1.17,2.08-3.27-1.85-1.53,2.71Q783.64,440.53,777.53,439.19Z"/><path class="cls-6" d="M793.36,441.38c-1.61.79-3,1.39-4,1.8l-.27-2.63a52,52,0,0,0,5.71-2.5l.74-.51,1.08-1.9-3-1.68,1.1-1.94,3,1.68,1.55-2.75,2.43,1.37L799,437.09q4.89-1.26,7.15,0a3.66,3.66,0,0,1,1.8,2.1,3.22,3.22,0,0,1-.33,2.65c-.29.5-1.1,1.7-2.45,3.59-1.09,1.53-1.87,2.65-2.33,3.38l-.1.17c-.22.38-.19.65.07.8a7.12,7.12,0,0,0,2.71.37l-.56,2.29a6.46,6.46,0,0,1-3.77-.65,2.76,2.76,0,0,1-1.45-1.73,3,3,0,0,1,.4-2.25c.12-.21,1-1.47,2.63-3.78.93-1.32,1.68-2.46,2.25-3.41l.07-.13a.88.88,0,0,0-.41-1.35,4.92,4.92,0,0,0-2.52-.3,21.66,21.66,0,0,0-4.7,1l-4.38,7.77-2.43-1.37Z"/><path class="cls-6" d="M816.62,441.86a28.62,28.62,0,0,0-4.76,6,30.32,30.32,0,0,0-3.05,7.71l-2.68-.88a31.72,31.72,0,0,1,3-7.56,34.79,34.79,0,0,1,5.22-6.93Zm6.14,18.81-2.5,1.15a18.82,18.82,0,0,0-1.4-3.3,2.9,2.9,0,0,1-2,1.4,5.75,5.75,0,0,1-3.42-1.05,5.32,5.32,0,0,1-2.25-2.29,2.78,2.78,0,0,1,.09-2.71,3,3,0,0,1,2.31-1.52,4.87,4.87,0,0,1,3.08.64,17.28,17.28,0,0,1,1.51,1l2.12-3.74-5.55-3.13L816,445l5.55,3.13,1.68-3,2.45,1.38-1.68,3,3.19,1.8L826,453.43l-3.19-1.8-2.53,4.47A18.58,18.58,0,0,1,822.76,460.67Zm-6-4.05.34-.6a5.17,5.17,0,0,0-1.42-1.16,2.16,2.16,0,0,0-1.15-.28,1,1,0,0,0-.85.48.87.87,0,0,0,.06.95,2.56,2.56,0,0,0,.91.84C815.61,457.42,816.32,457.34,816.72,456.62Zm10.09-7-1.47-.2c.12-.71.25-1.76.39-3.17l1.36.17A31,31,0,0,1,826.81,449.61Zm2.36.84-1.41-.2c.17-1.28.27-2.34.31-3.18l1.36.19C829.4,448.14,829.32,449.21,829.17,450.45Z"/><path class="cls-6" d="M832.47,468.63l-3-1.67,1.25-2.21,2.94,1.67Zm7.3-12.78-5.48,8.9-2.4-1.36,4.79-9.29Z"/><path class="cls-6" d="M38.62,347.92l-.47-2.32a6.4,6.4,0,0,0,2.7-.67,3.6,3.6,0,0,0,1.69-1.65,2.34,2.34,0,0,0-.15-2.08,2.43,2.43,0,0,0-2.07-1.38,6.29,6.29,0,0,0-3.27.88,16.59,16.59,0,0,0-2.33,1.53L37.23,347a2.11,2.11,0,0,1,0,2,4.13,4.13,0,0,1-1.79,1.68,5,5,0,0,1-3.44.54,3.58,3.58,0,0,1-2.55-1.94,4.45,4.45,0,0,1-.26-3.44,9.59,9.59,0,0,1,2.25-3.75L30.29,340,26.2,342.1l-1.07-2,4.09-2.15-1.45-2.75,2.53-1.33,1.45,2.74L36,334.36l1.07,2-4.23,2.23.81,1.53A17.79,17.79,0,0,1,36,338.69a9.73,9.73,0,0,1,5.36-1.32,4.29,4.29,0,0,1,3.59,2.41,4.85,4.85,0,0,1,.39,4.07,5.93,5.93,0,0,1-3,3.15A7.38,7.38,0,0,1,38.62,347.92Zm-6-3.59q-1.68,2.25-.91,3.72a1.44,1.44,0,0,0,1.07.76,2.13,2.13,0,0,0,1.43-.22.5.5,0,0,0,.25-.76Zm9.78-11-1.1,2.43a30.25,30.25,0,0,0-3.46-1.12,26.78,26.78,0,0,0-3.56-.81l.72-2.32a18.56,18.56,0,0,1,3.64.6A26.42,26.42,0,0,1,42.38,333.31Z"/><path class="cls-6" d="M58.58,322.21l-3.53,1.86.51,1-2.35,1.23-.5-1-4.36,2.3.49.94-2.32,1.22-.5-.94-3.6,1.89-.94-1.79,3.6-1.89-.51-1,2.33-1.22.5,1,4.37-2.3-.51-1,2.34-1.23.51,1,3.53-1.86Zm-.14,16.41L55.86,340,53,334.5l-4.49,2.35-.76-1.46c-.51.58-1,1.16-1.62,1.75l-1.88-1.43A19.69,19.69,0,0,0,48,331.18a14.19,14.19,0,0,0,1.61-3.51l2.35-1.24a12.11,12.11,0,0,0,3.4.45,25.94,25.94,0,0,0,6.25-.56l-.1,2.64c-.81.13-1.57.23-2.3.3L60,330.8l-4.44,2.34Zm-5-2.79a17.93,17.93,0,0,1-1.53,3.86,13,13,0,0,1-2,3.05l-2.2-1.08a18.32,18.32,0,0,0,1.84-2.89,13.88,13.88,0,0,0,1.24-3Zm-1.45-3.3-.87-1.65,2.58-1.35.87,1.65L58,329.34a20,20,0,0,1-6.2-.47,17.58,17.58,0,0,1-3.11,5.37Zm12.58.07-.5,2.79a26.69,26.69,0,0,1-7.3-1l1.07-2.29a24.94,24.94,0,0,0,6.73.53Z"/><path class="cls-6" d="M69.66,332.57l-2.49,1.31-3.88-7.38,2.49-1.31,2.43,4.61,3.87-2-2.88-5.47-5.58,2.94-3.2-6.08,2.42-1.28,2.21,4.19,3.16-1.66-2.75-5.22,2.48-1.3,2.74,5.22L74,317.36l-2.23-4.24,2.47-1.3L77.44,318l-5.76,3,2.88,5.47,4.25-2.24-2.47-4.69,2.49-1.31,3.93,7.47L80.27,327l-.43-.82-10.6,5.57Z"/><path class="cls-6" d="M96.7,309a13.16,13.16,0,0,1-.13,7.33,9.48,9.48,0,0,1-6.77,5.35,5.31,5.31,0,0,1-2.16-.08A4.86,4.86,0,0,1,86,320.8a5.12,5.12,0,0,1-1.24-1.26,23.32,23.32,0,0,1-1.4-2.39q-.94-1.81-4.1-8.7l2.6-1.37q2.79,6.17,4,8.5a20.21,20.21,0,0,0,1.37,2.35,2.72,2.72,0,0,0,1,.75,2.47,2.47,0,0,0,1.38.2,5,5,0,0,0,1.74-.59A5.37,5.37,0,0,0,94.06,315a11.43,11.43,0,0,0-.15-5.69Z"/><path class="cls-6" d="M98.81,298.64a28.85,28.85,0,0,0,2.44,7.23,30.34,30.34,0,0,0,4.83,6.74l-2.19,1.78a32.19,32.19,0,0,1-4.71-6.65,35.08,35.08,0,0,1-3-8.15Zm19.13,5-.37,2.72a19.11,19.11,0,0,0-3.53-.61,2.93,2.93,0,0,1,.11,2.43,5.85,5.85,0,0,1-2.73,2.28,5.26,5.26,0,0,1-3.15.66,2.78,2.78,0,0,1-2.23-1.54,3,3,0,0,1,0-2.77,4.93,4.93,0,0,1,2.21-2.24c.45-.23,1-.48,1.66-.74l-2-3.86-5.64,3-1.13-2.15,5.64-3-1.65-3.14,2.48-1.31,1.65,3.14,3.24-1.71,1.13,2.15-3.24,1.7,2.43,4.61A19.08,19.08,0,0,1,117.94,303.67Zm-6.65,2.87-.32-.6a4.92,4.92,0,0,0-1.74.57,2.09,2.09,0,0,0-.87.82.93.93,0,0,0-.06,1,.89.89,0,0,0,.83.47,2.55,2.55,0,0,0,1.21-.32C111.36,307.91,111.68,307.27,111.29,306.54Z"/><path class="cls-6" d="M128.57,288.88a11.6,11.6,0,0,1,.63,6.82,43.42,43.42,0,0,1,6-.33l-.41,2.92a63.3,63.3,0,0,0-6.64.21q-1.94,3.6-7,7.14l-1.74-1.71a23.24,23.24,0,0,0,5.53-5.14,41.9,41.9,0,0,0-4.83.82.78.78,0,0,1-1-.39.6.6,0,0,1-.07-.27c-.12-1.33-.32-2.92-.57-4.77l-3.58,1.88L113.83,294l4.31-2.27c-.28-1.77-.54-3.15-.79-4.15l2.8-1.07a38.26,38.26,0,0,1,.72,3.78l9.2-4.84,1.11,2.11ZM126.36,296a9.64,9.64,0,0,0-.38-5.75l-4.75,2.51c.21,1.67.34,3,.39,4C122.6,296.55,124.18,296.3,126.36,296Z"/><path class="cls-6" d="M133.1,283.1a26.16,26.16,0,0,1,2.29,5.82l-1.85.53a23.79,23.79,0,0,0-2.17-5.5Zm9.51,11.3-2.33,1.22L132,279.9l2.33-1.22Zm-4.09-12.24-1.06,1-2-2.44,1-.94Zm15.9,5.61-10.73,5.65-1.05-2,4.43-2.33-1.88-3.58-3.65,1.92-1-2,3.65-1.92-1.44-2.73-1.6.84a13.23,13.23,0,0,1,.12,3.06l-2.39,0a17.44,17.44,0,0,0-1.55-6.86l2.42-1.1a22.72,22.72,0,0,1,.94,2.69l1-.54L140,275.71l2.52-1.32,1.66,3.14,3.52-1.85,1,1.94-3.53,1.86,1.44,2.73,3.25-1.72,1.05,2-3.26,1.72,1.88,3.57,3.78-2Z"/><path class="cls-6" d="M154.68,270.88c.2.38.42.83.66,1.36l2.23-1.18a3.5,3.5,0,0,1,2.89-.29,3.93,3.93,0,0,1,2.2,2,20.65,20.65,0,0,1,2.36,6.61q.36,2.83-1.75,3.94a4.8,4.8,0,0,1-1.37.47,13.55,13.55,0,0,1-2.79.08l-.28-2.48a6.64,6.64,0,0,0,2.85-.34.85.85,0,0,0,.45-.56,3.63,3.63,0,0,0,0-1.34,11.09,11.09,0,0,0-.56-2.05,20.17,20.17,0,0,0-1.07-2.35,5.44,5.44,0,0,0-.76-1.17,1.16,1.16,0,0,0-.65-.33,1.36,1.36,0,0,0-.75.18l-2,1.05a20.12,20.12,0,0,1,.88,12.31l-2.6-.19a17.39,17.39,0,0,0,.32-4.55,20.26,20.26,0,0,0-1.22-6.19l-3.16,1.67-1.14-2.16,3.45-1.82-1.74-3.35,2.54-1.34Zm8.78-4.43-1,1.14c-1.1-.94-2-1.61-2.57-2l.94-1.11A29.07,29.07,0,0,1,163.46,266.45Zm5.89,6.24-2,1.91a26.39,26.39,0,0,0-3.64-3.21,21.8,21.8,0,0,0-3.74-2.09l1.36-2.19A22.13,22.13,0,0,1,169.35,272.69ZM165.74,265l-1,1.09c-.88-.74-1.75-1.42-2.6-2l.92-1.05C164.06,263.68,164.93,264.34,165.74,265Z"/><path class="cls-6" d="M51.8,373.33l-2.29,1.79q-3.37-3.87-7.29-8.14L40,369.11l-1.75-1.91,2.25-2.06q-1.65-1.8-3-3.22l2.24-1.82,2.89,3.11c1-.89,1.77-1.61,2.41-2.17q-1-.5-2.52-1.2l1.48-2c.87.32,2,.8,3.24,1.43A14.06,14.06,0,0,1,49.09,358a5.27,5.27,0,0,1,4-.57,4.82,4.82,0,0,1,3,2.55,4.13,4.13,0,0,1,.18,3.84A6.89,6.89,0,0,1,53,366.92a15.52,15.52,0,0,1-2.77,1.1l-1.09-2.18a13.7,13.7,0,0,0,2.43-.95q3-1.58,1.95-3.52a2.82,2.82,0,0,0-1.5-1.44,2.31,2.31,0,0,0-1.95.19,5.74,5.74,0,0,0-.53.32,14.77,14.77,0,0,1,1.75,1.14l-1.81,2.09a16.31,16.31,0,0,0-2.19-1.43c-.9.78-1.91,1.69-3,2.75Q48.18,369.24,51.8,373.33Z"/><path class="cls-6" d="M65.75,365.8l-1.37-1.65a37.76,37.76,0,0,0,4.5-3,6.71,6.71,0,0,0,2.17-2.72,3.36,3.36,0,0,0-.18-2.93,3.27,3.27,0,0,0-2.07-1.75,3.8,3.8,0,0,0-2.81.41,65.72,65.72,0,0,0-7.6,5.49L57,357.93l4.3-3.14A36,36,0,0,1,65,352.33a6.82,6.82,0,0,1,4.73-.85,5,5,0,0,1,3.4,2.78Q76.26,360.13,65.75,365.8Z"/><path class="cls-6" d="M77.9,340.25c.13.21.33.57.61,1.09s.39.78.57,1.17l5.74-3,1.09,2.07-6,3.15a27.52,27.52,0,0,1,1.81,7,21.41,21.41,0,0,1,.08,6.57l-2.64-.13a21.41,21.41,0,0,0-.15-5.92A28.8,28.8,0,0,0,77.48,346l-3,1.6-1.09-2.07,3.18-1.68c-.44-1-.81-1.72-1.11-2.29Zm12.18.3,1,2.12c-.34.16-.69.33-1.05.52q-2.94,1.55-7.08,4.24l-1.24-2a73.13,73.13,0,0,1,7-4.2C89.25,341,89.71,340.72,90.08,340.55Zm5.52,9.37a30.9,30.9,0,0,1-4,2.45,24,24,0,0,1-3.24,1.45,4.31,4.31,0,0,1-2.62.18,2.6,2.6,0,0,1-1.69-1.33,4.54,4.54,0,0,1,0-3.5l2.3-.11a3.4,3.4,0,0,0,0,2.13.64.64,0,0,0,.57.34,4.21,4.21,0,0,0,1.42-.37,21.61,21.61,0,0,0,2.2-1,24.81,24.81,0,0,0,3.72-2.39Z"/><path class="cls-6" d="M94.26,332.7a27.69,27.69,0,0,0,2.41,7.49,32.1,32.1,0,0,0,4.63,6.64l-2.17,1.68a31.8,31.8,0,0,1-4.38-6.28,34.93,34.93,0,0,1-3.09-8.64Zm12.91-3.41-2.8,1.47,1.12,2.13,3.16-1.66,1.08,2.06L106.58,335l1.4,2.67a19.36,19.36,0,0,1,5.09.39l-.36,2.71a18.48,18.48,0,0,0-3.41-.6q1.08,2.67-2.67,4.64a5,5,0,0,1-3.08.64,2.75,2.75,0,0,1-2.18-1.52,3,3,0,0,1-.06-2.75,4.67,4.67,0,0,1,2.16-2.21,15.75,15.75,0,0,1,1.72-.74l-1-2-5.63,3-1.09-2.06,5.64-3L102,332l-5.26,2.77-1.08-2.05,10.48-5.52Zm-.6,11.53-.29-.55a5.06,5.06,0,0,0-1.8.59,1.92,1.92,0,0,0-.82.77.92.92,0,0,0,0,.92.88.88,0,0,0,.78.48,2.21,2.21,0,0,0,1.16-.3C106.61,342.18,107,341.54,106.57,340.82Z"/><path class="cls-6" d="M121.22,319.19l.61,2.48a34.9,34.9,0,0,0-4.82,1.75q-3,1.29-5.05,2.36l-1,.53-1.12-2.17c1.83-1,3.57-1.81,5.23-2.54S118.8,320.06,121.22,319.19Zm-2,19-1.58-1.92a17.64,17.64,0,0,0,5.87-4.93,4.32,4.32,0,0,0,.46-4.7,2,2,0,0,0-1.53-1.13,3.59,3.59,0,0,0-2.22.48c-.56.3-1.15.64-1.77,1s-1.16.77-1.62,1.11-1.91,1.46-4.34,3.36l-1.39-2.12,3.34-2.46c1-.72,1.84-1.33,2.63-1.82s1.49-.91,2.11-1.24a6.83,6.83,0,0,1,4.37-.93,4.13,4.13,0,0,1,3,2.35,6.39,6.39,0,0,1-.22,6.62Q124.41,335.24,119.24,338.2Z"/><path class="cls-6" d="M132.14,314.38c.2.38.42.83.66,1.36l2.23-1.18a3.5,3.5,0,0,1,2.89-.29,4,4,0,0,1,2.2,2,20.41,20.41,0,0,1,2.36,6.61c.25,1.89-.34,3.2-1.74,3.94a5.08,5.08,0,0,1-1.38.48,13.66,13.66,0,0,1-2.78.07l-.28-2.48a6.55,6.55,0,0,0,2.84-.34.85.85,0,0,0,.45-.56,3.42,3.42,0,0,0,0-1.34,10.35,10.35,0,0,0-.56-2.05,18.63,18.63,0,0,0-1.07-2.35,5.08,5.08,0,0,0-.76-1.17,1.1,1.1,0,0,0-.65-.33,1.38,1.38,0,0,0-.75.18l-2,1.05a20.19,20.19,0,0,1,.87,12.31l-2.59-.19a17.92,17.92,0,0,0,.31-4.55,20.32,20.32,0,0,0-1.22-6.19L128,321l-1.14-2.16,3.45-1.82-1.74-3.35,2.55-1.34Zm8.79-4.43-1,1.14c-1.11-.93-2-1.61-2.58-2l.95-1.11C139.31,308.66,140.19,309.32,140.93,310Zm5.88,6.24-2,1.92a26.43,26.43,0,0,0-3.63-3.22,22.2,22.2,0,0,0-3.75-2.09l1.37-2.19A22.17,22.17,0,0,1,146.81,316.19Zm-3.6-7.68-1,1.09c-.88-.74-1.75-1.42-2.6-2l.93-1.05C141.52,307.19,142.4,307.84,143.21,308.51Z"/><path class="cls-6" d="M157.08,310.83a26.64,26.64,0,0,1,.28,3.28,11.68,11.68,0,0,1-.19,2.89,2.19,2.19,0,0,1-1.15,1.5q-1.87,1-4.44-.6a11.69,11.69,0,0,1-4.13-4.59c-.34-.65-.78-1.65-1.33-3s-1-2.35-1.34-3l2.66-1.39c.29.59.71,1.59,1.25,3a26.9,26.9,0,0,0,1.28,3,9.69,9.69,0,0,0,2.51,3.14c1,.77,1.62,1.07,1.94.9s.47-1.93.05-5.07Zm8.85-.58-2.53,1.54a18.33,18.33,0,0,0-3.77-4.89,16.55,16.55,0,0,0-5-3.32l1.55-2.15A17.74,17.74,0,0,1,165.93,310.25Z"/><path class="cls-6" d="M174.87,301.47a26.47,26.47,0,0,1,.28,3.28,11.68,11.68,0,0,1-.19,2.89,2.21,2.21,0,0,1-1.15,1.5q-1.87,1-4.44-.6a11.69,11.69,0,0,1-4.13-4.59c-.34-.65-.78-1.65-1.33-3s-1-2.35-1.34-3l2.66-1.4c.29.59.71,1.59,1.25,3a27.77,27.77,0,0,0,1.28,3,9.56,9.56,0,0,0,2.51,3.14c1,.76,1.62,1.06,1.93.9q.69-.36.06-5.07Zm8.85-.58-2.53,1.54a18.75,18.75,0,0,0-3.77-4.9,16.63,16.63,0,0,0-5-3.31l1.55-2.15A17.74,17.74,0,0,1,183.72,300.89Z"/><path class="cls-6" d="M201.29,291.81l-.43,2.89a25.63,25.63,0,0,0-6.69-.5,4.19,4.19,0,0,1,.58,3.24,4.74,4.74,0,0,1-2.52,2.42,8,8,0,0,1-4.16,1.12,3,3,0,0,1-2.61-1.74,3.21,3.21,0,0,1,.13-3.31,7.5,7.5,0,0,1,3.1-2.81c.41-.21.87-.42,1.38-.62l-4.7-8.93,2.56-1.35,1.71,3.24,5.83-3.07,1.13,2.15-5.83,3.06,2.17,4.13A26.37,26.37,0,0,1,201.29,291.81Zm-10,2.83a8.39,8.39,0,0,0-1.46.59,5.74,5.74,0,0,0-1.67,1.29,1.17,1.17,0,0,0-.31,1.34,1.09,1.09,0,0,0,1.12.55,4.45,4.45,0,0,0,1.78-.54c.72-.38,1.14-.73,1.25-1.06a1.32,1.32,0,0,0-.13-1.08Z"/><path class="cls-6" d="M204.94,286.79c-.22,1.84-.44,3.32-.67,4.42L201.94,290a55.7,55.7,0,0,0,1-6.14c0-.22,0-.55,0-1l-1-1.87-3,1.61-1-2,3-1.6-1.48-2.82,2.44-1.29,2.47,4.7q1.29-4.35,4.31-5.94a3.87,3.87,0,0,1,3.92,0,9.73,9.73,0,0,1,3.48,4.11,16.85,16.85,0,0,1,1.37,3.32,18.61,18.61,0,0,1,2.72.53l-.14,2.66c-.51-.14-1.26-.32-2.27-.55a5,5,0,0,1-2.94,4.08,4.37,4.37,0,0,1-2.86.46,2.75,2.75,0,0,1-2.14-1.46,2.88,2.88,0,0,1-.12-2.67,4.53,4.53,0,0,1,2.16-2.14,8.93,8.93,0,0,1,2.79-.94,21.66,21.66,0,0,0-1-2,9,9,0,0,0-2.17-3,1.58,1.58,0,0,0-1.75-.22c-1.68.88-2.94,3.18-3.76,6.89l4.07,7.73-2.44,1.29Zm10.19-3.38a3.63,3.63,0,0,0-2.2.41c-1.05.55-1.4,1.17-1,1.85s.94.61,1.9.1A2.4,2.4,0,0,0,215.13,283.41Z"/><path class="cls-6" d="M145.77,81.58a1.89,1.89,0,0,1-.82,1.55,3,3,0,0,1-1.89.63h-3.39l-.33-2.66h2.86a.74.74,0,0,0,.48-.18.56.56,0,0,0,.22-.44V76.14h-8.43v-2.4h8.43V70.82h1.76a23.7,23.7,0,0,0,2.91-2.08H136.39V66.5l14.43,0,1.29,1.36a21.48,21.48,0,0,1-6.34,4.84v1h7.5v2.4h-7.5Z"/><path class="cls-6" d="M172.07,83.38c-2.07.18-4.06.26-6,.26a34.61,34.61,0,0,1-5.56-.28,5.86,5.86,0,0,1-3-1.46,3.8,3.8,0,0,1-1.11-2.85q0-3.35,4.93-5.72c-.21-2.25-.32-4.51-.34-6.8h2.86v1.18c0,1.44.05,2.94.14,4.5q2.26-.85,6.72-2.11l.83,2.44a50.71,50.71,0,0,0-9.21,3.11q-3.2,1.56-3.19,3.33,0,2.17,4.8,2.17h.91a69.85,69.85,0,0,0,7.13-.42Zm-1.59-14.14-1.45.54c-.27-.69-.71-1.71-1.32-3l1.38-.5C169.61,67.23,170.07,68.23,170.48,69.24Zm2.79-.56-1.4.52q-.69-1.7-1.35-3l1.35-.51C172.35,66.62,172.82,67.61,173.27,68.68Z"/><path class="cls-6" d="M188,76.32h-6.11a22.48,22.48,0,0,0-.37,3c0,1.29,1.24,1.94,3.74,1.94a8.42,8.42,0,0,0,3.88-.59,1.84,1.84,0,0,0,1-1.64,9.93,9.93,0,0,0-1.29-4.66l2.4-.65A11.26,11.26,0,0,1,193,79.17q0,4.55-7.67,4.55a8.91,8.91,0,0,1-4.84-1.11,3.64,3.64,0,0,1-1.72-3.27,22.69,22.69,0,0,1,.34-3h-3.79V73.93h4.2c.13-.67.29-1.48.49-2.42h-4.39V69.18h4.93c.27-1.12.52-2.07.75-2.86l2.86.21-.67,2.65h8v2.33h-8.58l-.53,2.42H188Z"/><path class="cls-6" d="M201.68,68.63c0,.43,0,.93-.05,1.51h2.52a3.5,3.5,0,0,1,2.69,1.08,3.92,3.92,0,0,1,1,2.8,20.42,20.42,0,0,1-1,7q-1,2.67-3.38,2.67a5.08,5.08,0,0,1-1.43-.22,13.14,13.14,0,0,1-2.5-1.23l.9-2.33a6.64,6.64,0,0,0,2.68,1,.92.92,0,0,0,.66-.28,3.67,3.67,0,0,0,.59-1.22,10.55,10.55,0,0,0,.46-2.07,19.88,19.88,0,0,0,.15-2.57,5.39,5.39,0,0,0-.13-1.39,1.13,1.13,0,0,0-.42-.6,1.35,1.35,0,0,0-.75-.19h-2.27a20.14,20.14,0,0,1-4.95,11.3l-2.21-1.38a17.92,17.92,0,0,0,2.4-3.88,20.74,20.74,0,0,0,1.8-6h-3.57V70.14h3.89l0-3.78h2.88Zm12.14,8.43-2.69.75a27.26,27.26,0,0,0-1.72-4.53,21.59,21.59,0,0,0-2.34-3.6l2.22-1.3A22.1,22.1,0,0,1,213.82,77.06Zm-2.31-8.26-1.42.54c-.54-1.35-1-2.34-1.33-3l1.35-.54A31.73,31.73,0,0,1,211.51,68.8Zm2.69-.22-1.36.52c-.43-1.07-.89-2.07-1.36-3l1.31-.49Q213.6,67.14,214.2,68.58Z"/><path class="cls-6" d="M225.4,77.1a25.79,25.79,0,0,1-1.28,3,11.45,11.45,0,0,1-1.52,2.47,2.18,2.18,0,0,1-1.71.8c-1.42,0-2.63-.87-3.65-2.6a11.7,11.7,0,0,1-1.52-6c0-.73.08-1.82.22-3.27s.21-2.54.21-3.26h3c0,.66-.12,1.74-.3,3.23a28.3,28.3,0,0,0-.25,3.25,9.52,9.52,0,0,0,.76,3.94c.51,1.13.94,1.7,1.29,1.7q.76,0,2.42-4.46Zm8.1,3.61-3,.19a18.51,18.51,0,0,0-1.06-6.09,16.28,16.28,0,0,0-2.88-5.27L229,68.36A17.74,17.74,0,0,1,233.5,80.71Z"/><path class="cls-6" d="M247.31,80.91c1.6-.63,2.39-1.62,2.39-3a2.65,2.65,0,0,0-1.18-2.29,5,5,0,0,0-3-.83h-.24a7.44,7.44,0,0,0-1.84.26,11.09,11.09,0,0,0-2,.68,12.22,12.22,0,0,0-1.56.84c-.42.28-1.4,1-2.94,2.12l-1.57-2q8-5.47,10.26-7.18h-8.3V67.28h11.85l1.42,1.5q-2.12,1.39-6.29,4.26a8.23,8.23,0,0,1,2-.32A7,7,0,0,1,250.89,74a4.55,4.55,0,0,1,1.64,3.77,5,5,0,0,1-2.32,4.41,10.85,10.85,0,0,1-6.11,1.54,8.12,8.12,0,0,1-4-.82,2.61,2.61,0,0,1-1.47-2.4,2.59,2.59,0,0,1,1.25-2.16,4.72,4.72,0,0,1,2.74-.87A4.39,4.39,0,0,1,247.31,80.91Zm-2.53.64c-.43-1.33-1.2-2-2.33-2a1.45,1.45,0,0,0-.87.27.81.81,0,0,0-.39.7c0,.71.85,1.07,2.54,1.07A8.8,8.8,0,0,0,244.78,81.55Z"/><path class="cls-6" d="M265,66.93q-2,4.17-3.25,6.9a3.17,3.17,0,0,1,1.08-.2,2.6,2.6,0,0,1,2.81,2l.36,3.51a2.86,2.86,0,0,0,.53,1.58,1.39,1.39,0,0,0,1.16.52c1.72,0,2.86-2,3.4-6.07l2.67.64q-.68,4.43-2.17,6.18a5,5,0,0,1-4,1.76,4.35,4.35,0,0,1-3.2-1c-.68-.69-1.07-2-1.16-3.85l-.06-1.39a2.38,2.38,0,0,0-.25-1.07.64.64,0,0,0-.58-.38,2.4,2.4,0,0,0-1.55.79,10.82,10.82,0,0,0-2,3.5c-.53,1.19-1,2.36-1.52,3.53l-2.7-.67,4.13-9.48q.42-1,3.43-7.39Z"/><path class="cls-6" d="M282.34,66.26c0,.24,0,.66,0,1.25,0,.44,0,.88,0,1.3h6.49v2.34h-6.76a27.52,27.52,0,0,1-1.62,7,21.66,21.66,0,0,1-3,5.85l-2.28-1.33a21.53,21.53,0,0,0,2.64-5.31,29.62,29.62,0,0,0,1.49-6.2h-3.44V68.81h3.6c.06-1,.08-1.9.08-2.55Zm11.16,16.8a30.87,30.87,0,0,1-4.65.32,24.59,24.59,0,0,1-3.55-.23,4.3,4.3,0,0,1-2.4-1.06,2.62,2.62,0,0,1-.87-2A4.51,4.51,0,0,1,283.64,77l2.09,1a3.45,3.45,0,0,0-1,1.89.64.64,0,0,0,.36.57,4.22,4.22,0,0,0,1.42.34,21.92,21.92,0,0,0,2.43.12,25.71,25.71,0,0,0,4.4-.38ZM293,72.2l-.14,2.32q-.55,0-1.17,0-3.32,0-8.24.45l-.18-2.32a74.47,74.47,0,0,1,8.18-.45C292.06,72.17,292.57,72.18,293,72.2ZM291,69l-1.45.53c-.54-1.34-1-2.34-1.33-3l1.39-.53A28.86,28.86,0,0,1,291,69Zm2.79-.51-1.41.51c-.46-1.13-.91-2.13-1.34-3l1.34-.5C292.89,66.5,293.36,67.49,293.76,68.46Z"/><path class="cls-6" d="M302.47,68.63c0,.41,0,.91-.05,1.49h2.72a3.52,3.52,0,0,1,2.71,1.1,3.93,3.93,0,0,1,1,2.81,20.22,20.22,0,0,1-1,7q-1,2.66-3.43,2.66a9,9,0,0,1-4-1.45l.9-2.37a8.73,8.73,0,0,0,1.66.72,5.13,5.13,0,0,0,1.14.31.89.89,0,0,0,.66-.29,3.56,3.56,0,0,0,.59-1.19,10.72,10.72,0,0,0,.45-2,20.39,20.39,0,0,0,.16-2.63,5.43,5.43,0,0,0-.13-1.4,1.13,1.13,0,0,0-.42-.6,1.35,1.35,0,0,0-.75-.2h-2.45A20.28,20.28,0,0,1,297.06,84l-2.13-1.57a19.4,19.4,0,0,0,2.53-3.86,18.78,18.78,0,0,0,1.78-6h-3.55V70.12h3.9V66.36h2.88Zm12.22,8.15-2.82.72a30.68,30.68,0,0,0-1.37-4A20.88,20.88,0,0,0,309.1,71,14.13,14.13,0,0,0,307.69,69l2.25-1.39A20.51,20.51,0,0,1,313,72,17.19,17.19,0,0,1,314.69,76.78Z"/><path class="cls-6" d="M320.18,83.84l-.41-2.48a29,29,0,0,0,7.8-.79c1.79-.52,2.68-1.38,2.68-2.57a2.36,2.36,0,0,0-.95-2,4.4,4.4,0,0,0-2.62-.7,10.45,10.45,0,0,0-4.4,1A9.73,9.73,0,0,0,318.74,79l-2.15-1.26a23,23,0,0,0,1.67-8.29l2.9.17a21.39,21.39,0,0,1-.86,5.16,11.29,11.29,0,0,1,3-1.26,12.34,12.34,0,0,1,3.32-.5,7.9,7.9,0,0,1,4.81,1.29A4.37,4.37,0,0,1,333.18,78a4.43,4.43,0,0,1-1.13,3.09A7.07,7.07,0,0,1,328.58,83,40.65,40.65,0,0,1,320.18,83.84ZM331.8,68.56,330.51,71a25.78,25.78,0,0,0-5.19-1.46,53.1,53.1,0,0,0-5.26-.78l.75-2.34A56.28,56.28,0,0,1,331.8,68.56Z"/><path class="cls-6" d="M141.31,108.48h-3.7v1.24h-2.43V94.89h6.13Zm-2.37-7.84V96.76h-1.33v3.88Zm0,6v-4.3h-1.33v4.3Zm8.1,2.06-2.33,1.21c-.73-1.12-1.56-2.28-2.47-3.49l1.79-1h-2v-2.06h6.86v-1.52h-7.09V99.66h4.45v-1.6h-3.86V96h3.86V94H149v2h3.83v2.08h-3.83v1.6h4.55v2.16h-2v1.52h1.55v2.06h-1.55v4.06a2,2,0,0,1-.69,1.61,2.93,2.93,0,0,1-1.9.57h-2.51l-.33-2.44h2.13c.42,0,.63-.19.63-.58V105.4h-4.32A25,25,0,0,1,147,108.68Z"/><path class="cls-6" d="M159.69,107a9.51,9.51,0,0,1-4.05,4.77l-1.38-1.8a8.35,8.35,0,0,0,3.54-6h-3v-2.1h3.07V98.66h-.11a14.06,14.06,0,0,1-1.27,2.9l-2.11-1A21.88,21.88,0,0,0,156.29,94l2.53.24a21,21,0,0,1-.48,2.36h4.21v2h-2.11v3.18h2.42v2.1h-2.18a11.31,11.31,0,0,0,2.62,3.34l-1.79,1.84A13.05,13.05,0,0,1,159.69,107Zm5,2.25-1-3.42,2.48-.58c.35,1.08.76,2.42,1.23,4h1.08c.36-1,.79-2.32,1.27-4l2.57.54a34.81,34.81,0,0,1-1.29,3.5h2.66v2.22H162v-2.22ZM173.15,97H162.7v-2.2h10.45Zm-.54,8h-9.39v-6.8h9.39Zm-2.67-2V100.2h-4.07v2.72Z"/><path class="cls-6" d="M185.32,108.08h-3.78v1a25.75,25.75,0,0,0,3.37-.34v.74a18.42,18.42,0,0,0,1.36-3.52,22.86,22.86,0,0,0,.75-5.74h-1.29v-2H187v-4h2.58v4h3.33v6.1c0,.22,0,.81,0,1.78a20.94,20.94,0,0,1-.23,2.53,7.07,7.07,0,0,1-.34,1.5,2.27,2.27,0,0,1-.5.77,2.35,2.35,0,0,1-.8.52,2.64,2.64,0,0,1-1,.18h-2.09l-.27-2.08H189a1,1,0,0,0,.81-.33,4.33,4.33,0,0,0,.47-1.92,34.63,34.63,0,0,0,.17-3.55V100.2h-1c-.05,1.31-.11,2.33-.18,3.08a17.27,17.27,0,0,1-.49,2.63,19.25,19.25,0,0,1-1,3,15.3,15.3,0,0,1-1.51,2.68l-1.39-1a29.43,29.43,0,0,1-4.52.62q-3.52.33-5.49.36l-.34-2.24q1.44,0,4.5-.15v-1.13h-3.77V106.3H179v-.84h-4.12v-1.88H179v-.8h-3.73v-4.7h1.63v-.9h-2.14v-1.9h2.14V94.2h2.36v1.08h1.95V94.2h2.36v1.08h2.31v1.9h-2.31v.9h1.62v4.7h-3.63v.8h3.93v1.88h-3.93v.84h3.78ZM179,99.7h-1.5v1.46H179Zm.23-1.62h1.95v-.9h-1.95Zm3.58,3.08V99.7H181.5v1.46Z"/><path class="cls-6" d="M200.68,110a1.42,1.42,0,0,1-.65,1.16,2.57,2.57,0,0,1-1.57.48h-2.33l-.26-2.34h1.76c.37,0,.55-.17.55-.52V106a14.84,14.84,0,0,1-2.11,2.8l-1.69-1.5a19.72,19.72,0,0,0,3.32-5.22H195v-2h3c-.55-.49-1.34-1.17-2.39-2l1.67-1.56,1.88,1.52a20.2,20.2,0,0,0,1.55-1.56h-5.29V94.58h7.67l1,1.12a17.39,17.39,0,0,1-3.42,3.66,8.68,8.68,0,0,1,.85.8h2.11l.66.56q-.11.32-.3.84a16.17,16.17,0,0,0,2.85-1.09,8.53,8.53,0,0,1-1.38-1.69,17.82,17.82,0,0,1-1.25,1.34l-1.63-1.18a11.72,11.72,0,0,0,3-5l2.38.36a11.67,11.67,0,0,1-.48,1.32h6.15v1.9h-1a7.71,7.71,0,0,1-1.87,2.88,17.17,17.17,0,0,0,3.34,1l-1.28,2.1a22.72,22.72,0,0,1-4-1.58,14.1,14.1,0,0,1-2.57,1.08h2.15c0,.59,0,1,0,1.34h4.42c0,1.5,0,2.73-.1,3.69a8.73,8.73,0,0,1-.34,2.11,1.92,1.92,0,0,1-.88,1.07,3.16,3.16,0,0,1-1.66.39h-2.32l-.33-2.16h2a.88.88,0,0,0,.82-.52,7.87,7.87,0,0,0,.26-2.64h-2.08a7,7,0,0,1-1.82,3.34,8.57,8.57,0,0,1-3.66,2.18l-1.19-2a6.72,6.72,0,0,0,2.58-1.49,5.15,5.15,0,0,0,1.44-2h-2.57v-1.94h2.86c0-.27,0-.68,0-1.2l-1.27.36-.68-1.48a15.77,15.77,0,0,1-1.53,3.14l-1.62-.68c.24-.58.57-1.38,1-2.42h-1Zm8-10.78a6.68,6.68,0,0,0,1.37-1.72h-3A6.27,6.27,0,0,0,208.73,99.24Z"/><path class="cls-6" d="M221.78,96.63c0,.43,0,.93-.05,1.51h2.52a3.5,3.5,0,0,1,2.69,1.08,3.92,3.92,0,0,1,1,2.8,20.42,20.42,0,0,1-1,7q-1,2.67-3.37,2.67a5.1,5.1,0,0,1-1.44-.22,13.14,13.14,0,0,1-2.5-1.23l.9-2.33a6.64,6.64,0,0,0,2.68,1,.91.91,0,0,0,.66-.28,3.67,3.67,0,0,0,.59-1.22,10.55,10.55,0,0,0,.46-2.07,19.88,19.88,0,0,0,.15-2.57,5.39,5.39,0,0,0-.13-1.39,1.13,1.13,0,0,0-.42-.6,1.35,1.35,0,0,0-.75-.19h-2.27a20.14,20.14,0,0,1-5,11.3l-2.21-1.38a17.92,17.92,0,0,0,2.4-3.88,20.15,20.15,0,0,0,1.8-6H215V98.14h3.89l0-3.78h2.88Zm12.14,8.43-2.69.75a27.26,27.26,0,0,0-1.72-4.53,21.59,21.59,0,0,0-2.34-3.6l2.23-1.3A22.2,22.2,0,0,1,233.92,105.06Zm-2.31-8.26-1.42.54c-.54-1.34-1-2.34-1.33-3l1.35-.54A31.73,31.73,0,0,1,231.61,96.8Zm2.69-.22-1.36.52q-.65-1.6-1.35-3l1.3-.49Q233.7,95.14,234.3,96.58Z"/><path class="cls-6" d="M249.76,111H235.67v-2.28h14.09V106.6H236v-2.26h13.77v-2H235.82v-2.22h2.72a47,47,0,0,0-2.41-4.58l2.53-1a37,37,0,0,1,2.7,4.85l-1.89.69h3.26V94h2.89v6.14h2.65l-1.32-.5a37.27,37.27,0,0,0,2.79-5.19l2.85,1a40.92,40.92,0,0,1-2.94,4.74h3v11.5h-2.88Z"/><path class="cls-6" d="M262.24,94.26c0,.24,0,.66,0,1.25,0,.44,0,.88,0,1.3h6.49v2.34H262a27.14,27.14,0,0,1-1.63,7,21.24,21.24,0,0,1-3,5.85l-2.28-1.33a21.53,21.53,0,0,0,2.63-5.31,29.05,29.05,0,0,0,1.5-6.2h-3.44V96.81h3.6c0-1,.08-1.9.08-2.55Zm11.16,16.8a30.87,30.87,0,0,1-4.65.32,24.49,24.49,0,0,1-3.55-.23,4.3,4.3,0,0,1-2.4-1.06,2.63,2.63,0,0,1-.88-2,4.55,4.55,0,0,1,1.61-3.11l2.09,1a3.49,3.49,0,0,0-1,1.89.64.64,0,0,0,.36.57,4,4,0,0,0,1.42.34,21.86,21.86,0,0,0,2.42.12,25.82,25.82,0,0,0,4.41-.38Zm-.52-10.86-.14,2.32q-.56,0-1.17,0c-2.22,0-5,.15-8.24.45l-.18-2.32a74.47,74.47,0,0,1,8.18-.45C272,100.17,272.47,100.18,272.88,100.2Z"/><path class="cls-6" d="M281.26,112.12l-.54-2.42q4.88-.57,6.62-2a5.54,5.54,0,0,0,1.74-4.54c0-3.64-.83-5.45-2.49-5.45a5.35,5.35,0,0,0-2.71.81,6.07,6.07,0,0,0-2.31,2.75,9.28,9.28,0,0,0-.92,4,9.8,9.8,0,0,0,.09,1.3l-2.6.17a31.76,31.76,0,0,1-.45-5.51,37.51,37.51,0,0,1,.67-7.12l2.82.25c-.2,1-.46,2.56-.8,4.61a6.64,6.64,0,0,1,2.46-2.64,6.8,6.8,0,0,1,3.83-1.17,4.45,4.45,0,0,1,4,2.06,10.17,10.17,0,0,1,1.36,5.63q0,4.59-2.7,6.7T281.26,112.12Z"/><path class="cls-6" d="M300,96l-.85-1.78,2.54-.52,1.08,2.3h3.84l1.18-2.32,2.68.62L309.33,96h4.58v2.06H295.57V96Zm2.55,11.36h-3.36v4.36h-2.68V99.28h8.67v10.56a1.57,1.57,0,0,1-.62,1.31,2.57,2.57,0,0,1-1.63.47h-2.05l-.3-2.22H302c.37,0,.55-.17.55-.5Zm0-4.9v-1.3h-3.36v1.3Zm-3.36,3.1h3.36v-1.34h-3.36Zm9.75,2.48h-2.51V99.7h2.51Zm4,1.74a1.6,1.6,0,0,1-.71,1.34,2.6,2.6,0,0,1-1.57.52h-2.9l-.28-2.38h2.2a.52.52,0,0,0,.6-.58V98.8h2.66Z"/><path class="cls-6" d="M322.54,94.26c0,.24,0,.66,0,1.25,0,.44,0,.88,0,1.3H329v2.34h-6.75a28,28,0,0,1-1.63,7,21,21,0,0,1-3,5.85l-2.27-1.33a21.89,21.89,0,0,0,2.63-5.31,29,29,0,0,0,1.49-6.2h-3.43V96.81h3.6c0-1,.08-1.9.08-2.55Zm11.16,16.8a30.77,30.77,0,0,1-4.65.32,24.59,24.59,0,0,1-3.55-.23,4.3,4.3,0,0,1-2.4-1.06,2.62,2.62,0,0,1-.87-2,4.55,4.55,0,0,1,1.61-3.11l2.09,1a3.42,3.42,0,0,0-1,1.89.63.63,0,0,0,.35.57,4.05,4.05,0,0,0,1.42.34,22.18,22.18,0,0,0,2.43.12,25.71,25.71,0,0,0,4.4-.38Zm-.52-10.86-.13,2.32q-.57,0-1.17,0-3.33,0-8.25.45l-.17-2.32a74.29,74.29,0,0,1,8.17-.45C332.26,100.17,332.78,100.18,333.18,100.2Zm-2-3.23-1.44.53c-.55-1.34-1-2.34-1.34-3l1.4-.53A31,31,0,0,1,331.17,97Zm2.8-.51-1.42.51c-.45-1.13-.9-2.13-1.34-3l1.34-.5C333.09,94.5,333.56,95.49,334,96.46Z"/><path class="cls-6" d="M353.78,108.86l-1.72,2.35a25.64,25.64,0,0,0-5.69-3.55,4.19,4.19,0,0,1-1,3.13,4.69,4.69,0,0,1-3.35,1,7.87,7.87,0,0,1-4.2-.94,3.07,3.07,0,0,1-1.51-2.76,3.25,3.25,0,0,1,1.66-2.87,7.54,7.54,0,0,1,4.06-1,11.93,11.93,0,0,1,1.51.1V94.15h2.89v3.66H353v2.43h-6.59v4.65A26.49,26.49,0,0,1,353.78,108.86Zm-10.18-2.17a8.84,8.84,0,0,0-1.57-.15,5.65,5.65,0,0,0-2.09.36c-.6.25-.9.59-.9,1a1.11,1.11,0,0,0,.75,1,4.3,4.3,0,0,0,1.81.35,2.47,2.47,0,0,0,1.61-.36,1.3,1.3,0,0,0,.39-1Z"/><path class="cls-6" d="M359.35,106.12q-1.58,2.3-2.65,3.6l-1.51-2.14a55.56,55.56,0,0,0,3.72-5c.09-.2.24-.49.44-.89V99.59h-3.44V97.39h3.44V94.2h2.76v5.31c2.11-2.16,4.3-3.25,6.57-3.25a3.85,3.85,0,0,1,3.47,1.83,9.68,9.68,0,0,1,1.18,5.25,16.55,16.55,0,0,1-.34,3.58,18,18,0,0,1,2.16,1.73l-1.36,2.29c-.39-.35-1-.87-1.76-1.54a5,5,0,0,1-4.5,2.24,4.38,4.38,0,0,1-2.74-.92,2.79,2.79,0,0,1-1.22-2.29,2.9,2.9,0,0,1,1.14-2.42,4.6,4.6,0,0,1,2.9-.89,9.16,9.16,0,0,1,2.92.47c.05-.5.08-1.25.08-2.25a8.87,8.87,0,0,0-.52-3.68,1.58,1.58,0,0,0-1.45-1q-2.83,0-6.53,4.35v8.74h-2.76Zm10.59,1.75a3.59,3.59,0,0,0-2.13-.66c-1.19,0-1.79.38-1.79,1.15s.55,1,1.64,1A2.39,2.39,0,0,0,369.94,107.87Z"/><rect class="cls-6" x="470.02" y="570.97" width="429.61" height="101.22"/><path class="cls-1" d="M512.29,612.31l-1.46,2.46a21.21,21.21,0,0,0-5.17-2.95l.1.42a2.39,2.39,0,0,1,.07.57,2,2,0,0,1-1.35,1.81,9.06,9.06,0,0,1-3.74.62,6.78,6.78,0,0,1-3.6-.91,2.83,2.83,0,0,1-1.49-2.52,3,3,0,0,1,1.37-2.63,5.74,5.74,0,0,1,3.36-1,14,14,0,0,1,2.49.19v-1.62H496v-2.32h6.86v-1.9h-7.4v-2.33h7.4v-2.12h2.81v2.12h6.94v2.33h-6.94v1.9h5.91v2.32h-5.91v2.34A36.72,36.72,0,0,1,512.29,612.31Zm-9.42-.39v-1.18a9.29,9.29,0,0,0-2.08-.33,3.71,3.71,0,0,0-1.7.35,1.06,1.06,0,0,0-.72,1c0,.75.82,1.13,2.45,1.13C502.19,612.86,502.87,612.55,502.87,611.92Z"/><path class="cls-1" d="M532,602.11h-4.76v3.55a6.58,6.58,0,0,1,.58,3,6,6,0,0,1-2.2,4.76,9,9,0,0,1-5.49,2l-.69-2.37c2.88-.22,4.69-1.24,5.45-3.07a4.28,4.28,0,0,1-2.56.8,4.24,4.24,0,0,1-2.88-1,3.39,3.39,0,0,1-1.16-2.64,3.83,3.83,0,0,1,1.23-3,4.4,4.4,0,0,1,3.1-1.15,5.14,5.14,0,0,1,1.74.31v-1.29h-9.7v-2.2h9.69v-2.18h2.89v2.18h2.14c-.26-.59-.58-1.25-1-2l1.33-.55c.3.55.73,1.38,1.28,2.51h1Zm-7.6,4.35,0-.55a2,2,0,0,0-1.74-.68,1.64,1.64,0,0,0-1.19.55,1.7,1.7,0,0,0-.54,1.21,1.55,1.55,0,0,0,.4,1.1,1.29,1.29,0,0,0,1,.44,1.94,1.94,0,0,0,2.07-2.07Zm9.5-6.54-1.39.57c-.27-.66-.7-1.59-1.31-2.81l1.35-.49C532.88,597.78,533.32,598.7,533.91,599.92Z"/><path class="cls-1" d="M539.5,598.76a29,29,0,0,0-1.21,7.53,30.56,30.56,0,0,0,1.13,8.21l-2.76.56a31.92,31.92,0,0,1-1.08-8.08,35.39,35.39,0,0,1,1.15-8.6Zm14.58,13.36-1.59,2.23a18.47,18.47,0,0,0-2.84-2.18,2.91,2.91,0,0,1-1,2.19,5.72,5.72,0,0,1-3.48.76,5.24,5.24,0,0,1-3.09-.89,2.8,2.8,0,0,1-1.25-2.4,3,3,0,0,1,1.26-2.46,4.82,4.82,0,0,1,3-1c.51,0,1.11,0,1.81.11v-4.36h-6.37v-2.42h6.37V598.2h2.81v3.55h3.66v2.42h-3.66v5.2A19,19,0,0,1,554.08,612.12Zm-7.22-.56v-.68a5,5,0,0,0-1.81-.3,2.13,2.13,0,0,0-1.15.31,1,1,0,0,0-.5.83.86.86,0,0,0,.52.79,2.36,2.36,0,0,0,1.21.29C546.29,612.8,546.86,612.39,546.86,611.56Z"/><path class="cls-1" d="M561,597.9a27.42,27.42,0,0,1-1.7,5.36h.43v12.22H557v-7.7c-.25.43-.57.92-.94,1.48l-1.78-1.46a28.56,28.56,0,0,0,2.24-4.48,27.55,27.55,0,0,0,1.77-5.84Zm11.83,15.28a1.89,1.89,0,0,1-.66,1.5,2.75,2.75,0,0,1-1.8.56H567l-.36-2.5h2.83c.39,0,.59-.19.59-.56V600.46H561.1v-2.3H574v2.3h-1.17Zm-4.3-2.74h-4.58v.84h-2.59V602.5h7.17Zm-2.51-2v-4h-2.07v4Z"/><path class="cls-1" d="M581.77,600.21c0,.43,0,.93,0,1.51h2.52a3.52,3.52,0,0,1,2.69,1.08,4,4,0,0,1,1,2.8,20.42,20.42,0,0,1-1,7q-1,2.67-3.38,2.67a5.2,5.2,0,0,1-1.44-.22,13.44,13.44,0,0,1-2.49-1.23l.9-2.33a6.59,6.59,0,0,0,2.68,1,.94.94,0,0,0,.66-.28,3.73,3.73,0,0,0,.58-1.21,10.81,10.81,0,0,0,.47-2.08,22,22,0,0,0,.14-2.57,5,5,0,0,0-.13-1.39,1,1,0,0,0-.42-.6,1.29,1.29,0,0,0-.74-.19h-2.27a20.15,20.15,0,0,1-5,11.3l-2.21-1.38a17.17,17.17,0,0,0,2.4-3.88,20.44,20.44,0,0,0,1.81-6H575v-2.44h3.9l0-3.78h2.88Zm12.14,8.43-2.69.75a26.35,26.35,0,0,0-1.73-4.53,21.59,21.59,0,0,0-2.34-3.6l2.23-1.3A22.37,22.37,0,0,1,593.91,608.64Zm-2.31-8.26-1.42.54c-.55-1.34-1-2.34-1.34-3l1.36-.54C590.77,598.48,591.24,599.48,591.6,600.38Zm2.69-.22-1.36.52c-.44-1.06-.89-2.06-1.36-3l1.31-.49Q593.67,598.72,594.29,600.16Z"/><path class="cls-1" d="M613.87,599.6a10.51,10.51,0,0,1-1,2.6,13.28,13.28,0,0,1-2.72,3.54,17.76,17.76,0,0,1-3.52,2.68l-1.52-2a12.51,12.51,0,0,0,2.81-2.24,12.81,12.81,0,0,0,2.08-2.78H595.81v-2.52H613Zm-8.73,2.69v.48c0,1.34,0,2.45-.07,3.33a11.66,11.66,0,0,1-.54,2.81,8.6,8.6,0,0,1-1.48,2.78,9.53,9.53,0,0,1-2.53,2.21,13.61,13.61,0,0,1-3.52,1.48L595.94,613c2.43-.75,4.07-1.82,4.94-3.2a10.62,10.62,0,0,0,1.29-5.65l0-1.88Z"/><path class="cls-1" d="M626,602.71l-1.79,2.43c-1-.62-1.83-1.14-2.58-1.57s-2.44-1.29-5.08-2.61l1.55-2.24A64.16,64.16,0,0,1,626,602.71Zm8,2.39a17.81,17.81,0,0,1-6.51,7,24.21,24.21,0,0,1-10.15,3l-.67-2.74a26.81,26.81,0,0,0,5.59-1,14.84,14.84,0,0,0,3.92-1.87A19.24,19.24,0,0,0,629,607.1a18.8,18.8,0,0,0,2.6-3.57Z"/><path class="cls-1" d="M652,614.56H636.34v-2.62H648.9v-9.65l-12.4,0V599.7H652Z"/><path class="cls-1" d="M666.2,602.71l-1.8,2.43c-1-.62-1.83-1.14-2.58-1.57s-2.44-1.29-5.08-2.61l1.55-2.24A64.88,64.88,0,0,1,666.2,602.71Zm8,2.39a18,18,0,0,1-6.51,7,24.26,24.26,0,0,1-10.16,3l-.67-2.74a27,27,0,0,0,5.6-1,15,15,0,0,0,3.92-1.87,19.13,19.13,0,0,0,2.86-2.36,18.37,18.37,0,0,0,2.6-3.57Z"/><path class="cls-1" d="M685.49,605.82l-1.33,2.46c-1.46-.63-2.65-1.11-3.59-1.43s-2.5-.78-4.69-1.39l1.12-2.31a36.2,36.2,0,0,1,3.74,1Q682.42,604.64,685.49,605.82Zm8.79-.76a17.91,17.91,0,0,1-6.66,7.07,23.94,23.94,0,0,1-10,3L677,612.5a23.7,23.7,0,0,0,8.64-2.43,16.21,16.21,0,0,0,6.22-6.25Zm-6.88-4L686,603.48c-.71-.32-1.45-.64-2.21-1s-1.37-.55-1.85-.7l-4.12-1.31,1.15-2.26A61.09,61.09,0,0,1,687.4,601Z"/><path class="cls-1" d="M704.7,615.28l-2.44.28-1.91-9.49-3.36.47-.35-2.21,3.28-.42-.67-3.33,2.4-.26.67,3.27,9-1.19,1.18.94a15.64,15.64,0,0,1-5.16,7.29l-1.67-1.51a14.18,14.18,0,0,0,3.54-4.28l-6.47.9Z"/><path class="cls-1" d="M734.66,613.28l-2.21,2.1a90.55,90.55,0,0,0-6.72-6.14,29.84,29.84,0,0,1-9.18,6.2l-1.44-2.31a27.5,27.5,0,0,0,7.31-4.7,20.43,20.43,0,0,0,5.26-6.84h-9.95V599h12.9l.81.77a18.72,18.72,0,0,1-1.61,4.08,24.42,24.42,0,0,1-2.27,3.29Q731.81,610.58,734.66,613.28Z"/><path class="cls-1" d="M743.4,598.62a39.27,39.27,0,0,1-.64,7.18,16.14,16.14,0,0,1-2,5,20.79,20.79,0,0,1-3.66,4.42l-2-1.87a16.8,16.8,0,0,0,2.81-3.38,19.46,19.46,0,0,0,1.72-3.91,28.28,28.28,0,0,0,.82-7.48ZM754.94,613l-2.21,2a17.16,17.16,0,0,1-3.45-5.1,24.61,24.61,0,0,1-1.73-5.72,30.79,30.79,0,0,1-.5-5v-.67l3-.06v.33a26.24,26.24,0,0,0,1,7.49A18.23,18.23,0,0,0,754.94,613Zm-2.44-12.6-1.43.54c-.27-.71-.71-1.73-1.31-3.06l1.35-.48A32.45,32.45,0,0,1,752.5,600.42Zm2.58-.72-1.41.51c-.28-.69-.71-1.69-1.31-3l1.31-.48C754.21,597.74,754.68,598.73,755.08,599.7Z"/><path class="cls-1" d="M767.9,615.21h-3v-8.85a37,37,0,0,1-8.16,2.94l-.9-2.56a29.82,29.82,0,0,0,9-3.63,18,18,0,0,0,5.8-5.49l2.86,1.08a22.63,22.63,0,0,1-2.81,3.51,23.51,23.51,0,0,1-2.79,2.28Z"/><path class="cls-1" d="M794.78,599.6a10.11,10.11,0,0,1-1,2.6,13.28,13.28,0,0,1-2.72,3.54,17.48,17.48,0,0,1-3.52,2.68l-1.52-2a12.34,12.34,0,0,0,2.82-2.24,13.14,13.14,0,0,0,2.08-2.78H776.72v-2.52h17.17Zm-8.72,2.69v.48c0,1.34,0,2.45-.07,3.33a11.66,11.66,0,0,1-.54,2.81,8.83,8.83,0,0,1-1.49,2.78,9.48,9.48,0,0,1-2.52,2.21,13.68,13.68,0,0,1-3.53,1.48L776.85,613q3.64-1.12,4.94-3.2a10.62,10.62,0,0,0,1.29-5.65l0-1.88Z"/><path class="cls-1" d="M815.06,613.28l-2.21,2.1a87.74,87.74,0,0,0-6.71-6.14,29.88,29.88,0,0,1-9.19,6.2l-1.43-2.31a27.5,27.5,0,0,0,7.31-4.7,20.4,20.4,0,0,0,5.25-6.84h-9.94V599H811l.8.77a18.75,18.75,0,0,1-1.6,4.08,25.38,25.38,0,0,1-2.27,3.29Q812.2,610.58,815.06,613.28Z"/><path class="cls-1" d="M822.93,598.22c0,1-.13,2-.23,2.86H827v2.34h-4.63a22.43,22.43,0,0,1-4.45,9.94l-2.15-1.54a19.76,19.76,0,0,0,3.8-8.4h-3v-2.34H820c.12-.93.2-1.91.23-3Zm12.1,14-1.46,2.17a23.34,23.34,0,0,0-3.27-2.35,3,3,0,0,1-1.06,2.51,7.21,7.21,0,0,1-6.76,0,2.71,2.71,0,0,1-1.29-2.38,3,3,0,0,1,1.37-2.59,5.81,5.81,0,0,1,3.36-1,12.32,12.32,0,0,1,1.67.11v-5.07h2.71v5.8A25.17,25.17,0,0,1,835,612.27Zm-7.44-1.36a8.15,8.15,0,0,0-1.67-.17,3.32,3.32,0,0,0-1.56.34,1,1,0,0,0-.65.93c0,.82.76,1.23,2.29,1.23q1.59,0,1.59-1.14Zm7.57-6.75L833,605.78a29,29,0,0,0-2.84-2.83,22.34,22.34,0,0,0-3-2.34l1.64-1.81a19,19,0,0,1,3.25,2.34A27.79,27.79,0,0,1,835.16,604.16Z"/><path class="cls-1" d="M845.1,615.17l-.73-2.44a12.89,12.89,0,0,0,5.86-1.78,4.61,4.61,0,0,0,2-4.06,4.77,4.77,0,0,0-1.41-3.61,6.26,6.26,0,0,0-3.92-1.6,20,20,0,0,1-2.05,8.86q-1.86,3.39-4.66,3.39a3.4,3.4,0,0,1-2.95-1.71,6.9,6.9,0,0,1-1.13-3.92v-.24a8.06,8.06,0,0,1,2.73-6,10.36,10.36,0,0,1,6.9-2.79h.4a10.29,10.29,0,0,1,6.53,2,6.56,6.56,0,0,1,2.56,5.46,7.28,7.28,0,0,1-2.58,5.92Q850,614.79,845.1,615.17Zm-1-13.21a7,7,0,0,0-3.76,2.31,5.87,5.87,0,0,0-1.54,3.94,5.27,5.27,0,0,0,.38,2c.25.63.61.94,1.07.94.92,0,1.76-.89,2.51-2.68A19.7,19.7,0,0,0,844.11,602Z"/><path class="cls-1" d="M863.47,600.21c0,.41,0,.91-.05,1.49h2.72a3.52,3.52,0,0,1,2.71,1.1,3.93,3.93,0,0,1,1,2.81,20.22,20.22,0,0,1-1,7,3.54,3.54,0,0,1-3.43,2.66,9,9,0,0,1-4-1.45l.9-2.37a8.73,8.73,0,0,0,1.66.72,5.13,5.13,0,0,0,1.14.31.88.88,0,0,0,.66-.29,3.56,3.56,0,0,0,.59-1.19,10.72,10.72,0,0,0,.45-2,18.74,18.74,0,0,0,.16-2.63,5.43,5.43,0,0,0-.13-1.4,1.13,1.13,0,0,0-.42-.6,1.35,1.35,0,0,0-.75-.2h-2.45a20.34,20.34,0,0,1-5.17,11.44L855.93,614a20.05,20.05,0,0,0,2.54-3.85,19.2,19.2,0,0,0,1.77-6h-3.55V601.7h3.91v-3.76h2.87Zm12.22,8.15-2.82.72a30.68,30.68,0,0,0-1.37-4,20.88,20.88,0,0,0-1.4-2.51,14.8,14.8,0,0,0-1.41-1.93l2.25-1.39a20.51,20.51,0,0,1,3,4.37A17.19,17.19,0,0,1,875.69,608.36Z"/><path class="cls-1" d="M500,642a10,10,0,0,1-4.39,4.75l-1.31-2a9.31,9.31,0,0,0,2.77-2.71,8.82,8.82,0,0,0,1.15-3.07h-3.44v-2.16h3.57v-3.17H498a13.18,13.18,0,0,1-1.58,2.87l-2.09-1.13a21.54,21.54,0,0,0,1.53-3.28,15.68,15.68,0,0,0,.89-3.11l2.63.4c-.19.74-.38,1.44-.59,2.1h5v2.15H501v3.17h3V639h-2.68a10.61,10.61,0,0,0,3,4l-1.78,2.08A12.91,12.91,0,0,1,500,642Zm10,3.19h-2.82v1h-2.63V630.55h8.1v15.66H510Zm-2.82-2.12H510V632.67h-2.82Z"/><path class="cls-1" d="M526.89,643.86c1.59-.62,2.39-1.62,2.39-3a2.65,2.65,0,0,0-1.18-2.29,5.09,5.09,0,0,0-3-.83h-.24A7.94,7.94,0,0,0,523,638a11.11,11.11,0,0,0-2,.69,11.62,11.62,0,0,0-1.56.83c-.42.29-1.4,1-2.94,2.12l-1.57-2q8-5.46,10.26-7.18h-8.3v-2.28h11.85l1.42,1.5q-2.12,1.39-6.3,4.26a8.29,8.29,0,0,1,2-.31,7.08,7.08,0,0,1,4.53,1.31,4.57,4.57,0,0,1,1.64,3.78,5,5,0,0,1-2.32,4.4,10.87,10.87,0,0,1-6.11,1.54,8.12,8.12,0,0,1-4-.82,2.6,2.6,0,0,1-1.47-2.4,2.57,2.57,0,0,1,1.25-2.15,4.66,4.66,0,0,1,2.74-.88A4.4,4.4,0,0,1,526.89,643.86Zm-2.53.65c-.43-1.33-1.21-2-2.33-2a1.45,1.45,0,0,0-.87.27.81.81,0,0,0-.39.7c0,.72.85,1.07,2.54,1.07C523.68,644.55,524,644.54,524.36,644.51Z"/><path class="cls-1" d="M552.26,645.85a58,58,0,0,1-7,.47c-3.47,0-5.87-.34-7.18-1a3.29,3.29,0,0,1-2-3.06q0-2.55,2.72-4.6l2,1.46c-1.25,1.17-1.87,2.14-1.87,2.9a1.51,1.51,0,0,0,.12.61,1.36,1.36,0,0,0,.57.54,5.12,5.12,0,0,0,1.67.45,22.86,22.86,0,0,0,3.06.18H545a46.83,46.83,0,0,0,6.81-.52Zm-.73-12.4a8.72,8.72,0,0,0-1.41.37,12.86,12.86,0,0,0-1.28.48c-.34.15-1.58.75-3.72,1.79l-1.2-1.72c.25-.11,1-.46,2.27-1.06q-2.9,0-8.72.24l-.08-2.42q2.79-.11,10.62-.1h2.61Z"/><path class="cls-1" d="M572.25,646.33q-3.09.27-6,.27a34.13,34.13,0,0,1-5.56-.29,5.86,5.86,0,0,1-3.05-1.46,3.79,3.79,0,0,1-1.11-2.84c0-2.24,1.64-4.14,4.93-5.73-.21-2.24-.32-4.51-.34-6.79H564v1.17c0,1.44,0,2.94.14,4.5q2.26-.85,6.72-2.11l.82,2.44a51.63,51.63,0,0,0-9.2,3.11q-3.19,1.56-3.19,3.34c0,1.44,1.6,2.17,4.8,2.17H565a69.85,69.85,0,0,0,7.13-.42Z"/><path class="cls-1" d="M581.33,645.23l-2.39,1.6a40.27,40.27,0,0,0-3.68-4.92l2.11-1.51A47.92,47.92,0,0,1,581.33,645.23Z"/><path class="cls-1" d="M601.91,629.23c-.21.45-.41.85-.59,1.18H612.7v2H600c-.25.34-.49.65-.71.92H611v2H598.91v-1.5a17,17,0,0,1-2.47,2.38l-1.71-1.59a19.76,19.76,0,0,0,2.77-3.18,13.7,13.7,0,0,0,1.63-2.75Zm5.46,10.61a21,21,0,0,1-2.38,2.29c1.08.7,2,1.35,2.86,2L606.11,646c-.7-.56-1.8-1.33-3.3-2.3a21.75,21.75,0,0,1-7.17,3l-.8-2.21a23.14,23.14,0,0,0,5.66-2.29,26.67,26.67,0,0,0-3.54-1.95l1.39-2c1.34.64,2.8,1.43,4.4,2.38a17.6,17.6,0,0,0,2.43-2.37Zm6.5,1.41a28.56,28.56,0,0,1-.26,3.77,2,2,0,0,1-.73,1.19,2.17,2.17,0,0,1-1.38.43q-3.82,0-3.9-8.35H595.86v-2.08h14.47c0,.63,0,1.17,0,1.64,0,.92,0,1.89.13,2.9a11.05,11.05,0,0,0,.35,2.23,2.37,2.37,0,0,0,.36.83.37.37,0,0,0,.25.12.18.18,0,0,0,.16-.09,6.22,6.22,0,0,0,.15-1.07c.06-.65.09-1.28.09-1.9Z"/><path class="cls-1" d="M619.49,645.77l-.52-2.56a45.58,45.58,0,0,0,6.18-.55,8,8,0,0,0,3.76-1.62,4.17,4.17,0,0,0,.23-6,4.33,4.33,0,0,0-3.09-1.12,76.51,76.51,0,0,0-10.83,1.54l-.43-2.56,6.78-1a34.57,34.57,0,0,1,4.54-.41,9.29,9.29,0,0,1,3.79.73c-.47-1.14-.88-2.05-1.24-2.72l1.39-.54a32.13,32.13,0,0,1,1.38,3l-1.15.44a5.65,5.65,0,0,1,3.14,5.48A6.36,6.36,0,0,1,630,643.7C627.79,645,624.27,645.71,619.49,645.77Zm14.74-14.19-1.39.52c-.38-.93-.83-1.93-1.37-3l1.35-.51C633.32,629.55,633.79,630.55,634.23,631.58Z"/><path class="cls-1" d="M650.8,645.25l-2.24,2.06-2.84-2.38q-1.29-1.09-2.49-1.95L641,641.45c-1.45-1-2.34-1.63-2.69-1.93a2.78,2.78,0,0,1-.73-.91,2.64,2.64,0,0,1-.2-1,2.84,2.84,0,0,1,1.5-2.34l2.36-1.57c1.21-.82,2.19-1.51,2.93-2.08s1.8-1.45,3.19-2.63l2.32,1.82a88.88,88.88,0,0,1-7.62,5.51c-.24.15-.59.37-1,.67l-.69.47a.27.27,0,0,0,0,.11.17.17,0,0,0,.05.14l1.78,1.18q3.36,2.24,5.1,3.51C648.38,643.2,649.57,644.17,650.8,645.25Z"/><path class="cls-1" d="M672.87,645.85a58,58,0,0,1-7,.47c-3.47,0-5.87-.34-7.18-1a3.29,3.29,0,0,1-2-3.06q0-2.55,2.72-4.6l2,1.46c-1.25,1.17-1.87,2.14-1.87,2.9a1.51,1.51,0,0,0,.12.61,1.36,1.36,0,0,0,.57.54,5.12,5.12,0,0,0,1.67.45,22.86,22.86,0,0,0,3.06.18h.72a46.83,46.83,0,0,0,6.81-.52Zm-.73-12.4a8.72,8.72,0,0,0-1.41.37q-.78.25-1.29.48l-3.71,1.79-1.2-1.72,2.27-1.06q-2.89,0-8.72.24l-.08-2.42q2.79-.11,10.62-.1h2.61Z"/><path class="cls-1" d="M692.86,646.33q-3.09.27-6,.27a34.13,34.13,0,0,1-5.56-.29,5.83,5.83,0,0,1-3.05-1.46,3.79,3.79,0,0,1-1.11-2.84c0-2.24,1.64-4.14,4.93-5.73-.21-2.24-.32-4.51-.34-6.79h2.86v1.17c0,1.44,0,2.94.14,4.5q2.26-.85,6.72-2.11l.82,2.44a51.63,51.63,0,0,0-9.2,3.11q-3.2,1.56-3.19,3.34c0,1.44,1.6,2.17,4.8,2.17h.91a69.85,69.85,0,0,0,7.13-.42Z"/><path class="cls-1" d="M702.37,631.59c0,.42,0,.92,0,1.5h2.52a3.52,3.52,0,0,1,2.69,1.08,4,4,0,0,1,1,2.81,20.36,20.36,0,0,1-1,6.95c-.66,1.78-1.79,2.68-3.38,2.68a5.24,5.24,0,0,1-1.44-.23,13.75,13.75,0,0,1-2.5-1.23l.91-2.32a6.68,6.68,0,0,0,2.68,1,.86.86,0,0,0,.65-.28,3.41,3.41,0,0,0,.59-1.21,10.17,10.17,0,0,0,.46-2.07,19.94,19.94,0,0,0,.15-2.58,5,5,0,0,0-.13-1.39,1,1,0,0,0-.42-.59,1.29,1.29,0,0,0-.74-.2h-2.27a20.19,20.19,0,0,1-5,11.3L695,645.45a17.29,17.29,0,0,0,2.4-3.87,20.21,20.21,0,0,0,1.8-6.05h-3.57v-2.44h3.9l0-3.78h2.87ZM714.52,640l-2.69.76a26.17,26.17,0,0,0-1.73-4.54,21.59,21.59,0,0,0-2.34-3.6l2.23-1.3A22.44,22.44,0,0,1,714.52,640Zm-2.31-8.26-1.42.54c-.55-1.34-1-2.34-1.34-3l1.36-.54C711.38,629.85,711.85,630.85,712.21,631.75Zm2.69-.21-1.37.51c-.43-1.06-.88-2.06-1.35-3l1.31-.5C714,629.58,714.49,630.57,714.9,631.54Z"/><path class="cls-1" d="M725.29,638.78q-2.26,5.64-8.8,7.85l-1.17-2.2a12.48,12.48,0,0,0,5.26-3.26,10.16,10.16,0,0,0,2.63-5h-7.1v-2.35h7.43v-4.46h2.83v4.46h7.48v2.35h-7a13.46,13.46,0,0,0,3,4.65,16.19,16.19,0,0,0,4.78,3.42l-1.79,2.35a21.14,21.14,0,0,1-4.7-3.53A15.45,15.45,0,0,1,725.29,638.78Z"/><path class="cls-1" d="M742.91,644a6.27,6.27,0,0,1-2,.2,9.47,9.47,0,0,1-1.85-.14,1.86,1.86,0,0,1-1.12-.64,2.22,2.22,0,0,1-.4-1.38v-6.3l-1.93.22-.16-2.29,2.09-.24V629.1h2.67v4l4-.46.11,2.27-4.16.48v6.09c0,.24.13.36.38.36h1a.47.47,0,0,0,.32-.1.41.41,0,0,0,.13-.28c0-.12,0-.48.09-1.09s.05-1.1.05-1.49l2.23.24v2.6a12.26,12.26,0,0,0,1.31-3.75,25.22,25.22,0,0,0,.32-4.3v-1.85h-2.63v-2.14h10.3v9.56a29.63,29.63,0,0,1-.19,3.39,9.23,9.23,0,0,1-.44,2.28,2.29,2.29,0,0,1-.94,1,3.22,3.22,0,0,1-1.73.44h-2.8l-.32-2.48h2.28a1.55,1.55,0,0,0,.59-.1,1,1,0,0,0,.43-.31,2.78,2.78,0,0,0,.31-1.07c.08-.57.15-1.26.2-2.08s.07-1.75.07-2.81c0-.65,0-2.55-.06-5.71h-2.46v2.55a18.28,18.28,0,0,1-1.16,6.86,15,15,0,0,1-3.9,5.41L741.93,645A9.07,9.07,0,0,0,742.91,644Z"/><path class="cls-1" d="M771.92,644l-.14,2.64-1.43,0a12.75,12.75,0,0,1-5.64-1,6.83,6.83,0,0,1-2.9-2.44,6.13,6.13,0,0,1-.87-3.25c0-2.39,1.18-4.58,3.54-6.59l-8.72.09v-2.5h17.5v2.52h-4.51a9.64,9.64,0,0,0-3.5,2.75,5.71,5.71,0,0,0-1.37,3.61q0,4.22,6.45,4.22Q771.07,644,771.92,644Zm-.88-6.48-1.45.54c-.27-.68-.71-1.68-1.33-3l1.4-.54A31.38,31.38,0,0,1,771,637.47Zm2.8-.56-1.41.52q-.69-1.71-1.35-3l1.35-.5C773,635,773.43,635.94,773.84,636.91Z"/><path class="cls-1" d="M794.42,633.34h-5.83V637a6.71,6.71,0,0,1,.56,3,6,6,0,0,1-2.09,4.77,9.28,9.28,0,0,1-5.6,2l-.69-2.36c2.88-.23,4.69-1.25,5.45-3.08a4.28,4.28,0,0,1-2.56.8,4.19,4.19,0,0,1-2.88-1,3.39,3.39,0,0,1-1.16-2.64,3.92,3.92,0,0,1,1.23-3,4.37,4.37,0,0,1,3.1-1.16,5,5,0,0,1,1.75.32v-1.37h-9.61V631h9.61v-1.95h2.89V631h5.83Zm-8.69,4.45v-.55a2,2,0,0,0-1.75-.67,1.6,1.6,0,0,0-1.19.55,1.7,1.7,0,0,0-.54,1.2,1.58,1.58,0,0,0,.4,1.11,1.32,1.32,0,0,0,1,.44,2,2,0,0,0,1.51-.57A2.06,2.06,0,0,0,785.73,637.79Z"/><path class="cls-1" d="M807.21,630.93l-.39,10.44h-2.76l-.4-10.44Zm-.08,14.72h-3.38v-2.54h3.38Z"/></g></g></svg>