<svg xmlns="http://www.w3.org/2000/svg" xmlns:xlink="http://www.w3.org/1999/xlink" viewBox="0 0 417.78 216.05"><defs><style>.cls-1{fill:#f8afc0;opacity:0.35;}.cls-2{fill:url(#名称未設定グラデーション_28);}.cls-3{fill:#fff;}.cls-4{fill:none;stroke:#fff;stroke-miterlimit:10;stroke-width:2px;}.cls-5{fill:url(#名称未設定グラデーション_28-2);}</style><linearGradient id="名称未設定グラデーション_28" x1="54.7" y1="23.18" x2="152.68" y2="192.88" gradientUnits="userSpaceOnUse"><stop offset="0" stop-color="#f9bccb"/><stop offset="0.08" stop-color="#f7aabd"/><stop offset="0.18" stop-color="#f699af"/><stop offset="0.31" stop-color="#f58ea6"/><stop offset="0.49" stop-color="#f487a0"/><stop offset="1" stop-color="#f4859f"/></linearGradient><linearGradient id="名称未設定グラデーション_28-2" x1="265.11" y1="23.18" x2="363.09" y2="192.88" xlink:href="#名称未設定グラデーション_28"/></defs><g id="レイヤー_2" data-name="レイヤー 2"><g id="レイヤー_1-2" data-name="レイヤー 1"><ellipse class="cls-1" cx="103.69" cy="108.03" rx="103.69" ry="108.03"/><ellipse class="cls-2" cx="103.69" cy="108.03" rx="94.69" ry="99.03"/><path class="cls-3" d="M87.93,66c-3.12.42-5.89.73-8.29.91l-.46-2.35L81,64.42V56.71H79.52V54.58h23.16v2.13H91.07v11.4H87.93Zm12.69-12.52h-19V46.39h19ZM84.14,56.71v1.43h3.79V56.71Zm0,2.9v1.48h3.79V59.61Zm0,4.58,3.79-.33V62.57H84.14Zm.8-14.88H97.28v-1.2H84.94Zm12.34,1.36H84.94v1.17H97.28Zm5,7.25a8.87,8.87,0,0,1-2.65,6.21,18.48,18.48,0,0,0,3.6,1.06l-1.48,2.49a12.94,12.94,0,0,1-4.45-1.76,15.33,15.33,0,0,1-5,2l-.93-2.2a12.3,12.3,0,0,0,3.79-1.46,8.71,8.71,0,0,1-2.47-4.17h-1V57.92Zm-5,4.68a5.18,5.18,0,0,0,1.65-2.54H95.48A6.17,6.17,0,0,0,97.21,62.6Z"/><path class="cls-3" d="M116.58,58q-2.83,7-11,9.81l-1.46-2.76A15.53,15.53,0,0,0,110.69,61,12.61,12.61,0,0,0,114,54.74H105.1V51.81h9.29V46.23h3.54v5.58h9.35v2.93h-8.74a16.65,16.65,0,0,0,3.73,5.82,20.18,20.18,0,0,0,6,4.28L126,67.77a26.09,26.09,0,0,1-5.87-4.42A19.11,19.11,0,0,1,116.58,58Z"/><path class="cls-3" d="M67.93,86.89H54.13V84.13H57L56.19,81h-1.6V78.24h5.1V75.92H63.1v2.32h4.7V81H66.51l-1,3.17h2.46Zm-4.47,9.85h-5v1H55.24V88.11H66.77v9.66H63.46Zm-5-2.6h5V90.79h-5Zm1.84-10h2L63.14,81H59.52Zm17.48-6.82a21.25,21.25,0,0,1-1,3.16c-.57,1.63-1,2.78-1.32,3.44a10.12,10.12,0,0,1,2,5.74,7.19,7.19,0,0,1-.28,2.15,3.44,3.44,0,0,1-.84,1.49,2.84,2.84,0,0,1-1.34.8,9,9,0,0,1-2.34.22h-.21l-.65-2.93h.65a6,6,0,0,0,1,0,1,1,0,0,0,.34-.26,1.47,1.47,0,0,0,.28-.64,4.69,4.69,0,0,0,.1-1.07,7.68,7.68,0,0,0-.49-2.61,8.26,8.26,0,0,0-1.14-2.21,1,1,0,0,1-.15-.48.81.81,0,0,1,.1-.39,28.9,28.9,0,0,0,1.23-4.51h-2v18.9H68.58V76.59h8.54Z"/><path class="cls-3" d="M92,98H88.36V79.76H79.92v-3h22.4v3H92v2.89a37.05,37.05,0,0,0,8.34,3.84l-1.56,3.29A46.25,46.25,0,0,1,92,86.46Z"/><path class="cls-3" d="M116.51,89q-2.62,6.23-10.38,8.88l-1.51-2.79a18.13,18.13,0,0,0,4.21-2,12,12,0,0,0,2.84-2.61,12.3,12.3,0,0,0,1.67-2.91,10.66,10.66,0,0,0,.72-2.88c.09-.93.14-2.57.14-4.91V76.52h3.64v6.11a9.26,9.26,0,0,0,.45,2.2A13,13,0,0,0,120,88.25a15.55,15.55,0,0,0,3.32,3.53A20.4,20.4,0,0,0,128,94.59l-2.2,3.07a19.35,19.35,0,0,1-5.71-3.84A17.84,17.84,0,0,1,116.51,89Z"/><path class="cls-3" d="M141.82,90.06a9.11,9.11,0,0,1-2.07,4c.64.33,1.14.6,1.48.81l-1.77,2.4c-.57-.38-1.3-.82-2.19-1.33a18.68,18.68,0,0,1-7.07,1.91l-.74-2.36a17.7,17.7,0,0,0,5-1,19.05,19.05,0,0,0-3-1.24A.46.46,0,0,1,131,93a.86.86,0,0,1-.16-.48.78.78,0,0,1,0-.22A17.46,17.46,0,0,0,132,90.06h-2.45V87.73H133c.34-.88.57-1.5.68-1.86l1.33.18V83.86a21,21,0,0,1-4.79,2.58l-1.13-2.2a18.81,18.81,0,0,0,4.71-2.6h-3.92V79.36h1.61l-1-2.27,2.47-.62,1.43,2.89H135V75.87h3v3.49h.76l1.32-2.87,2.62.53-1.24,2.34h1.36v2.28h-3.78a20,20,0,0,0,3,1.47l-1.35,2.28A14.77,14.77,0,0,1,138,83.84v2.65h-1.27c-.14.41-.3.82-.48,1.24h7v2.33Zm-4.71,2.73a6.13,6.13,0,0,0,1.56-2.73h-3.41q-.49,1.09-.81,1.68A20,20,0,0,1,137.11,92.79ZM152,81.94a21,21,0,0,1-2.52,9,20.35,20.35,0,0,0,4.2,4.36l-2.17,2.39a25,25,0,0,1-3.93-4.08,20.67,20.67,0,0,1-5.24,4.34l-1.53-2.46a16.62,16.62,0,0,0,5-4.61,21.27,21.27,0,0,1-1.83-5,7.46,7.46,0,0,1-.56.83l-2-1.63a22,22,0,0,0,2.09-4.51,25.7,25.7,0,0,0,1.19-4.79l3.18.41a23.49,23.49,0,0,1-.7,3.14h5.87v2.61Zm-4.45,5.78a17.49,17.49,0,0,0,1.27-5.78h-2.68l-.12.2A21.34,21.34,0,0,0,147.59,87.72Z"/><path class="cls-3" d="M72.25,162.38H51.07v-4.83H58.2V138.39H51.07V134q4.24,0,6-1.18a4.61,4.61,0,0,0,2-3.57h6.16v28.35h7Z"/><path class="cls-3" d="M79.38,161.1v-6.28h.73a18.24,18.24,0,0,0,9.12,2.81q7.42,0,7.42-5.95a4.39,4.39,0,0,0-2.05-3.89,11,11,0,0,0-6.07-1.36,32.35,32.35,0,0,0-7,1h-.81V129.27h22.61v5.38H87.55v6.79c1.7-.1,2.94-.15,3.74-.15q6.22,0,9.49,2.69a9.09,9.09,0,0,1,3.27,7.43,10.59,10.59,0,0,1-3.75,8.45q-3.76,3.22-10.18,3.22A28.1,28.1,0,0,1,79.38,161.1Z"/><path class="cls-3" d="M122,163.08q-6.78,0-10-4.1t-3.16-13.15q0-9,3.18-13.09t9.93-4.13q6.77,0,9.94,4.12c2.12,2.74,3.18,7.11,3.18,13.08s-1,10.48-3.16,13.2S126.52,163.08,122,163.08Zm0-29.35a4.54,4.54,0,0,0-4.42,2.89c-.9,1.92-1.34,5-1.34,9.24s.46,7.29,1.37,9.22a4.77,4.77,0,0,0,8.79,0q1.37-2.94,1.37-9.23t-1.34-9.2A4.56,4.56,0,0,0,122,133.73Z"/><path class="cls-3" d="M156.23,162.64h-9.74v1H143v-6.33c-1.44.75-2.87,1.41-4.27,2l-1.55-2.51a46.67,46.67,0,0,0,8.47-4.36q-1.11-.81-3.51-2.49a38.66,38.66,0,0,1-3.31,2.09l-1.91-2.27a32,32,0,0,0,6.2-4.56,22.9,22.9,0,0,0,3.45-4l3.46.72a14.14,14.14,0,0,1-1.08,1.67h7.17l1.43,1.21A27.51,27.51,0,0,1,150,153h9.71v10.61h-3.52ZM144.64,148c1.43.89,2.65,1.7,3.67,2.41a25.63,25.63,0,0,0,4.25-4.29h-5.85C146.09,146.73,145.4,147.35,144.64,148Zm1.85,11.95h9.74v-4.31h-9.74Z"/><line class="cls-4" x1="29.2" y1="113.03" x2="178.18" y2="113.03"/><ellipse class="cls-1" cx="314.1" cy="108.03" rx="103.69" ry="108.03"/><ellipse class="cls-5" cx="314.1" cy="108.03" rx="94.69" ry="99.03"/><path class="cls-3" d="M273.94,63.48A20.86,20.86,0,0,1,270.06,66a23.26,23.26,0,0,1-4.44,1.8l-1.53-2.55a28,28,0,0,0,4-1.65,18,18,0,0,0,3-1.79h-5.23V46.66h3.55V59.23h18.49v2.6h-6.26A21.68,21.68,0,0,0,285,63.62a24.38,24.38,0,0,0,3.73,1.32l-1.94,2.83a19.08,19.08,0,0,1-4.06-1.69,21.51,21.51,0,0,1-3.87-2.46l2-1.79h-2.59V68h-3.64V61.83H271.9Zm12-5.39H271.4v-12h14.5Zm-3.41-8.33V48.44H274.8v1.32Zm-7.69,3.08h7.69V51.41H274.8Zm7.69,1.67H274.8v1.36h7.69Z"/><path class="cls-3" d="M313.59,51.22H294.87v2.91a34.82,34.82,0,0,1-.89,8.25A14.82,14.82,0,0,1,291.56,68l-2.47-1.6a16,16,0,0,0,1.74-4.8,30.61,30.61,0,0,0,.7-6.82V48.59h9.57V46h3.48v2.55h9ZM306.5,65.08a2.36,2.36,0,0,1-1,2,3.66,3.66,0,0,1-2.32.77H299.4L299,64.64h3.14a.78.78,0,0,0,.53-.22.71.71,0,0,0,.24-.53V56.06h-7.2V53.22h17.51v2.84H306.5Z"/><path class="cls-3" d="M323.4,46.54c-.06,1.3-.15,2.49-.29,3.58h5.35V53h-5.79a27.81,27.81,0,0,1-5.56,12.43l-2.68-1.93A24.73,24.73,0,0,0,319.18,53H315.4V50.12h4.29a32.92,32.92,0,0,0,.28-3.69Zm15.12,17.57-1.81,2.7a29.16,29.16,0,0,0-4.1-2.94A3.72,3.72,0,0,1,331.29,67a9,9,0,0,1-8.45-.05,3.39,3.39,0,0,1-1.61-3,3.74,3.74,0,0,1,1.71-3.23,7.24,7.24,0,0,1,4.2-1.19,14.8,14.8,0,0,1,2.08.14V53.36h3.39v7.25A30.71,30.71,0,0,1,338.52,64.11Zm-9.3-1.71a9.84,9.84,0,0,0-2.08-.21,4.25,4.25,0,0,0-1.95.42,1.29,1.29,0,0,0-.81,1.17c0,1,.95,1.53,2.86,1.53,1.32,0,2-.47,2-1.42ZM338.7,54,336,56a36.79,36.79,0,0,0-3.55-3.54,27.43,27.43,0,0,0-3.74-2.92l2.06-2.27a24.49,24.49,0,0,1,4.06,2.92A34.92,34.92,0,0,1,338.7,54Z"/><path class="cls-3" d="M361.84,67.46q-3.88.33-7.46.33a44.15,44.15,0,0,1-6.95-.35,7.33,7.33,0,0,1-3.81-1.83,4.71,4.71,0,0,1-1.39-3.55q0-4.2,6.16-7.16-.39-4.21-.42-8.5h3.57v1.47c0,1.81.06,3.68.17,5.63q2.83-1.06,8.41-2.64l1,3a64.59,64.59,0,0,0-11.51,3.89q-4,2-4,4.17,0,2.72,6,2.71h1.14a87.29,87.29,0,0,0,8.91-.53Zm-2-17.67-1.81.67c-.33-.86-.88-2.13-1.65-3.8l1.73-.62C358.76,47.28,359.34,48.52,359.85,49.79Zm3.5-.7-1.76.65q-.85-2.13-1.68-3.75l1.68-.63C362.2,46.51,362.78,47.76,363.35,49.09Z"/><path class="cls-3" d="M277.89,93.34h-4.72v1.23a34.17,34.17,0,0,0,4.22-.43l0,.92a22.53,22.53,0,0,0,1.7-4.4,28.7,28.7,0,0,0,.94-7.18h-1.62V81H280V76h3.21v5h4.17v7.63c0,.27,0,1-.07,2.22A24.57,24.57,0,0,1,287,94a10.09,10.09,0,0,1-.42,1.88,2.7,2.7,0,0,1-.64,1,3,3,0,0,1-1,.66,3.33,3.33,0,0,1-1.24.22H281.1l-.33-2.6h1.7a1.32,1.32,0,0,0,1-.41,5.46,5.46,0,0,0,.59-2.41,42.35,42.35,0,0,0,.21-4.43V83.48H283c-.06,1.64-.14,2.92-.23,3.86a20.86,20.86,0,0,1-.6,3.28,23.39,23.39,0,0,1-1.3,3.74A18.65,18.65,0,0,1,279,97.72l-1.74-1.21a37.35,37.35,0,0,1-5.65.78q-4.39.4-6.86.45l-.43-2.8c1.2,0,3.08-.07,5.64-.19V93.34h-4.73V91.11H270v-1h-5.16V87.71H270v-1H265.3V80.84h2V79.71h-2.66V77.33h2.66V76h3v1.34h2.44V76h2.94v1.34h2.88v2.38h-2.88v1.13h2v5.87h-4.54v1h4.92v2.35h-4.92v1h4.72ZM270,82.86h-1.86v1.83H270Zm.3-2h2.44V79.71H270.3Zm4.47,3.85V82.86h-1.65v1.83Z"/><path class="cls-3" d="M297.09,95.77a1.76,1.76,0,0,1-.81,1.44,3.2,3.2,0,0,1-2,.61h-2.91l-.33-2.93h2.21c.46,0,.69-.22.69-.65V90.79a18.66,18.66,0,0,1-2.64,3.5l-2.13-1.88a24.5,24.5,0,0,0,4.16-6.52H290V83.44h3.8c-.67-.61-1.67-1.46-3-2.55l2.09-2,2.34,1.91a20.48,20.48,0,0,0,1.94-2h-6.61V76.47h9.59l1.29,1.39a21.85,21.85,0,0,1-4.28,4.58,12.4,12.4,0,0,1,1.07,1h2.63l.83.69c-.09.27-.21.62-.37,1.06a21.26,21.26,0,0,0,3.56-1.36,11.06,11.06,0,0,1-1.73-2.11,22.62,22.62,0,0,1-1.56,1.67l-2-1.48a14.61,14.61,0,0,0,3.74-6.25l3,.45a10.21,10.21,0,0,1-.6,1.65h7.69v2.38h-1.26a9.58,9.58,0,0,1-2.34,3.6A21,21,0,0,0,313.9,85l-1.61,2.63a27.54,27.54,0,0,1-5-2A17.44,17.44,0,0,1,304.07,87h2.69c0,.74,0,1.29,0,1.68h5.53c0,1.88-.05,3.42-.13,4.61a11.63,11.63,0,0,1-.42,2.64,2.43,2.43,0,0,1-1.1,1.33,3.92,3.92,0,0,1-2.07.5h-2.91l-.4-2.71h2.46a1.09,1.09,0,0,0,1-.65,9.92,9.92,0,0,0,.32-3.29h-2.6a8.53,8.53,0,0,1-2.28,4.17A10.58,10.58,0,0,1,299.59,98l-1.48-2.48a8.58,8.58,0,0,0,3.23-1.85,6.55,6.55,0,0,0,1.79-2.56h-3.2V88.64h3.57c0-.34,0-.85,0-1.5l-1.58.45-.86-1.85a18.74,18.74,0,0,1-1.91,3.92l-2-.85c.31-.72.71-1.72,1.2-3h-1.25Zm10.07-13.48a8.17,8.17,0,0,0,1.71-2.15h-3.74A7.77,7.77,0,0,0,307.16,82.29Z"/><path class="cls-3" d="M326.53,92.87a12.49,12.49,0,0,1-4.46,3.34,20.06,20.06,0,0,1-6.32,1.8l-1.05-2.72a24.49,24.49,0,0,0,5.43-1.54,11.57,11.57,0,0,0,3.13-2h-7.89V89.16h9.3V87.84h-7.53V85.37h7.53V84h-7.6V82.44h-1.61V77.56h9.21V75.69h3.45v1.87h9.55v4.88H336V84h-7.69v1.36h8.46v2.47h-8.46v1.32H338v2.58h-8.46a13.33,13.33,0,0,0,3.44,2A25.07,25.07,0,0,0,338.5,95l-1.39,3a17.71,17.71,0,0,1-6-1.64A13.57,13.57,0,0,1,326.53,92.87Zm-1.86-11.25v-.93h3.6v.93h6.61V79.91H318.27v1.71Z"/><path class="cls-3" d="M343.2,89.42c-.11,1.14-.3,2.44-.58,3.9a22.2,22.2,0,0,1-.83,3.26l-2.14-.52a33.27,33.27,0,0,0,1.11-6.8Zm3.34,8.64h-2.92V88.34c-1.47.15-2.61.24-3.44.27l-.31-2.4c.45,0,1,0,1.76,0,.42-.55.91-1.22,1.45-2-1.12-1.33-2.22-2.57-3.3-3.7l1.68-1.79.38.39a24.74,24.74,0,0,0,2-3.66l2.54,1a31.28,31.28,0,0,1-2.86,4.45l1.06,1.18a31.33,31.33,0,0,0,2.3-4l2.53,1.17A60.92,60.92,0,0,1,344.7,86c.9,0,1.68-.11,2.35-.18a14.28,14.28,0,0,0-.61-1.71l2.21-.65q.6,1.65,1.48,4.66l-2.29.59q0-.21-.21-.9c-.3.06-.67.11-1.09.17Zm3.47-4-2.34.44c-.21-1.42-.43-3.11-.68-5.07l2.23-.35Zm5.64,1.62A13.83,13.83,0,0,1,352.86,97a20.86,20.86,0,0,1-3.28.93l-.91-2.3a21,21,0,0,0,4.61-1.47h-2.85V85h12.29v9.13H360a29.31,29.31,0,0,0,4.24,1.39L363,98a22.38,22.38,0,0,1-5.7-2.27l1.08-1.55h-3.77Zm8-11.61H349.63v-2H355v-.81h-4.47V79.64H355v-.88h-5v-1.9h5V75.71h3.26v1.15h5.08v1.9h-5.08v.88h4.43v1.67h-4.43v.81h5.44Zm-4.08,3.68v-1h-6.18v1Zm-6.18,2.3h6.18V89h-6.18Zm6.18,1.3h-6.18v1.12h6.18Z"/><path class="cls-3" d="M275.2,154.14h-4.73v8.31h-7v-8.31H247.42v-5.82l15.77-19h7.28V149h4.73ZM263.49,149v-13l-10.77,13Z"/><path class="cls-3" d="M292,163.08q-6.78,0-9.95-4.1t-3.17-13.15q0-9,3.18-13.09t9.94-4.13q6.77,0,9.94,4.12c2.12,2.74,3.18,7.11,3.18,13.08S304,156.29,301.92,159,296.5,163.08,292,163.08Zm0-29.35a4.56,4.56,0,0,0-4.43,2.89q-1.33,2.88-1.33,9.24c0,4.21.45,7.29,1.37,9.22a4.77,4.77,0,0,0,8.79,0q1.36-2.94,1.37-9.23t-1.34-9.2A4.56,4.56,0,0,0,292,133.73Z"/><path class="cls-3" d="M330.91,158.58h-8.54v5.23h-3.52v-5.23H308v-2.91h3.16V151.2q-.72.74-1.53,1.44l-2.36-2.13a21.32,21.32,0,0,0,3.76-4.4,18.87,18.87,0,0,0,2.4-5.11l3.51.53c-.25.83-.5,1.57-.76,2.21h14.18v2.82h-8v2.86h7v2.81h-7v3.44h8.54Zm-16.21-12a26.53,26.53,0,0,1-2,2.86h6.15v-2.86Zm-.12,9.11h4.27v-3.44h-4.27Z"/><path class="cls-3" d="M345.94,155.67a30.76,30.76,0,0,1-5.33,2.81,55.9,55.9,0,0,1-7,2.7l-1-3.15c.63-.17,1.44-.42,2.42-.75V142.43h3.54V156a53,53,0,0,0,6.53-3Zm10.24,5.64-2.59,2.52a39.6,39.6,0,0,1-4.45-5.3,19.32,19.32,0,0,1-8.81,5.37l-1.46-2.77a17.75,17.75,0,0,0,6.31-3.42,12.81,12.81,0,0,0,3.65-5.4,25.61,25.61,0,0,0,1.18-8.62v-1.61h3.54v.4q0,8.58-2.34,13A23.77,23.77,0,0,0,356.18,161.31Zm-8.58-11.2-3.15,1.82a51.29,51.29,0,0,0-4.77-7.69l2.88-1.55A81.85,81.85,0,0,1,347.6,150.11Z"/><path class="cls-3" d="M381,163H358.25v-3.13h9.05v-17.6H371v5.94h8.16v3H371v8.61h10Z"/><line class="cls-4" x1="239.61" y1="113.03" x2="388.59" y2="113.03"/></g></g></svg>