<svg xmlns="http://www.w3.org/2000/svg" xmlns:xlink="http://www.w3.org/1999/xlink" viewBox="0 0 417.78 216.05"><defs><style>.cls-1{fill:#f8afc0;opacity:0.35;}.cls-2{fill:url(#名称未設定グラデーション_28);}.cls-3{fill:#fff;}.cls-4{fill:none;stroke:#fff;stroke-miterlimit:10;stroke-width:2px;}.cls-5{fill:url(#名称未設定グラデーション_28-2);}</style><linearGradient id="名称未設定グラデーション_28" x1="54.7" y1="23.18" x2="152.68" y2="192.88" gradientUnits="userSpaceOnUse"><stop offset="0" stop-color="#f9bccb"/><stop offset="0.08" stop-color="#f7aabd"/><stop offset="0.18" stop-color="#f699af"/><stop offset="0.31" stop-color="#f58ea6"/><stop offset="0.49" stop-color="#f487a0"/><stop offset="1" stop-color="#f4859f"/></linearGradient><linearGradient id="名称未設定グラデーション_28-2" x1="265.11" y1="23.18" x2="363.09" y2="192.88" xlink:href="#名称未設定グラデーション_28"/></defs><g id="レイヤー_2" data-name="レイヤー 2"><g id="レイヤー_1-2" data-name="レイヤー 1"><ellipse class="cls-1" cx="103.69" cy="108.03" rx="103.69" ry="108.03"/><ellipse class="cls-2" cx="103.69" cy="108.03" rx="94.69" ry="99.03"/><path class="cls-3" d="M88.46,65.22H84.19v1.41H81.37v-7c-.26.41-.52.79-.8,1.15l-1.89-1.63a23.25,23.25,0,0,0,3.62-9.82H79.49V46.76h9.57v2.53H85.48a26.24,26.24,0,0,1-.81,3.82h3.79Zm-2.82-2.41V55.49H84.19v7.32ZM95,57.56Q94.69,64.1,91.1,68l-2.44-1.77a12.57,12.57,0,0,0,2-3.31,15.1,15.1,0,0,0,1.06-5.37H89.21V54.72h2.54V49.38H89.83V46.66H102.9v2.72h-1.8v5.34h2.08v2.84H101.1V67.72H97.78V57.56Zm0-8.18v5.34h2.74V49.38Z"/><path class="cls-3" d="M109.82,68h-3V58a12.25,12.25,0,0,1-1.11,1.62l-1.84-1.67A31.22,31.22,0,0,0,106.51,52a32.91,32.91,0,0,0,1.57-6.22l3.11.38A31.09,31.09,0,0,1,109.28,53h.54Zm3.69-3.55H110.8V49.57h2.71Zm15-1.62a25.42,25.42,0,0,1-6.78,3.35,37.48,37.48,0,0,1-8.52,1.92l-.75-2.53a34.06,34.06,0,0,0,8.36-2,26.4,26.4,0,0,0,5.63-2.78Zm-7.82-17a16.91,16.91,0,0,1-.71,1.78h7.83V50h-1.56a9.27,9.27,0,0,1-2.43,3.43,22.7,22.7,0,0,0,4.85,1.24l-1.41,2.51a19.14,19.14,0,0,1-6-2,22.73,22.73,0,0,1-6.7,2.07l-.78-2.36a20.15,20.15,0,0,0,5.08-1.4,10.07,10.07,0,0,1-1.57-1.75,15.71,15.71,0,0,1-1.7,1.74l-2-1.62a17.3,17.3,0,0,0,2.43-3,13.1,13.1,0,0,0,1.65-3.41Zm2.85,11.38a24,24,0,0,1-4.27,2.28A27.28,27.28,0,0,1,114.81,61l-1.17-2.23a25.27,25.27,0,0,0,4.6-1.52,15.39,15.39,0,0,0,3.21-1.73Zm3.24,2.26a28.44,28.44,0,0,1-5.62,2.9,38.58,38.58,0,0,1-6.57,2.09l-.88-2.29a30.62,30.62,0,0,0,10.69-4.44ZM121.24,52A7,7,0,0,0,123,50h-3.66A10,10,0,0,0,121.24,52Z"/><path class="cls-3" d="M71.63,85.22l-2.16,2.25a32.57,32.57,0,0,0-3.23-3.75l2.06-2.15Q69.52,82.82,71.63,85.22ZM72.15,89a44.44,44.44,0,0,1-1.31,4.62,20.84,20.84,0,0,1-1.68,3.93L66.42,96a35.69,35.69,0,0,0,3.07-8Zm.35-9.56-2,2.29a38.53,38.53,0,0,0-3.3-3.78l2-2.13A33,33,0,0,1,72.5,79.43ZM89.32,95.31A2.21,2.21,0,0,1,88.55,97a3,3,0,0,1-2,.68H83.91l-.5-2.78h2.26a.65.65,0,0,0,.45-.19.51.51,0,0,0,.21-.39V87.71H82.15v4.55h1V88.44h2.23v5.78H78.73v.64H76.55V88.44h2.23v3.82h1V87.71H75.64V97.87h-3V85.41h6.91V84.34H71.82v-2.6h3.9v-1.4H72.63V77.76h3.09V75.92H79v1.84h4V75.92h3.16v1.84h3.38v2.58H86.09v1.4h4.08v2.6H82.35v1.07h7ZM79,80.34v1.4h4v-1.4Z"/><path class="cls-3" d="M99.16,86.66c0,.26,0,.52,0,.78a18.21,18.21,0,0,1-.28,3.28A7.12,7.12,0,0,0,102,93.24V85.63h-7.7v-9h19v9h-7.79V88h8.29v2.82h-8.29v3.32a36.61,36.61,0,0,0,4.65.26c3.08,0,4.87,0,5.38,0l-.71,3q-4,0-6.06,0a33.38,33.38,0,0,1-4.34-.38,13.14,13.14,0,0,1-3.85-1.14,9.56,9.56,0,0,1-2.73-2,11.51,11.51,0,0,1-4.53,4.27L91.4,95.84a9.81,9.81,0,0,0,3.29-3.2,10.25,10.25,0,0,0,1.07-5.19c0-.25,0-.51,0-.79Zm10.69-3.77V79.36H97.6v3.53Z"/><path class="cls-3" d="M140.4,80H121.72v4.1q0,3-.21,5.22a23.84,23.84,0,0,1-.92,4.63,14.33,14.33,0,0,1-1.82,4l-2.4-1.47a19,19,0,0,0,1.56-4.7,35.08,35.08,0,0,0,.58-7.1v-7h9.37V75.84h3.45v1.82h9.07Zm-1.76,9.21a12.19,12.19,0,0,1-4.4,4.94,37.1,37.1,0,0,0,6.56,1l-1.41,2.82A31.07,31.07,0,0,1,131,96a35.54,35.54,0,0,1-9.52,2l-.72-2.58a43.78,43.78,0,0,0,7-1.21,11.32,11.32,0,0,1-3.17-3.34h-2.1V88.34l15.35,0Zm-2.06-1.93H125.43v-3h-3.07V81.91h3.07V80.46h3.16v1.45h4.73V80.46h3.26v1.45h3.21v2.31h-3.21ZM130.91,93a8.68,8.68,0,0,0,2.73-2.19h-5.55A9.17,9.17,0,0,0,130.91,93Zm-2.32-8.8v1.29h4.73V84.22Z"/><path class="cls-3" d="M65.33,162.56v-5.65H66a12.34,12.34,0,0,0,5.08,1q9.07,0,10.09-9.45A15.34,15.34,0,0,1,73.32,151a11.15,11.15,0,0,1-7.88-2.77c-2-1.84-3-4.46-3-7.84A11.08,11.08,0,0,1,66,131.91a13.23,13.23,0,0,1,9.31-3.3q6.39,0,9.83,3.9t3.45,11.43q0,9.21-4.56,14.18t-13.22,5A22.57,22.57,0,0,1,65.33,162.56Zm15.9-17.67c0-.15,0-.48,0-1s0-.87,0-1.12q0-9.22-6-9.23a5,5,0,0,0-4,1.73,7,7,0,0,0-1.51,4.78q0,6,6.41,6A12.07,12.07,0,0,0,81.23,144.89Z"/><path class="cls-3" d="M120.27,154.14h-4.72v8.31h-7v-8.31H92.49v-5.82l15.77-19h7.29V149h4.72Zm-11.7-5.1v-13L97.79,149Z"/><path class="cls-3" d="M132.68,149.53q0,6-5.18,6t-5.23-5.94q0-5.93,5.23-5.92C131,143.63,132.68,145.59,132.68,149.53Zm-3.17,0a6.59,6.59,0,0,0-.39-2.67,1.88,1.88,0,0,0-3.29,0,6.72,6.72,0,0,0-.37,2.66,8.59,8.59,0,0,0,.23,2.38,1.72,1.72,0,0,0,1.78,1.25,1.66,1.66,0,0,0,1.66-1A6.77,6.77,0,0,0,129.51,149.55ZM141.2,144l-10.92,18.4h-2.94L138.26,144Zm5,12.75q0,6-5.18,6t-5.23-6c0-3.94,1.74-5.92,5.23-5.92S146.2,152.8,146.2,156.73Zm-3.17,0a6.62,6.62,0,0,0-.39-2.67,1.89,1.89,0,0,0-3.29,0,6.72,6.72,0,0,0-.37,2.66,8.07,8.07,0,0,0,.24,2.38,1.71,1.71,0,0,0,1.77,1.25,1.67,1.67,0,0,0,1.66-.95A6.79,6.79,0,0,0,143,156.75Z"/><line class="cls-4" x1="29.2" y1="113.03" x2="178.18" y2="113.03"/><ellipse class="cls-1" cx="314.1" cy="108.03" rx="103.69" ry="108.03"/><ellipse class="cls-5" cx="314.1" cy="108.03" rx="94.69" ry="99.03"/><path class="cls-3" d="M288,62.81h-8.54V68h-3.52V62.81H265V59.89h3.17V55.43q-.72.74-1.53,1.44l-2.36-2.13a21.32,21.32,0,0,0,3.76-4.4,19,19,0,0,0,2.4-5.11l3.51.53c-.25.83-.5,1.56-.76,2.21h14.18v2.82h-8v2.85h7v2.82h-7v3.43H288Zm-16.21-12a25.45,25.45,0,0,1-2,2.85h6.15V50.79Zm-.12,9.1h4.27V56.46h-4.27Z"/><path class="cls-3" d="M300.4,55h-6.66V68H290.5V46.26h9.9Zm-3-5.15V48.26h-3.65v1.55Zm0,3.22V51.46h-3.65V53Zm1.75,13.38V67H296V56.27h10.56V66.41Zm4.2-6.32V58.42h-4.2v1.67ZM299.14,64h4.2V62.09h-4.2Zm13.3,1.6a2,2,0,0,1-.8,1.59,3,3,0,0,1-1.94.64h-2.46L306.91,65h1.53a.84.84,0,0,0,.54-.2.64.64,0,0,0,.25-.5V55h-6.89v-8.7h10.1Zm-7-15.75h3.83V48.26H305.4Zm3.83,1.65H305.4V53h3.83Z"/><path class="cls-3" d="M324,65.22h-4.27v1.41h-2.82v-7c-.26.41-.52.79-.8,1.15l-1.89-1.63a23.25,23.25,0,0,0,3.62-9.82H315V46.76h9.57v2.53H321a26.24,26.24,0,0,1-.81,3.82H324Zm-2.82-2.41V55.49h-1.45v7.32Zm9.36-5.25q-.33,6.54-3.9,10.45l-2.45-1.77a12.31,12.31,0,0,0,2-3.31,15.09,15.09,0,0,0,1.07-5.37h-2.51V54.72h2.54V49.38h-1.92V46.66h13.07v2.72h-1.8v5.34h2.08v2.84h-2.08V67.72h-3.32V57.56Zm0-8.18v5.34h2.75V49.38Z"/><path class="cls-3" d="M345.36,68h-3V58a12.25,12.25,0,0,1-1.11,1.62l-1.84-1.67A32.52,32.52,0,0,0,342.05,52a32.91,32.91,0,0,0,1.57-6.22l3.11.38A31.09,31.09,0,0,1,344.82,53h.54Zm3.69-3.55h-2.71V49.57h2.71Zm15-1.62a25.19,25.19,0,0,1-6.77,3.35,37.48,37.48,0,0,1-8.52,1.92L348,65.53a34.06,34.06,0,0,0,8.36-2A26,26,0,0,0,362,60.79Zm-7.81-17a16.91,16.91,0,0,1-.71,1.78h7.83V50h-1.56a9.51,9.51,0,0,1-2.43,3.43,22.75,22.75,0,0,0,4.84,1.24l-1.41,2.51a19.16,19.16,0,0,1-6-2,22.73,22.73,0,0,1-6.7,2.07l-.78-2.36a20.15,20.15,0,0,0,5.08-1.4,9.68,9.68,0,0,1-1.57-1.75,15.71,15.71,0,0,1-1.7,1.74l-2-1.62a16.82,16.82,0,0,0,2.42-3,13.16,13.16,0,0,0,1.66-3.41Zm2.85,11.38a24,24,0,0,1-4.27,2.28A27.28,27.28,0,0,1,350.35,61l-1.18-2.23a25.36,25.36,0,0,0,4.61-1.52A16,16,0,0,0,357,55.51Zm3.23,2.26a28,28,0,0,1-5.61,2.9,38.58,38.58,0,0,1-6.57,2.09l-.88-2.29a30.49,30.49,0,0,0,10.68-4.44ZM356.78,52a7,7,0,0,0,1.76-2h-3.66A9.75,9.75,0,0,0,356.78,52Z"/><path class="cls-3" d="M301.4,92.87a12.4,12.4,0,0,1-4.46,3.34,20.07,20.07,0,0,1-6.31,1.8l-1.06-2.72A24.49,24.49,0,0,0,295,93.75a11.57,11.57,0,0,0,3.13-2h-7.89V89.16h9.31V87.84H292V85.37h7.54V84h-7.61V82.44h-1.61V77.56h9.22V75.69H303v1.87h9.55v4.88h-1.71V84h-7.69v1.36h8.47v2.47h-8.47v1.32h9.75v2.58h-8.46a13.33,13.33,0,0,0,3.44,2,25.07,25.07,0,0,0,5.5,1.22l-1.38,3a17.76,17.76,0,0,1-6-1.64A13.67,13.67,0,0,1,301.4,92.87Zm-1.85-11.25v-.93h3.59v.93h6.61V79.91H293.14v1.71Z"/><path class="cls-3" d="M318.07,89.42a39.42,39.42,0,0,1-.58,3.9,21,21,0,0,1-.83,3.26l-2.13-.52a33.89,33.89,0,0,0,1.1-6.8Zm3.34,8.64h-2.92V88.34c-1.47.15-2.61.24-3.44.27l-.3-2.4c.44,0,1,0,1.75,0,.43-.55.91-1.22,1.45-2-1.12-1.33-2.22-2.57-3.3-3.7l1.68-1.79.38.39a23.83,23.83,0,0,0,2-3.66l2.54,1a31.28,31.28,0,0,1-2.86,4.45l1.06,1.18a30.43,30.43,0,0,0,2.31-4l2.52,1.17A60.92,60.92,0,0,1,319.57,86c.9,0,1.68-.11,2.35-.18a14.28,14.28,0,0,0-.61-1.71l2.21-.65q.6,1.65,1.48,4.66l-2.29.59q0-.21-.21-.9c-.3.06-.67.11-1.09.17Zm3.47-4-2.34.44c-.21-1.42-.43-3.11-.68-5.07l2.24-.35Zm5.64,1.62A13.83,13.83,0,0,1,327.73,97a20.86,20.86,0,0,1-3.28.93l-.91-2.3a21.31,21.31,0,0,0,4.62-1.47H325.3V85h12.29v9.13h-2.76a29.07,29.07,0,0,0,4.25,1.39L337.87,98a22.53,22.53,0,0,1-5.7-2.27l1.08-1.55h-3.77Zm8-11.61H324.5v-2h5.35v-.81h-4.47V79.64h4.47v-.88h-4.94v-1.9h4.94V75.71h3.26v1.15h5.08v1.9h-5.08v.88h4.43v1.67h-4.43v.81h5.44Zm-4.07,3.68v-1h-6.19v1Zm-6.19,2.3h6.19V89h-6.19Zm6.19,1.3h-6.19v1.12h6.19Z"/><path class="cls-3" d="M282.66,162.38H261.48v-4.83h7.13V138.39h-7.13V134q4.25,0,6-1.18a4.61,4.61,0,0,0,2-3.57h6.16v28.35h7Z"/><path class="cls-3" d="M289.24,161v-6.24H290a19.3,19.3,0,0,0,9.47,2.88,9.08,9.08,0,0,0,5.46-1.44,4.88,4.88,0,0,0,2-4.2,4.07,4.07,0,0,0-1.53-3.4c-1-.8-3.14-1.2-6.35-1.2H297v-5h1.84c4.94,0,7.42-1.51,7.42-4.51a3.17,3.17,0,0,0-1.59-2.87,8.71,8.71,0,0,0-4.53-1q-4,0-9.28,2.81h-.66v-6.18a30.94,30.94,0,0,1,10.8-2.08c4.09,0,7.19.74,9.29,2.24a7,7,0,0,1,3.14,6,7.33,7.33,0,0,1-1.74,4.85,8.52,8.52,0,0,1-4.66,2.78v.3a9.5,9.5,0,0,1,5.28,2.59,7,7,0,0,1,1.94,5.13,9.29,9.29,0,0,1-3.71,7.73q-3.71,2.91-10.05,2.9A29.43,29.43,0,0,1,289.24,161Z"/><path class="cls-3" d="M332.39,163.08q-6.78,0-9.95-4.1t-3.16-13.15q0-9,3.18-13.09t9.93-4.13q6.76,0,9.94,4.12c2.12,2.74,3.18,7.11,3.18,13.08s-1.05,10.48-3.16,13.2S336.93,163.08,332.39,163.08Zm0-29.35a4.54,4.54,0,0,0-4.42,2.89c-.9,1.92-1.34,5-1.34,9.24s.46,7.29,1.37,9.22a4.77,4.77,0,0,0,8.79,0q1.36-2.94,1.37-9.23t-1.34-9.2A4.56,4.56,0,0,0,332.39,133.73Z"/><path class="cls-3" d="M354.53,163.88h-3.34v-10.7c-.46.68-1.07,1.47-1.81,2.38l-2.09-1.92a33.51,33.51,0,0,0,3.28-5.2,33.17,33.17,0,0,0,2.81-7.08l3.38.6a30.86,30.86,0,0,1-2.79,6.65h.56Zm11-.27H362v-7.7h-6.6V153H362v-4.65h-2.69a26.3,26.3,0,0,1-1.9,3.45l-2.68-1.4a18.16,18.16,0,0,0,1.74-3.72,28.48,28.48,0,0,0,1.26-4.48l3.31.35a27.82,27.82,0,0,1-.77,3H362v-3.85h3.54v3.85h5.3v2.8h-5.3V153h6.11v2.95h-6.11Z"/><line class="cls-4" x1="239.61" y1="113.03" x2="388.59" y2="113.03"/></g></g></svg>