<svg xmlns="http://www.w3.org/2000/svg" viewBox="0 0 90 90"><defs><style>.cls-1,.cls-2,.cls-5{fill:#5e5e5e;}.cls-2,.cls-3{stroke:#fff;}.cls-2{stroke-linecap:round;stroke-linejoin:round;stroke-width:3px;}.cls-3,.cls-4{fill:#fff;}.cls-3,.cls-5{stroke-miterlimit:10;}.cls-5{stroke:#5e5e5e;}</style></defs><g id="レイヤー_2" data-name="レイヤー 2"><g id="レイヤー_7" data-name="レイヤー 7"><circle class="cls-1" cx="45" cy="45" r="45"/><polygon class="cls-2" points="63.18 42.85 27.48 42.85 31.18 26.99 59.48 26.99 63.18 42.85"/><rect class="cls-3" x="27.5" y="57.01" width="4" height="6" rx="0.97"/><rect class="cls-3" x="59.5" y="57.01" width="4" height="6" rx="0.97"/><rect class="cls-4" x="21.38" y="39.71" width="47.25" height="18.83" rx="1.34"/><path class="cls-4" d="M67.28,40.21a.84.84,0,0,1,.84.84V57.2a.84.84,0,0,1-.84.84H22.72a.84.84,0,0,1-.84-.84V41.05a.84.84,0,0,1,.84-.84H67.28m0-1H22.72a1.84,1.84,0,0,0-1.84,1.84V57.2A1.84,1.84,0,0,0,22.72,59H67.28a1.84,1.84,0,0,0,1.84-1.84V41.05a1.84,1.84,0,0,0-1.84-1.84Z"/><circle class="cls-5" cx="29.64" cy="51.13" r="3.15"/><circle class="cls-5" cx="61.64" cy="51.13" r="3.15"/></g></g></svg>