<svg xmlns="http://www.w3.org/2000/svg" viewBox="0 0 90 90"><defs><style>.cls-1{fill:#53538c;}.cls-2,.cls-3{fill:#fff;}.cls-3{stroke:#fff;stroke-miterlimit:10;}</style></defs><g id="レイヤー_2" data-name="レイヤー 2"><g id="レイヤー_2-2" data-name="レイヤー 2"><circle class="cls-1" cx="45" cy="45" r="45"/><path class="cls-1" d="M44.18,60.58a2.78,2.78,0,0,1-2.35-4.27l13.39-21a2.78,2.78,0,0,1,4.69,0l13.38,21A2.78,2.78,0,0,1,71,60.58Z"/><path class="cls-2" d="M57.56,35.53a1.25,1.25,0,0,1,1.08.6L72,57.11a1.25,1.25,0,0,1,0,1.31,1.23,1.23,0,0,1-1.12.66H44.18a1.28,1.28,0,0,1-1.08-2l13.38-21a1.25,1.25,0,0,1,1.08-.6m0-3a4.25,4.25,0,0,0-3.61,2l-13.38,21a4.28,4.28,0,0,0,3.61,6.58H71a4.28,4.28,0,0,0,3.61-6.58l-13.39-21a4.24,4.24,0,0,0-3.61-2Z"/><path class="cls-1" d="M21.05,60.58a2.78,2.78,0,0,1-2.34-4.27L37.59,26.7a2.79,2.79,0,0,1,4.69,0L61.16,56.31a2.78,2.78,0,0,1-2.35,4.27Z"/><path class="cls-2" d="M39.93,26.92a1.24,1.24,0,0,1,1.08.59l18.88,29.6a1.28,1.28,0,0,1-1.08,2H21.05a1.23,1.23,0,0,1-1.12-.66,1.25,1.25,0,0,1,0-1.31l18.88-29.6a1.24,1.24,0,0,1,1.08-.59m0-3a4.25,4.25,0,0,0-3.61,2L17.44,55.5a4.28,4.28,0,0,0,3.61,6.58H58.81a4.28,4.28,0,0,0,3.61-6.58L43.54,25.9a4.24,4.24,0,0,0-3.61-2Z"/><path class="cls-3" d="M47.58,36.56,59.94,54c2.16,2.85-.27,6.59-4.29,6.59H23.85c-4,0-6.45-3.74-4.29-6.59L30.72,37.56l5.53,4,4-4,3,4Z"/></g></g></svg>