<svg xmlns="http://www.w3.org/2000/svg" viewBox="0 0 90 90"><defs><style>.cls-1{fill:#5e9e6c;}.cls-2{fill:#fff;stroke:#fff;stroke-linecap:round;stroke-linejoin:round;stroke-width:3px;}.cls-3{fill:#60ad75;}</style></defs><g id="レイヤー_2" data-name="レイヤー 2"><g id="レイヤー_3" data-name="レイヤー 3"><circle class="cls-1" cx="45" cy="45" r="45"/><path class="cls-2" d="M32.14,58.69S13.5,22.5,62.33,28.2C62.5,43.5,62.5,68.5,32.14,58.69Z"/><path class="cls-2" d="M28.48,63.46S36.2,45.72,58.24,31"/><path class="cls-1" d="M27,61a38.91,38.91,0,0,1,5-9.43A56.12,56.12,0,0,1,47.42,36.75,43.64,43.64,0,0,1,57,32c-2.76,2.29-5.55,4.36-8.19,6.63s-5.21,4.56-7.71,6.95S36.22,50.47,33.87,53,29.25,58.24,27,61Z"/><path class="cls-3" d="M34.33,56.19a4.53,4.53,0,0,1,2.17-1.58,6.5,6.5,0,0,1,4.9.24,5,5,0,0,1,2,1.69,9.22,9.22,0,0,1-2.45.63,12.15,12.15,0,0,1-2.16.07A13.39,13.39,0,0,1,36.7,57,14,14,0,0,1,34.33,56.19Z"/><path class="cls-3" d="M38.75,51.11a4.42,4.42,0,0,1,2.16-1.57,6.47,6.47,0,0,1,2.49-.37,6.39,6.39,0,0,1,2.42.6,5,5,0,0,1,2,1.69,8.86,8.86,0,0,1-2.45.63,13.23,13.23,0,0,1-4.29-.21A14,14,0,0,1,38.75,51.11Z"/></g></g></svg>