<svg xmlns="http://www.w3.org/2000/svg" viewBox="0 0 90 90"><defs><style>.cls-1{fill:#45637c;}.cls-2{fill:#fff;}.cls-3,.cls-4{fill:none;stroke:#fff;stroke-miterlimit:10;}.cls-4{stroke-width:3px;}</style></defs><g id="レイヤー_2" data-name="レイヤー 2"><g id="レイヤー_5" data-name="レイヤー 5"><circle class="cls-1" cx="45" cy="45" r="45"/><path class="cls-2" d="M41.67,62.81H28.35a.51.51,0,0,1-.55-.48L29,33.26a.52.52,0,0,1,.55-.45H41.67a.51.51,0,0,1,.55.47V62.35A.51.51,0,0,1,41.67,62.81Z"/><path class="cls-1" d="M40.48,61.15H29.56a.59.59,0,0,1-.64-.56l1-15.08a.59.59,0,0,1,.63-.51h10a.59.59,0,0,1,.63.54V60.62A.59.59,0,0,1,40.48,61.15Z"/><polygon class="cls-2" points="42.22 58.34 28.89 58.34 30 42.19 42.22 42.19 42.22 58.34"/><rect class="cls-2" x="32.22" y="28.13" width="7.78" height="4.69"/><rect class="cls-2" x="31.11" y="27.19" width="10" height="0.94" rx="0.47"/><path class="cls-2" d="M48.33,62.81H61.65a.51.51,0,0,0,.55-.48L61,33.26a.52.52,0,0,0-.55-.45H48.33a.51.51,0,0,0-.55.47V62.35A.51.51,0,0,0,48.33,62.81Z"/><path class="cls-1" d="M49.52,61.15H60.44a.59.59,0,0,0,.64-.56l-1-15.08a.59.59,0,0,0-.63-.51h-10a.59.59,0,0,0-.63.54V60.62A.59.59,0,0,0,49.52,61.15Z"/><polygon class="cls-2" points="47.78 58.34 61.11 58.34 60 42.19 47.78 42.19 47.78 58.34"/><rect class="cls-2" x="50" y="28.13" width="7.78" height="4.69" transform="translate(107.78 60.94) rotate(-180)"/><rect class="cls-2" x="48.89" y="27.19" width="10" height="0.94" rx="0.47" transform="translate(107.78 55.31) rotate(180)"/><line class="cls-3" x1="40" y1="35.85" x2="51.11" y2="35.85"/><line class="cls-4" x1="40" y1="39.49" x2="51.11" y2="39.49"/></g></g></svg>