<svg xmlns="http://www.w3.org/2000/svg" viewBox="0 0 1480.46 1483.21"><defs><style>.cls-1{fill:#e47a7e;}.cls-2{fill:#ea9696;}.cls-3{fill:#f2c0bd;}</style></defs><g id="レイヤー_2" data-name="レイヤー 2"><g id="レイヤー_1-2" data-name="レイヤー 1"><path class="cls-1" d="M381.16,154.12Q37.69,608.77,394.54,1051.19C209.78,1062.53,10.34,841.13.34,612.93-9.22,394.65,182.13,163.14,381.16,154.12Z"/><path class="cls-2" d="M802.47,320.05c165.11-100.46,422-78.62,581.64,116.69,141.06,172.54,126.57,446.07-39.1,605.86C1361.17,867,1322.66,710.42,1218.9,573,1114.94,435.4,975.32,353.52,802.47,320.05Z"/><path class="cls-1" d="M639.26,1434.53c391.86-137.57,522.63-321.38,522.93-731.81,108.72,67.66,200.24,311,98.62,520.59C1149.49,1452.86,870.59,1549.78,639.26,1434.53Z"/><path class="cls-2" d="M910.43,1154c-91.07,200.73-335,303.24-549.45,235.83-213.79-67.19-355.27-290-315-500.6C264,1201,551.35,1286.74,910.43,1154Z"/><path class="cls-3" d="M331.51,538.53c-22.35-136.61,7.15-254.88,86.87-357.13C530,38.2,680.78-21.08,860.23,6.63c145,22.39,252.27,103.31,332,237.43C826.15,123.58,543.19,218.27,331.51,538.53Z"/></g></g></svg>