<svg xmlns="http://www.w3.org/2000/svg" viewBox="0 0 1469.62 1339.55"><defs><style>.cls-1{fill:#f2c0bd;}.cls-2{fill:#fff;}</style></defs><g id="レイヤー_2" data-name="レイヤー 2"><g id="レイヤー_1-2" data-name="レイヤー 1"><path class="cls-1" d="M1462,1330c-76-38.36-166.32-67.19-268.72-85.73-95.46-17.29-203.66-26.06-321.61-26.06-122.48,0-258.47,9.46-404.19,28.1C352.39,1261.06,228,1282,97.69,1308.49A78.57,78.57,0,0,1,82,1310.1h0a77.29,77.29,0,0,1-75-94.2c56.25-250.62,130.78-466.68,221.5-642.19C306.28,423.1,397.22,300,498.71,207.92,683.51,40.21,868.7,5,991.51,5,1065.27,5,1116,17.92,1127.8,21.24Z"/><path class="cls-2" d="M991.51,10c68.4,0,116.76,11.2,132.17,15.29l330.8,1295.41c-74.33-36.16-161.76-63.49-260.27-81.33-95.74-17.34-204.24-26.14-322.52-26.14-122.69,0-258.9,9.47-404.83,28.14-115.24,14.75-239.78,35.68-370.17,62.22A73.82,73.82,0,0,1,82,1305.1,72.29,72.29,0,0,1,11.81,1217C40.82,1087.74,75,966.7,113.23,857.24,149,755.08,189.21,660.47,232.86,576c40.4-78.17,84.69-149.51,131.64-212,43-57.32,89.31-108.57,137.53-152.34C685.65,45,869.54,10,991.46,10h0m0-10C746.35,0,243.38,139.65,2.05,1214.8c-11.79,52.55,28.87,100.3,79.9,100.3a83.38,83.38,0,0,0,16.74-1.71c223-45.39,504.53-90.15,773-90.16,221.62,0,434.32,30.5,597.93,116.32L1131.94,17.24S1077.6,0,991.51,0Z"/></g></g></svg>