<?xml version="1.0" encoding="utf-8"?>
<!-- Generator: Adobe Illustrator 24.0.1, SVG Export Plug-In . SVG Version: 6.00 Build 0)  -->
<svg version="1.1" id="_x32_" xmlns="http://www.w3.org/2000/svg" xmlns:xlink="http://www.w3.org/1999/xlink" x="0px" y="0px"
	 viewBox="0 0 512 512" style="enable-background:new 0 0 512 512;" xml:space="preserve">
<style type="text/css">
	.st0{fill:#DB444A;}
</style>
<g>
	<path class="st0" d="M471.2,324.3l-42.8-3.5l-76.5-96.9c-4.6-7.3-11.4-14.4-20-21.3c-7.2-5.6-15.6-10.7-24.3-14.9
		c23.6-27.3,24-51.9-14-44.3c68.9-21.2,124.6-82.2,98.1-127.2c-26.5-45.1-104.9,9.1-151.1,103.4c-5.2,10.6-16,31.3-30.2,57.8H202
		h-24.1c-12.5,0.5-23,2.7-32.1,6.7c-9.2,4-17.3,10.2-24.2,18.4l-46.3,43.9c-0.1,0.1-0.3,0.3-0.4,0.4c-8.6,8.1-14.8,17.9-18.3,29.2
		c-2.7,8.7-3.5,16.9-4.2,23.6l-0.2,2.2l-11.8,86.9c-1.3,5.6-2,10.9-2,15.9c0,15.4,6.3,25,10.1,29.3c3.2,3.7,7,6.7,10.7,8.6
		c2.1,1.2,4.2,2,6.5,2.5c-17.7,32.5-29.3,53.7-29.3,53.7c-2.7,10.6,8,21.2,18.6,5.3c4.4-6.6,20.7-34.2,39.9-66.9
		c3.3-2.5,6.6-5.6,10.1-9.8c1.5-1.8,2.8-3.6,4-5.4c4.6,3.6,11.6,7.4,21.2,8.1c1.5,2.2,3.2,4.3,5,6.2c3.8,3.8,11.7,10.2,23.8,11.4
		c0.8,0.9,1.6,1.9,2.5,2.8c4.6,4.9,15,13.1,33.4,13.1c6.5,0,13.7-1.1,21.5-3.2c5.5,3.9,11.1,7.1,17.2,9.9
		c17,7.7,35.6,11.5,52.8,14.4c0.1,0,0.5,0.1,0.6,0.1c13.2,2.1,29.4,3.2,48.3,3.2c29.6,0,56.7-2.7,61-3.1l73.8,7.6c0.2,0,0.4,0,0.5,0
		c1.3,0,2.6-0.5,3.6-1.4c1.1-1,1.8-2.4,1.8-3.9V329.6C476,326.8,473.9,324.5,471.2,324.3z M108.9,415.4c-0.3,0-0.7,0-1,0.1
		c-0.2,0-0.4,0.2-0.6,0.2c0.3-0.6,0.7-1.1,1-1.7c0.2,0.2,0.4,0.4,0.6,0.6c0.3,0.3,0.6,0.6,1,0.9
		C109.6,415.6,109.3,415.4,108.9,415.4z M104.7,327.8c-2.9,4.9-4.3,10.4-4.3,15.8c0,7.2,2.5,14.3,7.4,20l0.1,0.1l1,1.1l0.1,0.1
		l0.2,0.2c-12.4,23-24.2,44.7-34.6,63.7c-1.5,0.5-2.8,0.8-3.7,0.8l-0.5,0c-1,0-1.9-0.2-3.4-1.1l-0.3-0.2l-0.3-0.1l-0.5-0.3
		c-1.2-0.7-4-2.6-6.6-6.2c-2.5-3.6-4.8-9-4.9-17.2c0-3.6,0.5-7.9,1.6-12.7l0.1-0.3l12-87.8l0-0.1c0.7-7.3,1.4-15.1,3.8-22.9
		c2.4-7.8,6.5-15.5,14.4-22.8l0.1-0.1l46.8-44.4l0.2-0.3c5.5-6.8,11.6-11.4,18.9-14.6c7.3-3.2,15.9-4.9,26.3-5.3h23.3
		c-16.7,31.3-36.7,68.4-57,105.9c-1.2-0.5-2.5-1.1-4-1.8c-4-1.9-8.9-4.3-12.8-6.2c-3.9-1.9-6.7-3.3-6.7-3.3l-4.7,9.5
		c0,0,5.1,2.5,10.9,5.4c1.1,0.5,2.3,1.1,3.4,1.7c-0.2,0-0.4,0.1-0.6,0.1c0,0,0,0-0.1,0c0,0,0,0,0,0c-8.5,1.8-15.7,7-20.1,14.2
		L104.7,327.8z M133,414.1c-7.9,0-13-3.3-16.5-6.9c-1-1-1.7-1.9-2.4-2.8c4.7-7.9,9.4-15.9,13.9-23.6l30.9,23.9
		C147.9,411.8,139.3,414.1,133,414.1z M146.5,424.9c-0.6-0.7-1.2-1.3-1.7-1.9c6.9-1.9,14.5-5.6,23-11.4l17.2,13.2
		c-9.2,5.2-16.4,7-21.9,7C155.1,431.8,150,428.4,146.5,424.9z M194.8,447.4c-10.3,0-16.4-3.2-20.4-6.6c5.9-1.6,12.4-4.5,19.5-9
		l2.5,1.9c3.5,4.5,7.2,8.6,11,12.2C202.7,446.9,198.5,447.4,194.8,447.4z M460.1,475.3l-63.8-6.5l-0.5,0.1c0,0-1.8,0.2-5,0.5
		c-9.6,0.9-31.8,2.6-55.5,2.6c-15.8,0-32.3-0.8-45.9-3.1l-2.6-0.4l2.6,0.4c-19.5-3.3-35.5-7-49.2-13.3c-6.6-3.1-12.7-6.7-18.4-11.2
		l-0.9-2.4c-0.5,0.2-1,0.3-1.5,0.5c-5.3-4.4-10.3-9.6-15.1-15.9l-0.4-0.6L134,372l-13.9-10.7l-3.4-3.5l-0.9-1.1
		c-3.2-3.7-4.8-8.4-4.8-13.1c0-3.6,0.9-7.1,2.8-10.4l5.4-9c3-4.8,7.8-8.3,13.3-9.4l0.1,0c1.3-0.3,2.6-0.4,3.9-0.4
		c0.8,0,1.5,0.1,2.2,0.1l0.1,0c1.2,0.1,2.2,0.3,3.1,0.6h0c2.3,0.6,4.4,1.7,6.5,3.1l0.3,0.2l13,6.9l58.2,30.8l30.2-1.6l-0.6-10.6
		l-27.3,1.4L167,316.1c0.7-1.1,1.3-2.1,2-3.1c26.5-13.3,140.5-98.1,53-71.6c30.1-9.1,55.7-25.1,73.7-41.7c0.7,0.3,1.3,0.5,2,0.8
		l0.1,0c8.5,3.8,17,8.9,24.2,14.5c7.2,5.7,13.2,11.9,16.8,17.8l0.2,0.3L420.1,336l40,3.3L460.1,475.3L460.1,475.3z"/>
</g>
</svg>
