<!--?xml version="1.0" encoding="utf-8"?-->
<!-- Generator: Adobe Illustrator 18.1.1, SVG Export Plug-In . SVG Version: 6.00 Build 0)  -->

<svg version="1.1" id="_x32_" xmlns="http://www.w3.org/2000/svg" xmlns:xlink="http://www.w3.org/1999/xlink" x="0px" y="0px" viewBox="0 0 512 512" style="width: 256px; height: 256px; opacity: 1;" xml:space="preserve">
<style type="text/css">
	.st0{fill:#4B4B4B;}
</style>
<g>
	<path class="st0" d="M451.165,111.635c-83.342,11.482-170.429,213.09-209.71,285.45c-9.866,18.18,13.082,33.353,23.231,15.95
		c7.317-12.506,47.229-91.28,47.229-91.28c43.475,1.434,59.508-28.922,42.132-47.778c58.429,1.206,87.388-30.95,70.818-50.464
		c17.429,5.518,32.521,1.827,54.939-10.396C527.636,187.028,525.408,99.695,451.165,111.635z" style="fill: rgb(255, 255, 255);"></path>
	<path class="st0" d="M288.904,427.204c-7.865,13.493-21.341,21.569-36.03,21.569c-14.507,0-28.237-7.929-35.837-20.7
		c-7.966-13.392-8.058-29.973-0.247-44.37c6.038-11.137,13.319-25.562,21.751-42.26c37.19-73.703,74.316-143.379,113.808-191.777
		V26.814H0v458.373h352.348V342.42c-6.888,3.033-14.461,5.28-22.729,6.44C317.488,372.731,294.686,417.33,288.904,427.204z
		 M73.274,139.068h168.382v28.064H73.274V139.068z M73.274,241.968h168.382v28.064H73.274V241.968z M176.174,372.932h-102.9v-28.064
		h102.9V372.932z" style="fill: rgb(255, 255, 255);"></path>
</g>
</svg>
