<svg xmlns="http://www.w3.org/2000/svg" xmlns:xlink="http://www.w3.org/1999/xlink" viewBox="0 0 2192 2078.84"><defs><style>.cls-1{fill:none;}.cls-2{clip-path:url(#clip-path);}.cls-3{fill:#4d4d4d;}</style><clipPath id="clip-path" transform="translate(1064.5 1756.5)"><rect class="cls-1" width="710" height="349"/></clipPath></defs><g id="レイヤー_2" data-name="レイヤー 2"><g id="レイヤー_1-2" data-name="レイヤー 1"><g class="cls-2"><path class="cls-3" d="M-104.5-1630.5A956.91,956.91,0,0,1,87-1611.2a945,945,0,0,1,178.31,55.35,950.37,950.37,0,0,1,161.37,87.59,957.43,957.43,0,0,1,140.6,116,957.43,957.43,0,0,1,116,140.6,950.37,950.37,0,0,1,87.59,161.37A945,945,0,0,1,826.2-872,956.91,956.91,0,0,1,845.5-680.5,956.91,956.91,0,0,1,826.2-489a945,945,0,0,1-55.35,178.31,950.37,950.37,0,0,1-87.59,161.37,957.43,957.43,0,0,1-116,140.6,957.43,957.43,0,0,1-140.6,116,950.37,950.37,0,0,1-161.37,87.59A945,945,0,0,1,87,250.2,956.91,956.91,0,0,1-104.5,269.5,956.91,956.91,0,0,1-296,250.2a945,945,0,0,1-178.31-55.35,950.37,950.37,0,0,1-161.37-87.59,957.43,957.43,0,0,1-140.6-116,957.43,957.43,0,0,1-116-140.6,950.37,950.37,0,0,1-87.59-161.37A945,945,0,0,1-1035.2-489a956.91,956.91,0,0,1-19.3-191.47A956.91,956.91,0,0,1-1035.2-872a945,945,0,0,1,55.35-178.31,950.37,950.37,0,0,1,87.59-161.37,957.43,957.43,0,0,1,116-140.6,957.43,957.43,0,0,1,140.6-116,950.37,950.37,0,0,1,161.37-87.59A945,945,0,0,1-296-1611.2a956.91,956.91,0,0,1,191.47-19.3m0-10c-530.19,0-960,429.81-960,960s429.81,960,960,960,960-429.81,960-960-429.81-960-960-960Z" transform="translate(1064.5 1756.5)"/><path class="cls-3" d="M167.5-1751.5A962.34,962.34,0,0,1,360-1732.1a950,950,0,0,1,179.26,55.65,954.68,954.68,0,0,1,162.22,88,962.15,962.15,0,0,1,141.34,116.61A962.15,962.15,0,0,1,959.4-1330.45a954.68,954.68,0,0,1,88.05,162.22A950,950,0,0,1,1103.1-989a962.34,962.34,0,0,1,19.4,192.47A962.34,962.34,0,0,1,1103.1-604a950,950,0,0,1-55.65,179.26A954.68,954.68,0,0,1,959.4-262.55,962.15,962.15,0,0,1,842.79-121.21,962.15,962.15,0,0,1,701.45-4.6,954.68,954.68,0,0,1,539.23,83.45,950,950,0,0,1,360,139.1,962.34,962.34,0,0,1,167.5,158.5,962.34,962.34,0,0,1-25,139.1,950,950,0,0,1-204.23,83.45a954.68,954.68,0,0,1-162.22-88A962.15,962.15,0,0,1-507.79-121.21,962.15,962.15,0,0,1-624.4-262.55a954.68,954.68,0,0,1-88.05-162.22A950,950,0,0,1-768.1-604,962.34,962.34,0,0,1-787.5-796.5,962.34,962.34,0,0,1-768.1-989a950,950,0,0,1,55.65-179.26,954.68,954.68,0,0,1,88.05-162.22,962.15,962.15,0,0,1,116.61-141.34A962.15,962.15,0,0,1-366.45-1588.4a954.68,954.68,0,0,1,162.22-88A950,950,0,0,1-25-1732.1a962.34,962.34,0,0,1,192.47-19.4m0-5c-530.19,0-960,429.81-960,960s429.81,960,960,960,960-429.81,960-960-429.81-960-960-960Z" transform="translate(1064.5 1756.5)"/><path class="cls-3" d="M160,240.5a7.5,7.5,0,1,0,7.5,7.5,7.5,7.5,0,0,0-7.5-7.5Z" transform="translate(1064.5 1756.5)"/><path class="cls-3" d="M242,143.5a7.5,7.5,0,1,0,7.5,7.5,7.5,7.5,0,0,0-7.5-7.5Z" transform="translate(1064.5 1756.5)"/><path class="cls-3" d="M45,135.5a7.5,7.5,0,1,0,7.5,7.5,7.5,7.5,0,0,0-7.5-7.5Z" transform="translate(1064.5 1756.5)"/><path class="cls-3" d="M494,108.5a7.5,7.5,0,1,0,7.5,7.5,7.5,7.5,0,0,0-7.5-7.5Z" transform="translate(1064.5 1756.5)"/><path class="cls-3" d="M324.08-95.08A293.84,293.84,0,0,1,379.3-17.74c1,1.77,1.71,3.64,2.57,5.45l2.53,5.5c.88,1.81,1.55,3.71,2.33,5.58L389,4.41l.58,1.41.5,1.43,1,2.86,2,5.74c.7,1.91,1.2,3.88,1.82,5.82l1.79,5.85A247.53,247.53,0,0,1,405.44,76L406,88.43c0,4.15,0,8.31-.1,12.48-.25,4.15-.4,8.33-.77,12.49s-.87,8.31-1.48,12.45a220.28,220.28,0,0,1-12.94,48.62,226.06,226.06,0,0,1-56.52,82.75q-4.71,4.17-9.46,8.27c-3.26,2.63-6.58,5.18-9.86,7.76s-6.85,4.79-10.27,7.18-7.07,4.43-10.6,6.61A248.46,248.46,0,0,1,249,307.7a279.58,279.58,0,0,1-96,14.57,288,288,0,0,1-48-5.1c-3.93-.86-7.88-1.62-11.79-2.58l-5.85-1.5-2.93-.75L83,312l-1.44-.44c-3.85-1.21-7.72-2.32-11.54-3.61l-5.71-2c-1.89-.69-3.82-1.29-5.68-2.09a269.87,269.87,0,0,1-82.88-50.57,248.53,248.53,0,0,1-33.41-36.48c-1.31-1.62-2.42-3.37-3.63-5.06l-3.57-5.12c-1.23-1.68-2.27-3.49-3.4-5.24L-71.57,196c-1.14-1.76-2.08-3.62-3.1-5.44l-3-5.49c-2-3.67-3.72-7.49-5.56-11.25-.94-1.88-1.68-3.84-2.52-5.76l-2.45-5.8c-.86-1.91-1.48-3.92-2.21-5.89l-2.12-5.93-.53-1.49-.46-1.5-.92-3-1.83-6c-1.12-4.05-2-8.16-3.06-12.24A256.75,256.75,0,0,1-87.63-23.67,246.57,246.57,0,0,1,53.92-163.22,230.06,230.06,0,0,1,153-177a250.3,250.3,0,0,1,48.55,8.86l5.86,1.79c1.94.63,3.91,1.13,5.82,1.84l5.75,2,2.87,1,1.43.51,1.41.58,5.63,2.28c1.86.78,3.77,1.45,5.59,2.34l5.49,2.53c1.82.87,3.69,1.62,5.46,2.58A289.06,289.06,0,0,1,324.08-95.08Zm-2.75,2.75a203.82,203.82,0,0,0-78.48-48.58C213.64-150.78,182.69-153.69,153-151a257.41,257.41,0,0,0-84.63,22.74A235.07,235.07,0,0,0-2-79,240.59,240.59,0,0,0-29.16-45.69,235.41,235.41,0,0,0-49.88-8,226.14,226.14,0,0,0-68.57,76a236.31,236.31,0,0,0,14.31,85.86l2,5.14c.66,1.71,1.24,3.47,2,5.14l2.2,5.07c.75,1.68,1.41,3.41,2.27,5l2.43,5c.82,1.66,1.56,3.37,2.49,5l2.67,4.88c.91,1.61,1.72,3.29,2.74,4.84A236,236,0,0,0-9.16,238.16a222.45,222.45,0,0,0,33.4,30.57c.74.59,1.5,1.16,2.29,1.68L28.88,272l4.7,3.22c1.55,1.11,3.21,2,4.83,3.05l4.87,3c1.61,1,3.33,1.85,5,2.77l5,2.71c3.37,1.79,6.88,3.3,10.33,4.93,1.72.85,3.52,1.49,5.28,2.22l5.32,2.16c1.76.77,3.6,1.28,5.4,1.92l5.44,1.85,1.36.45,1.38.4,2.76.78L96.12,303c3.71.95,7.47,1.71,11.2,2.57A205,205,0,0,0,153,309.73a207.54,207.54,0,0,0,87.74-21.92,227.24,227.24,0,0,0,37.91-23.72L283,260.6l2.18-1.71c.73-.57,1.44-1.15,2.13-1.77,2.77-2.46,5.59-4.83,8.3-7.33s5.35-5.06,8-7.63,5.06-5.34,7.61-8a265.82,265.82,0,0,0,47.58-72.95A273.35,273.35,0,0,0,373.1,119.8c.5-1.77.83-3.58,1.27-5.37l1.26-5.39,2.12-10.89,1.63-11L380.56,76A232.92,232.92,0,0,0,380,30.83c-.51-3.76-.91-7.56-1.53-11.33l-1-5.63-.52-2.82-.25-1.42-.33-1.4L375,2.65c-.47-1.86-.84-3.76-1.42-5.58L372-8.47c-.56-1.84-1.05-3.71-1.74-5.5a200,200,0,0,0-19.82-41.91A204,204,0,0,0,321.33-92.33Z" transform="translate(1064.5 1756.5)"/></g></g></g></svg>