<svg xmlns="http://www.w3.org/2000/svg" xmlns:xlink="http://www.w3.org/1999/xlink" viewBox="0 0 2107 2191"><defs><style>.cls-1{fill:none;}.cls-2{clip-path:url(#clip-path);}.cls-3{fill:#4d4d4d;}</style><clipPath id="clip-path" transform="translate(27.5 270.5)"><rect class="cls-1" width="446" height="529"/></clipPath></defs><g id="レイヤー_2" data-name="レイヤー 2"><g id="レイヤー_1-2" data-name="レイヤー 1"><g class="cls-2"><path class="cls-3" d="M932.5,10.5A956.91,956.91,0,0,1,1124,29.8a944.71,944.71,0,0,1,339.68,142.94,952.81,952.81,0,0,1,344.2,418A945,945,0,0,1,1863.2,769a959.41,959.41,0,0,1,0,382.94,944.71,944.71,0,0,1-142.94,339.68,952.81,952.81,0,0,1-418,344.2A945,945,0,0,1,1124,1891.2a959.41,959.41,0,0,1-382.94,0,944.71,944.71,0,0,1-339.68-142.94,952.81,952.81,0,0,1-344.2-418A945,945,0,0,1,1.8,1152,959.41,959.41,0,0,1,1.8,769,944.71,944.71,0,0,1,144.74,429.35a952.81,952.81,0,0,1,418-344.2A945,945,0,0,1,741,29.8,956.91,956.91,0,0,1,932.5,10.5m0-10c-530.19,0-960,429.81-960,960s429.81,960,960,960,960-429.81,960-960S1462.69.5,932.5.5Z" transform="translate(27.5 270.5)"/><path class="cls-3" d="M1119.5-265.5A962.34,962.34,0,0,1,1312-246.1a949.88,949.88,0,0,1,341.48,143.7,957.78,957.78,0,0,1,346,420.17A950,950,0,0,1,2055.1,497a964.46,964.46,0,0,1,0,384.94,949.88,949.88,0,0,1-143.7,341.48,957.78,957.78,0,0,1-420.17,346A950,950,0,0,1,1312,1625.1a964.46,964.46,0,0,1-384.94,0,949.88,949.88,0,0,1-341.48-143.7,957.78,957.78,0,0,1-346-420.17A950,950,0,0,1,183.9,882a964.46,964.46,0,0,1,0-384.94A949.88,949.88,0,0,1,327.6,155.55a957.78,957.78,0,0,1,420.17-346A950,950,0,0,1,927-246.1a962.34,962.34,0,0,1,192.47-19.4m0-5c-530.19,0-960,429.81-960,960s429.81,960,960,960,960-429.81,960-960-429.81-960-960-960Z" transform="translate(27.5 270.5)"/></g></g></g></svg>