<svg id="Twitter_Logo" xmlns="http://www.w3.org/2000/svg" width="28" height="28" viewBox="0 0 28 28">
  <rect id="長方形_43" data-name="長方形 43" width="28" height="28" fill="none"/>
  <path id="パス_104" data-name="パス 104" d="M10.753,21.111A10.146,10.146,0,0,0,20.969,10.9c0-.155,0-.31-.01-.464A7.305,7.305,0,0,0,22.75,8.573a7.167,7.167,0,0,1-2.062.565,3.6,3.6,0,0,0,1.578-1.986,7.2,7.2,0,0,1-2.28.871A3.594,3.594,0,0,0,13.868,11.3a10.193,10.193,0,0,1-7.4-3.751A3.593,3.593,0,0,0,7.58,12.34a3.564,3.564,0,0,1-1.63-.449v.046a3.592,3.592,0,0,0,2.881,3.52,3.585,3.585,0,0,1-1.621.062,3.594,3.594,0,0,0,3.354,2.493A7.2,7.2,0,0,1,6.1,19.55,7.309,7.309,0,0,1,5.25,19.5a10.165,10.165,0,0,0,5.5,1.61" fill="#040000"/>
</svg>
